G04 #@! TF.GenerationSoftware,KiCad,Pcbnew,7.0.9*
G04 #@! TF.CreationDate,2023-11-21T14:25:59-05:00*
G04 #@! TF.ProjectId,SCART2VGA,53434152-5432-4564-9741-2e6b69636164,rev?*
G04 #@! TF.SameCoordinates,Original*
G04 #@! TF.FileFunction,Copper,L1,Top*
G04 #@! TF.FilePolarity,Positive*
%FSLAX46Y46*%
G04 Gerber Fmt 4.6, Leading zero omitted, Abs format (unit mm)*
G04 Created by KiCad (PCBNEW 7.0.9) date 2023-11-21 14:25:59*
%MOMM*%
%LPD*%
G01*
G04 APERTURE LIST*
G04 Aperture macros list*
%AMRoundRect*
0 Rectangle with rounded corners*
0 $1 Rounding radius*
0 $2 $3 $4 $5 $6 $7 $8 $9 X,Y pos of 4 corners*
0 Add a 4 corners polygon primitive as box body*
4,1,4,$2,$3,$4,$5,$6,$7,$8,$9,$2,$3,0*
0 Add four circle primitives for the rounded corners*
1,1,$1+$1,$2,$3*
1,1,$1+$1,$4,$5*
1,1,$1+$1,$6,$7*
1,1,$1+$1,$8,$9*
0 Add four rect primitives between the rounded corners*
20,1,$1+$1,$2,$3,$4,$5,0*
20,1,$1+$1,$4,$5,$6,$7,0*
20,1,$1+$1,$6,$7,$8,$9,0*
20,1,$1+$1,$8,$9,$2,$3,0*%
%AMHorizOval*
0 Thick line with rounded ends*
0 $1 width*
0 $2 $3 position (X,Y) of the first rounded end (center of the circle)*
0 $4 $5 position (X,Y) of the second rounded end (center of the circle)*
0 Add line between two ends*
20,1,$1,$2,$3,$4,$5,0*
0 Add two circle primitives to create the rounded ends*
1,1,$1,$2,$3*
1,1,$1,$4,$5*%
%AMRotRect*
0 Rectangle, with rotation*
0 The origin of the aperture is its center*
0 $1 length*
0 $2 width*
0 $3 Rotation angle, in degrees counterclockwise*
0 Add horizontal line*
21,1,$1,$2,0,0,$3*%
G04 Aperture macros list end*
G04 #@! TA.AperFunction,SMDPad,CuDef*
%ADD10RoundRect,0.237500X-0.237500X0.250000X-0.237500X-0.250000X0.237500X-0.250000X0.237500X0.250000X0*%
G04 #@! TD*
G04 #@! TA.AperFunction,ComponentPad*
%ADD11HorizOval,0.900000X-0.047936X-0.547907X0.047936X0.547907X0*%
G04 #@! TD*
G04 #@! TA.AperFunction,SMDPad,CuDef*
%ADD12RotRect,1.600000X0.850000X355.000000*%
G04 #@! TD*
G04 #@! TA.AperFunction,ComponentPad*
%ADD13RoundRect,0.450000X-0.836176X-0.378563X0.757736X-0.518012X0.836176X0.378563X-0.757736X0.518012X0*%
G04 #@! TD*
G04 #@! TA.AperFunction,ComponentPad*
%ADD14HorizOval,0.900000X0.047936X0.547907X-0.047936X-0.547907X0*%
G04 #@! TD*
G04 #@! TA.AperFunction,ComponentPad*
%ADD15RoundRect,0.450000X0.836176X0.378563X-0.757736X0.518012X-0.836176X-0.378563X0.757736X-0.518012X0*%
G04 #@! TD*
G04 #@! TA.AperFunction,ComponentPad*
%ADD16R,1.700000X1.700000*%
G04 #@! TD*
G04 #@! TA.AperFunction,ComponentPad*
%ADD17C,1.700000*%
G04 #@! TD*
G04 #@! TA.AperFunction,ComponentPad*
%ADD18C,4.066000*%
G04 #@! TD*
G04 #@! TA.AperFunction,ComponentPad*
%ADD19O,1.700000X1.700000*%
G04 #@! TD*
G04 #@! TA.AperFunction,ViaPad*
%ADD20C,0.600000*%
G04 #@! TD*
G04 #@! TA.AperFunction,Conductor*
%ADD21C,0.400000*%
G04 #@! TD*
G04 APERTURE END LIST*
D10*
X148460000Y-102357500D03*
X148460000Y-104182500D03*
D11*
X139179336Y-108759270D03*
D12*
X139926082Y-109400967D03*
D13*
X140031745Y-108187370D03*
D11*
X140773247Y-108898719D03*
D14*
X138924824Y-103661226D03*
D15*
X139669486Y-104328668D03*
D12*
X139771436Y-103157882D03*
D14*
X140518735Y-103800676D03*
D11*
X135379336Y-108759270D03*
D12*
X136126082Y-109400967D03*
D13*
X136231745Y-108187370D03*
D11*
X136973247Y-108898719D03*
D14*
X135124824Y-103661226D03*
D15*
X135869486Y-104328668D03*
D12*
X135971436Y-103157882D03*
D14*
X136718735Y-103800676D03*
D11*
X131579356Y-108759271D03*
D12*
X132327828Y-109402413D03*
D13*
X132431765Y-108187371D03*
D11*
X133173267Y-108898720D03*
D14*
X131324824Y-103661226D03*
D15*
X132069486Y-104328668D03*
D12*
X132171436Y-103157882D03*
D14*
X132918735Y-103800676D03*
D11*
X127779356Y-108759271D03*
D12*
X128527828Y-109402413D03*
D13*
X128631765Y-108187371D03*
D11*
X129373267Y-108898720D03*
D14*
X127524824Y-103661226D03*
D15*
X128269486Y-104328668D03*
D12*
X128371436Y-103157882D03*
D14*
X129118735Y-103800676D03*
D11*
X123979356Y-108759271D03*
D12*
X124727828Y-109402413D03*
D13*
X124831765Y-108187371D03*
D11*
X125573267Y-108898720D03*
D14*
X123724824Y-103661226D03*
D15*
X124469486Y-104328668D03*
D12*
X124571436Y-103157882D03*
D14*
X125318735Y-103800676D03*
D11*
X120179356Y-108759271D03*
D12*
X120927828Y-109402413D03*
D13*
X121031765Y-108187371D03*
D11*
X121773267Y-108898720D03*
D14*
X119924824Y-103661226D03*
D15*
X120669486Y-104328668D03*
D12*
X120771436Y-103157882D03*
D14*
X121518735Y-103800676D03*
D11*
X116379356Y-108759271D03*
D12*
X117127828Y-109402413D03*
D13*
X117231765Y-108187371D03*
D11*
X117973267Y-108898720D03*
D14*
X116124824Y-103661226D03*
D15*
X116869486Y-104328668D03*
D12*
X116971436Y-103157882D03*
D14*
X117718735Y-103800676D03*
D11*
X112579356Y-108759271D03*
D12*
X113327828Y-109402413D03*
D13*
X113431765Y-108187371D03*
D11*
X114173267Y-108898720D03*
D14*
X112324824Y-103661226D03*
D15*
X113069486Y-104328668D03*
D12*
X113171436Y-103157882D03*
D14*
X113918735Y-103800676D03*
D11*
X108779356Y-108759271D03*
D12*
X109527828Y-109402413D03*
D13*
X109631765Y-108187371D03*
D11*
X110373267Y-108898720D03*
D14*
X108524824Y-103661226D03*
D15*
X109269486Y-104328668D03*
D12*
X109371436Y-103157882D03*
D14*
X110118735Y-103800676D03*
D11*
X104979356Y-108759271D03*
D12*
X105727828Y-109402413D03*
D13*
X105831765Y-108187371D03*
D11*
X106573267Y-108898720D03*
D14*
X104724822Y-103661226D03*
D15*
X105469484Y-104328668D03*
D12*
X105571915Y-103157880D03*
D14*
X106318733Y-103800675D03*
D16*
X183300000Y-110855000D03*
D17*
X183300000Y-108565000D03*
X183300000Y-106275000D03*
X183300000Y-103985000D03*
X183300000Y-101695000D03*
X185280000Y-112000000D03*
X185280000Y-109710000D03*
X185280000Y-107420000D03*
X185280000Y-105130000D03*
X185280000Y-102840000D03*
X187260000Y-110855000D03*
X187260000Y-108565000D03*
X187260000Y-106275000D03*
X187260000Y-103985000D03*
X187260000Y-101695000D03*
D18*
X185280000Y-93780000D03*
X185280000Y-118770000D03*
D16*
X150400000Y-102005000D03*
D19*
X150400000Y-104545000D03*
D20*
X139810000Y-102740000D03*
X181566666Y-97070000D03*
X153350000Y-110670000D03*
X182673334Y-98850000D03*
X189090000Y-110477500D03*
X178280000Y-109440000D03*
X121773332Y-101210000D03*
X167650000Y-113120000D03*
X185940000Y-98850000D03*
X165790000Y-110670000D03*
X125920000Y-101210000D03*
X179406668Y-98850000D03*
X162676666Y-100720000D03*
X188100000Y-97070000D03*
X189090000Y-108565000D03*
X170970000Y-100720000D03*
X178300000Y-97070000D03*
X126933332Y-113120000D03*
X166823332Y-100720000D03*
X189090000Y-112390000D03*
X163503332Y-113120000D03*
X113480000Y-101210000D03*
X131080000Y-113120000D03*
X117626666Y-101210000D03*
X158530000Y-100720000D03*
X122786666Y-113120000D03*
X118640000Y-113120000D03*
X155210000Y-113120000D03*
X184833332Y-97070000D03*
X161643332Y-110670000D03*
X159356666Y-113120000D03*
X157496666Y-110670000D03*
X179880000Y-110960000D03*
X132210000Y-102740000D03*
X120890000Y-109830000D03*
D21*
X150047500Y-102357500D02*
X150400000Y-102005000D01*
X171259950Y-100020000D02*
X153213427Y-100020000D01*
X171281199Y-100041249D02*
X171259950Y-100020000D01*
X187260000Y-106275000D02*
X188844214Y-104690786D01*
X188844213Y-100791446D02*
X188679802Y-100627035D01*
X148460000Y-102357500D02*
X150047500Y-102357500D01*
X189430000Y-103276573D02*
X189430000Y-102205660D01*
X187265589Y-100041249D02*
X171281199Y-100041249D01*
X151799213Y-100605787D02*
X150400000Y-102005000D01*
X153213427Y-100020020D02*
G75*
G03*
X151799214Y-100605788I-27J-1999980D01*
G01*
X188844228Y-104690800D02*
G75*
G03*
X189430000Y-103276573I-1414228J1414200D01*
G01*
X188679797Y-100627040D02*
G75*
G03*
X187265589Y-100041249I-1414197J-1414160D01*
G01*
X189430028Y-102205660D02*
G75*
G03*
X188844213Y-100791446I-2000028J-40D01*
G01*
X148460000Y-104182500D02*
X145313286Y-101035786D01*
X143899073Y-100450000D02*
X107441320Y-100450000D01*
X148460000Y-104182500D02*
X150037500Y-104182500D01*
X106380660Y-100889340D02*
X106011255Y-101258745D01*
X150037500Y-104182500D02*
X150400000Y-104545000D01*
X105571915Y-102319405D02*
X105571915Y-103157880D01*
X145313300Y-101035772D02*
G75*
G03*
X143899073Y-100450000I-1414200J-1414228D01*
G01*
X107441320Y-100450015D02*
G75*
G03*
X106380660Y-100889340I-20J-1499985D01*
G01*
X106011255Y-101258745D02*
G75*
G03*
X105571915Y-102319405I1060645J-1060655D01*
G01*
X129071178Y-111041178D02*
X128967168Y-110937168D01*
X183300000Y-106275000D02*
X180893427Y-106275000D01*
X179479214Y-106860786D02*
X175445269Y-110894731D01*
X128527828Y-109876508D02*
X128527828Y-109402413D01*
X174031055Y-111480518D02*
X130131838Y-111480518D01*
X174031055Y-111480480D02*
G75*
G03*
X175445268Y-110894730I45J1999980D01*
G01*
X180893427Y-106275020D02*
G75*
G03*
X179479215Y-106860787I-27J-1999980D01*
G01*
X128527815Y-109876508D02*
G75*
G03*
X128967168Y-110937168I1499985J8D01*
G01*
X129071155Y-111041201D02*
G75*
G03*
X130131838Y-111480518I1060645J1060701D01*
G01*
X113327828Y-110476508D02*
X113327828Y-109402413D01*
X183300000Y-110855000D02*
X182223427Y-110855000D01*
X179081261Y-112340312D02*
X115191632Y-112340312D01*
X114130972Y-111900972D02*
X113767168Y-111537168D01*
X180809213Y-111440787D02*
X180495474Y-111754526D01*
X114130953Y-111900991D02*
G75*
G03*
X115191632Y-112340312I1060647J1060691D01*
G01*
X182223427Y-110855020D02*
G75*
G03*
X180809214Y-111440788I-27J-1999980D01*
G01*
X113327815Y-110476508D02*
G75*
G03*
X113767168Y-111537168I1499985J8D01*
G01*
X179081261Y-112340280D02*
G75*
G03*
X180495473Y-111754525I39J1999980D01*
G01*
G04 #@! TA.AperFunction,Conductor*
G36*
X189283879Y-91075657D02*
G01*
X189288526Y-91075656D01*
X189288530Y-91075658D01*
X189327204Y-91075654D01*
X189329605Y-91075772D01*
X189398558Y-91082555D01*
X189479601Y-91090529D01*
X189489009Y-91092400D01*
X189629761Y-91135085D01*
X189638637Y-91138760D01*
X189768359Y-91208088D01*
X189776347Y-91213425D01*
X189890047Y-91306729D01*
X189896840Y-91313522D01*
X189990151Y-91427217D01*
X189995488Y-91435205D01*
X190064820Y-91564918D01*
X190068496Y-91573793D01*
X190111188Y-91714542D01*
X190113062Y-91723964D01*
X190127771Y-91873372D01*
X190127889Y-91875774D01*
X190127888Y-91920719D01*
X190127890Y-91920736D01*
X190127890Y-112623934D01*
X190127772Y-112626338D01*
X190112994Y-112776310D01*
X190111119Y-112785731D01*
X190068422Y-112926463D01*
X190064746Y-112935337D01*
X189995412Y-113065040D01*
X189990075Y-113073027D01*
X189896768Y-113186714D01*
X189889976Y-113193505D01*
X189776289Y-113286800D01*
X189768302Y-113292137D01*
X189638590Y-113361465D01*
X189629716Y-113365140D01*
X189488981Y-113407829D01*
X189479560Y-113409703D01*
X189328968Y-113424534D01*
X189326566Y-113424652D01*
X189288510Y-113424652D01*
X104453379Y-113424654D01*
X104418731Y-113410302D01*
X103214886Y-112206457D01*
X103200534Y-112171809D01*
X103200534Y-109291252D01*
X104279829Y-109291252D01*
X104284553Y-109414264D01*
X104322106Y-109540232D01*
X104331508Y-109571770D01*
X104416157Y-109712649D01*
X104416158Y-109712650D01*
X104416159Y-109712651D01*
X104533181Y-109828051D01*
X104675221Y-109910721D01*
X104675225Y-109910722D01*
X104675229Y-109910725D01*
X104833374Y-109955476D01*
X104886986Y-109956785D01*
X104888498Y-109956870D01*
X105225261Y-109986333D01*
X106405141Y-110089559D01*
X106414202Y-110091223D01*
X106427285Y-110094925D01*
X106480912Y-110096235D01*
X106482407Y-110096319D01*
X106489941Y-110096979D01*
X106492212Y-110096729D01*
X106495484Y-110096591D01*
X106571951Y-110098460D01*
X106591589Y-110098940D01*
X106591590Y-110098940D01*
X106751729Y-110061970D01*
X106751729Y-110061969D01*
X106751733Y-110061969D01*
X106897649Y-109986333D01*
X107020171Y-109876785D01*
X107111601Y-109740209D01*
X107166193Y-109585187D01*
X107191908Y-109291265D01*
X108080329Y-109291265D01*
X108085050Y-109414179D01*
X108131970Y-109571567D01*
X108216555Y-109712340D01*
X108333489Y-109827651D01*
X108333492Y-109827653D01*
X108430014Y-109883831D01*
X108467893Y-109450866D01*
X108488815Y-109492348D01*
X108572088Y-109567483D01*
X108676881Y-109607462D01*
X108789039Y-109606886D01*
X108893415Y-109565833D01*
X108965560Y-109499384D01*
X108923779Y-109976950D01*
X109224307Y-110003243D01*
X109257786Y-109620583D01*
X109278937Y-109378815D01*
X109277069Y-109373683D01*
X109277208Y-109371548D01*
X109317348Y-108912727D01*
X109817793Y-108956511D01*
X109797809Y-109184945D01*
X109722404Y-110046821D01*
X110019591Y-110072822D01*
X110061805Y-109590317D01*
X110082726Y-109631797D01*
X110165999Y-109706932D01*
X110270792Y-109746911D01*
X110382950Y-109746335D01*
X110487326Y-109705282D01*
X110559469Y-109638834D01*
X110521893Y-110068343D01*
X110521893Y-110068344D01*
X110551553Y-110061497D01*
X110551559Y-110061495D01*
X110697363Y-109985917D01*
X110697365Y-109985916D01*
X110819787Y-109876456D01*
X110819790Y-109876453D01*
X110911149Y-109739984D01*
X110911150Y-109739981D01*
X110965700Y-109585080D01*
X110991406Y-109291252D01*
X111879829Y-109291252D01*
X111884553Y-109414264D01*
X111922106Y-109540232D01*
X111931508Y-109571770D01*
X112016157Y-109712649D01*
X112016158Y-109712650D01*
X112016159Y-109712651D01*
X112133181Y-109828051D01*
X112275221Y-109910721D01*
X112275225Y-109910722D01*
X112275229Y-109910725D01*
X112433374Y-109955476D01*
X112486986Y-109956785D01*
X112488498Y-109956870D01*
X112757144Y-109980374D01*
X112790409Y-109997691D01*
X112795441Y-110004920D01*
X112810584Y-110031482D01*
X112811329Y-110032892D01*
X112850476Y-110113308D01*
X112850998Y-110114453D01*
X112892023Y-110211031D01*
X112904489Y-110244119D01*
X112924181Y-110296383D01*
X112927328Y-110313659D01*
X112927328Y-110456200D01*
X112927315Y-110456233D01*
X112927315Y-110601073D01*
X112933634Y-110649064D01*
X112955648Y-110816270D01*
X112959837Y-110848081D01*
X113024315Y-111088713D01*
X113024319Y-111088723D01*
X113119660Y-111318887D01*
X113233073Y-111515320D01*
X113244229Y-111534641D01*
X113395894Y-111732289D01*
X113446838Y-111783231D01*
X113461683Y-111798076D01*
X113833684Y-112170077D01*
X113833711Y-112170141D01*
X113847763Y-112184192D01*
X113847763Y-112184193D01*
X113935846Y-112272273D01*
X114133500Y-112423931D01*
X114349257Y-112548493D01*
X114579428Y-112643827D01*
X114820072Y-112708302D01*
X115067074Y-112740815D01*
X115191641Y-112740812D01*
X179081253Y-112740812D01*
X179112780Y-112740812D01*
X179113355Y-112740812D01*
X179114156Y-112740780D01*
X179216061Y-112740782D01*
X179483983Y-112710600D01*
X179746841Y-112650610D01*
X180001329Y-112561566D01*
X180244247Y-112444588D01*
X180472541Y-112301148D01*
X180491022Y-112286411D01*
X180587037Y-112209844D01*
X180683339Y-112133049D01*
X180755980Y-112060410D01*
X180756004Y-112060388D01*
X180756379Y-112060012D01*
X180756383Y-112060010D01*
X181091850Y-111724542D01*
X181092994Y-111723471D01*
X181248504Y-111587096D01*
X181251047Y-111585145D01*
X181251576Y-111584792D01*
X181422337Y-111470694D01*
X181425115Y-111469091D01*
X181454646Y-111454528D01*
X181609886Y-111377973D01*
X181612833Y-111376752D01*
X181807937Y-111310527D01*
X181811011Y-111309704D01*
X181820025Y-111307911D01*
X181856083Y-111314754D01*
X181868796Y-111322930D01*
X181871567Y-111325003D01*
X181963431Y-111404422D01*
X181965428Y-111406358D01*
X182063544Y-111512905D01*
X182064979Y-111514615D01*
X182136567Y-111608209D01*
X182167533Y-111648693D01*
X182168575Y-111650164D01*
X182265323Y-111798076D01*
X182273038Y-111809870D01*
X182279254Y-111818385D01*
X182284097Y-111824350D01*
X182290354Y-111831697D01*
X182292598Y-111833752D01*
X182292277Y-111834101D01*
X182301386Y-111843473D01*
X182305447Y-111849551D01*
X182305450Y-111849554D01*
X182315343Y-111856164D01*
X182371769Y-111893867D01*
X182430252Y-111905500D01*
X182430255Y-111905500D01*
X184169741Y-111905500D01*
X184169748Y-111905500D01*
X184170704Y-111905309D01*
X184171026Y-111905373D01*
X184172142Y-111905264D01*
X184172175Y-111905602D01*
X184207485Y-111912615D01*
X184228330Y-111943791D01*
X184229038Y-111958167D01*
X184224919Y-111999998D01*
X184224919Y-112000000D01*
X184245192Y-112205836D01*
X184245192Y-112205837D01*
X184305231Y-112403758D01*
X184305236Y-112403770D01*
X184380975Y-112545469D01*
X184380976Y-112545470D01*
X184796922Y-112129523D01*
X184820507Y-112209844D01*
X184898239Y-112330798D01*
X185006900Y-112424952D01*
X185137685Y-112484680D01*
X185147465Y-112486086D01*
X184734528Y-112899022D01*
X184734529Y-112899023D01*
X184876229Y-112974763D01*
X184876241Y-112974768D01*
X185074163Y-113034807D01*
X185280000Y-113055081D01*
X185485836Y-113034807D01*
X185485837Y-113034807D01*
X185683759Y-112974768D01*
X185683766Y-112974765D01*
X185825469Y-112899022D01*
X185825470Y-112899022D01*
X185412533Y-112486086D01*
X185422315Y-112484680D01*
X185553100Y-112424952D01*
X185661761Y-112330798D01*
X185739493Y-112209844D01*
X185763076Y-112129524D01*
X186179022Y-112545470D01*
X186179022Y-112545469D01*
X186254765Y-112403766D01*
X186254768Y-112403759D01*
X186314807Y-112205837D01*
X186314807Y-112205836D01*
X186335081Y-112000000D01*
X186335081Y-111999999D01*
X186314807Y-111794163D01*
X186314807Y-111794162D01*
X186254768Y-111596241D01*
X186254763Y-111596229D01*
X186179023Y-111454529D01*
X186179022Y-111454528D01*
X185763076Y-111870474D01*
X185739493Y-111790156D01*
X185661761Y-111669202D01*
X185553100Y-111575048D01*
X185422315Y-111515320D01*
X185412533Y-111513913D01*
X185825470Y-111100976D01*
X185825469Y-111100975D01*
X185683770Y-111025236D01*
X185683758Y-111025231D01*
X185485836Y-110965192D01*
X185280000Y-110944919D01*
X185074163Y-110965192D01*
X185074162Y-110965192D01*
X184876241Y-111025231D01*
X184876229Y-111025236D01*
X184734529Y-111100974D01*
X184734528Y-111100976D01*
X185147466Y-111513913D01*
X185137685Y-111515320D01*
X185006900Y-111575048D01*
X184898239Y-111669202D01*
X184820507Y-111790156D01*
X184796923Y-111870475D01*
X184364852Y-111438404D01*
X184350500Y-111403756D01*
X184350500Y-110855000D01*
X186204417Y-110855000D01*
X186214636Y-110958755D01*
X186224700Y-111060934D01*
X186224700Y-111060935D01*
X186236846Y-111100974D01*
X186284768Y-111258954D01*
X186382315Y-111441450D01*
X186513590Y-111601410D01*
X186673550Y-111732685D01*
X186856046Y-111830232D01*
X187054066Y-111890300D01*
X187260000Y-111910583D01*
X187465934Y-111890300D01*
X187663954Y-111830232D01*
X187846450Y-111732685D01*
X188006410Y-111601410D01*
X188137685Y-111441450D01*
X188235232Y-111258954D01*
X188295300Y-111060934D01*
X188315583Y-110855000D01*
X188295300Y-110649066D01*
X188235232Y-110451046D01*
X188137685Y-110268550D01*
X188006410Y-110108590D01*
X187846450Y-109977315D01*
X187663954Y-109879768D01*
X187465934Y-109819700D01*
X187260000Y-109799417D01*
X187054065Y-109819700D01*
X187054064Y-109819700D01*
X186919736Y-109860448D01*
X186865877Y-109876786D01*
X186856043Y-109879769D01*
X186673548Y-109977316D01*
X186513590Y-110108590D01*
X186382316Y-110268548D01*
X186284769Y-110451043D01*
X186224700Y-110649064D01*
X186224700Y-110649065D01*
X186208232Y-110816270D01*
X186204417Y-110855000D01*
X184350500Y-110855000D01*
X184350500Y-110306243D01*
X184364852Y-110271595D01*
X184796923Y-109839523D01*
X184820507Y-109919844D01*
X184898239Y-110040798D01*
X185006900Y-110134952D01*
X185137685Y-110194680D01*
X185147465Y-110196086D01*
X184734528Y-110609022D01*
X184734529Y-110609023D01*
X184876229Y-110684763D01*
X184876241Y-110684768D01*
X185074163Y-110744807D01*
X185280000Y-110765081D01*
X185485836Y-110744807D01*
X185485837Y-110744807D01*
X185683759Y-110684768D01*
X185683766Y-110684765D01*
X185825469Y-110609022D01*
X185825470Y-110609022D01*
X185412533Y-110196086D01*
X185422315Y-110194680D01*
X185553100Y-110134952D01*
X185661761Y-110040798D01*
X185739493Y-109919844D01*
X185763076Y-109839524D01*
X186179022Y-110255470D01*
X186179022Y-110255469D01*
X186254765Y-110113766D01*
X186254768Y-110113759D01*
X186314807Y-109915837D01*
X186314807Y-109915836D01*
X186335081Y-109710000D01*
X186335081Y-109709999D01*
X186314807Y-109504163D01*
X186314807Y-109504162D01*
X186254768Y-109306241D01*
X186254763Y-109306229D01*
X186179023Y-109164529D01*
X186179022Y-109164528D01*
X185763076Y-109580474D01*
X185739493Y-109500156D01*
X185661761Y-109379202D01*
X185553100Y-109285048D01*
X185422315Y-109225320D01*
X185412533Y-109223913D01*
X185825470Y-108810976D01*
X185825469Y-108810975D01*
X185683770Y-108735236D01*
X185683758Y-108735231D01*
X185485836Y-108675192D01*
X185280000Y-108654919D01*
X185074163Y-108675192D01*
X185074162Y-108675192D01*
X184876241Y-108735231D01*
X184876229Y-108735236D01*
X184734529Y-108810974D01*
X184734528Y-108810976D01*
X185147466Y-109223913D01*
X185137685Y-109225320D01*
X185006900Y-109285048D01*
X184898239Y-109379202D01*
X184820507Y-109500156D01*
X184796923Y-109580475D01*
X184380976Y-109164528D01*
X184380974Y-109164529D01*
X184305236Y-109306229D01*
X184305231Y-109306241D01*
X184245192Y-109504162D01*
X184245192Y-109504163D01*
X184224919Y-109709999D01*
X184224919Y-109710001D01*
X184229038Y-109751832D01*
X184218151Y-109787720D01*
X184185076Y-109805398D01*
X184170714Y-109804692D01*
X184169751Y-109804500D01*
X184169748Y-109804500D01*
X182430252Y-109804500D01*
X182371769Y-109816133D01*
X182305447Y-109860447D01*
X182261132Y-109926769D01*
X182260170Y-109931606D01*
X182252198Y-109950225D01*
X182152234Y-110092420D01*
X182151079Y-110093934D01*
X182028996Y-110241716D01*
X182027418Y-110243450D01*
X181910039Y-110360657D01*
X181907873Y-110362579D01*
X181798308Y-110448758D01*
X181792426Y-110452730D01*
X181687839Y-110512822D01*
X181674331Y-110518108D01*
X181557843Y-110544694D01*
X181557826Y-110544700D01*
X181303365Y-110633736D01*
X181303357Y-110633739D01*
X181303354Y-110633741D01*
X181061175Y-110750365D01*
X181060432Y-110750723D01*
X180832141Y-110894164D01*
X180832138Y-110894167D01*
X180621342Y-111062268D01*
X180548873Y-111134734D01*
X180548856Y-111134750D01*
X180212853Y-111470752D01*
X180211682Y-111471849D01*
X180056188Y-111608209D01*
X180053643Y-111610162D01*
X179882346Y-111724614D01*
X179879568Y-111726218D01*
X179694812Y-111817325D01*
X179691848Y-111818552D01*
X179496768Y-111884769D01*
X179493669Y-111885600D01*
X179291616Y-111925787D01*
X179288435Y-111926205D01*
X179081582Y-111939759D01*
X179079980Y-111939811D01*
X179019743Y-111939811D01*
X179019731Y-111939812D01*
X174478686Y-111939812D01*
X174444038Y-111925460D01*
X174429686Y-111890812D01*
X174444038Y-111856164D01*
X174467784Y-111843040D01*
X174664800Y-111798077D01*
X174696634Y-111790812D01*
X174951122Y-111701769D01*
X175194040Y-111584792D01*
X175422334Y-111441353D01*
X175633132Y-111273254D01*
X175705527Y-111200862D01*
X175705552Y-111200839D01*
X175706172Y-111200218D01*
X175706178Y-111200215D01*
X175753925Y-111152468D01*
X175769177Y-111137217D01*
X175769177Y-111137216D01*
X175773204Y-111133190D01*
X175773211Y-111133180D01*
X178341391Y-108565000D01*
X182244417Y-108565000D01*
X182264700Y-108770934D01*
X182324768Y-108968954D01*
X182422315Y-109151450D01*
X182553590Y-109311410D01*
X182713550Y-109442685D01*
X182896046Y-109540232D01*
X183094066Y-109600300D01*
X183300000Y-109620583D01*
X183505934Y-109600300D01*
X183703954Y-109540232D01*
X183886450Y-109442685D01*
X184046410Y-109311410D01*
X184177685Y-109151450D01*
X184275232Y-108968954D01*
X184335300Y-108770934D01*
X184355583Y-108565000D01*
X186204417Y-108565000D01*
X186224700Y-108770934D01*
X186284768Y-108968954D01*
X186382315Y-109151450D01*
X186513590Y-109311410D01*
X186673550Y-109442685D01*
X186856046Y-109540232D01*
X187054066Y-109600300D01*
X187260000Y-109620583D01*
X187465934Y-109600300D01*
X187663954Y-109540232D01*
X187846450Y-109442685D01*
X188006410Y-109311410D01*
X188137685Y-109151450D01*
X188235232Y-108968954D01*
X188295300Y-108770934D01*
X188315583Y-108565000D01*
X188295300Y-108359066D01*
X188235232Y-108161046D01*
X188137685Y-107978550D01*
X188006410Y-107818590D01*
X187846450Y-107687315D01*
X187663954Y-107589768D01*
X187465934Y-107529700D01*
X187260000Y-107509417D01*
X187054065Y-107529700D01*
X187054064Y-107529700D01*
X186856043Y-107589769D01*
X186673548Y-107687316D01*
X186513590Y-107818590D01*
X186382316Y-107978548D01*
X186284769Y-108161043D01*
X186224700Y-108359064D01*
X186224700Y-108359065D01*
X186224325Y-108362878D01*
X186204417Y-108565000D01*
X184355583Y-108565000D01*
X184335300Y-108359066D01*
X184275232Y-108161046D01*
X184177685Y-107978550D01*
X184046410Y-107818590D01*
X183886450Y-107687315D01*
X183703954Y-107589768D01*
X183505934Y-107529700D01*
X183300000Y-107509417D01*
X183094065Y-107529700D01*
X183094064Y-107529700D01*
X182896043Y-107589769D01*
X182713548Y-107687316D01*
X182553590Y-107818590D01*
X182422316Y-107978548D01*
X182324769Y-108161043D01*
X182264700Y-108359064D01*
X182264700Y-108359065D01*
X182264325Y-108362878D01*
X182244417Y-108565000D01*
X178341391Y-108565000D01*
X179486391Y-107420000D01*
X184224919Y-107420000D01*
X184245192Y-107625836D01*
X184245192Y-107625837D01*
X184305231Y-107823758D01*
X184305236Y-107823770D01*
X184380975Y-107965469D01*
X184380976Y-107965470D01*
X184796922Y-107549523D01*
X184820507Y-107629844D01*
X184898239Y-107750798D01*
X185006900Y-107844952D01*
X185137685Y-107904680D01*
X185147465Y-107906086D01*
X184734528Y-108319022D01*
X184734529Y-108319023D01*
X184876229Y-108394763D01*
X184876241Y-108394768D01*
X185074163Y-108454807D01*
X185280000Y-108475081D01*
X185485836Y-108454807D01*
X185485837Y-108454807D01*
X185683759Y-108394768D01*
X185683766Y-108394765D01*
X185825469Y-108319022D01*
X185825470Y-108319022D01*
X185412533Y-107906086D01*
X185422315Y-107904680D01*
X185553100Y-107844952D01*
X185661761Y-107750798D01*
X185739493Y-107629844D01*
X185763076Y-107549524D01*
X186179022Y-107965470D01*
X186179022Y-107965469D01*
X186254765Y-107823766D01*
X186254768Y-107823759D01*
X186314807Y-107625837D01*
X186314807Y-107625836D01*
X186335081Y-107420000D01*
X186335081Y-107419999D01*
X186314807Y-107214163D01*
X186314807Y-107214162D01*
X186254768Y-107016241D01*
X186254763Y-107016229D01*
X186179023Y-106874529D01*
X186179022Y-106874528D01*
X185763076Y-107290474D01*
X185739493Y-107210156D01*
X185661761Y-107089202D01*
X185553100Y-106995048D01*
X185422315Y-106935320D01*
X185412533Y-106933913D01*
X185825470Y-106520976D01*
X185825469Y-106520975D01*
X185683770Y-106445236D01*
X185683758Y-106445231D01*
X185485836Y-106385192D01*
X185280000Y-106364919D01*
X185074163Y-106385192D01*
X185074162Y-106385192D01*
X184876241Y-106445231D01*
X184876229Y-106445236D01*
X184734529Y-106520974D01*
X184734528Y-106520976D01*
X185147466Y-106933913D01*
X185137685Y-106935320D01*
X185006900Y-106995048D01*
X184898239Y-107089202D01*
X184820507Y-107210156D01*
X184796923Y-107290475D01*
X184380976Y-106874528D01*
X184380974Y-106874529D01*
X184305236Y-107016229D01*
X184305231Y-107016241D01*
X184245192Y-107214162D01*
X184245192Y-107214163D01*
X184224919Y-107419999D01*
X184224919Y-107420000D01*
X179486391Y-107420000D01*
X179761841Y-107144550D01*
X179762972Y-107143491D01*
X179918505Y-107007095D01*
X179921048Y-107005144D01*
X179936159Y-106995048D01*
X180092337Y-106890694D01*
X180095116Y-106889091D01*
X180194585Y-106840039D01*
X180279887Y-106797973D01*
X180282834Y-106796752D01*
X180477923Y-106730531D01*
X180481007Y-106729704D01*
X180683085Y-106689511D01*
X180686244Y-106689096D01*
X180892940Y-106675551D01*
X180894529Y-106675500D01*
X180951005Y-106675500D01*
X181567449Y-106675500D01*
X181581366Y-106677518D01*
X181584676Y-106678498D01*
X181591817Y-106680614D01*
X181591821Y-106680614D01*
X181591824Y-106680615D01*
X181753823Y-106695507D01*
X181911342Y-106709987D01*
X181923836Y-106712818D01*
X182109080Y-106781269D01*
X182119094Y-106786342D01*
X182292871Y-106901133D01*
X182524362Y-107060606D01*
X182530157Y-107064319D01*
X182536733Y-107068227D01*
X182542735Y-107071529D01*
X182873876Y-107239569D01*
X182878152Y-107241543D01*
X182878153Y-107241543D01*
X182878155Y-107241544D01*
X182878702Y-107241728D01*
X182886175Y-107244956D01*
X182896041Y-107250230D01*
X182896043Y-107250230D01*
X182896046Y-107250232D01*
X183094066Y-107310300D01*
X183300000Y-107330583D01*
X183505934Y-107310300D01*
X183703954Y-107250232D01*
X183886450Y-107152685D01*
X184046410Y-107021410D01*
X184177685Y-106861450D01*
X184275232Y-106678954D01*
X184335300Y-106480934D01*
X184355583Y-106275000D01*
X184335300Y-106069066D01*
X184275232Y-105871046D01*
X184177685Y-105688550D01*
X184046410Y-105528590D01*
X183886450Y-105397315D01*
X183719772Y-105308223D01*
X183703956Y-105299769D01*
X183703955Y-105299768D01*
X183703954Y-105299768D01*
X183505934Y-105239700D01*
X183300000Y-105219417D01*
X183094065Y-105239700D01*
X183094064Y-105239700D01*
X182896049Y-105299767D01*
X182896036Y-105299772D01*
X182880225Y-105308223D01*
X182872695Y-105311250D01*
X182872709Y-105311286D01*
X182870470Y-105312157D01*
X182788131Y-105353941D01*
X182542736Y-105478469D01*
X182537851Y-105481155D01*
X182536769Y-105481750D01*
X182530222Y-105485637D01*
X182524391Y-105489371D01*
X182292871Y-105648865D01*
X182119096Y-105763654D01*
X182109073Y-105768731D01*
X181923841Y-105837177D01*
X181911343Y-105840009D01*
X181591816Y-105869385D01*
X181591815Y-105869385D01*
X181579284Y-105872788D01*
X181566444Y-105874500D01*
X180861236Y-105874500D01*
X180860734Y-105874519D01*
X180758623Y-105874519D01*
X180490698Y-105904703D01*
X180227843Y-105964695D01*
X180227826Y-105964700D01*
X179973366Y-106053736D01*
X179973358Y-106053739D01*
X179973355Y-106053741D01*
X179741696Y-106165299D01*
X179730433Y-106170723D01*
X179502143Y-106314163D01*
X179502140Y-106314166D01*
X179291343Y-106482267D01*
X179218874Y-106554733D01*
X179218857Y-106554749D01*
X175162649Y-110610956D01*
X175161478Y-110612053D01*
X175005984Y-110748412D01*
X175003439Y-110750365D01*
X174832141Y-110864817D01*
X174829363Y-110866421D01*
X174644604Y-110957528D01*
X174641641Y-110958755D01*
X174446566Y-111024970D01*
X174443467Y-111025801D01*
X174241412Y-111065988D01*
X174238231Y-111066406D01*
X174031287Y-111079965D01*
X174029685Y-111080017D01*
X173969538Y-111080017D01*
X173969526Y-111080018D01*
X130193366Y-111080018D01*
X130193354Y-111080017D01*
X130132789Y-111080017D01*
X130130867Y-111079942D01*
X129963668Y-111066788D01*
X129956073Y-111065585D01*
X129795810Y-111027113D01*
X129788498Y-111024738D01*
X129636215Y-110961665D01*
X129629364Y-110958174D01*
X129488833Y-110872062D01*
X129482612Y-110867543D01*
X129481298Y-110866421D01*
X129355382Y-110758884D01*
X129353987Y-110757594D01*
X129337403Y-110741011D01*
X129251047Y-110654654D01*
X129249750Y-110653251D01*
X129140809Y-110525703D01*
X129136291Y-110519485D01*
X129135447Y-110518108D01*
X129050173Y-110378956D01*
X129046682Y-110372105D01*
X129041940Y-110360657D01*
X128983604Y-110219826D01*
X128981230Y-110212518D01*
X128980771Y-110210606D01*
X128986638Y-110173565D01*
X129014063Y-110129253D01*
X129015146Y-110127648D01*
X129036572Y-110098460D01*
X129068644Y-110079021D01*
X129080343Y-110078641D01*
X129205141Y-110089559D01*
X129214202Y-110091223D01*
X129227285Y-110094925D01*
X129280912Y-110096235D01*
X129282407Y-110096319D01*
X129289941Y-110096979D01*
X129292212Y-110096729D01*
X129295484Y-110096591D01*
X129371951Y-110098460D01*
X129391589Y-110098940D01*
X129391590Y-110098940D01*
X129551729Y-110061970D01*
X129551729Y-110061969D01*
X129551733Y-110061969D01*
X129697649Y-109986333D01*
X129820171Y-109876785D01*
X129911601Y-109740209D01*
X129966193Y-109585187D01*
X129991908Y-109291265D01*
X130880329Y-109291265D01*
X130885050Y-109414179D01*
X130931970Y-109571567D01*
X131016555Y-109712340D01*
X131133489Y-109827651D01*
X131133492Y-109827653D01*
X131230014Y-109883831D01*
X131267893Y-109450866D01*
X131288815Y-109492348D01*
X131372088Y-109567483D01*
X131476881Y-109607462D01*
X131589039Y-109606886D01*
X131693415Y-109565833D01*
X131765560Y-109499384D01*
X131723779Y-109976950D01*
X132024307Y-110003243D01*
X132057786Y-109620583D01*
X132078937Y-109378815D01*
X132077069Y-109373683D01*
X132077208Y-109371548D01*
X132117348Y-108912727D01*
X132617793Y-108956511D01*
X132597809Y-109184945D01*
X132522404Y-110046821D01*
X132819591Y-110072822D01*
X132861805Y-109590317D01*
X132882726Y-109631797D01*
X132965999Y-109706932D01*
X133070792Y-109746911D01*
X133182950Y-109746335D01*
X133287326Y-109705282D01*
X133359469Y-109638834D01*
X133321893Y-110068343D01*
X133321893Y-110068344D01*
X133351553Y-110061497D01*
X133351559Y-110061495D01*
X133497363Y-109985917D01*
X133497365Y-109985916D01*
X133619787Y-109876456D01*
X133619790Y-109876453D01*
X133711149Y-109739984D01*
X133711150Y-109739981D01*
X133765700Y-109585080D01*
X133791406Y-109291251D01*
X134679809Y-109291251D01*
X134684533Y-109414263D01*
X134711334Y-109504163D01*
X134731488Y-109571769D01*
X134816137Y-109712648D01*
X134816138Y-109712649D01*
X134816139Y-109712650D01*
X134933161Y-109828050D01*
X135075201Y-109910720D01*
X135075205Y-109910721D01*
X135075209Y-109910724D01*
X135233354Y-109955475D01*
X135307489Y-109957286D01*
X135309001Y-109957371D01*
X135536974Y-109977316D01*
X136798502Y-110087685D01*
X136807563Y-110089349D01*
X136827265Y-110094924D01*
X136950493Y-110097935D01*
X136991569Y-110098939D01*
X136991570Y-110098939D01*
X137151709Y-110061969D01*
X137151709Y-110061968D01*
X137151713Y-110061968D01*
X137297629Y-109986332D01*
X137420151Y-109876784D01*
X137511581Y-109740208D01*
X137566173Y-109585186D01*
X137591889Y-109291251D01*
X138479809Y-109291251D01*
X138484533Y-109414263D01*
X138511334Y-109504163D01*
X138531488Y-109571769D01*
X138616137Y-109712648D01*
X138616138Y-109712649D01*
X138616139Y-109712650D01*
X138733161Y-109828050D01*
X138875201Y-109910720D01*
X138875205Y-109910721D01*
X138875209Y-109910724D01*
X139033354Y-109955475D01*
X139107489Y-109957286D01*
X139109001Y-109957371D01*
X139336974Y-109977316D01*
X140598502Y-110087685D01*
X140607563Y-110089349D01*
X140627265Y-110094924D01*
X140750493Y-110097935D01*
X140791569Y-110098939D01*
X140791570Y-110098939D01*
X140951709Y-110061969D01*
X140951709Y-110061968D01*
X140951713Y-110061968D01*
X141097629Y-109986332D01*
X141220151Y-109876784D01*
X141311581Y-109740208D01*
X141366173Y-109585186D01*
X141472774Y-108366738D01*
X141472625Y-108362868D01*
X141472700Y-108359795D01*
X141472764Y-108359064D01*
X141521671Y-107800058D01*
X141521671Y-107800050D01*
X141521994Y-107763072D01*
X141519564Y-107750798D01*
X141490070Y-107601845D01*
X141419055Y-107453625D01*
X141313410Y-107327722D01*
X141236975Y-107273000D01*
X141179774Y-107232048D01*
X141026536Y-107172611D01*
X140998208Y-107167871D01*
X140990060Y-107166508D01*
X139265260Y-107015608D01*
X139262876Y-107015587D01*
X139228275Y-107015284D01*
X139067047Y-107047208D01*
X139067046Y-107047208D01*
X138918826Y-107118223D01*
X138792925Y-107223867D01*
X138697249Y-107357506D01*
X138637813Y-107510741D01*
X138632936Y-107539889D01*
X138631710Y-107547219D01*
X138541819Y-108574682D01*
X138541819Y-108574690D01*
X138541819Y-108574692D01*
X138541751Y-108582374D01*
X138541658Y-108584293D01*
X138479809Y-109291251D01*
X137591889Y-109291251D01*
X137672774Y-108366738D01*
X137672625Y-108362868D01*
X137672700Y-108359795D01*
X137672764Y-108359064D01*
X137721671Y-107800058D01*
X137721671Y-107800050D01*
X137721994Y-107763072D01*
X137719564Y-107750798D01*
X137690070Y-107601845D01*
X137619055Y-107453625D01*
X137513410Y-107327722D01*
X137436975Y-107273000D01*
X137379774Y-107232048D01*
X137226536Y-107172611D01*
X137198208Y-107167871D01*
X137190060Y-107166508D01*
X135465260Y-107015608D01*
X135462876Y-107015587D01*
X135428275Y-107015284D01*
X135267047Y-107047208D01*
X135267046Y-107047208D01*
X135118826Y-107118223D01*
X134992925Y-107223867D01*
X134897249Y-107357506D01*
X134837813Y-107510741D01*
X134832936Y-107539889D01*
X134831710Y-107547219D01*
X134741819Y-108574682D01*
X134741819Y-108574690D01*
X134741819Y-108574692D01*
X134741751Y-108582374D01*
X134741658Y-108584293D01*
X134679809Y-109291251D01*
X133791406Y-109291251D01*
X133799003Y-109204419D01*
X133450336Y-109173914D01*
X133493915Y-108675815D01*
X133842582Y-108706319D01*
X133855133Y-108562854D01*
X133506466Y-108532349D01*
X133522485Y-108349264D01*
X133521165Y-108335780D01*
X133535219Y-108239839D01*
X133519940Y-108065181D01*
X133508485Y-108030614D01*
X133898035Y-108064695D01*
X133921188Y-107800058D01*
X133921511Y-107763106D01*
X133889612Y-107602004D01*
X133889612Y-107602003D01*
X133818651Y-107453898D01*
X133713088Y-107328093D01*
X133579554Y-107232491D01*
X133426439Y-107173103D01*
X133426436Y-107173102D01*
X133389982Y-107167003D01*
X132776684Y-107113347D01*
X132746179Y-107462013D01*
X132248081Y-107418435D01*
X132278586Y-107069767D01*
X131665280Y-107016111D01*
X131628328Y-107015788D01*
X131467226Y-107047687D01*
X131467225Y-107047687D01*
X131319119Y-107118648D01*
X131193314Y-107224211D01*
X131097712Y-107357747D01*
X131038323Y-107510862D01*
X131032224Y-107547317D01*
X131009071Y-107811945D01*
X131399536Y-107846106D01*
X131353721Y-107961429D01*
X131328311Y-108134903D01*
X131330572Y-108160759D01*
X131314838Y-108340608D01*
X130965493Y-108310045D01*
X130952942Y-108453510D01*
X131302286Y-108484074D01*
X131258708Y-108982172D01*
X130910038Y-108951669D01*
X130880329Y-109291265D01*
X129991908Y-109291265D01*
X130072794Y-108366739D01*
X130072645Y-108362869D01*
X130072720Y-108359796D01*
X130072784Y-108359064D01*
X130121691Y-107800059D01*
X130121691Y-107800051D01*
X130122014Y-107763073D01*
X130122014Y-107763071D01*
X130090090Y-107601846D01*
X130019075Y-107453626D01*
X129913430Y-107327723D01*
X129889092Y-107310299D01*
X129779794Y-107232049D01*
X129626556Y-107172612D01*
X129598228Y-107167872D01*
X129590080Y-107166509D01*
X127865280Y-107015609D01*
X127862896Y-107015588D01*
X127828295Y-107015285D01*
X127667067Y-107047209D01*
X127667066Y-107047209D01*
X127518846Y-107118224D01*
X127392945Y-107223868D01*
X127297269Y-107357507D01*
X127237833Y-107510742D01*
X127234023Y-107533518D01*
X127231730Y-107547220D01*
X127141839Y-108574683D01*
X127141839Y-108574690D01*
X127141839Y-108574691D01*
X127141839Y-108574693D01*
X127141771Y-108582375D01*
X127141678Y-108584294D01*
X127079829Y-109291252D01*
X127084553Y-109414264D01*
X127122106Y-109540232D01*
X127131508Y-109571770D01*
X127216157Y-109712649D01*
X127216158Y-109712650D01*
X127216159Y-109712651D01*
X127333181Y-109828051D01*
X127475221Y-109910721D01*
X127475225Y-109910722D01*
X127475229Y-109910725D01*
X127633374Y-109955476D01*
X127686986Y-109956785D01*
X127688498Y-109956870D01*
X127856766Y-109971591D01*
X127978426Y-109982235D01*
X128011691Y-109999552D01*
X128016221Y-110005921D01*
X128042811Y-110050434D01*
X128043551Y-110051764D01*
X128088797Y-110139450D01*
X128089330Y-110140548D01*
X128136368Y-110244119D01*
X128181848Y-110356259D01*
X128181850Y-110356262D01*
X128189971Y-110369107D01*
X128195884Y-110382609D01*
X128224317Y-110488716D01*
X128224319Y-110488723D01*
X128319660Y-110718887D01*
X128420860Y-110894167D01*
X128444229Y-110934641D01*
X128595894Y-111132289D01*
X128616074Y-111152468D01*
X128661683Y-111198076D01*
X128661684Y-111198077D01*
X128744470Y-111280862D01*
X128744481Y-111280875D01*
X128773614Y-111310007D01*
X128773647Y-111310088D01*
X128876048Y-111412482D01*
X128876058Y-111412490D01*
X129073694Y-111564134D01*
X129073703Y-111564140D01*
X129222715Y-111650167D01*
X129289463Y-111688702D01*
X129519634Y-111784035D01*
X129741514Y-111843481D01*
X129771268Y-111866311D01*
X129776164Y-111903493D01*
X129753334Y-111933247D01*
X129728833Y-111939812D01*
X115253162Y-111939812D01*
X115253150Y-111939811D01*
X115192584Y-111939811D01*
X115190662Y-111939735D01*
X115023464Y-111926581D01*
X115015869Y-111925378D01*
X114855609Y-111886906D01*
X114848296Y-111884530D01*
X114696013Y-111821456D01*
X114689162Y-111817966D01*
X114548629Y-111731851D01*
X114542409Y-111727332D01*
X114415131Y-111618632D01*
X114413730Y-111617337D01*
X114051047Y-111254654D01*
X114049750Y-111253251D01*
X113940809Y-111125703D01*
X113936291Y-111119485D01*
X113924948Y-111100976D01*
X113850173Y-110978956D01*
X113846682Y-110972105D01*
X113843818Y-110965192D01*
X113783605Y-110819830D01*
X113781230Y-110812518D01*
X113766394Y-110750723D01*
X113742752Y-110652251D01*
X113741550Y-110644662D01*
X113740690Y-110633741D01*
X113731698Y-110519485D01*
X113728404Y-110477629D01*
X113728328Y-110475706D01*
X113728328Y-110318125D01*
X113732323Y-110298745D01*
X113759194Y-110236366D01*
X113759690Y-110235290D01*
X113798649Y-110156495D01*
X113799411Y-110155075D01*
X113807836Y-110140553D01*
X113829893Y-110102532D01*
X113859693Y-110079766D01*
X113876547Y-110078309D01*
X113893201Y-110079766D01*
X114005141Y-110089559D01*
X114014202Y-110091223D01*
X114027285Y-110094925D01*
X114080912Y-110096235D01*
X114082407Y-110096319D01*
X114089941Y-110096979D01*
X114092212Y-110096729D01*
X114095484Y-110096591D01*
X114171951Y-110098460D01*
X114191589Y-110098940D01*
X114191590Y-110098940D01*
X114351729Y-110061970D01*
X114351729Y-110061969D01*
X114351733Y-110061969D01*
X114497649Y-109986333D01*
X114620171Y-109876785D01*
X114711601Y-109740209D01*
X114766193Y-109585187D01*
X114791908Y-109291265D01*
X115680329Y-109291265D01*
X115685050Y-109414179D01*
X115731970Y-109571567D01*
X115816555Y-109712340D01*
X115933489Y-109827651D01*
X115933492Y-109827653D01*
X116030014Y-109883831D01*
X116067893Y-109450866D01*
X116088815Y-109492348D01*
X116172088Y-109567483D01*
X116276881Y-109607462D01*
X116389039Y-109606886D01*
X116493415Y-109565833D01*
X116565560Y-109499384D01*
X116523779Y-109976950D01*
X116824307Y-110003243D01*
X116857786Y-109620583D01*
X116878937Y-109378815D01*
X116877069Y-109373683D01*
X116877208Y-109371548D01*
X116917348Y-108912727D01*
X117417793Y-108956511D01*
X117397809Y-109184945D01*
X117322404Y-110046821D01*
X117619591Y-110072822D01*
X117661805Y-109590317D01*
X117682726Y-109631797D01*
X117765999Y-109706932D01*
X117870792Y-109746911D01*
X117982950Y-109746335D01*
X118087326Y-109705282D01*
X118159469Y-109638834D01*
X118121893Y-110068343D01*
X118121893Y-110068344D01*
X118151553Y-110061497D01*
X118151559Y-110061495D01*
X118297363Y-109985917D01*
X118297365Y-109985916D01*
X118419787Y-109876456D01*
X118419790Y-109876453D01*
X118511149Y-109739984D01*
X118511150Y-109739981D01*
X118565700Y-109585080D01*
X118591406Y-109291252D01*
X119479829Y-109291252D01*
X119484553Y-109414264D01*
X119522106Y-109540232D01*
X119531508Y-109571770D01*
X119616157Y-109712649D01*
X119616158Y-109712650D01*
X119616159Y-109712651D01*
X119733181Y-109828051D01*
X119875221Y-109910721D01*
X119875225Y-109910722D01*
X119875229Y-109910725D01*
X120033374Y-109955476D01*
X120086986Y-109956785D01*
X120088497Y-109956870D01*
X120154292Y-109962626D01*
X120382145Y-109982560D01*
X120415409Y-109999877D01*
X120422444Y-110011017D01*
X120464623Y-110103373D01*
X120464624Y-110103374D01*
X120464625Y-110103376D01*
X120543740Y-110194680D01*
X120558872Y-110212143D01*
X120679947Y-110289953D01*
X120741485Y-110308022D01*
X120818034Y-110330499D01*
X120818037Y-110330499D01*
X120818039Y-110330500D01*
X120818040Y-110330500D01*
X120961960Y-110330500D01*
X120961961Y-110330500D01*
X120961963Y-110330499D01*
X120961965Y-110330499D01*
X120984795Y-110323795D01*
X121100053Y-110289953D01*
X121221128Y-110212143D01*
X121315377Y-110103373D01*
X121318201Y-110097187D01*
X121345645Y-110071633D01*
X121367040Y-110068728D01*
X121605141Y-110089559D01*
X121614202Y-110091223D01*
X121627285Y-110094925D01*
X121680912Y-110096235D01*
X121682407Y-110096319D01*
X121689941Y-110096979D01*
X121692212Y-110096729D01*
X121695484Y-110096591D01*
X121771951Y-110098460D01*
X121791589Y-110098940D01*
X121791590Y-110098940D01*
X121951729Y-110061970D01*
X121951729Y-110061969D01*
X121951733Y-110061969D01*
X122097649Y-109986333D01*
X122220171Y-109876785D01*
X122311601Y-109740209D01*
X122366193Y-109585187D01*
X122391908Y-109291265D01*
X123280329Y-109291265D01*
X123285050Y-109414179D01*
X123331970Y-109571567D01*
X123416555Y-109712340D01*
X123533489Y-109827651D01*
X123533492Y-109827653D01*
X123630014Y-109883831D01*
X123667893Y-109450866D01*
X123688815Y-109492348D01*
X123772088Y-109567483D01*
X123876881Y-109607462D01*
X123989039Y-109606886D01*
X124093415Y-109565833D01*
X124165560Y-109499384D01*
X124123779Y-109976950D01*
X124424307Y-110003243D01*
X124457786Y-109620583D01*
X124478937Y-109378815D01*
X124477069Y-109373683D01*
X124477208Y-109371548D01*
X124517348Y-108912727D01*
X125017793Y-108956511D01*
X124997809Y-109184945D01*
X124922404Y-110046821D01*
X125219591Y-110072822D01*
X125261805Y-109590317D01*
X125282726Y-109631797D01*
X125365999Y-109706932D01*
X125470792Y-109746911D01*
X125582950Y-109746335D01*
X125687326Y-109705282D01*
X125759469Y-109638834D01*
X125721893Y-110068343D01*
X125721893Y-110068344D01*
X125751553Y-110061497D01*
X125751559Y-110061495D01*
X125897363Y-109985917D01*
X125897365Y-109985916D01*
X126019787Y-109876456D01*
X126019790Y-109876453D01*
X126111149Y-109739984D01*
X126111150Y-109739981D01*
X126165700Y-109585080D01*
X126199003Y-109204419D01*
X125850336Y-109173914D01*
X125893915Y-108675815D01*
X126242582Y-108706319D01*
X126255133Y-108562854D01*
X125906466Y-108532349D01*
X125922485Y-108349264D01*
X125921165Y-108335780D01*
X125935219Y-108239839D01*
X125919940Y-108065181D01*
X125908485Y-108030614D01*
X126298035Y-108064695D01*
X126321188Y-107800058D01*
X126321511Y-107763106D01*
X126289612Y-107602004D01*
X126289612Y-107602003D01*
X126218651Y-107453898D01*
X126113088Y-107328093D01*
X125979554Y-107232491D01*
X125826439Y-107173103D01*
X125826436Y-107173102D01*
X125789982Y-107167003D01*
X125176684Y-107113347D01*
X125146179Y-107462013D01*
X124648081Y-107418435D01*
X124678586Y-107069767D01*
X124065280Y-107016111D01*
X124028328Y-107015788D01*
X123867226Y-107047687D01*
X123867225Y-107047687D01*
X123719119Y-107118648D01*
X123593314Y-107224211D01*
X123497712Y-107357747D01*
X123438323Y-107510862D01*
X123432224Y-107547317D01*
X123409071Y-107811945D01*
X123799536Y-107846106D01*
X123753721Y-107961429D01*
X123728311Y-108134903D01*
X123730572Y-108160759D01*
X123714838Y-108340608D01*
X123365493Y-108310045D01*
X123352942Y-108453510D01*
X123702286Y-108484074D01*
X123658708Y-108982172D01*
X123310038Y-108951669D01*
X123280329Y-109291265D01*
X122391908Y-109291265D01*
X122472794Y-108366739D01*
X122472645Y-108362869D01*
X122472720Y-108359796D01*
X122472784Y-108359064D01*
X122521691Y-107800059D01*
X122521691Y-107800051D01*
X122522014Y-107763073D01*
X122522014Y-107763071D01*
X122490090Y-107601846D01*
X122419075Y-107453626D01*
X122313430Y-107327723D01*
X122289092Y-107310299D01*
X122179794Y-107232049D01*
X122026556Y-107172612D01*
X121998228Y-107167872D01*
X121990080Y-107166509D01*
X120265280Y-107015609D01*
X120262896Y-107015588D01*
X120228295Y-107015285D01*
X120067067Y-107047209D01*
X120067066Y-107047209D01*
X119918846Y-107118224D01*
X119792945Y-107223868D01*
X119697269Y-107357507D01*
X119637833Y-107510742D01*
X119634023Y-107533518D01*
X119631730Y-107547220D01*
X119541839Y-108574683D01*
X119541839Y-108574690D01*
X119541839Y-108574691D01*
X119541839Y-108574693D01*
X119541771Y-108582375D01*
X119541678Y-108584294D01*
X119479829Y-109291252D01*
X118591406Y-109291252D01*
X118599003Y-109204419D01*
X118250336Y-109173914D01*
X118293915Y-108675815D01*
X118642582Y-108706319D01*
X118655133Y-108562854D01*
X118306466Y-108532349D01*
X118322485Y-108349264D01*
X118321165Y-108335780D01*
X118335219Y-108239839D01*
X118319940Y-108065181D01*
X118308485Y-108030614D01*
X118698035Y-108064695D01*
X118721188Y-107800058D01*
X118721511Y-107763106D01*
X118689612Y-107602004D01*
X118689612Y-107602003D01*
X118618651Y-107453898D01*
X118513088Y-107328093D01*
X118379554Y-107232491D01*
X118226439Y-107173103D01*
X118226436Y-107173102D01*
X118189982Y-107167003D01*
X117576684Y-107113347D01*
X117546179Y-107462013D01*
X117048081Y-107418435D01*
X117078586Y-107069767D01*
X116465280Y-107016111D01*
X116428328Y-107015788D01*
X116267226Y-107047687D01*
X116267225Y-107047687D01*
X116119119Y-107118648D01*
X115993314Y-107224211D01*
X115897712Y-107357747D01*
X115838323Y-107510862D01*
X115832224Y-107547317D01*
X115809071Y-107811945D01*
X116199536Y-107846106D01*
X116153721Y-107961429D01*
X116128311Y-108134903D01*
X116130572Y-108160759D01*
X116114838Y-108340608D01*
X115765493Y-108310045D01*
X115752942Y-108453510D01*
X116102286Y-108484074D01*
X116058708Y-108982172D01*
X115710038Y-108951669D01*
X115680329Y-109291265D01*
X114791908Y-109291265D01*
X114872794Y-108366739D01*
X114872645Y-108362869D01*
X114872720Y-108359796D01*
X114872784Y-108359064D01*
X114921691Y-107800059D01*
X114921691Y-107800051D01*
X114922014Y-107763073D01*
X114922014Y-107763071D01*
X114890090Y-107601846D01*
X114819075Y-107453626D01*
X114713430Y-107327723D01*
X114689092Y-107310299D01*
X114579794Y-107232049D01*
X114426556Y-107172612D01*
X114398228Y-107167872D01*
X114390080Y-107166509D01*
X112665280Y-107015609D01*
X112662896Y-107015588D01*
X112628295Y-107015285D01*
X112467067Y-107047209D01*
X112467066Y-107047209D01*
X112318846Y-107118224D01*
X112192945Y-107223868D01*
X112097269Y-107357507D01*
X112037833Y-107510742D01*
X112034023Y-107533518D01*
X112031730Y-107547220D01*
X111941839Y-108574683D01*
X111941839Y-108574690D01*
X111941839Y-108574691D01*
X111941839Y-108574693D01*
X111941771Y-108582375D01*
X111941678Y-108584294D01*
X111879829Y-109291252D01*
X110991406Y-109291252D01*
X110999003Y-109204419D01*
X110650336Y-109173914D01*
X110693915Y-108675815D01*
X111042582Y-108706319D01*
X111055133Y-108562854D01*
X110706466Y-108532349D01*
X110722485Y-108349264D01*
X110721165Y-108335780D01*
X110735219Y-108239839D01*
X110719940Y-108065181D01*
X110708485Y-108030614D01*
X111098035Y-108064695D01*
X111121188Y-107800058D01*
X111121511Y-107763106D01*
X111089612Y-107602004D01*
X111089612Y-107602003D01*
X111018651Y-107453898D01*
X110913088Y-107328093D01*
X110779554Y-107232491D01*
X110626439Y-107173103D01*
X110626436Y-107173102D01*
X110589982Y-107167003D01*
X109976684Y-107113347D01*
X109946179Y-107462013D01*
X109448081Y-107418435D01*
X109478586Y-107069767D01*
X108865280Y-107016111D01*
X108828328Y-107015788D01*
X108667226Y-107047687D01*
X108667225Y-107047687D01*
X108519119Y-107118648D01*
X108393314Y-107224211D01*
X108297712Y-107357747D01*
X108238323Y-107510862D01*
X108232224Y-107547317D01*
X108209071Y-107811945D01*
X108599536Y-107846106D01*
X108553721Y-107961429D01*
X108528311Y-108134903D01*
X108530572Y-108160759D01*
X108514838Y-108340608D01*
X108165493Y-108310045D01*
X108152942Y-108453510D01*
X108502286Y-108484074D01*
X108458708Y-108982172D01*
X108110038Y-108951669D01*
X108080329Y-109291265D01*
X107191908Y-109291265D01*
X107272794Y-108366739D01*
X107272645Y-108362869D01*
X107272720Y-108359796D01*
X107272784Y-108359064D01*
X107321691Y-107800059D01*
X107321691Y-107800051D01*
X107322014Y-107763073D01*
X107322014Y-107763071D01*
X107290090Y-107601846D01*
X107219075Y-107453626D01*
X107113430Y-107327723D01*
X107089092Y-107310299D01*
X106979794Y-107232049D01*
X106826556Y-107172612D01*
X106798228Y-107167872D01*
X106790080Y-107166509D01*
X105065280Y-107015609D01*
X105062896Y-107015588D01*
X105028295Y-107015285D01*
X104867067Y-107047209D01*
X104867066Y-107047209D01*
X104718846Y-107118224D01*
X104592945Y-107223868D01*
X104497269Y-107357507D01*
X104437833Y-107510742D01*
X104434023Y-107533518D01*
X104431730Y-107547220D01*
X104341839Y-108574683D01*
X104341839Y-108574690D01*
X104341839Y-108574691D01*
X104341839Y-108574693D01*
X104341771Y-108582375D01*
X104341678Y-108584294D01*
X104279829Y-109291252D01*
X103200534Y-109291252D01*
X103200534Y-105775156D01*
X154681984Y-105775156D01*
X154701344Y-106082885D01*
X154759121Y-106385767D01*
X154854406Y-106679023D01*
X154985694Y-106958023D01*
X155148243Y-107214162D01*
X155150913Y-107218368D01*
X155226966Y-107310300D01*
X155347454Y-107455944D01*
X155347461Y-107455952D01*
X155572228Y-107667024D01*
X155572231Y-107667026D01*
X155572233Y-107667028D01*
X155821689Y-107848268D01*
X156091894Y-107996815D01*
X156378586Y-108110324D01*
X156677243Y-108187006D01*
X156983157Y-108225652D01*
X156983158Y-108225652D01*
X157291500Y-108225652D01*
X157291501Y-108225652D01*
X157597415Y-108187006D01*
X157896072Y-108110324D01*
X158182764Y-107996815D01*
X158452969Y-107848268D01*
X158702425Y-107667028D01*
X158927198Y-107455951D01*
X159123745Y-107218368D01*
X159288964Y-106958023D01*
X159420251Y-106679025D01*
X159515535Y-106385771D01*
X159515646Y-106385192D01*
X159553723Y-106185583D01*
X159573313Y-106082888D01*
X159584523Y-105904703D01*
X159592674Y-105775156D01*
X159592674Y-105775147D01*
X159573313Y-105467418D01*
X159564779Y-105422683D01*
X159541333Y-105299769D01*
X159515536Y-105164536D01*
X159504315Y-105130000D01*
X184224417Y-105130000D01*
X184244700Y-105335934D01*
X184244700Y-105335935D01*
X184263320Y-105397316D01*
X184304768Y-105533954D01*
X184402315Y-105716450D01*
X184533590Y-105876410D01*
X184693550Y-106007685D01*
X184876046Y-106105232D01*
X185074066Y-106165300D01*
X185280000Y-106185583D01*
X185485934Y-106165300D01*
X185683954Y-106105232D01*
X185866450Y-106007685D01*
X186026410Y-105876410D01*
X186157685Y-105716450D01*
X186255232Y-105533954D01*
X186315300Y-105335934D01*
X186335583Y-105130000D01*
X186315300Y-104924066D01*
X186255232Y-104726046D01*
X186157685Y-104543550D01*
X186026410Y-104383590D01*
X185866450Y-104252315D01*
X185683954Y-104154768D01*
X185485934Y-104094700D01*
X185280000Y-104074417D01*
X185074065Y-104094700D01*
X185074064Y-104094700D01*
X184876043Y-104154769D01*
X184693548Y-104252316D01*
X184533590Y-104383590D01*
X184402316Y-104543548D01*
X184304769Y-104726043D01*
X184244700Y-104924064D01*
X184244700Y-104924065D01*
X184224417Y-105129999D01*
X184224417Y-105130000D01*
X159504315Y-105130000D01*
X159468671Y-105020300D01*
X159420251Y-104871279D01*
X159288964Y-104592281D01*
X159154968Y-104381136D01*
X159123747Y-104331939D01*
X159092493Y-104294160D01*
X158927198Y-104094353D01*
X158927196Y-104094351D01*
X158810750Y-103985000D01*
X182244417Y-103985000D01*
X182264700Y-104190934D01*
X182264700Y-104190935D01*
X182283320Y-104252316D01*
X182324768Y-104388954D01*
X182422315Y-104571450D01*
X182553590Y-104731410D01*
X182713550Y-104862685D01*
X182896046Y-104960232D01*
X183094066Y-105020300D01*
X183300000Y-105040583D01*
X183505934Y-105020300D01*
X183703954Y-104960232D01*
X183886450Y-104862685D01*
X184046410Y-104731410D01*
X184177685Y-104571450D01*
X184275232Y-104388954D01*
X184335300Y-104190934D01*
X184355583Y-103985000D01*
X186204417Y-103985000D01*
X186224700Y-104190934D01*
X186224700Y-104190935D01*
X186243320Y-104252316D01*
X186284768Y-104388954D01*
X186382315Y-104571450D01*
X186513590Y-104731410D01*
X186673550Y-104862685D01*
X186856046Y-104960232D01*
X187054066Y-105020300D01*
X187260000Y-105040583D01*
X187465934Y-105020300D01*
X187663954Y-104960232D01*
X187846450Y-104862685D01*
X188006410Y-104731410D01*
X188137685Y-104571450D01*
X188235232Y-104388954D01*
X188295300Y-104190934D01*
X188315583Y-103985000D01*
X188295300Y-103779066D01*
X188235232Y-103581046D01*
X188137685Y-103398550D01*
X188006410Y-103238590D01*
X187846450Y-103107315D01*
X187663954Y-103009768D01*
X187465934Y-102949700D01*
X187260000Y-102929417D01*
X187054065Y-102949700D01*
X187054064Y-102949700D01*
X186856043Y-103009769D01*
X186673548Y-103107316D01*
X186513590Y-103238590D01*
X186382316Y-103398548D01*
X186284769Y-103581043D01*
X186224700Y-103779064D01*
X186224700Y-103779065D01*
X186204417Y-103984999D01*
X186204417Y-103985000D01*
X184355583Y-103985000D01*
X184335300Y-103779066D01*
X184275232Y-103581046D01*
X184177685Y-103398550D01*
X184046410Y-103238590D01*
X183886450Y-103107315D01*
X183703954Y-103009768D01*
X183505934Y-102949700D01*
X183300000Y-102929417D01*
X183094065Y-102949700D01*
X183094064Y-102949700D01*
X182896043Y-103009769D01*
X182713548Y-103107316D01*
X182553590Y-103238590D01*
X182422316Y-103398548D01*
X182324769Y-103581043D01*
X182264700Y-103779064D01*
X182264700Y-103779065D01*
X182244417Y-103984999D01*
X182244417Y-103985000D01*
X158810750Y-103985000D01*
X158702429Y-103883279D01*
X158702421Y-103883273D01*
X158452976Y-103702041D01*
X158452970Y-103702037D01*
X158452971Y-103702037D01*
X158452969Y-103702036D01*
X158182764Y-103553489D01*
X158033777Y-103494501D01*
X157896073Y-103439980D01*
X157597414Y-103363297D01*
X157291503Y-103324652D01*
X157291501Y-103324652D01*
X156983157Y-103324652D01*
X156983154Y-103324652D01*
X156677243Y-103363297D01*
X156378584Y-103439980D01*
X156091891Y-103553490D01*
X155821687Y-103702037D01*
X155821681Y-103702041D01*
X155572236Y-103883273D01*
X155572228Y-103883279D01*
X155347461Y-104094351D01*
X155347454Y-104094359D01*
X155150910Y-104331939D01*
X154985694Y-104592280D01*
X154854406Y-104871280D01*
X154759121Y-105164536D01*
X154701344Y-105467418D01*
X154681984Y-105775147D01*
X154681984Y-105775156D01*
X103200534Y-105775156D01*
X103200534Y-104752965D01*
X103979234Y-104752965D01*
X104011159Y-104914193D01*
X104082174Y-105062413D01*
X104187818Y-105188315D01*
X104321454Y-105283989D01*
X104321455Y-105283989D01*
X104321456Y-105283990D01*
X104474688Y-105343425D01*
X104474690Y-105343425D01*
X104474692Y-105343426D01*
X104492819Y-105346459D01*
X104511169Y-105349530D01*
X106235969Y-105500430D01*
X106262868Y-105500664D01*
X106272953Y-105500753D01*
X106272953Y-105500752D01*
X106272956Y-105500753D01*
X106434181Y-105468830D01*
X106582402Y-105397815D01*
X106708304Y-105292170D01*
X106803979Y-105158533D01*
X106863414Y-105005301D01*
X106869519Y-104968819D01*
X106888407Y-104752932D01*
X107779739Y-104752932D01*
X107811638Y-104914034D01*
X107811638Y-104914035D01*
X107882599Y-105062140D01*
X107988162Y-105187945D01*
X108121696Y-105283547D01*
X108274811Y-105342935D01*
X108274814Y-105342936D01*
X108311269Y-105349036D01*
X108924565Y-105402690D01*
X108955069Y-105054024D01*
X109453167Y-105097603D01*
X109422663Y-105446270D01*
X110035971Y-105499928D01*
X110072922Y-105500250D01*
X110234024Y-105468351D01*
X110234025Y-105468351D01*
X110382131Y-105397390D01*
X110507936Y-105291827D01*
X110603538Y-105158291D01*
X110662927Y-105005176D01*
X110669027Y-104968722D01*
X110687902Y-104752965D01*
X111579236Y-104752965D01*
X111611161Y-104914193D01*
X111682176Y-105062413D01*
X111787820Y-105188315D01*
X111921456Y-105283989D01*
X111921457Y-105283989D01*
X111921458Y-105283990D01*
X112074690Y-105343425D01*
X112074692Y-105343425D01*
X112074694Y-105343426D01*
X112092821Y-105346459D01*
X112111171Y-105349530D01*
X113835971Y-105500430D01*
X113862870Y-105500664D01*
X113872955Y-105500753D01*
X113872955Y-105500752D01*
X113872958Y-105500753D01*
X114034183Y-105468830D01*
X114182404Y-105397815D01*
X114308306Y-105292170D01*
X114403981Y-105158533D01*
X114463416Y-105005301D01*
X114469521Y-104968819D01*
X114488409Y-104752932D01*
X115379739Y-104752932D01*
X115411638Y-104914034D01*
X115411638Y-104914035D01*
X115482599Y-105062140D01*
X115588162Y-105187945D01*
X115721696Y-105283547D01*
X115874811Y-105342935D01*
X115874814Y-105342936D01*
X115911269Y-105349036D01*
X116524565Y-105402690D01*
X116555069Y-105054024D01*
X117053167Y-105097603D01*
X117022663Y-105446270D01*
X117635971Y-105499928D01*
X117672922Y-105500250D01*
X117834024Y-105468351D01*
X117834025Y-105468351D01*
X117982131Y-105397390D01*
X118107936Y-105291827D01*
X118203538Y-105158291D01*
X118262927Y-105005176D01*
X118269027Y-104968722D01*
X118287902Y-104752965D01*
X119179236Y-104752965D01*
X119211161Y-104914193D01*
X119282176Y-105062413D01*
X119387820Y-105188315D01*
X119521456Y-105283989D01*
X119521457Y-105283989D01*
X119521458Y-105283990D01*
X119674690Y-105343425D01*
X119674692Y-105343425D01*
X119674694Y-105343426D01*
X119692821Y-105346459D01*
X119711171Y-105349530D01*
X121435971Y-105500430D01*
X121462870Y-105500664D01*
X121472955Y-105500753D01*
X121472955Y-105500752D01*
X121472958Y-105500753D01*
X121634183Y-105468830D01*
X121782404Y-105397815D01*
X121908306Y-105292170D01*
X122003981Y-105158533D01*
X122063416Y-105005301D01*
X122069521Y-104968819D01*
X122088406Y-104752965D01*
X122979236Y-104752965D01*
X123011161Y-104914193D01*
X123082176Y-105062413D01*
X123187820Y-105188315D01*
X123321456Y-105283989D01*
X123321457Y-105283989D01*
X123321458Y-105283990D01*
X123474690Y-105343425D01*
X123474692Y-105343425D01*
X123474694Y-105343426D01*
X123492821Y-105346459D01*
X123511171Y-105349530D01*
X125235971Y-105500430D01*
X125262870Y-105500664D01*
X125272955Y-105500753D01*
X125272955Y-105500752D01*
X125272958Y-105500753D01*
X125434183Y-105468830D01*
X125582404Y-105397815D01*
X125708306Y-105292170D01*
X125803981Y-105158533D01*
X125863416Y-105005301D01*
X125869521Y-104968819D01*
X125888406Y-104752965D01*
X126779236Y-104752965D01*
X126811161Y-104914193D01*
X126882176Y-105062413D01*
X126987820Y-105188315D01*
X127121456Y-105283989D01*
X127121457Y-105283989D01*
X127121458Y-105283990D01*
X127274690Y-105343425D01*
X127274692Y-105343425D01*
X127274694Y-105343426D01*
X127292821Y-105346459D01*
X127311171Y-105349530D01*
X129035971Y-105500430D01*
X129062870Y-105500664D01*
X129072955Y-105500753D01*
X129072955Y-105500752D01*
X129072958Y-105500753D01*
X129234183Y-105468830D01*
X129382404Y-105397815D01*
X129508306Y-105292170D01*
X129603981Y-105158533D01*
X129663416Y-105005301D01*
X129669521Y-104968819D01*
X129688406Y-104752965D01*
X130579236Y-104752965D01*
X130611161Y-104914193D01*
X130682176Y-105062413D01*
X130787820Y-105188315D01*
X130921456Y-105283989D01*
X130921457Y-105283989D01*
X130921458Y-105283990D01*
X131074690Y-105343425D01*
X131074692Y-105343425D01*
X131074694Y-105343426D01*
X131092821Y-105346459D01*
X131111171Y-105349530D01*
X132835971Y-105500430D01*
X132862870Y-105500664D01*
X132872955Y-105500753D01*
X132872955Y-105500752D01*
X132872958Y-105500753D01*
X133034183Y-105468830D01*
X133182404Y-105397815D01*
X133308306Y-105292170D01*
X133403981Y-105158533D01*
X133463416Y-105005301D01*
X133469521Y-104968819D01*
X133488409Y-104752932D01*
X134379739Y-104752932D01*
X134411638Y-104914034D01*
X134411638Y-104914035D01*
X134482599Y-105062140D01*
X134588162Y-105187945D01*
X134721696Y-105283547D01*
X134874811Y-105342935D01*
X134874814Y-105342936D01*
X134911269Y-105349036D01*
X135524565Y-105402690D01*
X135555069Y-105054024D01*
X136053167Y-105097603D01*
X136022663Y-105446270D01*
X136635971Y-105499928D01*
X136672922Y-105500250D01*
X136834024Y-105468351D01*
X136834025Y-105468351D01*
X136982131Y-105397390D01*
X137107936Y-105291827D01*
X137203538Y-105158291D01*
X137262927Y-105005176D01*
X137269027Y-104968722D01*
X137287902Y-104752965D01*
X138179236Y-104752965D01*
X138211161Y-104914193D01*
X138282176Y-105062413D01*
X138387820Y-105188315D01*
X138521456Y-105283989D01*
X138521457Y-105283989D01*
X138521458Y-105283990D01*
X138674690Y-105343425D01*
X138674692Y-105343425D01*
X138674694Y-105343426D01*
X138692821Y-105346459D01*
X138711171Y-105349530D01*
X140435971Y-105500430D01*
X140462870Y-105500664D01*
X140472955Y-105500753D01*
X140472955Y-105500752D01*
X140472958Y-105500753D01*
X140634183Y-105468830D01*
X140782404Y-105397815D01*
X140908306Y-105292170D01*
X141003981Y-105158533D01*
X141063416Y-105005301D01*
X141069521Y-104968819D01*
X141159412Y-103941356D01*
X141159412Y-103941349D01*
X141218262Y-103268695D01*
X141213537Y-103145682D01*
X141166583Y-102988177D01*
X141081934Y-102847297D01*
X141081933Y-102847296D01*
X141081930Y-102847291D01*
X140964913Y-102731898D01*
X140964905Y-102731893D01*
X140822869Y-102649225D01*
X140822862Y-102649222D01*
X140664714Y-102604470D01*
X140664715Y-102604470D01*
X140607236Y-102603066D01*
X140605699Y-102602980D01*
X140313268Y-102577396D01*
X140280003Y-102560079D01*
X140272967Y-102548937D01*
X140265075Y-102531657D01*
X140235377Y-102466627D01*
X140233986Y-102465022D01*
X140141128Y-102357857D01*
X140113342Y-102340000D01*
X140020053Y-102280047D01*
X140017979Y-102279438D01*
X139881965Y-102239500D01*
X139881961Y-102239500D01*
X139738039Y-102239500D01*
X139738034Y-102239500D01*
X139599949Y-102280046D01*
X139599947Y-102280046D01*
X139599947Y-102280047D01*
X139584690Y-102289852D01*
X139478871Y-102357857D01*
X139384623Y-102466625D01*
X139382729Y-102469574D01*
X139380928Y-102468416D01*
X139358229Y-102489227D01*
X139337188Y-102492000D01*
X139094211Y-102470742D01*
X139085142Y-102469077D01*
X139070807Y-102465021D01*
X139070802Y-102465020D01*
X139013318Y-102463616D01*
X139011787Y-102463530D01*
X139009324Y-102463315D01*
X139009093Y-102463317D01*
X139006169Y-102463440D01*
X138995936Y-102463190D01*
X138906501Y-102461005D01*
X138906500Y-102461005D01*
X138746361Y-102497975D01*
X138746356Y-102497977D01*
X138600441Y-102573613D01*
X138600439Y-102573614D01*
X138477922Y-102683159D01*
X138477919Y-102683162D01*
X138386490Y-102819736D01*
X138386489Y-102819739D01*
X138331898Y-102974758D01*
X138284084Y-103521263D01*
X138269452Y-103688505D01*
X138269451Y-103688517D01*
X138179560Y-104715980D01*
X138179560Y-104715988D01*
X138179236Y-104752965D01*
X137287902Y-104752965D01*
X137292177Y-104704092D01*
X136901715Y-104669931D01*
X136947530Y-104554610D01*
X136972940Y-104381136D01*
X136971018Y-104359173D01*
X136987089Y-104175487D01*
X137335756Y-104205992D01*
X137344472Y-104106375D01*
X136995804Y-104075870D01*
X137039383Y-103577772D01*
X137388050Y-103608276D01*
X137417761Y-103268681D01*
X137413040Y-103145767D01*
X137366120Y-102988379D01*
X137281535Y-102847606D01*
X137164600Y-102732293D01*
X137164597Y-102732291D01*
X137068076Y-102676113D01*
X137068075Y-102676114D01*
X137030196Y-103109076D01*
X137009276Y-103067599D01*
X136926003Y-102992464D01*
X136821210Y-102952485D01*
X136709052Y-102953061D01*
X136604676Y-102994114D01*
X136532528Y-103060565D01*
X136574289Y-102583236D01*
X136274955Y-102557049D01*
X136242274Y-102930622D01*
X136224001Y-103139476D01*
X136224349Y-103140428D01*
X136224207Y-103142612D01*
X136183900Y-103603310D01*
X135685327Y-103559691D01*
X135702510Y-103363298D01*
X135776858Y-102513469D01*
X135478476Y-102487365D01*
X135436285Y-102969626D01*
X135415365Y-102928149D01*
X135332092Y-102853014D01*
X135227299Y-102813035D01*
X135115141Y-102813611D01*
X135010765Y-102854664D01*
X134938618Y-102921114D01*
X134976196Y-102491601D01*
X134946529Y-102498451D01*
X134800727Y-102574028D01*
X134800725Y-102574029D01*
X134678303Y-102683489D01*
X134678300Y-102683492D01*
X134586941Y-102819961D01*
X134586940Y-102819964D01*
X134532390Y-102974865D01*
X134499086Y-103355525D01*
X134847754Y-103386029D01*
X134804175Y-103884128D01*
X134455507Y-103853624D01*
X134446792Y-103953242D01*
X134795460Y-103983746D01*
X134775606Y-104210682D01*
X134775615Y-104210775D01*
X134766032Y-104276200D01*
X134781311Y-104450858D01*
X134792764Y-104485421D01*
X134403214Y-104451341D01*
X134380063Y-104715980D01*
X134380063Y-104715981D01*
X134379739Y-104752932D01*
X133488409Y-104752932D01*
X133559412Y-103941356D01*
X133559412Y-103941349D01*
X133618262Y-103268695D01*
X133613537Y-103145682D01*
X133566583Y-102988177D01*
X133481934Y-102847297D01*
X133481933Y-102847296D01*
X133481930Y-102847291D01*
X133364913Y-102731898D01*
X133364905Y-102731893D01*
X133222869Y-102649225D01*
X133222862Y-102649222D01*
X133064714Y-102604470D01*
X133064715Y-102604470D01*
X133007236Y-102603066D01*
X133005699Y-102602980D01*
X132713268Y-102577396D01*
X132680003Y-102560079D01*
X132672967Y-102548937D01*
X132665075Y-102531657D01*
X132635377Y-102466627D01*
X132633986Y-102465022D01*
X132541128Y-102357857D01*
X132513342Y-102340000D01*
X132420053Y-102280047D01*
X132417979Y-102279438D01*
X132281965Y-102239500D01*
X132281961Y-102239500D01*
X132138039Y-102239500D01*
X132138034Y-102239500D01*
X131999949Y-102280046D01*
X131999947Y-102280046D01*
X131999947Y-102280047D01*
X131984690Y-102289852D01*
X131878871Y-102357857D01*
X131784623Y-102466625D01*
X131782729Y-102469574D01*
X131780928Y-102468416D01*
X131758229Y-102489227D01*
X131737188Y-102492000D01*
X131494211Y-102470742D01*
X131485142Y-102469077D01*
X131470807Y-102465021D01*
X131470802Y-102465020D01*
X131413318Y-102463616D01*
X131411787Y-102463530D01*
X131409324Y-102463315D01*
X131409093Y-102463317D01*
X131406169Y-102463440D01*
X131395936Y-102463190D01*
X131306501Y-102461005D01*
X131306500Y-102461005D01*
X131146361Y-102497975D01*
X131146356Y-102497977D01*
X131000441Y-102573613D01*
X131000439Y-102573614D01*
X130877922Y-102683159D01*
X130877919Y-102683162D01*
X130786490Y-102819736D01*
X130786489Y-102819739D01*
X130731898Y-102974758D01*
X130684084Y-103521263D01*
X130669452Y-103688505D01*
X130669451Y-103688517D01*
X130579560Y-104715980D01*
X130579560Y-104715988D01*
X130579236Y-104752965D01*
X129688406Y-104752965D01*
X129759412Y-103941356D01*
X129759412Y-103941349D01*
X129818262Y-103268695D01*
X129813537Y-103145682D01*
X129766583Y-102988177D01*
X129681934Y-102847297D01*
X129681933Y-102847296D01*
X129681930Y-102847291D01*
X129564913Y-102731898D01*
X129564905Y-102731893D01*
X129422869Y-102649225D01*
X129422862Y-102649222D01*
X129264714Y-102604470D01*
X129264715Y-102604470D01*
X129207236Y-102603066D01*
X129205699Y-102602980D01*
X127694211Y-102470742D01*
X127685142Y-102469077D01*
X127670807Y-102465021D01*
X127670802Y-102465020D01*
X127613318Y-102463616D01*
X127611787Y-102463530D01*
X127609324Y-102463315D01*
X127609093Y-102463317D01*
X127606169Y-102463440D01*
X127595936Y-102463190D01*
X127506501Y-102461005D01*
X127506500Y-102461005D01*
X127346361Y-102497975D01*
X127346356Y-102497977D01*
X127200441Y-102573613D01*
X127200439Y-102573614D01*
X127077922Y-102683159D01*
X127077919Y-102683162D01*
X126986490Y-102819736D01*
X126986489Y-102819739D01*
X126931898Y-102974758D01*
X126884084Y-103521263D01*
X126869452Y-103688505D01*
X126869451Y-103688517D01*
X126779560Y-104715980D01*
X126779560Y-104715988D01*
X126779236Y-104752965D01*
X125888406Y-104752965D01*
X125959412Y-103941356D01*
X125959412Y-103941349D01*
X126018262Y-103268695D01*
X126013537Y-103145682D01*
X125966583Y-102988177D01*
X125881934Y-102847297D01*
X125881933Y-102847296D01*
X125881930Y-102847291D01*
X125764913Y-102731898D01*
X125764905Y-102731893D01*
X125622869Y-102649225D01*
X125622862Y-102649222D01*
X125464714Y-102604470D01*
X125464715Y-102604470D01*
X125407236Y-102603066D01*
X125405699Y-102602980D01*
X123894211Y-102470742D01*
X123885142Y-102469077D01*
X123870807Y-102465021D01*
X123870802Y-102465020D01*
X123813318Y-102463616D01*
X123811787Y-102463530D01*
X123809324Y-102463315D01*
X123809093Y-102463317D01*
X123806169Y-102463440D01*
X123795936Y-102463190D01*
X123706501Y-102461005D01*
X123706500Y-102461005D01*
X123546361Y-102497975D01*
X123546356Y-102497977D01*
X123400441Y-102573613D01*
X123400439Y-102573614D01*
X123277922Y-102683159D01*
X123277919Y-102683162D01*
X123186490Y-102819736D01*
X123186489Y-102819739D01*
X123131898Y-102974758D01*
X123084084Y-103521263D01*
X123069452Y-103688505D01*
X123069451Y-103688517D01*
X122979560Y-104715980D01*
X122979560Y-104715988D01*
X122979236Y-104752965D01*
X122088406Y-104752965D01*
X122159412Y-103941356D01*
X122159412Y-103941349D01*
X122218262Y-103268695D01*
X122213537Y-103145682D01*
X122166583Y-102988177D01*
X122081934Y-102847297D01*
X122081933Y-102847296D01*
X122081930Y-102847291D01*
X121964913Y-102731898D01*
X121964905Y-102731893D01*
X121822869Y-102649225D01*
X121822862Y-102649222D01*
X121664714Y-102604470D01*
X121664715Y-102604470D01*
X121607236Y-102603066D01*
X121605699Y-102602980D01*
X120094211Y-102470742D01*
X120085142Y-102469077D01*
X120070807Y-102465021D01*
X120070802Y-102465020D01*
X120013318Y-102463616D01*
X120011787Y-102463530D01*
X120009324Y-102463315D01*
X120009093Y-102463317D01*
X120006169Y-102463440D01*
X119995936Y-102463190D01*
X119906501Y-102461005D01*
X119906500Y-102461005D01*
X119746361Y-102497975D01*
X119746356Y-102497977D01*
X119600441Y-102573613D01*
X119600439Y-102573614D01*
X119477922Y-102683159D01*
X119477919Y-102683162D01*
X119386490Y-102819736D01*
X119386489Y-102819739D01*
X119331898Y-102974758D01*
X119284084Y-103521263D01*
X119269452Y-103688505D01*
X119269451Y-103688517D01*
X119179560Y-104715980D01*
X119179560Y-104715988D01*
X119179236Y-104752965D01*
X118287902Y-104752965D01*
X118292177Y-104704092D01*
X117901715Y-104669931D01*
X117947530Y-104554610D01*
X117972940Y-104381136D01*
X117971018Y-104359173D01*
X117987089Y-104175487D01*
X118335756Y-104205992D01*
X118344472Y-104106375D01*
X117995804Y-104075870D01*
X118039383Y-103577772D01*
X118388050Y-103608276D01*
X118417761Y-103268681D01*
X118413040Y-103145767D01*
X118366120Y-102988379D01*
X118281535Y-102847606D01*
X118164600Y-102732293D01*
X118164597Y-102732291D01*
X118068076Y-102676113D01*
X118068075Y-102676114D01*
X118030196Y-103109076D01*
X118009276Y-103067599D01*
X117926003Y-102992464D01*
X117821210Y-102952485D01*
X117709052Y-102953061D01*
X117604676Y-102994114D01*
X117532528Y-103060565D01*
X117574289Y-102583236D01*
X117274955Y-102557049D01*
X117242274Y-102930622D01*
X117224001Y-103139476D01*
X117224349Y-103140428D01*
X117224207Y-103142612D01*
X117183900Y-103603310D01*
X116685327Y-103559691D01*
X116702510Y-103363298D01*
X116776858Y-102513469D01*
X116478476Y-102487365D01*
X116436285Y-102969626D01*
X116415365Y-102928149D01*
X116332092Y-102853014D01*
X116227299Y-102813035D01*
X116115141Y-102813611D01*
X116010765Y-102854664D01*
X115938618Y-102921114D01*
X115976196Y-102491601D01*
X115946529Y-102498451D01*
X115800727Y-102574028D01*
X115800725Y-102574029D01*
X115678303Y-102683489D01*
X115678300Y-102683492D01*
X115586941Y-102819961D01*
X115586940Y-102819964D01*
X115532390Y-102974865D01*
X115499086Y-103355525D01*
X115847754Y-103386029D01*
X115804175Y-103884128D01*
X115455507Y-103853624D01*
X115446792Y-103953242D01*
X115795460Y-103983746D01*
X115775606Y-104210682D01*
X115775615Y-104210775D01*
X115766032Y-104276200D01*
X115781311Y-104450858D01*
X115792764Y-104485421D01*
X115403214Y-104451341D01*
X115380063Y-104715980D01*
X115380063Y-104715981D01*
X115379739Y-104752932D01*
X114488409Y-104752932D01*
X114559412Y-103941356D01*
X114559412Y-103941349D01*
X114618262Y-103268695D01*
X114613537Y-103145682D01*
X114566583Y-102988177D01*
X114481934Y-102847297D01*
X114481933Y-102847296D01*
X114481930Y-102847291D01*
X114364913Y-102731898D01*
X114364905Y-102731893D01*
X114222869Y-102649225D01*
X114222862Y-102649222D01*
X114064714Y-102604470D01*
X114064715Y-102604470D01*
X114007236Y-102603066D01*
X114005699Y-102602980D01*
X112494211Y-102470742D01*
X112485142Y-102469077D01*
X112470807Y-102465021D01*
X112470802Y-102465020D01*
X112413318Y-102463616D01*
X112411787Y-102463530D01*
X112409324Y-102463315D01*
X112409093Y-102463317D01*
X112406169Y-102463440D01*
X112395936Y-102463190D01*
X112306501Y-102461005D01*
X112306500Y-102461005D01*
X112146361Y-102497975D01*
X112146356Y-102497977D01*
X112000441Y-102573613D01*
X112000439Y-102573614D01*
X111877922Y-102683159D01*
X111877919Y-102683162D01*
X111786490Y-102819736D01*
X111786489Y-102819739D01*
X111731898Y-102974758D01*
X111684084Y-103521263D01*
X111669452Y-103688505D01*
X111669451Y-103688517D01*
X111579560Y-104715980D01*
X111579560Y-104715988D01*
X111579236Y-104752965D01*
X110687902Y-104752965D01*
X110692177Y-104704092D01*
X110301715Y-104669931D01*
X110347530Y-104554610D01*
X110372940Y-104381136D01*
X110371018Y-104359173D01*
X110387089Y-104175487D01*
X110735756Y-104205992D01*
X110744472Y-104106375D01*
X110395804Y-104075870D01*
X110439383Y-103577772D01*
X110788050Y-103608276D01*
X110817761Y-103268681D01*
X110813040Y-103145767D01*
X110766120Y-102988379D01*
X110681535Y-102847606D01*
X110564600Y-102732293D01*
X110564597Y-102732291D01*
X110468076Y-102676113D01*
X110468075Y-102676114D01*
X110430196Y-103109076D01*
X110409276Y-103067599D01*
X110326003Y-102992464D01*
X110221210Y-102952485D01*
X110109052Y-102953061D01*
X110004676Y-102994114D01*
X109932528Y-103060565D01*
X109974289Y-102583236D01*
X109674955Y-102557049D01*
X109642274Y-102930622D01*
X109624001Y-103139476D01*
X109624349Y-103140428D01*
X109624207Y-103142612D01*
X109583900Y-103603310D01*
X109085327Y-103559691D01*
X109102510Y-103363298D01*
X109176858Y-102513469D01*
X108878476Y-102487365D01*
X108836285Y-102969626D01*
X108815365Y-102928149D01*
X108732092Y-102853014D01*
X108627299Y-102813035D01*
X108515141Y-102813611D01*
X108410765Y-102854664D01*
X108338618Y-102921114D01*
X108376196Y-102491601D01*
X108346529Y-102498451D01*
X108200727Y-102574028D01*
X108200725Y-102574029D01*
X108078303Y-102683489D01*
X108078300Y-102683492D01*
X107986941Y-102819961D01*
X107986940Y-102819964D01*
X107932390Y-102974865D01*
X107899086Y-103355525D01*
X108247754Y-103386029D01*
X108204175Y-103884128D01*
X107855507Y-103853624D01*
X107846792Y-103953242D01*
X108195460Y-103983746D01*
X108175606Y-104210682D01*
X108175615Y-104210775D01*
X108166032Y-104276200D01*
X108181311Y-104450858D01*
X108192764Y-104485421D01*
X107803214Y-104451341D01*
X107780063Y-104715980D01*
X107780063Y-104715981D01*
X107779739Y-104752932D01*
X106888407Y-104752932D01*
X106959410Y-103941356D01*
X106959410Y-103941347D01*
X107018260Y-103268694D01*
X107013535Y-103145681D01*
X106966581Y-102988176D01*
X106881932Y-102847296D01*
X106881931Y-102847295D01*
X106881928Y-102847290D01*
X106764911Y-102731897D01*
X106764903Y-102731892D01*
X106622867Y-102649224D01*
X106622860Y-102649221D01*
X106464712Y-102604469D01*
X106407916Y-102603081D01*
X106406380Y-102602995D01*
X106139399Y-102579638D01*
X106106134Y-102562321D01*
X106101555Y-102555870D01*
X106097432Y-102548937D01*
X106087585Y-102532379D01*
X106086777Y-102530906D01*
X106056382Y-102470678D01*
X106048164Y-102454395D01*
X106047602Y-102453200D01*
X106028017Y-102408517D01*
X106006901Y-102360342D01*
X105979592Y-102289846D01*
X105976435Y-102268310D01*
X105985649Y-102151241D01*
X105986849Y-102143660D01*
X106025328Y-101983386D01*
X106027704Y-101976077D01*
X106090779Y-101823799D01*
X106094261Y-101816963D01*
X106180390Y-101676414D01*
X106184896Y-101670213D01*
X106293845Y-101542650D01*
X106295121Y-101541271D01*
X106296333Y-101540060D01*
X106663194Y-101173198D01*
X106664582Y-101171917D01*
X106792120Y-101062991D01*
X106798328Y-101058480D01*
X106938879Y-100972353D01*
X106945710Y-100968873D01*
X107097998Y-100905796D01*
X107105294Y-100903425D01*
X107265573Y-100864947D01*
X107273151Y-100863747D01*
X107341379Y-100858378D01*
X107440551Y-100850576D01*
X107442473Y-100850500D01*
X107498898Y-100850500D01*
X143841495Y-100850500D01*
X143898278Y-100850500D01*
X143899863Y-100850551D01*
X144106255Y-100864076D01*
X144109418Y-100864491D01*
X144311493Y-100904685D01*
X144314585Y-100905514D01*
X144509671Y-100971734D01*
X144512622Y-100972957D01*
X144697395Y-101064072D01*
X144700169Y-101065675D01*
X144871464Y-101180128D01*
X144874007Y-101182079D01*
X145029299Y-101318264D01*
X145030456Y-101319349D01*
X147395880Y-103684773D01*
X147403611Y-103695348D01*
X147403665Y-103695314D01*
X147404287Y-103696274D01*
X147404761Y-103696922D01*
X147404971Y-103697329D01*
X147478980Y-103811487D01*
X147479671Y-103812620D01*
X147556509Y-103946501D01*
X147557042Y-103947481D01*
X147619936Y-104069633D01*
X147635377Y-104099622D01*
X147714798Y-104269755D01*
X147773807Y-104407956D01*
X147780564Y-104423779D01*
X147784500Y-104443021D01*
X147784500Y-104485246D01*
X147784501Y-104485267D01*
X147787274Y-104514842D01*
X147787275Y-104514851D01*
X147814370Y-104592281D01*
X147830884Y-104639475D01*
X147830885Y-104639477D01*
X147830884Y-104639477D01*
X147909288Y-104745711D01*
X148000718Y-104813188D01*
X148015525Y-104824116D01*
X148140151Y-104867725D01*
X148169744Y-104870500D01*
X148169754Y-104870500D01*
X148750246Y-104870500D01*
X148750256Y-104870500D01*
X148779849Y-104867725D01*
X148841776Y-104846054D01*
X148842239Y-104845903D01*
X148842250Y-104845901D01*
X148842259Y-104845896D01*
X148842775Y-104845728D01*
X148843279Y-104845528D01*
X148904475Y-104824116D01*
X148971280Y-104774811D01*
X149021474Y-104739731D01*
X149023438Y-104738494D01*
X149073300Y-104710265D01*
X149110706Y-104689087D01*
X149147928Y-104684507D01*
X149171514Y-104699226D01*
X149270731Y-104811157D01*
X149272343Y-104813182D01*
X149327448Y-104890479D01*
X149409299Y-105005296D01*
X149416815Y-105015838D01*
X149419694Y-105019683D01*
X149420179Y-105020300D01*
X149424306Y-105025553D01*
X149637456Y-105273413D01*
X149640684Y-105276891D01*
X149641018Y-105277181D01*
X149646751Y-105283076D01*
X149653590Y-105291410D01*
X149813550Y-105422685D01*
X149996046Y-105520232D01*
X150194066Y-105580300D01*
X150400000Y-105600583D01*
X150605934Y-105580300D01*
X150803954Y-105520232D01*
X150986450Y-105422685D01*
X151146410Y-105291410D01*
X151277685Y-105131450D01*
X151375232Y-104948954D01*
X151435300Y-104750934D01*
X151455583Y-104545000D01*
X151435300Y-104339066D01*
X151375232Y-104141046D01*
X151277685Y-103958550D01*
X151146410Y-103798590D01*
X150986450Y-103667315D01*
X150803954Y-103569768D01*
X150605934Y-103509700D01*
X150400000Y-103489417D01*
X150399998Y-103489417D01*
X150382866Y-103491104D01*
X150374653Y-103491005D01*
X150374652Y-103491052D01*
X150372245Y-103490994D01*
X149978305Y-103520218D01*
X149969447Y-103521263D01*
X149958636Y-103523017D01*
X149949866Y-103524835D01*
X149861495Y-103547210D01*
X149662794Y-103597519D01*
X149659933Y-103598315D01*
X149658136Y-103598816D01*
X149654571Y-103599899D01*
X149651006Y-103600983D01*
X149415743Y-103684016D01*
X149413601Y-103684664D01*
X149247850Y-103726630D01*
X149216337Y-103724088D01*
X149129968Y-103686655D01*
X149127639Y-103685495D01*
X149023447Y-103626507D01*
X149021481Y-103625268D01*
X148971214Y-103590139D01*
X148943612Y-103569768D01*
X148904475Y-103540884D01*
X148904473Y-103540883D01*
X148904470Y-103540881D01*
X148843766Y-103519641D01*
X148842756Y-103519243D01*
X148840740Y-103518582D01*
X148779854Y-103497276D01*
X148779849Y-103497275D01*
X148779846Y-103497274D01*
X148779842Y-103497274D01*
X148750267Y-103494501D01*
X148750266Y-103494500D01*
X148750256Y-103494500D01*
X148750246Y-103494500D01*
X148698148Y-103494500D01*
X148684153Y-103492458D01*
X148623773Y-103474459D01*
X148555393Y-103454074D01*
X148553241Y-103453322D01*
X148414601Y-103397502D01*
X148412673Y-103396627D01*
X148385893Y-103383045D01*
X148271885Y-103325221D01*
X148270182Y-103324271D01*
X148127272Y-103236850D01*
X148125811Y-103235881D01*
X148030679Y-103167742D01*
X147982829Y-103133469D01*
X147982826Y-103133467D01*
X147982824Y-103133466D01*
X147978869Y-103131476D01*
X147966246Y-103122353D01*
X147504139Y-102660246D01*
X147784500Y-102660246D01*
X147784501Y-102660267D01*
X147787274Y-102689842D01*
X147787275Y-102689851D01*
X147802126Y-102732291D01*
X147830884Y-102814475D01*
X147830885Y-102814477D01*
X147830884Y-102814477D01*
X147909288Y-102920711D01*
X148008747Y-102994114D01*
X148015525Y-102999116D01*
X148140151Y-103042725D01*
X148169744Y-103045500D01*
X148169754Y-103045500D01*
X148750246Y-103045500D01*
X148750256Y-103045500D01*
X148779849Y-103042725D01*
X148841776Y-103021054D01*
X148842239Y-103020903D01*
X148842250Y-103020901D01*
X148842259Y-103020896D01*
X148842775Y-103020728D01*
X148843279Y-103020528D01*
X148904475Y-102999116D01*
X148971280Y-102949811D01*
X149021474Y-102914731D01*
X149023438Y-102913494D01*
X149043768Y-102901983D01*
X149114860Y-102861735D01*
X149152081Y-102857155D01*
X149161214Y-102860702D01*
X149274679Y-102918446D01*
X149277164Y-102919902D01*
X149427891Y-103020564D01*
X149455436Y-103033590D01*
X149461702Y-103037140D01*
X149471769Y-103043867D01*
X149477879Y-103045082D01*
X149480206Y-103045666D01*
X149482340Y-103046313D01*
X149482341Y-103046314D01*
X149488832Y-103048284D01*
X149536872Y-103056811D01*
X149538963Y-103056456D01*
X149540553Y-103056188D01*
X149548732Y-103055500D01*
X151269745Y-103055500D01*
X151269748Y-103055500D01*
X151328231Y-103043867D01*
X151394552Y-102999552D01*
X151438867Y-102933231D01*
X151450500Y-102874748D01*
X151450500Y-102840000D01*
X184224919Y-102840000D01*
X184245192Y-103045836D01*
X184245192Y-103045837D01*
X184305231Y-103243758D01*
X184305236Y-103243770D01*
X184380975Y-103385469D01*
X184380976Y-103385470D01*
X184796922Y-102969523D01*
X184820507Y-103049844D01*
X184898239Y-103170798D01*
X185006900Y-103264952D01*
X185137685Y-103324680D01*
X185147465Y-103326086D01*
X184734528Y-103739022D01*
X184734529Y-103739023D01*
X184876229Y-103814763D01*
X184876241Y-103814768D01*
X185074163Y-103874807D01*
X185280000Y-103895081D01*
X185485836Y-103874807D01*
X185485837Y-103874807D01*
X185683759Y-103814768D01*
X185683766Y-103814765D01*
X185825469Y-103739022D01*
X185825470Y-103739022D01*
X185412533Y-103326086D01*
X185422315Y-103324680D01*
X185553100Y-103264952D01*
X185661761Y-103170798D01*
X185739493Y-103049844D01*
X185763076Y-102969524D01*
X186179022Y-103385470D01*
X186179022Y-103385469D01*
X186254765Y-103243766D01*
X186254768Y-103243759D01*
X186314807Y-103045837D01*
X186314807Y-103045836D01*
X186335081Y-102840000D01*
X186335081Y-102839999D01*
X186314807Y-102634163D01*
X186314807Y-102634162D01*
X186254768Y-102436241D01*
X186254763Y-102436229D01*
X186179023Y-102294529D01*
X186179022Y-102294528D01*
X185763076Y-102710474D01*
X185739493Y-102630156D01*
X185661761Y-102509202D01*
X185553100Y-102415048D01*
X185422315Y-102355320D01*
X185412533Y-102353913D01*
X185825470Y-101940976D01*
X185825469Y-101940975D01*
X185683770Y-101865236D01*
X185683758Y-101865231D01*
X185485836Y-101805192D01*
X185280000Y-101784919D01*
X185074163Y-101805192D01*
X185074162Y-101805192D01*
X184876241Y-101865231D01*
X184876229Y-101865236D01*
X184734529Y-101940974D01*
X184734528Y-101940976D01*
X185147466Y-102353913D01*
X185137685Y-102355320D01*
X185006900Y-102415048D01*
X184898239Y-102509202D01*
X184820507Y-102630156D01*
X184796923Y-102710475D01*
X184380976Y-102294528D01*
X184380974Y-102294529D01*
X184305236Y-102436229D01*
X184305231Y-102436241D01*
X184245192Y-102634162D01*
X184245192Y-102634163D01*
X184224919Y-102839999D01*
X184224919Y-102840000D01*
X151450500Y-102840000D01*
X151450500Y-102414201D01*
X151453175Y-102398233D01*
X151466235Y-102360343D01*
X151580909Y-102027652D01*
X151707971Y-101695000D01*
X182244919Y-101695000D01*
X182265192Y-101900836D01*
X182265192Y-101900837D01*
X182325231Y-102098758D01*
X182325236Y-102098770D01*
X182400975Y-102240469D01*
X182400976Y-102240470D01*
X182816922Y-101824523D01*
X182840507Y-101904844D01*
X182918239Y-102025798D01*
X183026900Y-102119952D01*
X183157685Y-102179680D01*
X183167465Y-102181086D01*
X182754528Y-102594022D01*
X182754529Y-102594023D01*
X182896229Y-102669763D01*
X182896241Y-102669768D01*
X183094163Y-102729807D01*
X183300000Y-102750081D01*
X183505836Y-102729807D01*
X183505837Y-102729807D01*
X183703759Y-102669768D01*
X183703766Y-102669765D01*
X183845469Y-102594022D01*
X183845470Y-102594022D01*
X183432533Y-102181086D01*
X183442315Y-102179680D01*
X183573100Y-102119952D01*
X183681761Y-102025798D01*
X183759493Y-101904844D01*
X183783076Y-101824524D01*
X184199022Y-102240470D01*
X184199022Y-102240469D01*
X184274765Y-102098766D01*
X184274768Y-102098759D01*
X184334807Y-101900837D01*
X184334807Y-101900836D01*
X184355081Y-101695000D01*
X186204417Y-101695000D01*
X186224700Y-101900934D01*
X186284768Y-102098954D01*
X186382315Y-102281450D01*
X186513590Y-102441410D01*
X186673550Y-102572685D01*
X186856046Y-102670232D01*
X187054066Y-102730300D01*
X187260000Y-102750583D01*
X187465934Y-102730300D01*
X187663954Y-102670232D01*
X187846450Y-102572685D01*
X188006410Y-102441410D01*
X188137685Y-102281450D01*
X188235232Y-102098954D01*
X188295300Y-101900934D01*
X188315583Y-101695000D01*
X188295300Y-101489066D01*
X188235232Y-101291046D01*
X188137685Y-101108550D01*
X188006410Y-100948590D01*
X187846450Y-100817315D01*
X187663954Y-100719768D01*
X187465934Y-100659700D01*
X187260000Y-100639417D01*
X187054065Y-100659700D01*
X187054064Y-100659700D01*
X186856043Y-100719769D01*
X186673548Y-100817316D01*
X186513590Y-100948590D01*
X186382316Y-101108548D01*
X186284769Y-101291043D01*
X186284768Y-101291045D01*
X186284768Y-101291046D01*
X186284709Y-101291241D01*
X186224700Y-101489064D01*
X186224700Y-101489065D01*
X186206929Y-101669500D01*
X186204417Y-101695000D01*
X184355081Y-101695000D01*
X184355081Y-101694999D01*
X184334807Y-101489163D01*
X184334807Y-101489162D01*
X184274768Y-101291241D01*
X184274763Y-101291229D01*
X184199023Y-101149529D01*
X184199022Y-101149528D01*
X183783076Y-101565474D01*
X183759493Y-101485156D01*
X183681761Y-101364202D01*
X183573100Y-101270048D01*
X183442315Y-101210320D01*
X183432533Y-101208913D01*
X183845470Y-100795976D01*
X183845469Y-100795975D01*
X183703770Y-100720236D01*
X183703758Y-100720231D01*
X183505836Y-100660192D01*
X183300000Y-100639919D01*
X183094163Y-100660192D01*
X183094162Y-100660192D01*
X182896241Y-100720231D01*
X182896229Y-100720236D01*
X182754529Y-100795974D01*
X182754528Y-100795976D01*
X183167466Y-101208913D01*
X183157685Y-101210320D01*
X183026900Y-101270048D01*
X182918239Y-101364202D01*
X182840507Y-101485156D01*
X182816923Y-101565475D01*
X182400976Y-101149528D01*
X182400974Y-101149529D01*
X182325236Y-101291229D01*
X182325231Y-101291241D01*
X182265192Y-101489162D01*
X182265192Y-101489163D01*
X182244919Y-101694999D01*
X182244919Y-101695000D01*
X151707971Y-101695000D01*
X151715972Y-101674052D01*
X151849886Y-101361375D01*
X151850367Y-101360325D01*
X151982569Y-101089086D01*
X151983252Y-101087788D01*
X151996664Y-101064070D01*
X152059394Y-100953129D01*
X152104610Y-100873164D01*
X152114954Y-100860442D01*
X152238504Y-100752096D01*
X152241047Y-100750145D01*
X152285818Y-100720231D01*
X152412337Y-100635694D01*
X152415115Y-100634091D01*
X152444547Y-100619576D01*
X152599886Y-100542973D01*
X152602833Y-100541752D01*
X152797923Y-100475531D01*
X152801007Y-100474704D01*
X153003085Y-100434511D01*
X153006244Y-100434096D01*
X153212940Y-100420551D01*
X153214529Y-100420500D01*
X153271005Y-100420500D01*
X171131581Y-100420500D01*
X171153825Y-100425840D01*
X171155895Y-100426895D01*
X171183609Y-100431284D01*
X171191075Y-100433076D01*
X171217766Y-100441749D01*
X171249680Y-100441749D01*
X187208008Y-100441749D01*
X187264790Y-100441749D01*
X187266376Y-100441800D01*
X187472766Y-100455327D01*
X187475941Y-100455745D01*
X187678008Y-100495938D01*
X187681083Y-100496763D01*
X187876169Y-100562986D01*
X187879133Y-100564214D01*
X188063893Y-100655329D01*
X188066667Y-100656930D01*
X188237966Y-100771390D01*
X188240505Y-100773340D01*
X188396071Y-100909771D01*
X188397241Y-100910867D01*
X188458106Y-100971732D01*
X188517504Y-101031129D01*
X188517510Y-101031136D01*
X188560455Y-101074080D01*
X188561551Y-101075251D01*
X188697915Y-101230741D01*
X188699868Y-101233286D01*
X188814329Y-101404582D01*
X188815930Y-101407355D01*
X188907050Y-101592120D01*
X188908276Y-101595079D01*
X188966601Y-101766889D01*
X188974501Y-101790161D01*
X188975331Y-101793259D01*
X189015525Y-101995309D01*
X189015944Y-101998490D01*
X189029447Y-102204439D01*
X189029500Y-102206042D01*
X189029500Y-103275778D01*
X189029448Y-103277363D01*
X189022364Y-103385470D01*
X189015924Y-103483747D01*
X189015506Y-103486928D01*
X188975316Y-103688986D01*
X188974485Y-103692085D01*
X188908267Y-103887166D01*
X188907039Y-103890130D01*
X188815929Y-104074890D01*
X188814324Y-104077669D01*
X188699871Y-104248964D01*
X188697918Y-104251510D01*
X188561746Y-104406786D01*
X188560649Y-104407956D01*
X188201903Y-104766702D01*
X188190634Y-104775117D01*
X188181057Y-104780315D01*
X187934341Y-104985486D01*
X187923501Y-104992321D01*
X187744122Y-105074901D01*
X187733445Y-105078398D01*
X187529403Y-105120109D01*
X187252918Y-105171037D01*
X187246162Y-105172518D01*
X187238777Y-105174400D01*
X187232232Y-105176300D01*
X186879081Y-105291689D01*
X186874533Y-105293372D01*
X186874148Y-105293564D01*
X186866559Y-105296578D01*
X186856048Y-105299767D01*
X186856041Y-105299770D01*
X186673548Y-105397316D01*
X186513590Y-105528590D01*
X186382316Y-105688548D01*
X186284769Y-105871043D01*
X186284768Y-105871045D01*
X186284768Y-105871046D01*
X186283141Y-105876409D01*
X186224700Y-106069064D01*
X186224700Y-106069065D01*
X186214688Y-106170723D01*
X186204417Y-106275000D01*
X186215270Y-106385192D01*
X186224700Y-106480934D01*
X186224700Y-106480935D01*
X186225104Y-106482267D01*
X186284332Y-106677518D01*
X186284769Y-106678956D01*
X186290245Y-106689201D01*
X186382315Y-106861450D01*
X186513590Y-107021410D01*
X186673550Y-107152685D01*
X186856046Y-107250232D01*
X187054066Y-107310300D01*
X187260000Y-107330583D01*
X187465934Y-107310300D01*
X187663954Y-107250232D01*
X187846450Y-107152685D01*
X188006410Y-107021410D01*
X188137685Y-106861450D01*
X188235232Y-106678954D01*
X188240437Y-106661792D01*
X188243624Y-106654328D01*
X188243587Y-106654312D01*
X188244551Y-106652114D01*
X188244556Y-106652107D01*
X188358707Y-106302739D01*
X188360626Y-106296122D01*
X188362506Y-106288718D01*
X188363969Y-106282034D01*
X188414889Y-106005595D01*
X188456599Y-105801545D01*
X188460091Y-105790882D01*
X188542673Y-105611496D01*
X188549508Y-105600658D01*
X188754681Y-105353944D01*
X188761136Y-105342675D01*
X188769000Y-105332391D01*
X189113047Y-104988345D01*
X189113094Y-104988325D01*
X189127426Y-104973992D01*
X189127427Y-104973993D01*
X189222750Y-104878667D01*
X189390853Y-104667868D01*
X189534297Y-104439573D01*
X189651278Y-104196653D01*
X189740324Y-103942162D01*
X189800317Y-103679302D01*
X189830501Y-103411377D01*
X189830500Y-103276568D01*
X189830500Y-103249759D01*
X189830500Y-102263238D01*
X189830501Y-102263235D01*
X189830500Y-102225975D01*
X189830527Y-102225908D01*
X189830527Y-102205652D01*
X189830528Y-102205652D01*
X189830525Y-102070842D01*
X189800332Y-101802919D01*
X189740331Y-101540060D01*
X189651277Y-101285572D01*
X189635914Y-101253671D01*
X189534292Y-101042659D01*
X189534287Y-101042651D01*
X189390842Y-100814368D01*
X189380432Y-100801315D01*
X189222731Y-100603570D01*
X189127405Y-100508246D01*
X189107999Y-100488840D01*
X188940711Y-100321551D01*
X188940710Y-100321550D01*
X188940104Y-100320944D01*
X188939994Y-100320842D01*
X188867672Y-100248519D01*
X188656885Y-100080418D01*
X188656874Y-100080411D01*
X188428588Y-99936967D01*
X188185672Y-99819983D01*
X188185673Y-99819983D01*
X187931177Y-99730931D01*
X187931178Y-99730931D01*
X187805986Y-99702357D01*
X187668320Y-99670936D01*
X187668314Y-99670935D01*
X187668313Y-99670935D01*
X187400397Y-99640749D01*
X187400396Y-99640749D01*
X187297108Y-99640749D01*
X171409569Y-99640749D01*
X171387323Y-99635408D01*
X171385253Y-99634353D01*
X171385254Y-99634353D01*
X171357539Y-99629963D01*
X171350068Y-99628170D01*
X171335713Y-99623506D01*
X171323384Y-99619500D01*
X171323383Y-99619500D01*
X171291469Y-99619500D01*
X153181908Y-99619500D01*
X153181236Y-99619500D01*
X153180734Y-99619519D01*
X153078623Y-99619519D01*
X152810698Y-99649703D01*
X152547843Y-99709695D01*
X152547826Y-99709700D01*
X152293365Y-99798736D01*
X152293357Y-99798739D01*
X152293354Y-99798741D01*
X152050436Y-99915721D01*
X152050432Y-99915723D01*
X151822141Y-100059164D01*
X151822138Y-100059167D01*
X151611342Y-100227268D01*
X151551245Y-100287362D01*
X151538947Y-100295611D01*
X151539218Y-100296115D01*
X151537099Y-100297254D01*
X151231242Y-100502677D01*
X151229399Y-100503800D01*
X150925731Y-100671017D01*
X150923584Y-100672066D01*
X150622785Y-100801315D01*
X150620338Y-100802215D01*
X150322195Y-100894254D01*
X150319486Y-100894924D01*
X150018918Y-100951351D01*
X150011561Y-100953129D01*
X150000051Y-100954500D01*
X149530252Y-100954500D01*
X149471769Y-100966133D01*
X149405447Y-101010447D01*
X149370336Y-101062996D01*
X149361133Y-101076769D01*
X149349500Y-101135252D01*
X149349500Y-101135255D01*
X149349500Y-101225405D01*
X149340525Y-101253671D01*
X149217320Y-101428129D01*
X149216158Y-101429645D01*
X149058933Y-101619041D01*
X149057346Y-101620776D01*
X148967053Y-101710452D01*
X148932356Y-101724685D01*
X148908206Y-101716690D01*
X148907725Y-101717601D01*
X148904478Y-101715885D01*
X148879640Y-101707194D01*
X148843756Y-101694637D01*
X148842754Y-101694242D01*
X148840740Y-101693582D01*
X148779854Y-101672276D01*
X148779849Y-101672275D01*
X148779846Y-101672274D01*
X148779842Y-101672274D01*
X148750267Y-101669501D01*
X148750266Y-101669500D01*
X148750256Y-101669500D01*
X148169744Y-101669500D01*
X148169734Y-101669500D01*
X148169732Y-101669501D01*
X148140157Y-101672274D01*
X148140148Y-101672275D01*
X148015522Y-101715885D01*
X147909288Y-101794288D01*
X147830885Y-101900522D01*
X147787275Y-102025148D01*
X147787274Y-102025157D01*
X147784501Y-102054732D01*
X147784500Y-102054753D01*
X147784500Y-102660246D01*
X147504139Y-102660246D01*
X145611221Y-100767328D01*
X145611201Y-100767281D01*
X145501169Y-100657252D01*
X145501167Y-100657250D01*
X145290368Y-100489147D01*
X145062073Y-100345703D01*
X144819153Y-100228722D01*
X144819146Y-100228719D01*
X144819141Y-100228717D01*
X144564678Y-100139681D01*
X144564661Y-100139675D01*
X144301804Y-100079683D01*
X144033877Y-100049499D01*
X143899068Y-100049500D01*
X107408996Y-100049500D01*
X107408624Y-100049513D01*
X107316761Y-100049513D01*
X107316760Y-100049513D01*
X107272626Y-100055322D01*
X107069764Y-100082027D01*
X107069753Y-100082029D01*
X106829126Y-100146503D01*
X106829119Y-100146505D01*
X106829117Y-100146505D01*
X106829110Y-100146508D01*
X106598948Y-100241841D01*
X106383201Y-100366400D01*
X106267307Y-100455327D01*
X106205598Y-100502677D01*
X106185547Y-100518062D01*
X106119755Y-100583852D01*
X106119751Y-100583856D01*
X105705388Y-100998218D01*
X105705367Y-100998240D01*
X105639981Y-101063626D01*
X105639970Y-101063638D01*
X105488325Y-101261264D01*
X105488315Y-101261279D01*
X105363751Y-101477029D01*
X105268413Y-101707194D01*
X105268409Y-101707204D01*
X105203934Y-101947829D01*
X105203932Y-101947837D01*
X105203932Y-101947841D01*
X105178153Y-102143654D01*
X105171414Y-102194844D01*
X105171414Y-102251293D01*
X105167240Y-102271082D01*
X105141422Y-102329566D01*
X105140860Y-102330752D01*
X105102167Y-102407060D01*
X105101365Y-102408517D01*
X105071642Y-102458423D01*
X105041583Y-102480848D01*
X105025272Y-102482164D01*
X104893983Y-102470678D01*
X104884915Y-102469013D01*
X104870808Y-102465022D01*
X104870806Y-102465021D01*
X104870804Y-102465021D01*
X104870802Y-102465020D01*
X104870798Y-102465020D01*
X104814013Y-102463633D01*
X104812482Y-102463547D01*
X104809801Y-102463313D01*
X104809795Y-102463313D01*
X104809791Y-102463314D01*
X104806545Y-102463449D01*
X104792812Y-102463114D01*
X104706499Y-102461005D01*
X104706498Y-102461005D01*
X104546359Y-102497975D01*
X104546354Y-102497977D01*
X104400439Y-102573613D01*
X104400437Y-102573614D01*
X104277920Y-102683159D01*
X104277917Y-102683162D01*
X104186488Y-102819736D01*
X104186487Y-102819739D01*
X104131896Y-102974758D01*
X104084082Y-103521263D01*
X104069450Y-103688505D01*
X104069449Y-103688517D01*
X103979558Y-104715980D01*
X103979558Y-104715988D01*
X103979234Y-104752965D01*
X103200534Y-104752965D01*
X103200534Y-99926370D01*
X103200652Y-99923966D01*
X103215429Y-99773997D01*
X103217300Y-99764588D01*
X103260006Y-99623827D01*
X103263672Y-99614980D01*
X103333011Y-99485268D01*
X103338347Y-99477284D01*
X103348975Y-99464335D01*
X103431655Y-99363596D01*
X103438437Y-99356814D01*
X103552141Y-99263508D01*
X103560117Y-99258179D01*
X103689833Y-99188851D01*
X103698692Y-99185181D01*
X103839456Y-99142486D01*
X103848855Y-99140617D01*
X103999622Y-99125773D01*
X104002019Y-99125656D01*
X104039909Y-99125657D01*
X104039910Y-99125656D01*
X104049650Y-99125656D01*
X104049654Y-99125654D01*
X173436000Y-99125653D01*
X173452181Y-99128402D01*
X173455361Y-99129514D01*
X173455363Y-99129515D01*
X173455363Y-99129514D01*
X173455364Y-99129515D01*
X173488278Y-99125806D01*
X173491022Y-99125653D01*
X173500981Y-99125653D01*
X173502700Y-99125260D01*
X173510700Y-99123433D01*
X173513387Y-99122977D01*
X173546314Y-99119269D01*
X173549165Y-99117476D01*
X173564338Y-99111191D01*
X173567621Y-99110443D01*
X173593529Y-99089781D01*
X173595748Y-99088205D01*
X173604191Y-99082901D01*
X173611239Y-99075851D01*
X173613260Y-99074045D01*
X173639178Y-99053377D01*
X173640639Y-99050342D01*
X173650137Y-99036953D01*
X178907090Y-93780000D01*
X183041708Y-93780000D01*
X183060856Y-94072150D01*
X183117974Y-94359307D01*
X183212087Y-94636555D01*
X183341582Y-94899146D01*
X183504243Y-95142585D01*
X183504243Y-95142586D01*
X183607092Y-95259861D01*
X183697289Y-95362711D01*
X183814564Y-95465559D01*
X183917413Y-95555756D01*
X184080075Y-95664443D01*
X184160854Y-95718418D01*
X184423443Y-95847912D01*
X184700687Y-95942024D01*
X184987844Y-95999143D01*
X185231307Y-96015100D01*
X185279999Y-96018292D01*
X185280000Y-96018292D01*
X185280001Y-96018292D01*
X185321736Y-96015556D01*
X185572156Y-95999143D01*
X185859313Y-95942024D01*
X186136557Y-95847912D01*
X186399146Y-95718418D01*
X186642586Y-95555756D01*
X186862711Y-95362711D01*
X187055756Y-95142586D01*
X187218418Y-94899146D01*
X187347912Y-94636557D01*
X187442024Y-94359313D01*
X187499143Y-94072156D01*
X187518292Y-93780000D01*
X187499143Y-93487844D01*
X187442024Y-93200687D01*
X187347912Y-92923443D01*
X187218418Y-92660854D01*
X187055756Y-92417414D01*
X187055756Y-92417413D01*
X186965559Y-92314564D01*
X186862711Y-92197289D01*
X186759861Y-92107092D01*
X186642586Y-92004243D01*
X186399146Y-91841582D01*
X186136555Y-91712087D01*
X185859307Y-91617974D01*
X185613973Y-91569175D01*
X185572156Y-91560857D01*
X185572154Y-91560856D01*
X185572150Y-91560856D01*
X185280001Y-91541708D01*
X185279999Y-91541708D01*
X184987849Y-91560856D01*
X184700692Y-91617974D01*
X184423444Y-91712087D01*
X184160853Y-91841582D01*
X183917414Y-92004243D01*
X183917413Y-92004243D01*
X183697289Y-92197289D01*
X183504243Y-92417413D01*
X183504243Y-92417414D01*
X183341582Y-92660853D01*
X183212087Y-92923444D01*
X183117974Y-93200692D01*
X183060856Y-93487849D01*
X183041708Y-93779999D01*
X183041708Y-93780000D01*
X178907090Y-93780000D01*
X181344360Y-91342730D01*
X181344373Y-91342721D01*
X181349075Y-91338019D01*
X181376610Y-91310482D01*
X181377992Y-91309204D01*
X181469746Y-91230834D01*
X181475949Y-91226327D01*
X181576353Y-91164795D01*
X181583193Y-91161310D01*
X181691990Y-91116243D01*
X181699285Y-91113873D01*
X181813784Y-91086382D01*
X181821373Y-91085180D01*
X181871396Y-91081243D01*
X181941464Y-91075730D01*
X181943387Y-91075654D01*
X181982484Y-91075654D01*
X189283837Y-91075654D01*
X189283879Y-91075657D01*
G37*
G04 #@! TD.AperFunction*
G04 #@! TA.AperFunction,Conductor*
G36*
X188328207Y-104939044D02*
G01*
X188595955Y-105206792D01*
X188599382Y-105215065D01*
X188596678Y-105222546D01*
X188370043Y-105495070D01*
X188261144Y-105731619D01*
X188213152Y-105966400D01*
X188162489Y-106241442D01*
X188162299Y-106242190D01*
X188049218Y-106588283D01*
X188043392Y-106595082D01*
X188034463Y-106595770D01*
X188033631Y-106595463D01*
X187263785Y-106277562D01*
X187257447Y-106271238D01*
X186939536Y-105501367D01*
X186939545Y-105492413D01*
X186945884Y-105486088D01*
X186946689Y-105485790D01*
X187292819Y-105372696D01*
X187293549Y-105372510D01*
X187568598Y-105321846D01*
X187803379Y-105273854D01*
X188039931Y-105164954D01*
X188312454Y-104938320D01*
X188321005Y-104935666D01*
X188328207Y-104939044D01*
G37*
G04 #@! TD.AperFunction*
G04 #@! TA.AperFunction,Conductor*
G36*
X148797958Y-101894768D02*
G01*
X148912709Y-101974963D01*
X149037032Y-102045347D01*
X149161354Y-102099231D01*
X149161359Y-102099232D01*
X149161363Y-102099234D01*
X149285670Y-102136613D01*
X149285677Y-102136615D01*
X149400238Y-102155860D01*
X149407829Y-102160610D01*
X149410000Y-102167398D01*
X149410000Y-102547601D01*
X149406573Y-102555874D01*
X149400238Y-102559139D01*
X149285680Y-102578383D01*
X149285670Y-102578385D01*
X149161363Y-102615764D01*
X149161355Y-102615767D01*
X149037034Y-102669650D01*
X148912706Y-102740037D01*
X148797958Y-102820231D01*
X148789214Y-102822161D01*
X148781679Y-102817361D01*
X148678032Y-102669650D01*
X148463714Y-102364219D01*
X148461768Y-102355480D01*
X148463715Y-102350780D01*
X148597155Y-102160610D01*
X148781680Y-101897637D01*
X148789236Y-101892834D01*
X148797958Y-101894768D01*
G37*
G04 #@! TD.AperFunction*
G04 #@! TA.AperFunction,Conductor*
G36*
X149559083Y-101320711D02*
G01*
X149559714Y-101321189D01*
X150098098Y-101758796D01*
X150305812Y-101927630D01*
X150390929Y-101996814D01*
X150395187Y-102004691D01*
X150392628Y-102013273D01*
X150391817Y-102014171D01*
X149556788Y-102848219D01*
X149548513Y-102851641D01*
X149542022Y-102849671D01*
X149379997Y-102741463D01*
X149209996Y-102654948D01*
X149040001Y-102595450D01*
X149039995Y-102595449D01*
X148870000Y-102562966D01*
X148711324Y-102557864D01*
X148703165Y-102554173D01*
X148700000Y-102546170D01*
X148700000Y-102164296D01*
X148703427Y-102156023D01*
X148705903Y-102154133D01*
X148869992Y-102060542D01*
X148869992Y-102060541D01*
X148869999Y-102060538D01*
X149039999Y-101927636D01*
X149210000Y-101758795D01*
X149380000Y-101554013D01*
X149542779Y-101323517D01*
X149550349Y-101318738D01*
X149559083Y-101320711D01*
G37*
G04 #@! TD.AperFunction*
G04 #@! TA.AperFunction,Conductor*
G36*
X151666586Y-100469405D02*
G01*
X151932534Y-100742883D01*
X151935845Y-100751203D01*
X151934330Y-100756799D01*
X151800916Y-100992747D01*
X151751331Y-101094481D01*
X151663187Y-101275327D01*
X151663186Y-101275327D01*
X151525458Y-101596906D01*
X151387729Y-101957486D01*
X151254047Y-102345323D01*
X151248112Y-102352028D01*
X151239173Y-102352571D01*
X151238520Y-102352324D01*
X150403776Y-102007552D01*
X150397437Y-102001226D01*
X150053399Y-101168308D01*
X150053408Y-101159354D01*
X150059746Y-101153028D01*
X150062051Y-101152343D01*
X150370277Y-101094481D01*
X150370281Y-101094479D01*
X150370288Y-101094478D01*
X150692638Y-100994967D01*
X150692645Y-100994964D01*
X150692653Y-100994962D01*
X151015028Y-100856443D01*
X151337404Y-100678924D01*
X151651676Y-100467848D01*
X151660453Y-100466081D01*
X151666586Y-100469405D01*
G37*
G04 #@! TD.AperFunction*
G04 #@! TA.AperFunction,Conductor*
G36*
X147863166Y-103300535D02*
G01*
X148012931Y-103407806D01*
X148170761Y-103504354D01*
X148328591Y-103584403D01*
X148328596Y-103584405D01*
X148328598Y-103584406D01*
X148376565Y-103603719D01*
X148486421Y-103647951D01*
X148486424Y-103647952D01*
X148486427Y-103647953D01*
X148632225Y-103691415D01*
X148639175Y-103697062D01*
X148640095Y-103705969D01*
X148639835Y-103706744D01*
X148462497Y-104178445D01*
X148456378Y-104184983D01*
X148456003Y-104185145D01*
X147995681Y-104374849D01*
X147986726Y-104374833D01*
X147980463Y-104368626D01*
X147902451Y-104185920D01*
X147819903Y-104009090D01*
X147737351Y-103848756D01*
X147654803Y-103704925D01*
X147577408Y-103585544D01*
X147575783Y-103576738D01*
X147578950Y-103570908D01*
X147848084Y-103301774D01*
X147856356Y-103298348D01*
X147863166Y-103300535D01*
G37*
G04 #@! TD.AperFunction*
G04 #@! TA.AperFunction,Conductor*
G36*
X148797958Y-103719768D02*
G01*
X148912709Y-103799963D01*
X149037032Y-103870347D01*
X149161354Y-103924231D01*
X149161359Y-103924232D01*
X149161363Y-103924234D01*
X149285670Y-103961613D01*
X149285677Y-103961615D01*
X149400238Y-103980860D01*
X149407829Y-103985610D01*
X149410000Y-103992398D01*
X149410000Y-104372601D01*
X149406573Y-104380874D01*
X149400238Y-104384139D01*
X149285680Y-104403383D01*
X149285670Y-104403385D01*
X149161363Y-104440764D01*
X149161355Y-104440767D01*
X149037034Y-104494650D01*
X148912706Y-104565037D01*
X148797958Y-104645231D01*
X148789214Y-104647161D01*
X148781679Y-104642361D01*
X148678032Y-104494650D01*
X148463714Y-104189219D01*
X148461768Y-104180480D01*
X148463715Y-104175780D01*
X148597155Y-103985610D01*
X148781680Y-103722637D01*
X148789236Y-103717834D01*
X148797958Y-103719768D01*
G37*
G04 #@! TD.AperFunction*
G04 #@! TA.AperFunction,Conductor*
G36*
X150395952Y-103698736D02*
G01*
X150399982Y-103706733D01*
X150400014Y-103707585D01*
X150400994Y-104540140D01*
X150397577Y-104548417D01*
X150397560Y-104548434D01*
X149807878Y-105137136D01*
X149799602Y-105140556D01*
X149791332Y-105137122D01*
X149790741Y-105136485D01*
X149583076Y-104895003D01*
X149582753Y-104894592D01*
X149432598Y-104683965D01*
X149289382Y-104522393D01*
X149289379Y-104522391D01*
X149289377Y-104522389D01*
X149094592Y-104418949D01*
X148799883Y-104383732D01*
X148792075Y-104379348D01*
X148789571Y-104372115D01*
X148789571Y-103993364D01*
X148792998Y-103985091D01*
X148800404Y-103981696D01*
X149192623Y-103952600D01*
X149474226Y-103881300D01*
X149715110Y-103796282D01*
X149715574Y-103796141D01*
X149995964Y-103725148D01*
X149997955Y-103724825D01*
X150387448Y-103695931D01*
X150395952Y-103698736D01*
G37*
G04 #@! TD.AperFunction*
G04 #@! TA.AperFunction,Conductor*
G36*
X105764010Y-102322446D02*
G01*
X105772228Y-102326004D01*
X105774735Y-102329919D01*
X105816892Y-102438744D01*
X105861895Y-102541417D01*
X105906899Y-102630591D01*
X105951902Y-102706264D01*
X105990802Y-102760005D01*
X105992877Y-102768716D01*
X105989239Y-102775481D01*
X105580536Y-103150945D01*
X105572126Y-103154019D01*
X105564005Y-103150244D01*
X105563986Y-103150224D01*
X105154128Y-102701970D01*
X105151076Y-102693553D01*
X105154132Y-102686178D01*
X105191914Y-102644892D01*
X105236921Y-102582518D01*
X105236920Y-102582518D01*
X105236924Y-102582514D01*
X105236924Y-102582513D01*
X105281923Y-102506957D01*
X105281927Y-102506951D01*
X105310255Y-102451082D01*
X105326930Y-102418200D01*
X105326930Y-102418199D01*
X105365902Y-102329919D01*
X105368808Y-102323334D01*
X105375284Y-102317150D01*
X105379692Y-102316361D01*
X105764010Y-102322446D01*
G37*
G04 #@! TD.AperFunction*
G04 #@! TA.AperFunction,Conductor*
G36*
X182979190Y-105500552D02*
G01*
X182979562Y-105501358D01*
X183299134Y-106270511D01*
X183299143Y-106279466D01*
X183299134Y-106279489D01*
X182979562Y-107048641D01*
X182973223Y-107054966D01*
X182964268Y-107054957D01*
X182963462Y-107054585D01*
X182638783Y-106889824D01*
X182638110Y-106889424D01*
X182407806Y-106730768D01*
X182207855Y-106598688D01*
X182064687Y-106545784D01*
X181963582Y-106508424D01*
X181610629Y-106475977D01*
X181602704Y-106471807D01*
X181600000Y-106464326D01*
X181600000Y-106085673D01*
X181603427Y-106077400D01*
X181610626Y-106074023D01*
X181963584Y-106041574D01*
X182207855Y-105951311D01*
X182407806Y-105819230D01*
X182638121Y-105660566D01*
X182638766Y-105660183D01*
X182963463Y-105495413D01*
X182972391Y-105494726D01*
X182979190Y-105500552D01*
G37*
G04 #@! TD.AperFunction*
G04 #@! TA.AperFunction,Conductor*
G36*
X128535616Y-109409907D02*
G01*
X128535634Y-109409925D01*
X128966498Y-109859225D01*
X128969750Y-109867568D01*
X128966151Y-109875768D01*
X128965658Y-109876214D01*
X128931412Y-109905505D01*
X128887769Y-109953895D01*
X128887760Y-109953907D01*
X128844103Y-110013381D01*
X128800453Y-110083908D01*
X128800453Y-110083909D01*
X128759018Y-110161363D01*
X128752317Y-110166971D01*
X128386740Y-110285756D01*
X128377812Y-110285054D01*
X128372282Y-110279026D01*
X128325218Y-110162980D01*
X128289307Y-110083909D01*
X128274060Y-110050337D01*
X128274058Y-110050333D01*
X128274053Y-110050322D01*
X128222899Y-109951189D01*
X128222900Y-109951190D01*
X128171742Y-109865547D01*
X128141795Y-109823317D01*
X128126406Y-109801616D01*
X128124417Y-109792887D01*
X128127833Y-109786425D01*
X128519074Y-109409595D01*
X128527408Y-109406325D01*
X128535616Y-109409907D01*
G37*
G04 #@! TD.AperFunction*
G04 #@! TA.AperFunction,Conductor*
G36*
X113335722Y-109410047D02*
G01*
X113335741Y-109410067D01*
X113745712Y-109858436D01*
X113748765Y-109866854D01*
X113745825Y-109874101D01*
X113707829Y-109916878D01*
X113662826Y-109980994D01*
X113617828Y-110058556D01*
X113572824Y-110149578D01*
X113530874Y-110246965D01*
X113524454Y-110253207D01*
X113520129Y-110254036D01*
X113135923Y-110254036D01*
X113127650Y-110250609D01*
X113124974Y-110246461D01*
X113082828Y-110134599D01*
X113037832Y-110028673D01*
X113014621Y-109980994D01*
X112992828Y-109936226D01*
X112992827Y-109936224D01*
X112992823Y-109936216D01*
X112947830Y-109857292D01*
X112947830Y-109857293D01*
X112947828Y-109857289D01*
X112908584Y-109800224D01*
X112906720Y-109791466D01*
X112910310Y-109784979D01*
X113319193Y-109409344D01*
X113327601Y-109406272D01*
X113335722Y-109410047D01*
G37*
G04 #@! TD.AperFunction*
G04 #@! TA.AperFunction,Conductor*
G36*
X182458403Y-110034572D02*
G01*
X182459836Y-110035761D01*
X183292465Y-110846466D01*
X183296002Y-110854693D01*
X183292686Y-110863011D01*
X183292573Y-110863126D01*
X182460181Y-111694826D01*
X182451906Y-111698249D01*
X182443634Y-111694819D01*
X182442123Y-111692958D01*
X182335911Y-111530579D01*
X182221823Y-111381421D01*
X182107734Y-111257526D01*
X181993646Y-111158894D01*
X181883359Y-111087970D01*
X181878388Y-111081159D01*
X181778364Y-110707844D01*
X181779533Y-110698967D01*
X181783833Y-110694674D01*
X181910828Y-110621706D01*
X182045621Y-110515684D01*
X182180414Y-110381090D01*
X182315207Y-110217923D01*
X182442106Y-110037412D01*
X182449664Y-110032618D01*
X182458403Y-110034572D01*
G37*
G04 #@! TD.AperFunction*
M02*
