G04 #@! TF.GenerationSoftware,KiCad,Pcbnew,7.0.9*
G04 #@! TF.CreationDate,2023-11-21T14:25:59-05:00*
G04 #@! TF.ProjectId,SCART2VGA,53434152-5432-4564-9741-2e6b69636164,rev?*
G04 #@! TF.SameCoordinates,Original*
G04 #@! TF.FileFunction,Copper,L2,Bot*
G04 #@! TF.FilePolarity,Positive*
%FSLAX46Y46*%
G04 Gerber Fmt 4.6, Leading zero omitted, Abs format (unit mm)*
G04 Created by KiCad (PCBNEW 7.0.9) date 2023-11-21 14:25:59*
%MOMM*%
%LPD*%
G01*
G04 APERTURE LIST*
G04 Aperture macros list*
%AMRoundRect*
0 Rectangle with rounded corners*
0 $1 Rounding radius*
0 $2 $3 $4 $5 $6 $7 $8 $9 X,Y pos of 4 corners*
0 Add a 4 corners polygon primitive as box body*
4,1,4,$2,$3,$4,$5,$6,$7,$8,$9,$2,$3,0*
0 Add four circle primitives for the rounded corners*
1,1,$1+$1,$2,$3*
1,1,$1+$1,$4,$5*
1,1,$1+$1,$6,$7*
1,1,$1+$1,$8,$9*
0 Add four rect primitives between the rounded corners*
20,1,$1+$1,$2,$3,$4,$5,0*
20,1,$1+$1,$4,$5,$6,$7,0*
20,1,$1+$1,$6,$7,$8,$9,0*
20,1,$1+$1,$8,$9,$2,$3,0*%
%AMHorizOval*
0 Thick line with rounded ends*
0 $1 width*
0 $2 $3 position (X,Y) of the first rounded end (center of the circle)*
0 $4 $5 position (X,Y) of the second rounded end (center of the circle)*
0 Add line between two ends*
20,1,$1,$2,$3,$4,$5,0*
0 Add two circle primitives to create the rounded ends*
1,1,$1,$2,$3*
1,1,$1,$4,$5*%
G04 Aperture macros list end*
G04 #@! TA.AperFunction,ComponentPad*
%ADD10HorizOval,0.900000X-0.047936X-0.547907X0.047936X0.547907X0*%
G04 #@! TD*
G04 #@! TA.AperFunction,ComponentPad*
%ADD11RoundRect,0.450000X-0.836176X-0.378563X0.757736X-0.518012X0.836176X0.378563X-0.757736X0.518012X0*%
G04 #@! TD*
G04 #@! TA.AperFunction,ComponentPad*
%ADD12HorizOval,0.900000X0.047936X0.547907X-0.047936X-0.547907X0*%
G04 #@! TD*
G04 #@! TA.AperFunction,ComponentPad*
%ADD13RoundRect,0.450000X0.836176X0.378563X-0.757736X0.518012X-0.836176X-0.378563X0.757736X-0.518012X0*%
G04 #@! TD*
G04 #@! TA.AperFunction,ComponentPad*
%ADD14R,1.700000X1.700000*%
G04 #@! TD*
G04 #@! TA.AperFunction,ComponentPad*
%ADD15C,1.700000*%
G04 #@! TD*
G04 #@! TA.AperFunction,ComponentPad*
%ADD16C,4.066000*%
G04 #@! TD*
G04 #@! TA.AperFunction,ComponentPad*
%ADD17O,1.700000X1.700000*%
G04 #@! TD*
G04 #@! TA.AperFunction,ViaPad*
%ADD18C,0.600000*%
G04 #@! TD*
G04 #@! TA.AperFunction,Conductor*
%ADD19C,0.400000*%
G04 #@! TD*
G04 APERTURE END LIST*
D10*
X139179336Y-108759270D03*
D11*
X140031745Y-108187370D03*
D10*
X140773247Y-108898719D03*
D12*
X138924824Y-103661226D03*
D13*
X139669486Y-104328668D03*
D12*
X140518735Y-103800676D03*
D10*
X135379336Y-108759270D03*
D11*
X136231745Y-108187370D03*
D10*
X136973247Y-108898719D03*
D12*
X135124824Y-103661226D03*
D13*
X135869486Y-104328668D03*
D12*
X136718735Y-103800676D03*
D10*
X131579356Y-108759271D03*
D11*
X132431765Y-108187371D03*
D10*
X133173267Y-108898720D03*
D12*
X131324824Y-103661226D03*
D13*
X132069486Y-104328668D03*
D12*
X132918735Y-103800676D03*
D10*
X127779356Y-108759271D03*
D11*
X128631765Y-108187371D03*
D10*
X129373267Y-108898720D03*
D12*
X127524824Y-103661226D03*
D13*
X128269486Y-104328668D03*
D12*
X129118735Y-103800676D03*
D10*
X123979356Y-108759271D03*
D11*
X124831765Y-108187371D03*
D10*
X125573267Y-108898720D03*
D12*
X123724824Y-103661226D03*
D13*
X124469486Y-104328668D03*
D12*
X125318735Y-103800676D03*
D10*
X120179356Y-108759271D03*
D11*
X121031765Y-108187371D03*
D10*
X121773267Y-108898720D03*
D12*
X119924824Y-103661226D03*
D13*
X120669486Y-104328668D03*
D12*
X121518735Y-103800676D03*
D10*
X116379356Y-108759271D03*
D11*
X117231765Y-108187371D03*
D10*
X117973267Y-108898720D03*
D12*
X116124824Y-103661226D03*
D13*
X116869486Y-104328668D03*
D12*
X117718735Y-103800676D03*
D10*
X112579356Y-108759271D03*
D11*
X113431765Y-108187371D03*
D10*
X114173267Y-108898720D03*
D12*
X112324824Y-103661226D03*
D13*
X113069486Y-104328668D03*
D12*
X113918735Y-103800676D03*
D10*
X108779356Y-108759271D03*
D11*
X109631765Y-108187371D03*
D10*
X110373267Y-108898720D03*
D12*
X108524824Y-103661226D03*
D13*
X109269486Y-104328668D03*
D12*
X110118735Y-103800676D03*
D10*
X104979356Y-108759271D03*
D11*
X105831765Y-108187371D03*
D10*
X106573267Y-108898720D03*
D12*
X104724822Y-103661226D03*
D13*
X105469484Y-104328668D03*
D12*
X106318733Y-103800675D03*
D14*
X183300000Y-110855000D03*
D15*
X183300000Y-108565000D03*
X183300000Y-106275000D03*
X183300000Y-103985000D03*
X183300000Y-101695000D03*
X185280000Y-112000000D03*
X185280000Y-109710000D03*
X185280000Y-107420000D03*
X185280000Y-105130000D03*
X185280000Y-102840000D03*
X187260000Y-110855000D03*
X187260000Y-108565000D03*
X187260000Y-106275000D03*
X187260000Y-103985000D03*
X187260000Y-101695000D03*
D16*
X185280000Y-93780000D03*
X185280000Y-118770000D03*
D14*
X150400000Y-102005000D03*
D17*
X150400000Y-104545000D03*
D18*
X139810000Y-102740000D03*
X181566666Y-97070000D03*
X153350000Y-110670000D03*
X182673334Y-98850000D03*
X189090000Y-110477500D03*
X178280000Y-109440000D03*
X121773332Y-101210000D03*
X167650000Y-113120000D03*
X185940000Y-98850000D03*
X165790000Y-110670000D03*
X125920000Y-101210000D03*
X179406668Y-98850000D03*
X162676666Y-100720000D03*
X188100000Y-97070000D03*
X189090000Y-108565000D03*
X170970000Y-100720000D03*
X178300000Y-97070000D03*
X126933332Y-113120000D03*
X166823332Y-100720000D03*
X189090000Y-112390000D03*
X163503332Y-113120000D03*
X113480000Y-101210000D03*
X131080000Y-113120000D03*
X117626666Y-101210000D03*
X158530000Y-100720000D03*
X122786666Y-113120000D03*
X118640000Y-113120000D03*
X155210000Y-113120000D03*
X184833332Y-97070000D03*
X161643332Y-110670000D03*
X159356666Y-113120000D03*
X157496666Y-110670000D03*
X179880000Y-110960000D03*
X132210000Y-102740000D03*
X120890000Y-109830000D03*
D19*
X161455786Y-109314214D02*
X168174213Y-102595787D01*
X185787569Y-100222569D02*
X187260000Y-101695000D01*
X140249340Y-101620660D02*
X140300660Y-101569340D01*
X169588427Y-102010000D02*
X176851573Y-102010000D01*
X141361320Y-101130000D02*
X143848680Y-101130000D01*
X178265786Y-101424214D02*
X179467430Y-100222570D01*
X180881644Y-99636783D02*
X184373356Y-99636783D01*
X139710000Y-102651320D02*
X139721320Y-102651320D01*
X139810000Y-102740000D02*
X139340000Y-102740000D01*
X153861320Y-109900000D02*
X160041573Y-109900000D01*
X139721320Y-102651320D02*
X139810000Y-102740000D01*
X144909340Y-101569340D02*
X152800660Y-109460660D01*
X140060000Y-102740000D02*
X140500000Y-103180000D01*
X139810000Y-102740000D02*
X139810000Y-102681320D01*
X139810000Y-102740000D02*
X140060000Y-102740000D01*
X139340000Y-102740000D02*
X138900000Y-103180000D01*
X176851573Y-102009980D02*
G75*
G03*
X178265785Y-101424213I27J1999980D01*
G01*
X160041573Y-109900022D02*
G75*
G03*
X161455786Y-109314214I-73J2000122D01*
G01*
X185787595Y-100222543D02*
G75*
G03*
X184373356Y-99636783I-1414195J-1414257D01*
G01*
X169588427Y-102010020D02*
G75*
G03*
X168174214Y-102595788I-27J-1999980D01*
G01*
X144909350Y-101569330D02*
G75*
G03*
X143848680Y-101130000I-1060650J-1060670D01*
G01*
X140249330Y-101620650D02*
G75*
G03*
X139810000Y-102681320I1060670J-1060650D01*
G01*
X180881644Y-99636820D02*
G75*
G03*
X179467431Y-100222571I-44J-1999980D01*
G01*
X141361320Y-101130015D02*
G75*
G03*
X140300660Y-101569340I-20J-1499985D01*
G01*
X152800650Y-109460670D02*
G75*
G03*
X153861320Y-109900000I1060650J1060670D01*
G01*
X187706928Y-98546928D02*
X188554214Y-99394214D01*
X132649340Y-100640660D02*
X133150660Y-100139340D01*
X132210000Y-102740000D02*
X132210000Y-101701320D01*
X188554213Y-107270787D02*
X187260000Y-108565000D01*
X177055787Y-99114213D02*
X177623073Y-98546927D01*
X131710000Y-102740000D02*
X131300000Y-103150000D01*
X132210000Y-102740000D02*
X132450000Y-102740000D01*
X132210000Y-102740000D02*
X131710000Y-102740000D01*
X179037286Y-97961141D02*
X186292714Y-97961141D01*
X189140000Y-100808427D02*
X189140000Y-105856573D01*
X134211320Y-99700000D02*
X175641573Y-99700000D01*
X132450000Y-102740000D02*
X132900000Y-103190000D01*
X189139980Y-100808427D02*
G75*
G03*
X188554213Y-99394215I-1999980J27D01*
G01*
X132649330Y-100640650D02*
G75*
G03*
X132210000Y-101701320I1060670J-1060650D01*
G01*
X187706913Y-98546943D02*
G75*
G03*
X186292714Y-97961141I-1414213J-1414157D01*
G01*
X188554227Y-107270801D02*
G75*
G03*
X189140000Y-105856573I-1414227J1414201D01*
G01*
X175641573Y-99699980D02*
G75*
G03*
X177055786Y-99114212I27J1999980D01*
G01*
X134211320Y-99700015D02*
G75*
G03*
X133150660Y-100139340I-20J-1499985D01*
G01*
X179037286Y-97961120D02*
G75*
G03*
X177623074Y-98546928I14J-1999980D01*
G01*
X120890000Y-109830000D02*
X120890000Y-110178680D01*
X120200000Y-108758680D02*
X120200000Y-108580000D01*
X121329340Y-111239340D02*
X121560660Y-111470660D01*
X121800000Y-108758680D02*
X121800000Y-108580000D01*
X121350000Y-109830000D02*
X121360660Y-109819340D01*
X177865786Y-111324214D02*
X180039213Y-109150787D01*
X120890000Y-109830000D02*
X120650000Y-109830000D01*
X122621320Y-111910000D02*
X176451573Y-111910000D01*
X181453427Y-108565000D02*
X183300000Y-108565000D01*
X120650000Y-109830000D02*
X120639340Y-109819340D01*
X120890000Y-109830000D02*
X121350000Y-109830000D01*
X176451573Y-111909980D02*
G75*
G03*
X177865785Y-111324213I27J1999980D01*
G01*
X120200015Y-108758680D02*
G75*
G03*
X120639340Y-109819340I1499985J-20D01*
G01*
X120890015Y-110178680D02*
G75*
G03*
X121329340Y-111239340I1499985J-20D01*
G01*
X121560650Y-111470670D02*
G75*
G03*
X122621320Y-111910000I1060650J1060670D01*
G01*
X181453427Y-108565020D02*
G75*
G03*
X180039214Y-109150788I-27J-1999980D01*
G01*
X121360670Y-109819350D02*
G75*
G03*
X121800000Y-108758680I-1060670J1060650D01*
G01*
G04 #@! TA.AperFunction,Conductor*
G36*
X189283879Y-91075657D02*
G01*
X189288526Y-91075656D01*
X189288530Y-91075658D01*
X189327204Y-91075654D01*
X189329605Y-91075772D01*
X189398558Y-91082555D01*
X189479601Y-91090529D01*
X189489009Y-91092400D01*
X189629761Y-91135085D01*
X189638637Y-91138760D01*
X189768359Y-91208088D01*
X189776347Y-91213425D01*
X189890047Y-91306729D01*
X189896840Y-91313522D01*
X189990151Y-91427217D01*
X189995488Y-91435205D01*
X190064820Y-91564918D01*
X190068496Y-91573793D01*
X190111188Y-91714542D01*
X190113062Y-91723964D01*
X190127771Y-91873372D01*
X190127889Y-91875774D01*
X190127888Y-91920719D01*
X190127890Y-91920736D01*
X190127890Y-112623934D01*
X190127772Y-112626338D01*
X190112994Y-112776310D01*
X190111119Y-112785731D01*
X190068422Y-112926463D01*
X190064746Y-112935337D01*
X189995412Y-113065040D01*
X189990075Y-113073027D01*
X189896768Y-113186714D01*
X189889976Y-113193505D01*
X189776289Y-113286800D01*
X189768302Y-113292137D01*
X189638590Y-113361465D01*
X189629716Y-113365140D01*
X189488981Y-113407829D01*
X189479560Y-113409703D01*
X189328968Y-113424534D01*
X189326566Y-113424652D01*
X189288510Y-113424652D01*
X104453379Y-113424654D01*
X104418731Y-113410302D01*
X103214886Y-112206457D01*
X103200534Y-112171809D01*
X103200534Y-109291252D01*
X104279829Y-109291252D01*
X104284553Y-109414264D01*
X104322106Y-109540232D01*
X104331508Y-109571770D01*
X104416157Y-109712649D01*
X104416158Y-109712650D01*
X104416159Y-109712651D01*
X104533181Y-109828051D01*
X104675221Y-109910721D01*
X104675225Y-109910722D01*
X104675229Y-109910725D01*
X104833374Y-109955476D01*
X104943006Y-109958155D01*
X104997678Y-109959491D01*
X104997679Y-109959491D01*
X105157818Y-109922521D01*
X105157818Y-109922520D01*
X105157822Y-109922520D01*
X105303738Y-109846884D01*
X105426260Y-109737336D01*
X105517690Y-109600760D01*
X105572282Y-109445738D01*
X105583323Y-109319524D01*
X105600640Y-109286260D01*
X105636405Y-109274982D01*
X105836643Y-109292500D01*
X105869908Y-109309817D01*
X105881186Y-109345584D01*
X105877371Y-109389192D01*
X105873740Y-109430701D01*
X105873846Y-109433460D01*
X105878464Y-109553713D01*
X105919909Y-109692736D01*
X105925419Y-109711219D01*
X106010068Y-109852098D01*
X106010069Y-109852099D01*
X106010070Y-109852100D01*
X106127092Y-109967500D01*
X106269132Y-110050170D01*
X106269136Y-110050171D01*
X106269140Y-110050174D01*
X106427285Y-110094925D01*
X106550513Y-110097936D01*
X106591589Y-110098940D01*
X106591590Y-110098940D01*
X106751729Y-110061970D01*
X106751729Y-110061969D01*
X106751733Y-110061969D01*
X106897649Y-109986333D01*
X107020171Y-109876785D01*
X107111601Y-109740209D01*
X107166193Y-109585187D01*
X107191908Y-109291265D01*
X108080329Y-109291265D01*
X108085050Y-109414179D01*
X108131970Y-109571567D01*
X108216555Y-109712340D01*
X108333489Y-109827651D01*
X108333492Y-109827653D01*
X108430014Y-109883831D01*
X108467893Y-109450866D01*
X108488815Y-109492348D01*
X108572088Y-109567483D01*
X108676881Y-109607462D01*
X108789039Y-109606886D01*
X108893415Y-109565833D01*
X108965559Y-109499385D01*
X108927982Y-109928894D01*
X108927982Y-109928895D01*
X108957642Y-109922048D01*
X108957648Y-109922046D01*
X109103452Y-109846468D01*
X109103454Y-109846467D01*
X109225876Y-109737007D01*
X109225879Y-109737004D01*
X109317238Y-109600535D01*
X109317239Y-109600532D01*
X109371789Y-109445631D01*
X109376186Y-109395383D01*
X109328598Y-109395383D01*
X109293950Y-109381031D01*
X109279598Y-109346383D01*
X109279784Y-109342112D01*
X109317349Y-108912727D01*
X109815446Y-108956306D01*
X109780946Y-109350654D01*
X109763629Y-109383919D01*
X109732132Y-109395383D01*
X109677331Y-109395383D01*
X109674240Y-109430714D01*
X109678961Y-109553628D01*
X109725881Y-109711016D01*
X109810466Y-109851789D01*
X109927400Y-109967100D01*
X109927403Y-109967102D01*
X110023925Y-110023280D01*
X110061804Y-109590317D01*
X110082726Y-109631797D01*
X110165999Y-109706932D01*
X110270792Y-109746911D01*
X110382950Y-109746335D01*
X110487326Y-109705282D01*
X110559469Y-109638834D01*
X110521893Y-110068343D01*
X110521893Y-110068344D01*
X110551553Y-110061497D01*
X110551559Y-110061495D01*
X110697363Y-109985917D01*
X110697365Y-109985916D01*
X110819787Y-109876456D01*
X110819790Y-109876453D01*
X110911149Y-109739984D01*
X110911150Y-109739981D01*
X110965700Y-109585080D01*
X110991406Y-109291252D01*
X111879829Y-109291252D01*
X111884553Y-109414264D01*
X111922106Y-109540232D01*
X111931508Y-109571770D01*
X112016157Y-109712649D01*
X112016158Y-109712650D01*
X112016159Y-109712651D01*
X112133181Y-109828051D01*
X112275221Y-109910721D01*
X112275225Y-109910722D01*
X112275229Y-109910725D01*
X112433374Y-109955476D01*
X112543006Y-109958155D01*
X112597678Y-109959491D01*
X112597679Y-109959491D01*
X112757818Y-109922521D01*
X112757818Y-109922520D01*
X112757822Y-109922520D01*
X112903738Y-109846884D01*
X113026260Y-109737336D01*
X113117690Y-109600760D01*
X113172282Y-109445738D01*
X113183323Y-109319524D01*
X113200640Y-109286260D01*
X113236405Y-109274982D01*
X113436643Y-109292500D01*
X113469908Y-109309817D01*
X113481186Y-109345584D01*
X113477371Y-109389192D01*
X113473740Y-109430701D01*
X113473846Y-109433460D01*
X113478464Y-109553713D01*
X113519909Y-109692736D01*
X113525419Y-109711219D01*
X113610068Y-109852098D01*
X113610069Y-109852099D01*
X113610070Y-109852100D01*
X113727092Y-109967500D01*
X113869132Y-110050170D01*
X113869136Y-110050171D01*
X113869140Y-110050174D01*
X114027285Y-110094925D01*
X114150513Y-110097936D01*
X114191589Y-110098940D01*
X114191590Y-110098940D01*
X114351729Y-110061970D01*
X114351729Y-110061969D01*
X114351733Y-110061969D01*
X114497649Y-109986333D01*
X114620171Y-109876785D01*
X114711601Y-109740209D01*
X114766193Y-109585187D01*
X114791908Y-109291265D01*
X115680329Y-109291265D01*
X115685050Y-109414179D01*
X115731970Y-109571567D01*
X115816555Y-109712340D01*
X115933489Y-109827651D01*
X115933492Y-109827653D01*
X116030014Y-109883831D01*
X116067893Y-109450866D01*
X116088815Y-109492348D01*
X116172088Y-109567483D01*
X116276881Y-109607462D01*
X116389039Y-109606886D01*
X116493415Y-109565833D01*
X116565559Y-109499385D01*
X116527982Y-109928894D01*
X116527982Y-109928895D01*
X116557642Y-109922048D01*
X116557648Y-109922046D01*
X116703452Y-109846468D01*
X116703454Y-109846467D01*
X116825876Y-109737007D01*
X116825879Y-109737004D01*
X116917238Y-109600535D01*
X116917239Y-109600532D01*
X116971789Y-109445631D01*
X116976186Y-109395383D01*
X116928598Y-109395383D01*
X116893950Y-109381031D01*
X116879598Y-109346383D01*
X116879784Y-109342112D01*
X116917349Y-108912727D01*
X117415446Y-108956306D01*
X117380946Y-109350654D01*
X117363629Y-109383919D01*
X117332132Y-109395383D01*
X117277331Y-109395383D01*
X117274240Y-109430714D01*
X117278961Y-109553628D01*
X117325881Y-109711016D01*
X117410466Y-109851789D01*
X117527400Y-109967100D01*
X117527403Y-109967102D01*
X117623925Y-110023280D01*
X117661804Y-109590317D01*
X117682726Y-109631797D01*
X117765999Y-109706932D01*
X117870792Y-109746911D01*
X117982950Y-109746335D01*
X118087326Y-109705282D01*
X118159469Y-109638834D01*
X118121893Y-110068343D01*
X118121893Y-110068344D01*
X118151553Y-110061497D01*
X118151559Y-110061495D01*
X118297363Y-109985917D01*
X118297365Y-109985916D01*
X118419787Y-109876456D01*
X118419790Y-109876453D01*
X118511149Y-109739984D01*
X118511150Y-109739981D01*
X118565700Y-109585080D01*
X118591406Y-109291252D01*
X119479829Y-109291252D01*
X119484553Y-109414264D01*
X119522106Y-109540232D01*
X119531508Y-109571770D01*
X119616157Y-109712649D01*
X119616158Y-109712650D01*
X119616159Y-109712651D01*
X119733181Y-109828051D01*
X119875221Y-109910721D01*
X119875225Y-109910722D01*
X119875229Y-109910725D01*
X120033374Y-109955476D01*
X120094642Y-109956972D01*
X120104205Y-109958154D01*
X120136251Y-109965373D01*
X120143579Y-109967641D01*
X120167888Y-109977316D01*
X120186910Y-109984887D01*
X120189997Y-109986373D01*
X120240842Y-110015388D01*
X120243317Y-110017006D01*
X120299603Y-110058848D01*
X120301537Y-110060446D01*
X120361500Y-110115378D01*
X120361502Y-110115379D01*
X120361505Y-110115382D01*
X120376502Y-110124706D01*
X120385278Y-110131671D01*
X120399648Y-110146041D01*
X120399654Y-110146046D01*
X120411658Y-110158050D01*
X120436659Y-110170788D01*
X120443207Y-110174801D01*
X120458683Y-110186045D01*
X120478279Y-110218021D01*
X120478463Y-110219290D01*
X120480113Y-110231827D01*
X120487894Y-110316552D01*
X120502431Y-110427634D01*
X120502669Y-110429278D01*
X120502670Y-110429283D01*
X120506273Y-110439262D01*
X120508766Y-110449506D01*
X120522029Y-110550244D01*
X120522031Y-110550253D01*
X120558073Y-110684768D01*
X120586505Y-110790881D01*
X120586507Y-110790885D01*
X120586508Y-110790889D01*
X120681841Y-111021051D01*
X120806400Y-111236798D01*
X120806402Y-111236801D01*
X120806403Y-111236802D01*
X120958061Y-111434452D01*
X120958063Y-111434454D01*
X120958067Y-111434459D01*
X120958069Y-111434461D01*
X120990831Y-111467222D01*
X121023361Y-111499753D01*
X121023380Y-111499773D01*
X121263104Y-111739497D01*
X121263118Y-111739532D01*
X121365531Y-111841944D01*
X121365533Y-111841946D01*
X121365537Y-111841949D01*
X121365538Y-111841950D01*
X121563190Y-111993610D01*
X121563193Y-111993611D01*
X121563196Y-111993614D01*
X121698777Y-112071889D01*
X121778946Y-112118173D01*
X122009115Y-112213509D01*
X122009120Y-112213510D01*
X122009122Y-112213511D01*
X122249750Y-112277985D01*
X122249751Y-112277985D01*
X122249758Y-112277987D01*
X122496759Y-112310502D01*
X122621325Y-112310500D01*
X176451568Y-112310500D01*
X176483092Y-112310500D01*
X176483822Y-112310500D01*
X176484318Y-112310480D01*
X176586376Y-112310481D01*
X176854299Y-112280297D01*
X177117157Y-112220305D01*
X177371645Y-112131259D01*
X177614563Y-112014279D01*
X177842856Y-111870837D01*
X178026050Y-111724748D01*
X182249500Y-111724748D01*
X182261133Y-111783231D01*
X182268437Y-111794162D01*
X182305447Y-111849552D01*
X182332012Y-111867301D01*
X182371769Y-111893867D01*
X182430252Y-111905500D01*
X182430255Y-111905500D01*
X184169741Y-111905500D01*
X184169748Y-111905500D01*
X184170704Y-111905309D01*
X184171026Y-111905373D01*
X184172142Y-111905264D01*
X184172175Y-111905602D01*
X184207485Y-111912615D01*
X184228330Y-111943791D01*
X184229038Y-111958167D01*
X184224919Y-111999998D01*
X184224919Y-112000000D01*
X184245192Y-112205836D01*
X184245192Y-112205837D01*
X184305231Y-112403758D01*
X184305236Y-112403770D01*
X184380975Y-112545469D01*
X184380976Y-112545470D01*
X184796922Y-112129523D01*
X184820507Y-112209844D01*
X184898239Y-112330798D01*
X185006900Y-112424952D01*
X185137685Y-112484680D01*
X185147465Y-112486086D01*
X184734528Y-112899022D01*
X184734529Y-112899023D01*
X184876229Y-112974763D01*
X184876241Y-112974768D01*
X185074163Y-113034807D01*
X185280000Y-113055081D01*
X185485836Y-113034807D01*
X185485837Y-113034807D01*
X185683759Y-112974768D01*
X185683766Y-112974765D01*
X185825469Y-112899022D01*
X185825470Y-112899022D01*
X185412533Y-112486086D01*
X185422315Y-112484680D01*
X185553100Y-112424952D01*
X185661761Y-112330798D01*
X185739493Y-112209844D01*
X185763076Y-112129524D01*
X186179022Y-112545470D01*
X186179022Y-112545469D01*
X186254765Y-112403766D01*
X186254768Y-112403759D01*
X186314807Y-112205837D01*
X186314807Y-112205836D01*
X186335081Y-112000000D01*
X186335081Y-111999999D01*
X186314807Y-111794163D01*
X186314807Y-111794162D01*
X186254768Y-111596241D01*
X186254763Y-111596229D01*
X186179023Y-111454529D01*
X186179022Y-111454528D01*
X185763076Y-111870474D01*
X185739493Y-111790156D01*
X185661761Y-111669202D01*
X185553100Y-111575048D01*
X185422315Y-111515320D01*
X185412533Y-111513913D01*
X185825470Y-111100976D01*
X185825469Y-111100975D01*
X185683770Y-111025236D01*
X185683758Y-111025231D01*
X185485836Y-110965192D01*
X185280000Y-110944919D01*
X185074163Y-110965192D01*
X185074162Y-110965192D01*
X184876241Y-111025231D01*
X184876229Y-111025236D01*
X184734529Y-111100974D01*
X184734528Y-111100976D01*
X185147466Y-111513913D01*
X185137685Y-111515320D01*
X185006900Y-111575048D01*
X184898239Y-111669202D01*
X184820507Y-111790156D01*
X184796923Y-111870475D01*
X184364852Y-111438404D01*
X184350500Y-111403756D01*
X184350500Y-110855000D01*
X186204417Y-110855000D01*
X186224700Y-111060934D01*
X186284768Y-111258954D01*
X186382315Y-111441450D01*
X186513590Y-111601410D01*
X186673550Y-111732685D01*
X186856046Y-111830232D01*
X187054066Y-111890300D01*
X187260000Y-111910583D01*
X187465934Y-111890300D01*
X187663954Y-111830232D01*
X187846450Y-111732685D01*
X188006410Y-111601410D01*
X188137685Y-111441450D01*
X188235232Y-111258954D01*
X188295300Y-111060934D01*
X188315583Y-110855000D01*
X188295300Y-110649066D01*
X188235232Y-110451046D01*
X188137685Y-110268550D01*
X188006410Y-110108590D01*
X187846450Y-109977315D01*
X187663954Y-109879768D01*
X187465934Y-109819700D01*
X187260000Y-109799417D01*
X187054065Y-109819700D01*
X187054064Y-109819700D01*
X186881616Y-109872011D01*
X186865877Y-109876786D01*
X186856043Y-109879769D01*
X186673548Y-109977316D01*
X186513590Y-110108590D01*
X186382316Y-110268548D01*
X186284769Y-110451043D01*
X186224700Y-110649064D01*
X186224700Y-110649065D01*
X186207377Y-110824952D01*
X186204417Y-110855000D01*
X184350500Y-110855000D01*
X184350500Y-110306243D01*
X184364852Y-110271595D01*
X184796923Y-109839523D01*
X184820507Y-109919844D01*
X184898239Y-110040798D01*
X185006900Y-110134952D01*
X185137685Y-110194680D01*
X185147465Y-110196086D01*
X184734528Y-110609022D01*
X184734529Y-110609023D01*
X184876229Y-110684763D01*
X184876241Y-110684768D01*
X185074163Y-110744807D01*
X185280000Y-110765081D01*
X185485836Y-110744807D01*
X185485837Y-110744807D01*
X185683759Y-110684768D01*
X185683766Y-110684765D01*
X185825469Y-110609022D01*
X185825470Y-110609022D01*
X185412533Y-110196086D01*
X185422315Y-110194680D01*
X185553100Y-110134952D01*
X185661761Y-110040798D01*
X185739493Y-109919844D01*
X185763076Y-109839524D01*
X186179022Y-110255470D01*
X186179022Y-110255469D01*
X186254765Y-110113766D01*
X186254768Y-110113759D01*
X186314807Y-109915837D01*
X186314807Y-109915836D01*
X186335081Y-109710000D01*
X186335081Y-109709999D01*
X186314807Y-109504163D01*
X186314807Y-109504162D01*
X186254768Y-109306241D01*
X186254763Y-109306229D01*
X186179023Y-109164529D01*
X186179022Y-109164528D01*
X185763076Y-109580474D01*
X185739493Y-109500156D01*
X185661761Y-109379202D01*
X185553100Y-109285048D01*
X185422315Y-109225320D01*
X185412533Y-109223913D01*
X185825470Y-108810976D01*
X185825469Y-108810975D01*
X185683770Y-108735236D01*
X185683758Y-108735231D01*
X185485836Y-108675192D01*
X185280000Y-108654919D01*
X185074163Y-108675192D01*
X185074162Y-108675192D01*
X184876241Y-108735231D01*
X184876229Y-108735236D01*
X184734529Y-108810974D01*
X184734528Y-108810976D01*
X185147466Y-109223913D01*
X185137685Y-109225320D01*
X185006900Y-109285048D01*
X184898239Y-109379202D01*
X184820507Y-109500156D01*
X184796923Y-109580475D01*
X184380976Y-109164528D01*
X184380974Y-109164529D01*
X184305236Y-109306229D01*
X184305231Y-109306241D01*
X184245192Y-109504162D01*
X184245192Y-109504163D01*
X184224919Y-109709999D01*
X184224919Y-109710001D01*
X184229038Y-109751832D01*
X184218151Y-109787720D01*
X184185076Y-109805398D01*
X184170714Y-109804692D01*
X184169751Y-109804500D01*
X184169748Y-109804500D01*
X182430252Y-109804500D01*
X182371769Y-109816133D01*
X182305447Y-109860447D01*
X182263973Y-109922518D01*
X182261133Y-109926769D01*
X182249500Y-109985252D01*
X182249500Y-111724748D01*
X178026050Y-111724748D01*
X178053654Y-111702735D01*
X178124556Y-111631832D01*
X178124591Y-111631802D01*
X179206154Y-110550239D01*
X180321850Y-109434542D01*
X180322994Y-109433471D01*
X180478504Y-109297096D01*
X180481047Y-109295145D01*
X180485008Y-109292499D01*
X180652337Y-109180694D01*
X180655115Y-109179091D01*
X180684646Y-109164528D01*
X180839886Y-109087973D01*
X180842833Y-109086752D01*
X181037923Y-109020531D01*
X181041007Y-109019704D01*
X181243085Y-108979511D01*
X181246244Y-108979096D01*
X181452940Y-108965551D01*
X181454529Y-108965500D01*
X181511005Y-108965500D01*
X181567449Y-108965500D01*
X181581366Y-108967518D01*
X181584676Y-108968498D01*
X181591817Y-108970614D01*
X181591821Y-108970614D01*
X181591824Y-108970615D01*
X181753823Y-108985507D01*
X181911342Y-108999987D01*
X181923836Y-109002818D01*
X182109080Y-109071269D01*
X182119094Y-109076342D01*
X182292871Y-109191133D01*
X182524362Y-109350606D01*
X182530157Y-109354319D01*
X182536733Y-109358227D01*
X182542735Y-109361529D01*
X182873876Y-109529569D01*
X182878152Y-109531543D01*
X182878153Y-109531543D01*
X182878155Y-109531544D01*
X182878702Y-109531728D01*
X182886175Y-109534956D01*
X182896041Y-109540230D01*
X182896043Y-109540230D01*
X182896046Y-109540232D01*
X183094066Y-109600300D01*
X183300000Y-109620583D01*
X183505934Y-109600300D01*
X183703954Y-109540232D01*
X183886450Y-109442685D01*
X184046410Y-109311410D01*
X184177685Y-109151450D01*
X184275232Y-108968954D01*
X184335300Y-108770934D01*
X184355583Y-108565000D01*
X184335300Y-108359066D01*
X184275232Y-108161046D01*
X184177685Y-107978550D01*
X184046410Y-107818590D01*
X183886450Y-107687315D01*
X183713505Y-107594873D01*
X183703956Y-107589769D01*
X183703955Y-107589768D01*
X183703954Y-107589768D01*
X183505934Y-107529700D01*
X183300000Y-107509417D01*
X183094065Y-107529700D01*
X183094064Y-107529700D01*
X182896049Y-107589767D01*
X182896036Y-107589772D01*
X182880225Y-107598223D01*
X182872695Y-107601250D01*
X182872709Y-107601286D01*
X182870470Y-107602157D01*
X182742644Y-107667024D01*
X182542736Y-107768469D01*
X182537851Y-107771155D01*
X182536769Y-107771750D01*
X182530222Y-107775637D01*
X182524391Y-107779371D01*
X182292871Y-107938865D01*
X182119096Y-108053654D01*
X182109073Y-108058731D01*
X181923841Y-108127177D01*
X181911343Y-108130009D01*
X181591816Y-108159385D01*
X181591815Y-108159385D01*
X181579284Y-108162788D01*
X181566444Y-108164500D01*
X181421236Y-108164500D01*
X181420734Y-108164519D01*
X181318623Y-108164519D01*
X181050698Y-108194703D01*
X180787843Y-108254695D01*
X180787826Y-108254700D01*
X180533365Y-108343736D01*
X180533357Y-108343739D01*
X180533354Y-108343741D01*
X180290436Y-108460721D01*
X180290432Y-108460723D01*
X180062141Y-108604164D01*
X180062138Y-108604167D01*
X179851342Y-108772268D01*
X179778873Y-108844734D01*
X179778856Y-108844750D01*
X177583162Y-111040443D01*
X177581991Y-111041540D01*
X177426497Y-111177902D01*
X177423951Y-111179855D01*
X177252662Y-111294304D01*
X177249883Y-111295908D01*
X177065119Y-111387022D01*
X177062155Y-111388250D01*
X176867080Y-111454466D01*
X176863981Y-111455297D01*
X176661926Y-111495486D01*
X176658745Y-111495904D01*
X176555416Y-111502675D01*
X176452059Y-111509448D01*
X176450471Y-111509500D01*
X122622278Y-111509500D01*
X122620355Y-111509424D01*
X122453156Y-111496267D01*
X122445562Y-111495064D01*
X122285298Y-111456591D01*
X122277985Y-111454215D01*
X122125714Y-111391144D01*
X122118863Y-111387654D01*
X121978326Y-111301535D01*
X121972105Y-111297015D01*
X121844714Y-111188214D01*
X121843313Y-111186920D01*
X121613210Y-110956817D01*
X121611917Y-110955417D01*
X121502996Y-110827885D01*
X121498476Y-110821664D01*
X121412356Y-110681125D01*
X121408871Y-110674283D01*
X121345797Y-110522004D01*
X121343423Y-110514696D01*
X121322917Y-110429281D01*
X121306210Y-110359689D01*
X121305365Y-110341214D01*
X121307323Y-110327726D01*
X121306750Y-110316784D01*
X121319270Y-110281434D01*
X121347779Y-110265865D01*
X121352185Y-110265144D01*
X121358138Y-110264171D01*
X121358138Y-110264172D01*
X121361880Y-110263303D01*
X121371332Y-110261111D01*
X121460436Y-110234155D01*
X121480889Y-110225889D01*
X121494769Y-110220282D01*
X121494773Y-110220279D01*
X121494785Y-110220275D01*
X121498521Y-110218357D01*
X121529800Y-110198549D01*
X121567560Y-110169560D01*
X121575153Y-110164769D01*
X121588342Y-110158050D01*
X121596606Y-110149784D01*
X121606416Y-110142195D01*
X121649371Y-110116940D01*
X121652036Y-110115588D01*
X121686079Y-110100872D01*
X121706712Y-110096865D01*
X121789103Y-110098879D01*
X121791589Y-110098940D01*
X121791590Y-110098940D01*
X121951729Y-110061970D01*
X121951729Y-110061969D01*
X121951733Y-110061969D01*
X122097649Y-109986333D01*
X122220171Y-109876785D01*
X122311601Y-109740209D01*
X122366193Y-109585187D01*
X122391908Y-109291265D01*
X123280329Y-109291265D01*
X123285050Y-109414179D01*
X123331970Y-109571567D01*
X123416555Y-109712340D01*
X123533489Y-109827651D01*
X123533492Y-109827653D01*
X123630014Y-109883831D01*
X123667893Y-109450866D01*
X123688815Y-109492348D01*
X123772088Y-109567483D01*
X123876881Y-109607462D01*
X123989039Y-109606886D01*
X124093415Y-109565833D01*
X124165559Y-109499385D01*
X124127982Y-109928894D01*
X124127982Y-109928895D01*
X124157642Y-109922048D01*
X124157648Y-109922046D01*
X124303452Y-109846468D01*
X124303454Y-109846467D01*
X124425876Y-109737007D01*
X124425879Y-109737004D01*
X124517238Y-109600535D01*
X124517239Y-109600532D01*
X124571789Y-109445631D01*
X124576186Y-109395383D01*
X124528598Y-109395383D01*
X124493950Y-109381031D01*
X124479598Y-109346383D01*
X124479784Y-109342112D01*
X124517349Y-108912727D01*
X125015446Y-108956306D01*
X124980946Y-109350654D01*
X124963629Y-109383919D01*
X124932132Y-109395383D01*
X124877331Y-109395383D01*
X124874240Y-109430714D01*
X124878961Y-109553628D01*
X124925881Y-109711016D01*
X125010466Y-109851789D01*
X125127400Y-109967100D01*
X125127403Y-109967102D01*
X125223925Y-110023280D01*
X125261804Y-109590317D01*
X125282726Y-109631797D01*
X125365999Y-109706932D01*
X125470792Y-109746911D01*
X125582950Y-109746335D01*
X125687326Y-109705282D01*
X125759469Y-109638834D01*
X125721893Y-110068343D01*
X125721893Y-110068344D01*
X125751553Y-110061497D01*
X125751559Y-110061495D01*
X125897363Y-109985917D01*
X125897365Y-109985916D01*
X126019787Y-109876456D01*
X126019790Y-109876453D01*
X126111149Y-109739984D01*
X126111150Y-109739981D01*
X126165700Y-109585080D01*
X126191406Y-109291252D01*
X127079829Y-109291252D01*
X127084553Y-109414264D01*
X127122106Y-109540232D01*
X127131508Y-109571770D01*
X127216157Y-109712649D01*
X127216158Y-109712650D01*
X127216159Y-109712651D01*
X127333181Y-109828051D01*
X127475221Y-109910721D01*
X127475225Y-109910722D01*
X127475229Y-109910725D01*
X127633374Y-109955476D01*
X127743006Y-109958155D01*
X127797678Y-109959491D01*
X127797679Y-109959491D01*
X127957818Y-109922521D01*
X127957818Y-109922520D01*
X127957822Y-109922520D01*
X128103738Y-109846884D01*
X128226260Y-109737336D01*
X128317690Y-109600760D01*
X128372282Y-109445738D01*
X128383323Y-109319524D01*
X128400640Y-109286260D01*
X128436405Y-109274982D01*
X128636643Y-109292500D01*
X128669908Y-109309817D01*
X128681186Y-109345584D01*
X128677371Y-109389192D01*
X128673740Y-109430701D01*
X128673846Y-109433460D01*
X128678464Y-109553713D01*
X128719909Y-109692736D01*
X128725419Y-109711219D01*
X128810068Y-109852098D01*
X128810069Y-109852099D01*
X128810070Y-109852100D01*
X128927092Y-109967500D01*
X129069132Y-110050170D01*
X129069136Y-110050171D01*
X129069140Y-110050174D01*
X129227285Y-110094925D01*
X129350513Y-110097936D01*
X129391589Y-110098940D01*
X129391590Y-110098940D01*
X129551729Y-110061970D01*
X129551729Y-110061969D01*
X129551733Y-110061969D01*
X129697649Y-109986333D01*
X129820171Y-109876785D01*
X129911601Y-109740209D01*
X129966193Y-109585187D01*
X129991908Y-109291265D01*
X130880329Y-109291265D01*
X130885050Y-109414179D01*
X130931970Y-109571567D01*
X131016555Y-109712340D01*
X131133489Y-109827651D01*
X131133492Y-109827653D01*
X131230014Y-109883831D01*
X131267893Y-109450866D01*
X131288815Y-109492348D01*
X131372088Y-109567483D01*
X131476881Y-109607462D01*
X131589039Y-109606886D01*
X131693415Y-109565833D01*
X131765559Y-109499385D01*
X131727982Y-109928894D01*
X131727982Y-109928895D01*
X131757642Y-109922048D01*
X131757648Y-109922046D01*
X131903452Y-109846468D01*
X131903454Y-109846467D01*
X132025876Y-109737007D01*
X132025879Y-109737004D01*
X132117238Y-109600535D01*
X132117239Y-109600532D01*
X132171789Y-109445631D01*
X132176186Y-109395383D01*
X132128598Y-109395383D01*
X132093950Y-109381031D01*
X132079598Y-109346383D01*
X132079784Y-109342112D01*
X132117349Y-108912727D01*
X132615446Y-108956306D01*
X132580946Y-109350654D01*
X132563629Y-109383919D01*
X132532132Y-109395383D01*
X132477331Y-109395383D01*
X132474240Y-109430714D01*
X132478961Y-109553628D01*
X132525881Y-109711016D01*
X132610466Y-109851789D01*
X132727400Y-109967100D01*
X132727403Y-109967102D01*
X132823925Y-110023280D01*
X132861804Y-109590317D01*
X132882726Y-109631797D01*
X132965999Y-109706932D01*
X133070792Y-109746911D01*
X133182950Y-109746335D01*
X133287326Y-109705282D01*
X133359469Y-109638834D01*
X133321893Y-110068343D01*
X133321893Y-110068344D01*
X133351553Y-110061497D01*
X133351559Y-110061495D01*
X133497363Y-109985917D01*
X133497365Y-109985916D01*
X133619787Y-109876456D01*
X133619790Y-109876453D01*
X133711149Y-109739984D01*
X133711150Y-109739981D01*
X133765700Y-109585080D01*
X133791406Y-109291251D01*
X134679809Y-109291251D01*
X134684533Y-109414263D01*
X134722086Y-109540230D01*
X134731488Y-109571769D01*
X134816137Y-109712648D01*
X134816138Y-109712649D01*
X134816139Y-109712650D01*
X134933161Y-109828050D01*
X135075201Y-109910720D01*
X135075205Y-109910721D01*
X135075209Y-109910724D01*
X135233354Y-109955475D01*
X135343027Y-109958155D01*
X135397658Y-109959490D01*
X135397659Y-109959490D01*
X135557798Y-109922520D01*
X135557798Y-109922519D01*
X135557802Y-109922519D01*
X135703718Y-109846883D01*
X135826240Y-109737335D01*
X135917670Y-109600759D01*
X135972262Y-109445737D01*
X135983303Y-109319523D01*
X136000620Y-109286259D01*
X136036385Y-109274981D01*
X136236623Y-109292499D01*
X136269888Y-109309816D01*
X136281166Y-109345583D01*
X136273720Y-109430699D01*
X136278444Y-109553712D01*
X136303605Y-109638111D01*
X136325399Y-109711218D01*
X136410048Y-109852097D01*
X136410049Y-109852098D01*
X136410050Y-109852099D01*
X136527072Y-109967499D01*
X136669112Y-110050169D01*
X136669116Y-110050170D01*
X136669120Y-110050173D01*
X136827265Y-110094924D01*
X136950493Y-110097935D01*
X136991569Y-110098939D01*
X136991570Y-110098939D01*
X137151709Y-110061969D01*
X137151709Y-110061968D01*
X137151713Y-110061968D01*
X137297629Y-109986332D01*
X137420151Y-109876784D01*
X137511581Y-109740208D01*
X137566173Y-109585186D01*
X137591889Y-109291251D01*
X138479809Y-109291251D01*
X138484533Y-109414263D01*
X138522086Y-109540230D01*
X138531488Y-109571769D01*
X138616137Y-109712648D01*
X138616138Y-109712649D01*
X138616139Y-109712650D01*
X138733161Y-109828050D01*
X138875201Y-109910720D01*
X138875205Y-109910721D01*
X138875209Y-109910724D01*
X139033354Y-109955475D01*
X139143027Y-109958155D01*
X139197658Y-109959490D01*
X139197659Y-109959490D01*
X139357798Y-109922520D01*
X139357798Y-109922519D01*
X139357802Y-109922519D01*
X139503718Y-109846883D01*
X139626240Y-109737335D01*
X139717670Y-109600759D01*
X139772262Y-109445737D01*
X139783303Y-109319523D01*
X139800620Y-109286259D01*
X139836385Y-109274981D01*
X140036623Y-109292499D01*
X140069888Y-109309816D01*
X140081166Y-109345583D01*
X140073720Y-109430699D01*
X140078444Y-109553712D01*
X140103605Y-109638111D01*
X140125399Y-109711218D01*
X140210048Y-109852097D01*
X140210049Y-109852098D01*
X140210050Y-109852099D01*
X140327072Y-109967499D01*
X140469112Y-110050169D01*
X140469116Y-110050170D01*
X140469120Y-110050173D01*
X140627265Y-110094924D01*
X140750493Y-110097935D01*
X140791569Y-110098939D01*
X140791570Y-110098939D01*
X140951709Y-110061969D01*
X140951709Y-110061968D01*
X140951713Y-110061968D01*
X141097629Y-109986332D01*
X141220151Y-109876784D01*
X141311581Y-109740208D01*
X141366173Y-109585186D01*
X141472774Y-108366738D01*
X141472625Y-108362868D01*
X141472700Y-108359795D01*
X141472764Y-108359064D01*
X141521671Y-107800058D01*
X141521671Y-107800050D01*
X141521994Y-107763072D01*
X141519564Y-107750798D01*
X141490070Y-107601845D01*
X141419055Y-107453625D01*
X141313410Y-107327722D01*
X141289074Y-107310299D01*
X141179774Y-107232048D01*
X141026536Y-107172611D01*
X140998208Y-107167871D01*
X140990060Y-107166508D01*
X139265260Y-107015608D01*
X139262876Y-107015587D01*
X139228275Y-107015284D01*
X139067047Y-107047208D01*
X139067046Y-107047208D01*
X138918826Y-107118223D01*
X138792925Y-107223867D01*
X138697249Y-107357506D01*
X138637813Y-107510741D01*
X138632936Y-107539889D01*
X138631710Y-107547219D01*
X138541819Y-108574682D01*
X138541819Y-108574690D01*
X138541819Y-108574692D01*
X138541751Y-108582374D01*
X138541658Y-108584293D01*
X138479809Y-109291251D01*
X137591889Y-109291251D01*
X137672774Y-108366738D01*
X137672625Y-108362868D01*
X137672700Y-108359795D01*
X137672764Y-108359064D01*
X137721671Y-107800058D01*
X137721671Y-107800050D01*
X137721994Y-107763072D01*
X137719564Y-107750798D01*
X137690070Y-107601845D01*
X137619055Y-107453625D01*
X137513410Y-107327722D01*
X137489074Y-107310299D01*
X137379774Y-107232048D01*
X137226536Y-107172611D01*
X137198208Y-107167871D01*
X137190060Y-107166508D01*
X135465260Y-107015608D01*
X135462876Y-107015587D01*
X135428275Y-107015284D01*
X135267047Y-107047208D01*
X135267046Y-107047208D01*
X135118826Y-107118223D01*
X134992925Y-107223867D01*
X134897249Y-107357506D01*
X134837813Y-107510741D01*
X134832936Y-107539889D01*
X134831710Y-107547219D01*
X134741819Y-108574682D01*
X134741819Y-108574690D01*
X134741819Y-108574692D01*
X134741751Y-108582374D01*
X134741658Y-108584293D01*
X134679809Y-109291251D01*
X133791406Y-109291251D01*
X133799003Y-109204419D01*
X133450336Y-109173914D01*
X133493915Y-108675815D01*
X133842582Y-108706319D01*
X133855133Y-108562854D01*
X133506466Y-108532349D01*
X133522485Y-108349264D01*
X133521165Y-108335780D01*
X133535219Y-108239839D01*
X133519940Y-108065181D01*
X133508485Y-108030614D01*
X133898035Y-108064695D01*
X133921188Y-107800058D01*
X133921511Y-107763106D01*
X133889612Y-107602004D01*
X133889612Y-107602003D01*
X133818651Y-107453898D01*
X133713088Y-107328093D01*
X133579554Y-107232491D01*
X133426439Y-107173103D01*
X133426436Y-107173102D01*
X133389982Y-107167003D01*
X132776684Y-107113347D01*
X132746179Y-107462013D01*
X132248081Y-107418435D01*
X132278586Y-107069767D01*
X131665280Y-107016111D01*
X131628328Y-107015788D01*
X131467226Y-107047687D01*
X131467225Y-107047687D01*
X131319119Y-107118648D01*
X131193314Y-107224211D01*
X131097712Y-107357747D01*
X131038323Y-107510862D01*
X131032224Y-107547317D01*
X131009071Y-107811945D01*
X131399536Y-107846106D01*
X131353721Y-107961429D01*
X131328311Y-108134903D01*
X131330572Y-108160759D01*
X131314838Y-108340608D01*
X130965493Y-108310045D01*
X130952942Y-108453510D01*
X131302286Y-108484074D01*
X131258708Y-108982172D01*
X130910038Y-108951669D01*
X130880329Y-109291265D01*
X129991908Y-109291265D01*
X130072794Y-108366739D01*
X130072645Y-108362869D01*
X130072720Y-108359796D01*
X130072784Y-108359064D01*
X130121691Y-107800059D01*
X130121691Y-107800051D01*
X130122014Y-107763073D01*
X130122014Y-107763071D01*
X130090090Y-107601846D01*
X130019075Y-107453626D01*
X129913430Y-107327723D01*
X129840466Y-107275486D01*
X129779794Y-107232049D01*
X129626556Y-107172612D01*
X129598228Y-107167872D01*
X129590080Y-107166509D01*
X127865280Y-107015609D01*
X127862896Y-107015588D01*
X127828295Y-107015285D01*
X127667067Y-107047209D01*
X127667066Y-107047209D01*
X127518846Y-107118224D01*
X127392945Y-107223868D01*
X127297269Y-107357507D01*
X127237833Y-107510742D01*
X127234023Y-107533518D01*
X127231730Y-107547220D01*
X127141839Y-108574683D01*
X127141839Y-108574690D01*
X127141839Y-108574691D01*
X127141839Y-108574693D01*
X127141771Y-108582375D01*
X127141678Y-108584294D01*
X127079829Y-109291252D01*
X126191406Y-109291252D01*
X126199003Y-109204419D01*
X125850336Y-109173914D01*
X125893915Y-108675815D01*
X126242582Y-108706319D01*
X126255133Y-108562854D01*
X125906466Y-108532349D01*
X125922485Y-108349264D01*
X125921165Y-108335780D01*
X125935219Y-108239839D01*
X125919940Y-108065181D01*
X125908485Y-108030614D01*
X126298035Y-108064695D01*
X126321188Y-107800058D01*
X126321511Y-107763106D01*
X126289612Y-107602004D01*
X126289612Y-107602003D01*
X126218651Y-107453898D01*
X126113088Y-107328093D01*
X125979554Y-107232491D01*
X125826439Y-107173103D01*
X125826436Y-107173102D01*
X125789982Y-107167003D01*
X125176684Y-107113347D01*
X125146179Y-107462013D01*
X124648081Y-107418435D01*
X124678586Y-107069767D01*
X124065280Y-107016111D01*
X124028328Y-107015788D01*
X123867226Y-107047687D01*
X123867225Y-107047687D01*
X123719119Y-107118648D01*
X123593314Y-107224211D01*
X123497712Y-107357747D01*
X123438323Y-107510862D01*
X123432224Y-107547317D01*
X123409071Y-107811945D01*
X123799536Y-107846106D01*
X123753721Y-107961429D01*
X123728311Y-108134903D01*
X123730572Y-108160759D01*
X123714838Y-108340608D01*
X123365493Y-108310045D01*
X123352942Y-108453510D01*
X123702286Y-108484074D01*
X123658708Y-108982172D01*
X123310038Y-108951669D01*
X123280329Y-109291265D01*
X122391908Y-109291265D01*
X122472794Y-108366739D01*
X122472645Y-108362869D01*
X122472720Y-108359796D01*
X122472784Y-108359064D01*
X122521691Y-107800059D01*
X122521691Y-107800051D01*
X122522014Y-107763073D01*
X122522014Y-107763071D01*
X122490090Y-107601846D01*
X122419075Y-107453626D01*
X122313430Y-107327723D01*
X122240466Y-107275486D01*
X122179794Y-107232049D01*
X122026556Y-107172612D01*
X121998228Y-107167872D01*
X121990080Y-107166509D01*
X120265280Y-107015609D01*
X120262896Y-107015588D01*
X120228295Y-107015285D01*
X120067067Y-107047209D01*
X120067066Y-107047209D01*
X119918846Y-107118224D01*
X119792945Y-107223868D01*
X119697269Y-107357507D01*
X119637833Y-107510742D01*
X119634023Y-107533518D01*
X119631730Y-107547220D01*
X119541839Y-108574683D01*
X119541839Y-108574690D01*
X119541839Y-108574691D01*
X119541839Y-108574693D01*
X119541771Y-108582375D01*
X119541678Y-108584294D01*
X119479829Y-109291252D01*
X118591406Y-109291252D01*
X118599003Y-109204419D01*
X118250336Y-109173914D01*
X118293915Y-108675815D01*
X118642582Y-108706319D01*
X118655133Y-108562854D01*
X118306466Y-108532349D01*
X118322485Y-108349264D01*
X118321165Y-108335780D01*
X118335219Y-108239839D01*
X118319940Y-108065181D01*
X118308485Y-108030614D01*
X118698035Y-108064695D01*
X118721188Y-107800058D01*
X118721511Y-107763106D01*
X118689612Y-107602004D01*
X118689612Y-107602003D01*
X118618651Y-107453898D01*
X118513088Y-107328093D01*
X118379554Y-107232491D01*
X118226439Y-107173103D01*
X118226436Y-107173102D01*
X118189982Y-107167003D01*
X117576684Y-107113347D01*
X117546179Y-107462013D01*
X117048081Y-107418435D01*
X117078586Y-107069767D01*
X116465280Y-107016111D01*
X116428328Y-107015788D01*
X116267226Y-107047687D01*
X116267225Y-107047687D01*
X116119119Y-107118648D01*
X115993314Y-107224211D01*
X115897712Y-107357747D01*
X115838323Y-107510862D01*
X115832224Y-107547317D01*
X115809071Y-107811945D01*
X116199536Y-107846106D01*
X116153721Y-107961429D01*
X116128311Y-108134903D01*
X116130572Y-108160759D01*
X116114838Y-108340608D01*
X115765493Y-108310045D01*
X115752942Y-108453510D01*
X116102286Y-108484074D01*
X116058708Y-108982172D01*
X115710038Y-108951669D01*
X115680329Y-109291265D01*
X114791908Y-109291265D01*
X114872794Y-108366739D01*
X114872645Y-108362869D01*
X114872720Y-108359796D01*
X114872784Y-108359064D01*
X114921691Y-107800059D01*
X114921691Y-107800051D01*
X114922014Y-107763073D01*
X114922014Y-107763071D01*
X114890090Y-107601846D01*
X114819075Y-107453626D01*
X114713430Y-107327723D01*
X114640466Y-107275486D01*
X114579794Y-107232049D01*
X114426556Y-107172612D01*
X114398228Y-107167872D01*
X114390080Y-107166509D01*
X112665280Y-107015609D01*
X112662896Y-107015588D01*
X112628295Y-107015285D01*
X112467067Y-107047209D01*
X112467066Y-107047209D01*
X112318846Y-107118224D01*
X112192945Y-107223868D01*
X112097269Y-107357507D01*
X112037833Y-107510742D01*
X112034023Y-107533518D01*
X112031730Y-107547220D01*
X111941839Y-108574683D01*
X111941839Y-108574690D01*
X111941839Y-108574691D01*
X111941839Y-108574693D01*
X111941771Y-108582375D01*
X111941678Y-108584294D01*
X111879829Y-109291252D01*
X110991406Y-109291252D01*
X110999003Y-109204419D01*
X110650336Y-109173914D01*
X110693915Y-108675815D01*
X111042582Y-108706319D01*
X111055133Y-108562854D01*
X110706466Y-108532349D01*
X110722485Y-108349264D01*
X110721165Y-108335780D01*
X110735219Y-108239839D01*
X110719940Y-108065181D01*
X110708485Y-108030614D01*
X111098035Y-108064695D01*
X111121188Y-107800058D01*
X111121511Y-107763106D01*
X111089612Y-107602004D01*
X111089612Y-107602003D01*
X111018651Y-107453898D01*
X110913088Y-107328093D01*
X110779554Y-107232491D01*
X110626439Y-107173103D01*
X110626436Y-107173102D01*
X110589982Y-107167003D01*
X109976684Y-107113347D01*
X109946179Y-107462013D01*
X109448081Y-107418435D01*
X109478586Y-107069767D01*
X108865280Y-107016111D01*
X108828328Y-107015788D01*
X108667226Y-107047687D01*
X108667225Y-107047687D01*
X108519119Y-107118648D01*
X108393314Y-107224211D01*
X108297712Y-107357747D01*
X108238323Y-107510862D01*
X108232224Y-107547317D01*
X108209071Y-107811945D01*
X108599536Y-107846106D01*
X108553721Y-107961429D01*
X108528311Y-108134903D01*
X108530572Y-108160759D01*
X108514838Y-108340608D01*
X108165493Y-108310045D01*
X108152942Y-108453510D01*
X108502286Y-108484074D01*
X108458708Y-108982172D01*
X108110038Y-108951669D01*
X108080329Y-109291265D01*
X107191908Y-109291265D01*
X107272794Y-108366739D01*
X107272645Y-108362869D01*
X107272720Y-108359796D01*
X107272784Y-108359064D01*
X107321691Y-107800059D01*
X107321691Y-107800051D01*
X107322014Y-107763073D01*
X107322014Y-107763071D01*
X107290090Y-107601846D01*
X107219075Y-107453626D01*
X107113430Y-107327723D01*
X107040466Y-107275486D01*
X106979794Y-107232049D01*
X106826556Y-107172612D01*
X106798228Y-107167872D01*
X106790080Y-107166509D01*
X105065280Y-107015609D01*
X105062896Y-107015588D01*
X105028295Y-107015285D01*
X104867067Y-107047209D01*
X104867066Y-107047209D01*
X104718846Y-107118224D01*
X104592945Y-107223868D01*
X104497269Y-107357507D01*
X104437833Y-107510742D01*
X104434023Y-107533518D01*
X104431730Y-107547220D01*
X104341839Y-108574683D01*
X104341839Y-108574690D01*
X104341839Y-108574691D01*
X104341839Y-108574693D01*
X104341771Y-108582375D01*
X104341678Y-108584294D01*
X104279829Y-109291252D01*
X103200534Y-109291252D01*
X103200534Y-104752965D01*
X103979234Y-104752965D01*
X104011159Y-104914193D01*
X104082174Y-105062413D01*
X104187818Y-105188315D01*
X104321454Y-105283989D01*
X104321455Y-105283989D01*
X104321456Y-105283990D01*
X104474688Y-105343425D01*
X104474690Y-105343425D01*
X104474692Y-105343426D01*
X104492819Y-105346459D01*
X104511169Y-105349530D01*
X106235969Y-105500430D01*
X106262868Y-105500664D01*
X106272953Y-105500753D01*
X106272953Y-105500752D01*
X106272956Y-105500753D01*
X106434181Y-105468830D01*
X106582402Y-105397815D01*
X106708304Y-105292170D01*
X106803979Y-105158533D01*
X106863414Y-105005301D01*
X106869519Y-104968819D01*
X106888407Y-104752932D01*
X107779739Y-104752932D01*
X107811638Y-104914034D01*
X107811638Y-104914035D01*
X107882599Y-105062140D01*
X107988162Y-105187945D01*
X108121696Y-105283547D01*
X108274811Y-105342935D01*
X108274814Y-105342936D01*
X108311269Y-105349036D01*
X108924565Y-105402690D01*
X108955069Y-105054024D01*
X109453167Y-105097603D01*
X109422663Y-105446270D01*
X110035971Y-105499928D01*
X110072922Y-105500250D01*
X110234024Y-105468351D01*
X110234025Y-105468351D01*
X110382131Y-105397390D01*
X110507936Y-105291827D01*
X110603538Y-105158291D01*
X110662927Y-105005176D01*
X110669027Y-104968722D01*
X110687902Y-104752965D01*
X111579236Y-104752965D01*
X111611161Y-104914193D01*
X111682176Y-105062413D01*
X111787820Y-105188315D01*
X111921456Y-105283989D01*
X111921457Y-105283989D01*
X111921458Y-105283990D01*
X112074690Y-105343425D01*
X112074692Y-105343425D01*
X112074694Y-105343426D01*
X112092821Y-105346459D01*
X112111171Y-105349530D01*
X113835971Y-105500430D01*
X113862870Y-105500664D01*
X113872955Y-105500753D01*
X113872955Y-105500752D01*
X113872958Y-105500753D01*
X114034183Y-105468830D01*
X114182404Y-105397815D01*
X114308306Y-105292170D01*
X114403981Y-105158533D01*
X114463416Y-105005301D01*
X114469521Y-104968819D01*
X114488409Y-104752932D01*
X115379739Y-104752932D01*
X115411638Y-104914034D01*
X115411638Y-104914035D01*
X115482599Y-105062140D01*
X115588162Y-105187945D01*
X115721696Y-105283547D01*
X115874811Y-105342935D01*
X115874814Y-105342936D01*
X115911269Y-105349036D01*
X116524565Y-105402690D01*
X116555069Y-105054024D01*
X117053167Y-105097603D01*
X117022663Y-105446270D01*
X117635971Y-105499928D01*
X117672922Y-105500250D01*
X117834024Y-105468351D01*
X117834025Y-105468351D01*
X117982131Y-105397390D01*
X118107936Y-105291827D01*
X118203538Y-105158291D01*
X118262927Y-105005176D01*
X118269027Y-104968722D01*
X118287902Y-104752965D01*
X119179236Y-104752965D01*
X119211161Y-104914193D01*
X119282176Y-105062413D01*
X119387820Y-105188315D01*
X119521456Y-105283989D01*
X119521457Y-105283989D01*
X119521458Y-105283990D01*
X119674690Y-105343425D01*
X119674692Y-105343425D01*
X119674694Y-105343426D01*
X119692821Y-105346459D01*
X119711171Y-105349530D01*
X121435971Y-105500430D01*
X121462870Y-105500664D01*
X121472955Y-105500753D01*
X121472955Y-105500752D01*
X121472958Y-105500753D01*
X121634183Y-105468830D01*
X121782404Y-105397815D01*
X121908306Y-105292170D01*
X122003981Y-105158533D01*
X122063416Y-105005301D01*
X122069521Y-104968819D01*
X122088406Y-104752965D01*
X122979236Y-104752965D01*
X123011161Y-104914193D01*
X123082176Y-105062413D01*
X123187820Y-105188315D01*
X123321456Y-105283989D01*
X123321457Y-105283989D01*
X123321458Y-105283990D01*
X123474690Y-105343425D01*
X123474692Y-105343425D01*
X123474694Y-105343426D01*
X123492821Y-105346459D01*
X123511171Y-105349530D01*
X125235971Y-105500430D01*
X125262870Y-105500664D01*
X125272955Y-105500753D01*
X125272955Y-105500752D01*
X125272958Y-105500753D01*
X125434183Y-105468830D01*
X125582404Y-105397815D01*
X125708306Y-105292170D01*
X125803981Y-105158533D01*
X125863416Y-105005301D01*
X125869521Y-104968819D01*
X125888406Y-104752965D01*
X126779236Y-104752965D01*
X126811161Y-104914193D01*
X126882176Y-105062413D01*
X126987820Y-105188315D01*
X127121456Y-105283989D01*
X127121457Y-105283989D01*
X127121458Y-105283990D01*
X127274690Y-105343425D01*
X127274692Y-105343425D01*
X127274694Y-105343426D01*
X127292821Y-105346459D01*
X127311171Y-105349530D01*
X129035971Y-105500430D01*
X129062870Y-105500664D01*
X129072955Y-105500753D01*
X129072955Y-105500752D01*
X129072958Y-105500753D01*
X129234183Y-105468830D01*
X129382404Y-105397815D01*
X129508306Y-105292170D01*
X129603981Y-105158533D01*
X129663416Y-105005301D01*
X129669521Y-104968819D01*
X129688406Y-104752965D01*
X130579236Y-104752965D01*
X130611161Y-104914193D01*
X130682176Y-105062413D01*
X130787820Y-105188315D01*
X130921456Y-105283989D01*
X130921457Y-105283989D01*
X130921458Y-105283990D01*
X131074690Y-105343425D01*
X131074692Y-105343425D01*
X131074694Y-105343426D01*
X131092821Y-105346459D01*
X131111171Y-105349530D01*
X132835971Y-105500430D01*
X132862870Y-105500664D01*
X132872955Y-105500753D01*
X132872955Y-105500752D01*
X132872958Y-105500753D01*
X133034183Y-105468830D01*
X133182404Y-105397815D01*
X133308306Y-105292170D01*
X133403981Y-105158533D01*
X133463416Y-105005301D01*
X133469521Y-104968819D01*
X133488409Y-104752932D01*
X134379739Y-104752932D01*
X134411638Y-104914034D01*
X134411638Y-104914035D01*
X134482599Y-105062140D01*
X134588162Y-105187945D01*
X134721696Y-105283547D01*
X134874811Y-105342935D01*
X134874814Y-105342936D01*
X134911269Y-105349036D01*
X135524565Y-105402690D01*
X135555069Y-105054024D01*
X136053167Y-105097603D01*
X136022663Y-105446270D01*
X136635971Y-105499928D01*
X136672922Y-105500250D01*
X136834024Y-105468351D01*
X136834025Y-105468351D01*
X136982131Y-105397390D01*
X137107936Y-105291827D01*
X137203538Y-105158291D01*
X137262927Y-105005176D01*
X137269027Y-104968722D01*
X137287902Y-104752965D01*
X138179236Y-104752965D01*
X138211161Y-104914193D01*
X138282176Y-105062413D01*
X138387820Y-105188315D01*
X138521456Y-105283989D01*
X138521457Y-105283989D01*
X138521458Y-105283990D01*
X138674690Y-105343425D01*
X138674692Y-105343425D01*
X138674694Y-105343426D01*
X138692821Y-105346459D01*
X138711171Y-105349530D01*
X140435971Y-105500430D01*
X140462870Y-105500664D01*
X140472955Y-105500753D01*
X140472955Y-105500752D01*
X140472958Y-105500753D01*
X140634183Y-105468830D01*
X140782404Y-105397815D01*
X140908306Y-105292170D01*
X141003981Y-105158533D01*
X141063416Y-105005301D01*
X141069521Y-104968819D01*
X141159412Y-103941356D01*
X141159412Y-103941349D01*
X141218262Y-103268695D01*
X141213537Y-103145682D01*
X141166583Y-102988177D01*
X141081934Y-102847297D01*
X141081933Y-102847296D01*
X141081930Y-102847291D01*
X140964913Y-102731898D01*
X140964905Y-102731893D01*
X140822869Y-102649225D01*
X140822862Y-102649222D01*
X140769645Y-102634163D01*
X140664717Y-102604471D01*
X140664716Y-102604470D01*
X140664713Y-102604470D01*
X140506101Y-102600594D01*
X140472650Y-102586257D01*
X140320311Y-102433917D01*
X140320282Y-102433890D01*
X140298343Y-102411951D01*
X140298338Y-102411947D01*
X140297966Y-102411758D01*
X140297784Y-102411545D01*
X140295225Y-102409686D01*
X140295671Y-102409071D01*
X140273611Y-102383240D01*
X140272464Y-102357100D01*
X140274108Y-102349964D01*
X140286674Y-102295414D01*
X140286704Y-102294840D01*
X140286836Y-102294254D01*
X140286972Y-102293288D01*
X140287052Y-102293299D01*
X140290368Y-102278633D01*
X140292955Y-102272387D01*
X140328860Y-102185704D01*
X140332340Y-102178872D01*
X140418468Y-102038319D01*
X140422984Y-102032106D01*
X140500816Y-101940974D01*
X140531788Y-101904709D01*
X140533079Y-101903312D01*
X140573257Y-101863135D01*
X140583175Y-101853218D01*
X140584573Y-101851924D01*
X140712120Y-101742991D01*
X140718328Y-101738480D01*
X140858879Y-101652353D01*
X140865710Y-101648873D01*
X141017998Y-101585796D01*
X141025294Y-101583425D01*
X141185573Y-101544947D01*
X141193151Y-101543747D01*
X141261379Y-101538378D01*
X141360551Y-101530576D01*
X141362473Y-101530500D01*
X141418898Y-101530500D01*
X143791102Y-101530500D01*
X143847722Y-101530500D01*
X143849645Y-101530576D01*
X143922631Y-101536318D01*
X144016850Y-101543733D01*
X144024431Y-101544934D01*
X144184707Y-101583410D01*
X144192009Y-101585782D01*
X144344290Y-101648857D01*
X144351132Y-101652343D01*
X144480801Y-101731802D01*
X144491673Y-101738464D01*
X144497894Y-101742984D01*
X144625284Y-101851784D01*
X144626684Y-101853077D01*
X148572602Y-105798995D01*
X152503104Y-109729497D01*
X152503118Y-109729532D01*
X152605531Y-109831944D01*
X152605533Y-109831946D01*
X152605537Y-109831949D01*
X152605538Y-109831950D01*
X152803190Y-109983610D01*
X152803193Y-109983611D01*
X152803196Y-109983614D01*
X153018944Y-110108172D01*
X153018946Y-110108173D01*
X153249115Y-110203509D01*
X153249120Y-110203510D01*
X153249122Y-110203511D01*
X153489750Y-110267985D01*
X153489751Y-110267985D01*
X153489758Y-110267987D01*
X153736759Y-110300502D01*
X153861325Y-110300500D01*
X159980577Y-110300500D01*
X159980605Y-110300501D01*
X159984000Y-110300500D01*
X159984004Y-110300502D01*
X160021269Y-110300500D01*
X160021323Y-110300522D01*
X160041588Y-110300521D01*
X160041588Y-110300522D01*
X160176396Y-110300518D01*
X160444316Y-110270323D01*
X160707171Y-110210321D01*
X160961656Y-110121268D01*
X161204570Y-110004284D01*
X161432860Y-109860839D01*
X161643655Y-109692736D01*
X161714565Y-109621825D01*
X161714583Y-109621810D01*
X163916393Y-107420000D01*
X184224919Y-107420000D01*
X184245192Y-107625836D01*
X184245192Y-107625837D01*
X184305231Y-107823758D01*
X184305236Y-107823770D01*
X184380975Y-107965469D01*
X184380976Y-107965470D01*
X184796922Y-107549523D01*
X184820507Y-107629844D01*
X184898239Y-107750798D01*
X185006900Y-107844952D01*
X185137685Y-107904680D01*
X185147465Y-107906086D01*
X184734528Y-108319022D01*
X184734529Y-108319023D01*
X184876229Y-108394763D01*
X184876241Y-108394768D01*
X185074163Y-108454807D01*
X185280000Y-108475081D01*
X185485836Y-108454807D01*
X185485837Y-108454807D01*
X185683759Y-108394768D01*
X185683766Y-108394765D01*
X185825469Y-108319022D01*
X185825470Y-108319022D01*
X185412533Y-107906086D01*
X185422315Y-107904680D01*
X185553100Y-107844952D01*
X185661761Y-107750798D01*
X185739493Y-107629844D01*
X185763076Y-107549524D01*
X186179022Y-107965470D01*
X186179022Y-107965469D01*
X186254765Y-107823766D01*
X186254768Y-107823759D01*
X186314807Y-107625837D01*
X186314807Y-107625836D01*
X186335081Y-107420000D01*
X186335081Y-107419999D01*
X186314807Y-107214163D01*
X186314807Y-107214162D01*
X186254768Y-107016241D01*
X186254763Y-107016229D01*
X186179023Y-106874529D01*
X186179022Y-106874528D01*
X185763076Y-107290474D01*
X185739493Y-107210156D01*
X185661761Y-107089202D01*
X185553100Y-106995048D01*
X185422315Y-106935320D01*
X185412533Y-106933913D01*
X185825470Y-106520976D01*
X185825469Y-106520975D01*
X185683770Y-106445236D01*
X185683758Y-106445231D01*
X185485836Y-106385192D01*
X185280000Y-106364919D01*
X185074163Y-106385192D01*
X185074162Y-106385192D01*
X184876241Y-106445231D01*
X184876229Y-106445236D01*
X184734529Y-106520974D01*
X184734528Y-106520976D01*
X185147466Y-106933913D01*
X185137685Y-106935320D01*
X185006900Y-106995048D01*
X184898239Y-107089202D01*
X184820507Y-107210156D01*
X184796923Y-107290475D01*
X184380976Y-106874528D01*
X184380974Y-106874529D01*
X184305236Y-107016229D01*
X184305231Y-107016241D01*
X184245192Y-107214162D01*
X184245192Y-107214163D01*
X184224919Y-107419999D01*
X184224919Y-107420000D01*
X163916393Y-107420000D01*
X165061393Y-106275000D01*
X182244417Y-106275000D01*
X182264700Y-106480934D01*
X182264700Y-106480935D01*
X182277211Y-106522179D01*
X182324768Y-106678954D01*
X182422315Y-106861450D01*
X182553590Y-107021410D01*
X182713550Y-107152685D01*
X182896046Y-107250232D01*
X183094066Y-107310300D01*
X183300000Y-107330583D01*
X183505934Y-107310300D01*
X183703954Y-107250232D01*
X183886450Y-107152685D01*
X184046410Y-107021410D01*
X184177685Y-106861450D01*
X184275232Y-106678954D01*
X184335300Y-106480934D01*
X184355583Y-106275000D01*
X186204417Y-106275000D01*
X186224700Y-106480934D01*
X186224700Y-106480935D01*
X186237211Y-106522179D01*
X186284768Y-106678954D01*
X186382315Y-106861450D01*
X186513590Y-107021410D01*
X186673550Y-107152685D01*
X186856046Y-107250232D01*
X187054066Y-107310300D01*
X187260000Y-107330583D01*
X187465934Y-107310300D01*
X187663954Y-107250232D01*
X187846450Y-107152685D01*
X188006410Y-107021410D01*
X188137685Y-106861450D01*
X188235232Y-106678954D01*
X188295300Y-106480934D01*
X188315583Y-106275000D01*
X188295300Y-106069066D01*
X188235232Y-105871046D01*
X188137685Y-105688550D01*
X188006410Y-105528590D01*
X187846450Y-105397315D01*
X187663954Y-105299768D01*
X187465934Y-105239700D01*
X187260000Y-105219417D01*
X187054065Y-105239700D01*
X187054064Y-105239700D01*
X186856043Y-105299769D01*
X186673548Y-105397316D01*
X186513590Y-105528590D01*
X186382316Y-105688548D01*
X186284769Y-105871043D01*
X186224700Y-106069064D01*
X186224700Y-106069065D01*
X186204417Y-106274999D01*
X186204417Y-106275000D01*
X184355583Y-106275000D01*
X184335300Y-106069066D01*
X184275232Y-105871046D01*
X184177685Y-105688550D01*
X184046410Y-105528590D01*
X183886450Y-105397315D01*
X183703954Y-105299768D01*
X183505934Y-105239700D01*
X183300000Y-105219417D01*
X183094065Y-105239700D01*
X183094064Y-105239700D01*
X182896043Y-105299769D01*
X182713548Y-105397316D01*
X182553590Y-105528590D01*
X182422316Y-105688548D01*
X182324769Y-105871043D01*
X182264700Y-106069064D01*
X182264700Y-106069065D01*
X182244417Y-106274999D01*
X182244417Y-106275000D01*
X165061393Y-106275000D01*
X165077091Y-106259302D01*
X166206393Y-105130000D01*
X184224417Y-105130000D01*
X184244700Y-105335934D01*
X184244700Y-105335935D01*
X184263320Y-105397316D01*
X184304768Y-105533954D01*
X184402315Y-105716450D01*
X184533590Y-105876410D01*
X184693550Y-106007685D01*
X184876046Y-106105232D01*
X185074066Y-106165300D01*
X185280000Y-106185583D01*
X185485934Y-106165300D01*
X185683954Y-106105232D01*
X185866450Y-106007685D01*
X186026410Y-105876410D01*
X186157685Y-105716450D01*
X186255232Y-105533954D01*
X186315300Y-105335934D01*
X186335583Y-105130000D01*
X186315300Y-104924066D01*
X186255232Y-104726046D01*
X186157685Y-104543550D01*
X186026410Y-104383590D01*
X185866450Y-104252315D01*
X185683954Y-104154768D01*
X185485934Y-104094700D01*
X185280000Y-104074417D01*
X185074065Y-104094700D01*
X185074064Y-104094700D01*
X184876043Y-104154769D01*
X184693548Y-104252316D01*
X184533590Y-104383590D01*
X184402316Y-104543548D01*
X184304769Y-104726043D01*
X184244700Y-104924064D01*
X184244700Y-104924065D01*
X184224417Y-105129999D01*
X184224417Y-105130000D01*
X166206393Y-105130000D01*
X167351392Y-103985000D01*
X182244417Y-103985000D01*
X182264700Y-104190934D01*
X182264700Y-104190935D01*
X182283320Y-104252316D01*
X182324768Y-104388954D01*
X182422315Y-104571450D01*
X182553590Y-104731410D01*
X182713550Y-104862685D01*
X182896046Y-104960232D01*
X183094066Y-105020300D01*
X183300000Y-105040583D01*
X183505934Y-105020300D01*
X183703954Y-104960232D01*
X183886450Y-104862685D01*
X184046410Y-104731410D01*
X184177685Y-104571450D01*
X184275232Y-104388954D01*
X184335300Y-104190934D01*
X184355583Y-103985000D01*
X186204417Y-103985000D01*
X186224700Y-104190934D01*
X186224700Y-104190935D01*
X186243320Y-104252316D01*
X186284768Y-104388954D01*
X186382315Y-104571450D01*
X186513590Y-104731410D01*
X186673550Y-104862685D01*
X186856046Y-104960232D01*
X187054066Y-105020300D01*
X187260000Y-105040583D01*
X187465934Y-105020300D01*
X187663954Y-104960232D01*
X187846450Y-104862685D01*
X188006410Y-104731410D01*
X188137685Y-104571450D01*
X188235232Y-104388954D01*
X188295300Y-104190934D01*
X188315583Y-103985000D01*
X188295300Y-103779066D01*
X188235232Y-103581046D01*
X188137685Y-103398550D01*
X188006410Y-103238590D01*
X187846450Y-103107315D01*
X187663954Y-103009768D01*
X187465934Y-102949700D01*
X187260000Y-102929417D01*
X187054065Y-102949700D01*
X187054064Y-102949700D01*
X186856043Y-103009769D01*
X186673548Y-103107316D01*
X186513590Y-103238590D01*
X186382316Y-103398548D01*
X186284769Y-103581043D01*
X186224700Y-103779064D01*
X186224700Y-103779065D01*
X186204417Y-103984999D01*
X186204417Y-103985000D01*
X184355583Y-103985000D01*
X184335300Y-103779066D01*
X184275232Y-103581046D01*
X184177685Y-103398550D01*
X184046410Y-103238590D01*
X183886450Y-103107315D01*
X183703954Y-103009768D01*
X183505934Y-102949700D01*
X183300000Y-102929417D01*
X183094065Y-102949700D01*
X183094064Y-102949700D01*
X182896043Y-103009769D01*
X182713548Y-103107316D01*
X182553590Y-103238590D01*
X182422316Y-103398548D01*
X182324769Y-103581043D01*
X182264700Y-103779064D01*
X182264700Y-103779065D01*
X182244417Y-103984999D01*
X182244417Y-103985000D01*
X167351392Y-103985000D01*
X168456850Y-102879542D01*
X168457994Y-102878471D01*
X168501863Y-102840000D01*
X184224919Y-102840000D01*
X184245192Y-103045836D01*
X184245192Y-103045837D01*
X184305231Y-103243758D01*
X184305236Y-103243770D01*
X184380975Y-103385469D01*
X184380976Y-103385470D01*
X184796922Y-102969523D01*
X184820507Y-103049844D01*
X184898239Y-103170798D01*
X185006900Y-103264952D01*
X185137685Y-103324680D01*
X185147465Y-103326086D01*
X184734528Y-103739022D01*
X184734529Y-103739023D01*
X184876229Y-103814763D01*
X184876241Y-103814768D01*
X185074163Y-103874807D01*
X185280000Y-103895081D01*
X185485836Y-103874807D01*
X185485837Y-103874807D01*
X185683759Y-103814768D01*
X185683766Y-103814765D01*
X185825469Y-103739022D01*
X185825470Y-103739022D01*
X185412533Y-103326086D01*
X185422315Y-103324680D01*
X185553100Y-103264952D01*
X185661761Y-103170798D01*
X185739493Y-103049844D01*
X185763076Y-102969524D01*
X186179022Y-103385470D01*
X186179022Y-103385469D01*
X186254765Y-103243766D01*
X186254768Y-103243759D01*
X186314807Y-103045837D01*
X186314807Y-103045836D01*
X186335081Y-102840000D01*
X186335081Y-102839999D01*
X186314807Y-102634163D01*
X186314807Y-102634162D01*
X186254768Y-102436241D01*
X186254763Y-102436229D01*
X186179023Y-102294529D01*
X186179022Y-102294528D01*
X185763076Y-102710474D01*
X185739493Y-102630156D01*
X185661761Y-102509202D01*
X185553100Y-102415048D01*
X185422315Y-102355320D01*
X185412533Y-102353913D01*
X185825470Y-101940976D01*
X185825469Y-101940975D01*
X185683770Y-101865236D01*
X185683758Y-101865231D01*
X185485836Y-101805192D01*
X185280000Y-101784919D01*
X185074163Y-101805192D01*
X185074162Y-101805192D01*
X184876241Y-101865231D01*
X184876229Y-101865236D01*
X184734529Y-101940974D01*
X184734528Y-101940976D01*
X185147466Y-102353913D01*
X185137685Y-102355320D01*
X185006900Y-102415048D01*
X184898239Y-102509202D01*
X184820507Y-102630156D01*
X184796923Y-102710475D01*
X184380976Y-102294528D01*
X184380974Y-102294529D01*
X184305236Y-102436229D01*
X184305231Y-102436241D01*
X184245192Y-102634162D01*
X184245192Y-102634163D01*
X184224919Y-102839999D01*
X184224919Y-102840000D01*
X168501863Y-102840000D01*
X168613504Y-102742096D01*
X168616047Y-102740145D01*
X168628392Y-102731897D01*
X168787337Y-102625694D01*
X168790115Y-102624091D01*
X168866836Y-102586257D01*
X168974886Y-102532973D01*
X168977833Y-102531752D01*
X169172923Y-102465531D01*
X169176007Y-102464704D01*
X169378085Y-102424511D01*
X169381244Y-102424096D01*
X169587940Y-102410551D01*
X169589529Y-102410500D01*
X176883822Y-102410500D01*
X176884318Y-102410480D01*
X176986376Y-102410481D01*
X177254299Y-102380297D01*
X177517157Y-102320305D01*
X177771645Y-102231259D01*
X178014563Y-102114279D01*
X178242856Y-101970837D01*
X178453654Y-101802735D01*
X178524556Y-101731832D01*
X178524591Y-101731802D01*
X178561393Y-101695000D01*
X182244919Y-101695000D01*
X182265192Y-101900836D01*
X182265192Y-101900837D01*
X182325231Y-102098758D01*
X182325236Y-102098770D01*
X182400975Y-102240469D01*
X182400976Y-102240470D01*
X182816922Y-101824523D01*
X182840507Y-101904844D01*
X182918239Y-102025798D01*
X183026900Y-102119952D01*
X183157685Y-102179680D01*
X183167465Y-102181086D01*
X182754528Y-102594022D01*
X182754529Y-102594023D01*
X182896229Y-102669763D01*
X182896241Y-102669768D01*
X183094163Y-102729807D01*
X183300000Y-102750081D01*
X183505836Y-102729807D01*
X183505837Y-102729807D01*
X183703759Y-102669768D01*
X183703766Y-102669765D01*
X183845469Y-102594022D01*
X183845470Y-102594022D01*
X183432533Y-102181086D01*
X183442315Y-102179680D01*
X183573100Y-102119952D01*
X183681761Y-102025798D01*
X183759493Y-101904844D01*
X183783076Y-101824524D01*
X184199022Y-102240470D01*
X184199022Y-102240469D01*
X184274765Y-102098766D01*
X184274768Y-102098759D01*
X184334807Y-101900837D01*
X184334807Y-101900836D01*
X184355081Y-101695000D01*
X184355081Y-101694999D01*
X184334807Y-101489163D01*
X184334807Y-101489162D01*
X184274768Y-101291241D01*
X184274763Y-101291229D01*
X184199023Y-101149529D01*
X184199022Y-101149528D01*
X183783076Y-101565474D01*
X183759493Y-101485156D01*
X183681761Y-101364202D01*
X183573100Y-101270048D01*
X183442315Y-101210320D01*
X183432533Y-101208913D01*
X183845470Y-100795976D01*
X183845469Y-100795975D01*
X183703770Y-100720236D01*
X183703758Y-100720231D01*
X183505836Y-100660192D01*
X183300000Y-100639919D01*
X183094163Y-100660192D01*
X183094162Y-100660192D01*
X182896241Y-100720231D01*
X182896229Y-100720236D01*
X182754529Y-100795974D01*
X182754528Y-100795976D01*
X183167466Y-101208913D01*
X183157685Y-101210320D01*
X183026900Y-101270048D01*
X182918239Y-101364202D01*
X182840507Y-101485156D01*
X182816923Y-101565475D01*
X182400976Y-101149528D01*
X182400974Y-101149529D01*
X182325236Y-101291229D01*
X182325231Y-101291241D01*
X182265192Y-101489162D01*
X182265192Y-101489163D01*
X182244919Y-101694999D01*
X182244919Y-101695000D01*
X178561393Y-101695000D01*
X178830862Y-101425531D01*
X179750052Y-100506339D01*
X179751187Y-100505276D01*
X179906722Y-100368880D01*
X179909241Y-100366946D01*
X180080563Y-100252478D01*
X180083317Y-100250888D01*
X180268106Y-100159765D01*
X180271057Y-100158544D01*
X180279144Y-100155799D01*
X180466145Y-100092325D01*
X180469214Y-100091502D01*
X180671302Y-100051308D01*
X180674457Y-100050894D01*
X180881414Y-100037334D01*
X180882998Y-100037283D01*
X180939218Y-100037284D01*
X180939221Y-100037283D01*
X184315779Y-100037283D01*
X184315782Y-100037284D01*
X184372564Y-100037283D01*
X184374151Y-100037334D01*
X184580545Y-100050857D01*
X184583704Y-100051272D01*
X184785780Y-100091463D01*
X184788874Y-100092293D01*
X184983957Y-100158511D01*
X184986919Y-100159737D01*
X185171693Y-100250852D01*
X185174460Y-100252450D01*
X185345761Y-100366904D01*
X185348305Y-100368856D01*
X185379279Y-100396018D01*
X185503382Y-100504849D01*
X185504553Y-100505946D01*
X185751702Y-100753095D01*
X185760117Y-100764364D01*
X185765317Y-100773943D01*
X185970487Y-101020656D01*
X185977322Y-101031496D01*
X186059901Y-101210874D01*
X186063398Y-101221551D01*
X186105109Y-101425595D01*
X186155896Y-101701315D01*
X186156036Y-101702072D01*
X186157517Y-101708825D01*
X186159400Y-101716217D01*
X186161302Y-101722766D01*
X186220289Y-101903299D01*
X186276641Y-102075769D01*
X186278268Y-102080182D01*
X186278520Y-102080689D01*
X186281521Y-102088253D01*
X186284712Y-102098770D01*
X186284768Y-102098954D01*
X186382315Y-102281450D01*
X186513590Y-102441410D01*
X186673550Y-102572685D01*
X186856046Y-102670232D01*
X187054066Y-102730300D01*
X187260000Y-102750583D01*
X187465934Y-102730300D01*
X187663954Y-102670232D01*
X187846450Y-102572685D01*
X188006410Y-102441410D01*
X188137685Y-102281450D01*
X188235232Y-102098954D01*
X188295300Y-101900934D01*
X188315583Y-101695000D01*
X188295300Y-101489066D01*
X188235232Y-101291046D01*
X188137685Y-101108550D01*
X188006410Y-100948590D01*
X187846450Y-100817315D01*
X187682187Y-100729514D01*
X187663958Y-100719770D01*
X187663949Y-100719766D01*
X187646784Y-100714558D01*
X187639322Y-100711375D01*
X187639307Y-100711410D01*
X187637108Y-100710443D01*
X187421262Y-100639919D01*
X187287766Y-100596301D01*
X187283400Y-100595033D01*
X187281218Y-100594400D01*
X187273825Y-100592517D01*
X187267069Y-100591035D01*
X186990595Y-100540109D01*
X186786551Y-100498398D01*
X186775874Y-100494901D01*
X186596496Y-100412322D01*
X186585656Y-100405487D01*
X186401671Y-100252483D01*
X186338943Y-100200317D01*
X186334626Y-100197844D01*
X186327676Y-100193862D01*
X186317386Y-100185993D01*
X186114275Y-99982882D01*
X186114270Y-99982876D01*
X186086643Y-99955250D01*
X186085335Y-99953941D01*
X186085298Y-99953853D01*
X185975456Y-99844017D01*
X185975455Y-99844016D01*
X185764660Y-99675919D01*
X185764656Y-99675916D01*
X185536359Y-99532476D01*
X185293437Y-99415497D01*
X185038945Y-99326453D01*
X184776083Y-99266462D01*
X184508158Y-99236280D01*
X184508157Y-99236280D01*
X184373347Y-99236283D01*
X180849607Y-99236283D01*
X180848683Y-99236318D01*
X180746847Y-99236317D01*
X180746845Y-99236317D01*
X180746844Y-99236317D01*
X180746843Y-99236317D01*
X180478922Y-99266499D01*
X180216065Y-99326489D01*
X180216064Y-99326489D01*
X179961576Y-99415532D01*
X179718657Y-99532509D01*
X179490364Y-99675947D01*
X179490360Y-99675950D01*
X179279571Y-99844042D01*
X179206524Y-99917084D01*
X179184240Y-99939368D01*
X179143522Y-99980085D01*
X179143520Y-99980087D01*
X177983162Y-101140443D01*
X177981991Y-101141540D01*
X177826497Y-101277902D01*
X177823951Y-101279855D01*
X177652662Y-101394304D01*
X177649883Y-101395908D01*
X177465119Y-101487022D01*
X177462155Y-101488250D01*
X177267080Y-101554466D01*
X177263981Y-101555297D01*
X177061926Y-101595486D01*
X177058745Y-101595904D01*
X176955416Y-101602675D01*
X176852059Y-101609448D01*
X176850471Y-101609500D01*
X169556236Y-101609500D01*
X169555734Y-101609519D01*
X169453623Y-101609519D01*
X169185698Y-101639703D01*
X168922843Y-101699695D01*
X168922826Y-101699700D01*
X168668365Y-101788736D01*
X168668357Y-101788739D01*
X168668354Y-101788741D01*
X168429041Y-101903985D01*
X168425432Y-101905723D01*
X168197141Y-102049164D01*
X168197138Y-102049167D01*
X167986342Y-102217268D01*
X167913873Y-102289734D01*
X167913856Y-102289750D01*
X161173162Y-109030444D01*
X161171992Y-109031541D01*
X161016494Y-109167907D01*
X161013949Y-109169860D01*
X160842655Y-109284315D01*
X160839877Y-109285919D01*
X160655105Y-109377040D01*
X160652141Y-109378268D01*
X160601725Y-109395383D01*
X160457064Y-109444491D01*
X160453970Y-109445320D01*
X160251916Y-109485517D01*
X160248735Y-109485936D01*
X160042694Y-109499447D01*
X160041090Y-109499500D01*
X153862278Y-109499500D01*
X153860355Y-109499424D01*
X153693156Y-109486267D01*
X153685562Y-109485064D01*
X153525298Y-109446591D01*
X153517985Y-109444215D01*
X153365714Y-109381144D01*
X153358863Y-109377654D01*
X153218326Y-109291535D01*
X153212105Y-109287015D01*
X153084714Y-109178214D01*
X153083313Y-109176920D01*
X149681549Y-105775156D01*
X154681984Y-105775156D01*
X154701344Y-106082885D01*
X154759121Y-106385767D01*
X154854406Y-106679023D01*
X154985694Y-106958023D01*
X155148243Y-107214162D01*
X155150913Y-107218368D01*
X155226966Y-107310300D01*
X155347454Y-107455944D01*
X155347461Y-107455952D01*
X155572228Y-107667024D01*
X155572231Y-107667026D01*
X155572233Y-107667028D01*
X155821689Y-107848268D01*
X156091894Y-107996815D01*
X156378586Y-108110324D01*
X156677243Y-108187006D01*
X156983157Y-108225652D01*
X156983158Y-108225652D01*
X157291500Y-108225652D01*
X157291501Y-108225652D01*
X157597415Y-108187006D01*
X157896072Y-108110324D01*
X158182764Y-107996815D01*
X158452969Y-107848268D01*
X158702425Y-107667028D01*
X158927198Y-107455951D01*
X159123745Y-107218368D01*
X159288964Y-106958023D01*
X159420251Y-106679025D01*
X159515535Y-106385771D01*
X159515646Y-106385192D01*
X159557592Y-106165299D01*
X159573313Y-106082888D01*
X159581610Y-105951001D01*
X159592674Y-105775156D01*
X159592674Y-105775147D01*
X159573313Y-105467418D01*
X159564779Y-105422683D01*
X159541333Y-105299769D01*
X159515536Y-105164536D01*
X159468671Y-105020300D01*
X159420251Y-104871279D01*
X159288964Y-104592281D01*
X159154968Y-104381136D01*
X159123747Y-104331939D01*
X159092493Y-104294160D01*
X158927198Y-104094353D01*
X158927196Y-104094351D01*
X158702429Y-103883279D01*
X158702421Y-103883273D01*
X158452976Y-103702041D01*
X158452970Y-103702037D01*
X158452971Y-103702037D01*
X158452969Y-103702036D01*
X158182764Y-103553489D01*
X158020936Y-103489417D01*
X157896073Y-103439980D01*
X157597414Y-103363297D01*
X157291503Y-103324652D01*
X157291501Y-103324652D01*
X156983157Y-103324652D01*
X156983154Y-103324652D01*
X156677243Y-103363297D01*
X156378584Y-103439980D01*
X156091891Y-103553490D01*
X155821687Y-103702037D01*
X155821681Y-103702041D01*
X155572236Y-103883273D01*
X155572228Y-103883279D01*
X155347461Y-104094351D01*
X155347454Y-104094359D01*
X155150910Y-104331939D01*
X154985694Y-104592280D01*
X154854406Y-104871280D01*
X154759121Y-105164536D01*
X154701344Y-105467418D01*
X154681984Y-105775147D01*
X154681984Y-105775156D01*
X149681549Y-105775156D01*
X148451393Y-104545000D01*
X149344417Y-104545000D01*
X149364700Y-104750934D01*
X149364700Y-104750935D01*
X149390855Y-104837158D01*
X149424768Y-104948954D01*
X149522315Y-105131450D01*
X149653590Y-105291410D01*
X149813550Y-105422685D01*
X149996046Y-105520232D01*
X150194066Y-105580300D01*
X150400000Y-105600583D01*
X150605934Y-105580300D01*
X150803954Y-105520232D01*
X150986450Y-105422685D01*
X151146410Y-105291410D01*
X151277685Y-105131450D01*
X151375232Y-104948954D01*
X151435300Y-104750934D01*
X151455583Y-104545000D01*
X151435300Y-104339066D01*
X151375232Y-104141046D01*
X151277685Y-103958550D01*
X151146410Y-103798590D01*
X150986450Y-103667315D01*
X150803954Y-103569768D01*
X150605934Y-103509700D01*
X150400000Y-103489417D01*
X150194065Y-103509700D01*
X150194064Y-103509700D01*
X149996043Y-103569769D01*
X149813548Y-103667316D01*
X149653590Y-103798590D01*
X149522316Y-103958548D01*
X149424769Y-104141043D01*
X149364700Y-104339064D01*
X149364700Y-104339065D01*
X149344417Y-104544999D01*
X149344417Y-104545000D01*
X148451393Y-104545000D01*
X146781141Y-102874748D01*
X149349500Y-102874748D01*
X149361133Y-102933231D01*
X149374383Y-102953061D01*
X149405447Y-102999552D01*
X149432012Y-103017301D01*
X149471769Y-103043867D01*
X149530252Y-103055500D01*
X149530255Y-103055500D01*
X151269745Y-103055500D01*
X151269748Y-103055500D01*
X151328231Y-103043867D01*
X151394552Y-102999552D01*
X151438867Y-102933231D01*
X151450500Y-102874748D01*
X151450500Y-101135252D01*
X151438867Y-101076769D01*
X151401373Y-101020656D01*
X151394552Y-101010447D01*
X151354795Y-100983882D01*
X151328231Y-100966133D01*
X151269748Y-100954500D01*
X149530252Y-100954500D01*
X149471769Y-100966133D01*
X149405447Y-101010447D01*
X149373459Y-101058322D01*
X149361133Y-101076769D01*
X149349500Y-101135252D01*
X149349500Y-102874748D01*
X146781141Y-102874748D01*
X145206896Y-101300503D01*
X145206881Y-101300467D01*
X145104468Y-101198055D01*
X145104466Y-101198053D01*
X144987818Y-101108548D01*
X144906810Y-101046390D01*
X144906808Y-101046388D01*
X144906803Y-101046385D01*
X144691055Y-100921827D01*
X144460893Y-100826494D01*
X144460877Y-100826488D01*
X144220249Y-100762014D01*
X144220238Y-100762012D01*
X144085569Y-100744284D01*
X143973241Y-100729498D01*
X143973238Y-100729498D01*
X143848675Y-100729500D01*
X141328996Y-100729500D01*
X141328624Y-100729513D01*
X141236761Y-100729513D01*
X141236760Y-100729513D01*
X141192626Y-100735322D01*
X140989764Y-100762027D01*
X140989753Y-100762029D01*
X140749182Y-100826488D01*
X140749119Y-100826505D01*
X140749117Y-100826505D01*
X140749110Y-100826508D01*
X140518948Y-100921841D01*
X140303201Y-101046400D01*
X140105540Y-101198067D01*
X139980503Y-101323104D01*
X139980467Y-101323118D01*
X139878055Y-101425531D01*
X139878053Y-101425533D01*
X139726385Y-101623196D01*
X139601827Y-101838944D01*
X139506491Y-102069111D01*
X139506490Y-102069115D01*
X139503525Y-102080182D01*
X139501131Y-102089115D01*
X139471793Y-102181897D01*
X139449483Y-102255074D01*
X139444204Y-102272388D01*
X139437318Y-102293814D01*
X139413054Y-102322409D01*
X139398690Y-102327161D01*
X139394496Y-102327856D01*
X139391482Y-102328357D01*
X139341181Y-102337339D01*
X139333352Y-102338737D01*
X139324739Y-102339500D01*
X139276565Y-102339500D01*
X139249885Y-102348168D01*
X139242413Y-102349962D01*
X139214700Y-102354353D01*
X139214695Y-102354354D01*
X139189693Y-102367092D01*
X139182595Y-102370032D01*
X139155909Y-102378704D01*
X139133208Y-102395196D01*
X139126658Y-102399210D01*
X139101659Y-102411949D01*
X139101657Y-102411951D01*
X139079094Y-102434513D01*
X139079090Y-102434516D01*
X139063963Y-102449642D01*
X139029314Y-102463991D01*
X139028120Y-102463976D01*
X138906501Y-102461005D01*
X138906500Y-102461005D01*
X138746361Y-102497975D01*
X138746356Y-102497977D01*
X138600441Y-102573613D01*
X138600439Y-102573614D01*
X138477922Y-102683159D01*
X138477919Y-102683162D01*
X138386490Y-102819736D01*
X138386489Y-102819739D01*
X138331898Y-102974758D01*
X138295965Y-103385469D01*
X138269452Y-103688505D01*
X138269451Y-103688517D01*
X138179560Y-104715980D01*
X138179560Y-104715988D01*
X138179236Y-104752965D01*
X137287902Y-104752965D01*
X137292177Y-104704092D01*
X136901715Y-104669931D01*
X136947530Y-104554610D01*
X136972940Y-104381136D01*
X136971018Y-104359173D01*
X136987089Y-104175487D01*
X137335756Y-104205992D01*
X137344472Y-104106375D01*
X136995804Y-104075870D01*
X137039383Y-103577772D01*
X137388050Y-103608276D01*
X137417761Y-103268681D01*
X137413040Y-103145767D01*
X137366120Y-102988379D01*
X137281535Y-102847606D01*
X137164600Y-102732293D01*
X137164597Y-102732291D01*
X137068076Y-102676113D01*
X137068075Y-102676114D01*
X137030196Y-103109076D01*
X137009276Y-103067599D01*
X136926003Y-102992464D01*
X136821210Y-102952485D01*
X136709052Y-102953061D01*
X136604676Y-102994114D01*
X136532529Y-103060564D01*
X136570107Y-102631051D01*
X136540440Y-102637901D01*
X136394638Y-102713478D01*
X136394636Y-102713479D01*
X136272214Y-102822939D01*
X136272211Y-102822942D01*
X136180852Y-102959411D01*
X136180851Y-102959414D01*
X136126300Y-103114315D01*
X136126299Y-103114321D01*
X136125745Y-103120655D01*
X136125746Y-103120656D01*
X136172653Y-103120656D01*
X136207301Y-103135008D01*
X136221653Y-103169656D01*
X136221467Y-103173927D01*
X136183900Y-103603310D01*
X135685803Y-103559732D01*
X135720305Y-103165385D01*
X135737622Y-103132120D01*
X135769119Y-103120656D01*
X135823521Y-103120656D01*
X135823521Y-103120655D01*
X135819129Y-103006317D01*
X135772209Y-102848929D01*
X135687624Y-102708156D01*
X135570689Y-102592843D01*
X135570686Y-102592841D01*
X135474165Y-102536663D01*
X135474164Y-102536664D01*
X135436285Y-102969627D01*
X135415365Y-102928149D01*
X135332092Y-102853014D01*
X135227299Y-102813035D01*
X135115141Y-102813611D01*
X135010765Y-102854664D01*
X134938618Y-102921114D01*
X134976196Y-102491601D01*
X134946529Y-102498451D01*
X134800727Y-102574028D01*
X134800725Y-102574029D01*
X134678303Y-102683489D01*
X134678300Y-102683492D01*
X134586941Y-102819961D01*
X134586940Y-102819964D01*
X134532390Y-102974865D01*
X134499086Y-103355525D01*
X134847754Y-103386029D01*
X134804175Y-103884128D01*
X134455507Y-103853624D01*
X134446792Y-103953242D01*
X134795460Y-103983746D01*
X134775606Y-104210682D01*
X134775615Y-104210775D01*
X134766032Y-104276200D01*
X134781311Y-104450858D01*
X134792764Y-104485421D01*
X134403214Y-104451341D01*
X134380063Y-104715980D01*
X134380063Y-104715981D01*
X134379739Y-104752932D01*
X133488409Y-104752932D01*
X133559412Y-103941356D01*
X133559412Y-103941349D01*
X133618262Y-103268695D01*
X133613537Y-103145682D01*
X133566583Y-102988177D01*
X133481934Y-102847297D01*
X133481933Y-102847296D01*
X133481930Y-102847291D01*
X133364913Y-102731898D01*
X133364905Y-102731893D01*
X133222869Y-102649225D01*
X133222862Y-102649222D01*
X133169645Y-102634163D01*
X133064717Y-102604471D01*
X133064716Y-102604470D01*
X133064713Y-102604470D01*
X132897331Y-102600380D01*
X132897368Y-102598838D01*
X132866243Y-102589496D01*
X132862569Y-102586176D01*
X132710284Y-102433890D01*
X132710254Y-102433862D01*
X132688342Y-102411950D01*
X132688337Y-102411946D01*
X132680819Y-102408116D01*
X132656517Y-102379764D01*
X132643498Y-102340174D01*
X132642928Y-102338151D01*
X132632834Y-102295416D01*
X132625163Y-102262937D01*
X132623971Y-102255083D01*
X132615763Y-102136677D01*
X132612002Y-102121840D01*
X132610500Y-102109800D01*
X132610500Y-101702278D01*
X132610576Y-101700355D01*
X132616654Y-101623111D01*
X132623733Y-101533147D01*
X132624933Y-101525570D01*
X132663410Y-101365288D01*
X132665781Y-101357994D01*
X132728860Y-101205704D01*
X132732340Y-101198872D01*
X132818473Y-101058311D01*
X132822973Y-101052118D01*
X132931792Y-100924703D01*
X132933059Y-100923332D01*
X133433194Y-100423198D01*
X133434582Y-100421917D01*
X133562120Y-100312991D01*
X133568328Y-100308480D01*
X133708879Y-100222353D01*
X133715710Y-100218873D01*
X133867998Y-100155796D01*
X133875294Y-100153425D01*
X134035573Y-100114947D01*
X134043151Y-100113747D01*
X134111379Y-100108378D01*
X134210551Y-100100576D01*
X134212473Y-100100500D01*
X175673822Y-100100500D01*
X175674318Y-100100480D01*
X175776376Y-100100481D01*
X176044299Y-100070297D01*
X176307157Y-100010305D01*
X176561646Y-99921259D01*
X176804564Y-99804279D01*
X177032858Y-99660836D01*
X177243655Y-99492734D01*
X177314557Y-99421831D01*
X177314592Y-99421801D01*
X177450907Y-99285486D01*
X177865555Y-98870837D01*
X177865558Y-98870836D01*
X177905727Y-98830665D01*
X177906869Y-98829596D01*
X178062365Y-98693227D01*
X178064910Y-98691274D01*
X178176899Y-98616441D01*
X178236212Y-98576808D01*
X178238969Y-98575216D01*
X178423758Y-98484084D01*
X178426690Y-98482870D01*
X178621798Y-98416638D01*
X178624875Y-98415813D01*
X178826936Y-98375619D01*
X178830112Y-98375201D01*
X179036184Y-98361692D01*
X179037770Y-98361641D01*
X186291910Y-98361641D01*
X186293495Y-98361692D01*
X186493871Y-98374827D01*
X186499884Y-98375222D01*
X186503063Y-98375640D01*
X186705115Y-98415833D01*
X186708200Y-98416659D01*
X186903284Y-98482884D01*
X186906240Y-98484109D01*
X187091008Y-98575229D01*
X187093787Y-98576833D01*
X187265073Y-98691288D01*
X187267618Y-98693241D01*
X187423343Y-98829811D01*
X187424514Y-98830907D01*
X187467235Y-98873629D01*
X187467242Y-98873635D01*
X188254444Y-99660836D01*
X188270434Y-99676826D01*
X188271531Y-99677997D01*
X188407902Y-99833503D01*
X188409855Y-99836048D01*
X188524304Y-100007337D01*
X188525908Y-100010116D01*
X188617022Y-100194880D01*
X188618250Y-100197844D01*
X188684466Y-100392919D01*
X188685297Y-100396018D01*
X188725486Y-100598073D01*
X188725904Y-100601254D01*
X188730647Y-100673623D01*
X188738664Y-100795976D01*
X188739448Y-100807927D01*
X188739500Y-100809529D01*
X188739500Y-105855778D01*
X188739448Y-105857363D01*
X188731879Y-105972874D01*
X188725924Y-106063747D01*
X188725506Y-106066928D01*
X188685316Y-106268986D01*
X188684485Y-106272085D01*
X188618268Y-106467163D01*
X188617040Y-106470127D01*
X188525925Y-106654893D01*
X188524321Y-106657672D01*
X188409870Y-106828964D01*
X188407917Y-106831510D01*
X188271753Y-106986779D01*
X188270656Y-106987949D01*
X188201903Y-107056702D01*
X188190634Y-107065117D01*
X188181057Y-107070315D01*
X187934341Y-107275486D01*
X187923501Y-107282321D01*
X187744122Y-107364901D01*
X187733445Y-107368398D01*
X187529403Y-107410109D01*
X187252918Y-107461037D01*
X187246162Y-107462518D01*
X187238777Y-107464400D01*
X187232232Y-107466300D01*
X186879081Y-107581689D01*
X186874533Y-107583372D01*
X186874148Y-107583564D01*
X186866559Y-107586578D01*
X186856048Y-107589767D01*
X186856041Y-107589770D01*
X186673548Y-107687316D01*
X186513590Y-107818590D01*
X186382316Y-107978548D01*
X186284769Y-108161043D01*
X186284768Y-108161045D01*
X186284768Y-108161046D01*
X186283374Y-108165643D01*
X186224700Y-108359064D01*
X186224700Y-108359065D01*
X186214688Y-108460723D01*
X186204417Y-108565000D01*
X186215270Y-108675192D01*
X186224700Y-108770934D01*
X186224700Y-108770935D01*
X186236846Y-108810974D01*
X186284332Y-108967518D01*
X186284769Y-108968956D01*
X186290245Y-108979201D01*
X186382315Y-109151450D01*
X186513590Y-109311410D01*
X186673550Y-109442685D01*
X186856046Y-109540232D01*
X187054066Y-109600300D01*
X187260000Y-109620583D01*
X187465934Y-109600300D01*
X187663954Y-109540232D01*
X187846450Y-109442685D01*
X188006410Y-109311410D01*
X188137685Y-109151450D01*
X188235232Y-108968954D01*
X188240437Y-108951792D01*
X188243624Y-108944328D01*
X188243587Y-108944312D01*
X188244551Y-108942114D01*
X188244556Y-108942107D01*
X188358707Y-108592739D01*
X188360626Y-108586122D01*
X188362506Y-108578718D01*
X188363969Y-108572034D01*
X188414889Y-108295595D01*
X188456599Y-108091545D01*
X188460091Y-108080882D01*
X188542673Y-107901496D01*
X188549508Y-107890658D01*
X188754681Y-107643944D01*
X188761136Y-107632675D01*
X188768997Y-107622394D01*
X188823048Y-107568344D01*
X188823093Y-107568325D01*
X188837424Y-107553993D01*
X188837425Y-107553994D01*
X188932749Y-107458668D01*
X189100852Y-107247869D01*
X189244296Y-107019574D01*
X189361277Y-106776654D01*
X189450324Y-106522163D01*
X189510317Y-106259302D01*
X189540501Y-105991377D01*
X189540500Y-105856568D01*
X189540500Y-105840040D01*
X189540500Y-100776908D01*
X189540500Y-100776184D01*
X189540480Y-100775681D01*
X189540480Y-100729498D01*
X189540481Y-100673624D01*
X189510297Y-100405701D01*
X189450305Y-100142843D01*
X189418119Y-100050856D01*
X189361263Y-99888366D01*
X189361262Y-99888364D01*
X189361259Y-99888355D01*
X189244279Y-99645437D01*
X189100837Y-99417144D01*
X188932735Y-99206346D01*
X188932731Y-99206342D01*
X188932728Y-99206338D01*
X188860708Y-99134318D01*
X188860693Y-99134301D01*
X188836834Y-99110442D01*
X188796696Y-99070303D01*
X188796693Y-99070301D01*
X188142205Y-98415812D01*
X187967372Y-98240978D01*
X187966945Y-98240583D01*
X187894790Y-98168425D01*
X187683994Y-98000315D01*
X187455712Y-97856871D01*
X187455704Y-97856866D01*
X187212800Y-97739886D01*
X187212787Y-97739880D01*
X186958313Y-97650833D01*
X186958302Y-97650830D01*
X186695457Y-97590834D01*
X186695455Y-97590833D01*
X186695448Y-97590832D01*
X186695443Y-97590831D01*
X186695441Y-97590831D01*
X186427523Y-97560641D01*
X186324234Y-97560641D01*
X186324233Y-97560641D01*
X179057600Y-97560641D01*
X179057549Y-97560620D01*
X178902472Y-97560620D01*
X178634554Y-97590811D01*
X178634549Y-97590811D01*
X178634548Y-97590812D01*
X178634544Y-97590812D01*
X178634538Y-97590814D01*
X178371692Y-97650810D01*
X178371681Y-97650813D01*
X178117205Y-97739861D01*
X178117192Y-97739867D01*
X177874286Y-97856847D01*
X177874278Y-97856852D01*
X177645994Y-98000297D01*
X177435193Y-98168412D01*
X177363024Y-98240583D01*
X177362168Y-98241439D01*
X177362164Y-98241443D01*
X176792019Y-98811588D01*
X176782591Y-98821016D01*
X176773163Y-98830443D01*
X176771993Y-98831539D01*
X176616497Y-98967901D01*
X176613952Y-98969854D01*
X176442662Y-99084304D01*
X176439884Y-99085908D01*
X176255120Y-99177022D01*
X176252156Y-99178250D01*
X176057080Y-99244466D01*
X176053981Y-99245297D01*
X175851926Y-99285486D01*
X175848745Y-99285904D01*
X175745416Y-99292675D01*
X175642059Y-99299448D01*
X175640471Y-99299500D01*
X134178996Y-99299500D01*
X134178624Y-99299513D01*
X134086761Y-99299513D01*
X134086760Y-99299513D01*
X134042626Y-99305322D01*
X133839764Y-99332027D01*
X133839753Y-99332029D01*
X133599126Y-99396503D01*
X133599119Y-99396505D01*
X133599117Y-99396505D01*
X133599110Y-99396508D01*
X133368948Y-99491841D01*
X133153201Y-99616400D01*
X132955547Y-99768062D01*
X132889755Y-99833852D01*
X132380503Y-100343104D01*
X132380467Y-100343118D01*
X132278055Y-100445531D01*
X132278053Y-100445533D01*
X132126385Y-100643196D01*
X132001827Y-100858944D01*
X131906494Y-101089106D01*
X131906488Y-101089122D01*
X131842014Y-101329750D01*
X131842012Y-101329761D01*
X131821311Y-101487022D01*
X131812365Y-101554984D01*
X131809498Y-101576760D01*
X131809498Y-101576761D01*
X131809500Y-101681950D01*
X131809500Y-102110781D01*
X131807782Y-102123641D01*
X131804237Y-102136671D01*
X131796027Y-102255076D01*
X131794832Y-102262949D01*
X131788974Y-102287752D01*
X131767042Y-102318174D01*
X131746754Y-102325183D01*
X131692751Y-102331247D01*
X131692750Y-102331247D01*
X131692745Y-102331248D01*
X131680177Y-102333456D01*
X131680170Y-102333457D01*
X131672043Y-102335411D01*
X131664973Y-102337112D01*
X131664963Y-102337115D01*
X131664966Y-102337114D01*
X131664234Y-102337339D01*
X131649842Y-102339500D01*
X131646566Y-102339500D01*
X131619880Y-102348170D01*
X131612406Y-102349964D01*
X131584700Y-102354353D01*
X131584695Y-102354354D01*
X131559693Y-102367092D01*
X131552593Y-102370032D01*
X131525912Y-102378701D01*
X131525911Y-102378702D01*
X131503207Y-102395197D01*
X131496655Y-102399212D01*
X131471661Y-102411948D01*
X131471657Y-102411951D01*
X131449094Y-102434513D01*
X131449090Y-102434516D01*
X131434678Y-102448927D01*
X131400029Y-102463276D01*
X131398835Y-102463261D01*
X131306501Y-102461005D01*
X131306500Y-102461005D01*
X131146361Y-102497975D01*
X131146356Y-102497977D01*
X131000441Y-102573613D01*
X131000439Y-102573614D01*
X130877922Y-102683159D01*
X130877919Y-102683162D01*
X130786490Y-102819736D01*
X130786489Y-102819739D01*
X130731898Y-102974758D01*
X130695965Y-103385469D01*
X130669452Y-103688505D01*
X130669451Y-103688517D01*
X130579560Y-104715980D01*
X130579560Y-104715988D01*
X130579236Y-104752965D01*
X129688406Y-104752965D01*
X129759412Y-103941356D01*
X129759412Y-103941349D01*
X129818262Y-103268695D01*
X129813537Y-103145682D01*
X129766583Y-102988177D01*
X129681934Y-102847297D01*
X129681933Y-102847296D01*
X129681930Y-102847291D01*
X129564913Y-102731898D01*
X129564905Y-102731893D01*
X129422869Y-102649225D01*
X129422862Y-102649222D01*
X129369645Y-102634163D01*
X129264717Y-102604471D01*
X129264716Y-102604470D01*
X129264713Y-102604470D01*
X129100412Y-102600455D01*
X129100411Y-102600455D01*
X128940272Y-102637425D01*
X128940267Y-102637427D01*
X128794352Y-102713063D01*
X128794350Y-102713064D01*
X128671833Y-102822609D01*
X128671830Y-102822612D01*
X128580401Y-102959186D01*
X128580400Y-102959189D01*
X128525808Y-103114211D01*
X128518601Y-103196572D01*
X128501284Y-103229837D01*
X128465517Y-103241114D01*
X128265282Y-103223596D01*
X128232017Y-103206279D01*
X128220739Y-103170514D01*
X128222190Y-103153933D01*
X128224351Y-103129251D01*
X128223777Y-103114315D01*
X128219626Y-103006232D01*
X128172672Y-102848727D01*
X128088023Y-102707847D01*
X128088022Y-102707846D01*
X128088019Y-102707841D01*
X127971002Y-102592448D01*
X127970994Y-102592443D01*
X127828958Y-102509775D01*
X127828951Y-102509772D01*
X127670802Y-102465020D01*
X127506501Y-102461005D01*
X127506500Y-102461005D01*
X127346361Y-102497975D01*
X127346356Y-102497977D01*
X127200441Y-102573613D01*
X127200439Y-102573614D01*
X127077922Y-102683159D01*
X127077919Y-102683162D01*
X126986490Y-102819736D01*
X126986489Y-102819739D01*
X126931898Y-102974758D01*
X126895965Y-103385469D01*
X126869452Y-103688505D01*
X126869451Y-103688517D01*
X126779560Y-104715980D01*
X126779560Y-104715988D01*
X126779236Y-104752965D01*
X125888406Y-104752965D01*
X125959412Y-103941356D01*
X125959412Y-103941349D01*
X126018262Y-103268695D01*
X126013537Y-103145682D01*
X125966583Y-102988177D01*
X125881934Y-102847297D01*
X125881933Y-102847296D01*
X125881930Y-102847291D01*
X125764913Y-102731898D01*
X125764905Y-102731893D01*
X125622869Y-102649225D01*
X125622862Y-102649222D01*
X125569645Y-102634163D01*
X125464717Y-102604471D01*
X125464716Y-102604470D01*
X125464713Y-102604470D01*
X125300412Y-102600455D01*
X125300411Y-102600455D01*
X125140272Y-102637425D01*
X125140267Y-102637427D01*
X124994352Y-102713063D01*
X124994350Y-102713064D01*
X124871833Y-102822609D01*
X124871830Y-102822612D01*
X124780401Y-102959186D01*
X124780400Y-102959189D01*
X124725808Y-103114211D01*
X124718601Y-103196572D01*
X124701284Y-103229837D01*
X124665517Y-103241114D01*
X124465282Y-103223596D01*
X124432017Y-103206279D01*
X124420739Y-103170514D01*
X124422190Y-103153933D01*
X124424351Y-103129251D01*
X124423777Y-103114315D01*
X124419626Y-103006232D01*
X124372672Y-102848727D01*
X124288023Y-102707847D01*
X124288022Y-102707846D01*
X124288019Y-102707841D01*
X124171002Y-102592448D01*
X124170994Y-102592443D01*
X124028958Y-102509775D01*
X124028951Y-102509772D01*
X123870802Y-102465020D01*
X123706501Y-102461005D01*
X123706500Y-102461005D01*
X123546361Y-102497975D01*
X123546356Y-102497977D01*
X123400441Y-102573613D01*
X123400439Y-102573614D01*
X123277922Y-102683159D01*
X123277919Y-102683162D01*
X123186490Y-102819736D01*
X123186489Y-102819739D01*
X123131898Y-102974758D01*
X123095965Y-103385469D01*
X123069452Y-103688505D01*
X123069451Y-103688517D01*
X122979560Y-104715980D01*
X122979560Y-104715988D01*
X122979236Y-104752965D01*
X122088406Y-104752965D01*
X122159412Y-103941356D01*
X122159412Y-103941349D01*
X122218262Y-103268695D01*
X122213537Y-103145682D01*
X122166583Y-102988177D01*
X122081934Y-102847297D01*
X122081933Y-102847296D01*
X122081930Y-102847291D01*
X121964913Y-102731898D01*
X121964905Y-102731893D01*
X121822869Y-102649225D01*
X121822862Y-102649222D01*
X121769645Y-102634163D01*
X121664717Y-102604471D01*
X121664716Y-102604470D01*
X121664713Y-102604470D01*
X121500412Y-102600455D01*
X121500411Y-102600455D01*
X121340272Y-102637425D01*
X121340267Y-102637427D01*
X121194352Y-102713063D01*
X121194350Y-102713064D01*
X121071833Y-102822609D01*
X121071830Y-102822612D01*
X120980401Y-102959186D01*
X120980400Y-102959189D01*
X120925808Y-103114211D01*
X120918601Y-103196572D01*
X120901284Y-103229837D01*
X120865517Y-103241114D01*
X120665282Y-103223596D01*
X120632017Y-103206279D01*
X120620739Y-103170514D01*
X120622190Y-103153933D01*
X120624351Y-103129251D01*
X120623777Y-103114315D01*
X120619626Y-103006232D01*
X120572672Y-102848727D01*
X120488023Y-102707847D01*
X120488022Y-102707846D01*
X120488019Y-102707841D01*
X120371002Y-102592448D01*
X120370994Y-102592443D01*
X120228958Y-102509775D01*
X120228951Y-102509772D01*
X120070802Y-102465020D01*
X119906501Y-102461005D01*
X119906500Y-102461005D01*
X119746361Y-102497975D01*
X119746356Y-102497977D01*
X119600441Y-102573613D01*
X119600439Y-102573614D01*
X119477922Y-102683159D01*
X119477919Y-102683162D01*
X119386490Y-102819736D01*
X119386489Y-102819739D01*
X119331898Y-102974758D01*
X119295965Y-103385469D01*
X119269452Y-103688505D01*
X119269451Y-103688517D01*
X119179560Y-104715980D01*
X119179560Y-104715988D01*
X119179236Y-104752965D01*
X118287902Y-104752965D01*
X118292177Y-104704092D01*
X117901715Y-104669931D01*
X117947530Y-104554610D01*
X117972940Y-104381136D01*
X117971018Y-104359173D01*
X117987089Y-104175487D01*
X118335756Y-104205992D01*
X118344472Y-104106375D01*
X117995804Y-104075870D01*
X118039383Y-103577772D01*
X118388050Y-103608276D01*
X118417761Y-103268681D01*
X118413040Y-103145767D01*
X118366120Y-102988379D01*
X118281535Y-102847606D01*
X118164600Y-102732293D01*
X118164597Y-102732291D01*
X118068076Y-102676113D01*
X118068075Y-102676114D01*
X118030196Y-103109076D01*
X118009276Y-103067599D01*
X117926003Y-102992464D01*
X117821210Y-102952485D01*
X117709052Y-102953061D01*
X117604676Y-102994114D01*
X117532529Y-103060564D01*
X117570107Y-102631051D01*
X117540440Y-102637901D01*
X117394638Y-102713478D01*
X117394636Y-102713479D01*
X117272214Y-102822939D01*
X117272211Y-102822942D01*
X117180852Y-102959411D01*
X117180851Y-102959414D01*
X117126300Y-103114315D01*
X117126299Y-103114321D01*
X117125745Y-103120655D01*
X117125746Y-103120656D01*
X117172653Y-103120656D01*
X117207301Y-103135008D01*
X117221653Y-103169656D01*
X117221467Y-103173927D01*
X117183900Y-103603310D01*
X116685803Y-103559732D01*
X116720305Y-103165385D01*
X116737622Y-103132120D01*
X116769119Y-103120656D01*
X116823521Y-103120656D01*
X116823521Y-103120655D01*
X116819129Y-103006317D01*
X116772209Y-102848929D01*
X116687624Y-102708156D01*
X116570689Y-102592843D01*
X116570686Y-102592841D01*
X116474165Y-102536663D01*
X116474164Y-102536664D01*
X116436285Y-102969627D01*
X116415365Y-102928149D01*
X116332092Y-102853014D01*
X116227299Y-102813035D01*
X116115141Y-102813611D01*
X116010765Y-102854664D01*
X115938618Y-102921114D01*
X115976196Y-102491601D01*
X115946529Y-102498451D01*
X115800727Y-102574028D01*
X115800725Y-102574029D01*
X115678303Y-102683489D01*
X115678300Y-102683492D01*
X115586941Y-102819961D01*
X115586940Y-102819964D01*
X115532390Y-102974865D01*
X115499086Y-103355525D01*
X115847754Y-103386029D01*
X115804175Y-103884128D01*
X115455507Y-103853624D01*
X115446792Y-103953242D01*
X115795460Y-103983746D01*
X115775606Y-104210682D01*
X115775615Y-104210775D01*
X115766032Y-104276200D01*
X115781311Y-104450858D01*
X115792764Y-104485421D01*
X115403214Y-104451341D01*
X115380063Y-104715980D01*
X115380063Y-104715981D01*
X115379739Y-104752932D01*
X114488409Y-104752932D01*
X114559412Y-103941356D01*
X114559412Y-103941349D01*
X114618262Y-103268695D01*
X114613537Y-103145682D01*
X114566583Y-102988177D01*
X114481934Y-102847297D01*
X114481933Y-102847296D01*
X114481930Y-102847291D01*
X114364913Y-102731898D01*
X114364905Y-102731893D01*
X114222869Y-102649225D01*
X114222862Y-102649222D01*
X114169645Y-102634163D01*
X114064717Y-102604471D01*
X114064716Y-102604470D01*
X114064713Y-102604470D01*
X113900412Y-102600455D01*
X113900411Y-102600455D01*
X113740272Y-102637425D01*
X113740267Y-102637427D01*
X113594352Y-102713063D01*
X113594350Y-102713064D01*
X113471833Y-102822609D01*
X113471830Y-102822612D01*
X113380401Y-102959186D01*
X113380400Y-102959189D01*
X113325808Y-103114211D01*
X113318601Y-103196572D01*
X113301284Y-103229837D01*
X113265517Y-103241114D01*
X113065282Y-103223596D01*
X113032017Y-103206279D01*
X113020739Y-103170514D01*
X113022190Y-103153933D01*
X113024351Y-103129251D01*
X113023777Y-103114315D01*
X113019626Y-103006232D01*
X112972672Y-102848727D01*
X112888023Y-102707847D01*
X112888022Y-102707846D01*
X112888019Y-102707841D01*
X112771002Y-102592448D01*
X112770994Y-102592443D01*
X112628958Y-102509775D01*
X112628951Y-102509772D01*
X112470802Y-102465020D01*
X112306501Y-102461005D01*
X112306500Y-102461005D01*
X112146361Y-102497975D01*
X112146356Y-102497977D01*
X112000441Y-102573613D01*
X112000439Y-102573614D01*
X111877922Y-102683159D01*
X111877919Y-102683162D01*
X111786490Y-102819736D01*
X111786489Y-102819739D01*
X111731898Y-102974758D01*
X111695965Y-103385469D01*
X111669452Y-103688505D01*
X111669451Y-103688517D01*
X111579560Y-104715980D01*
X111579560Y-104715988D01*
X111579236Y-104752965D01*
X110687902Y-104752965D01*
X110692177Y-104704092D01*
X110301715Y-104669931D01*
X110347530Y-104554610D01*
X110372940Y-104381136D01*
X110371018Y-104359173D01*
X110387089Y-104175487D01*
X110735756Y-104205992D01*
X110744472Y-104106375D01*
X110395804Y-104075870D01*
X110439383Y-103577772D01*
X110788050Y-103608276D01*
X110817761Y-103268681D01*
X110813040Y-103145767D01*
X110766120Y-102988379D01*
X110681535Y-102847606D01*
X110564600Y-102732293D01*
X110564597Y-102732291D01*
X110468076Y-102676113D01*
X110468075Y-102676114D01*
X110430196Y-103109076D01*
X110409276Y-103067599D01*
X110326003Y-102992464D01*
X110221210Y-102952485D01*
X110109052Y-102953061D01*
X110004676Y-102994114D01*
X109932529Y-103060564D01*
X109970107Y-102631051D01*
X109940440Y-102637901D01*
X109794638Y-102713478D01*
X109794636Y-102713479D01*
X109672214Y-102822939D01*
X109672211Y-102822942D01*
X109580852Y-102959411D01*
X109580851Y-102959414D01*
X109526300Y-103114315D01*
X109526299Y-103114321D01*
X109525745Y-103120655D01*
X109525746Y-103120656D01*
X109572653Y-103120656D01*
X109607301Y-103135008D01*
X109621653Y-103169656D01*
X109621467Y-103173927D01*
X109583900Y-103603310D01*
X109085803Y-103559732D01*
X109120305Y-103165385D01*
X109137622Y-103132120D01*
X109169119Y-103120656D01*
X109223521Y-103120656D01*
X109223521Y-103120655D01*
X109219129Y-103006317D01*
X109172209Y-102848929D01*
X109087624Y-102708156D01*
X108970689Y-102592843D01*
X108970686Y-102592841D01*
X108874165Y-102536663D01*
X108874164Y-102536664D01*
X108836285Y-102969627D01*
X108815365Y-102928149D01*
X108732092Y-102853014D01*
X108627299Y-102813035D01*
X108515141Y-102813611D01*
X108410765Y-102854664D01*
X108338618Y-102921114D01*
X108376196Y-102491601D01*
X108346529Y-102498451D01*
X108200727Y-102574028D01*
X108200725Y-102574029D01*
X108078303Y-102683489D01*
X108078300Y-102683492D01*
X107986941Y-102819961D01*
X107986940Y-102819964D01*
X107932390Y-102974865D01*
X107899086Y-103355525D01*
X108247754Y-103386029D01*
X108204175Y-103884128D01*
X107855507Y-103853624D01*
X107846792Y-103953242D01*
X108195460Y-103983746D01*
X108175606Y-104210682D01*
X108175615Y-104210775D01*
X108166032Y-104276200D01*
X108181311Y-104450858D01*
X108192764Y-104485421D01*
X107803214Y-104451341D01*
X107780063Y-104715980D01*
X107780063Y-104715981D01*
X107779739Y-104752932D01*
X106888407Y-104752932D01*
X106959410Y-103941356D01*
X106959410Y-103941347D01*
X107018260Y-103268694D01*
X107013535Y-103145681D01*
X106966581Y-102988176D01*
X106881932Y-102847296D01*
X106881931Y-102847295D01*
X106881928Y-102847290D01*
X106764911Y-102731897D01*
X106764903Y-102731892D01*
X106622867Y-102649224D01*
X106622860Y-102649221D01*
X106466146Y-102604875D01*
X106464715Y-102604470D01*
X106464714Y-102604469D01*
X106464711Y-102604469D01*
X106300410Y-102600454D01*
X106300409Y-102600454D01*
X106140270Y-102637424D01*
X106140265Y-102637426D01*
X105994350Y-102713062D01*
X105994348Y-102713063D01*
X105871831Y-102822608D01*
X105871828Y-102822611D01*
X105780399Y-102959185D01*
X105780398Y-102959188D01*
X105725806Y-103114210D01*
X105725805Y-103114211D01*
X105718599Y-103196571D01*
X105701282Y-103229837D01*
X105665515Y-103241114D01*
X105465280Y-103223596D01*
X105432015Y-103206279D01*
X105420737Y-103170514D01*
X105422188Y-103153933D01*
X105424349Y-103129251D01*
X105423775Y-103114315D01*
X105419624Y-103006232D01*
X105372670Y-102848727D01*
X105288021Y-102707847D01*
X105288020Y-102707846D01*
X105288017Y-102707841D01*
X105171000Y-102592448D01*
X105170992Y-102592443D01*
X105028956Y-102509775D01*
X105028949Y-102509772D01*
X104870800Y-102465020D01*
X104706499Y-102461005D01*
X104706498Y-102461005D01*
X104546359Y-102497975D01*
X104546354Y-102497977D01*
X104400439Y-102573613D01*
X104400437Y-102573614D01*
X104277920Y-102683159D01*
X104277917Y-102683162D01*
X104186488Y-102819736D01*
X104186487Y-102819739D01*
X104131896Y-102974758D01*
X104095963Y-103385469D01*
X104069450Y-103688505D01*
X104069449Y-103688517D01*
X103979558Y-104715980D01*
X103979558Y-104715988D01*
X103979234Y-104752965D01*
X103200534Y-104752965D01*
X103200534Y-99926370D01*
X103200652Y-99923966D01*
X103212445Y-99804279D01*
X103215429Y-99773995D01*
X103217300Y-99764588D01*
X103260006Y-99623827D01*
X103263672Y-99614980D01*
X103333011Y-99485268D01*
X103338347Y-99477284D01*
X103383853Y-99421839D01*
X103431655Y-99363596D01*
X103438437Y-99356814D01*
X103552141Y-99263508D01*
X103560117Y-99258179D01*
X103689833Y-99188851D01*
X103698692Y-99185181D01*
X103839456Y-99142486D01*
X103848855Y-99140617D01*
X103999622Y-99125773D01*
X104002019Y-99125656D01*
X104039909Y-99125657D01*
X104039910Y-99125656D01*
X104049650Y-99125656D01*
X104049654Y-99125654D01*
X173436000Y-99125653D01*
X173452181Y-99128402D01*
X173455361Y-99129514D01*
X173455363Y-99129515D01*
X173455363Y-99129514D01*
X173455364Y-99129515D01*
X173488278Y-99125806D01*
X173491022Y-99125653D01*
X173500981Y-99125653D01*
X173502700Y-99125260D01*
X173510700Y-99123433D01*
X173513387Y-99122977D01*
X173546314Y-99119269D01*
X173549165Y-99117476D01*
X173564338Y-99111191D01*
X173567621Y-99110443D01*
X173593529Y-99089781D01*
X173595748Y-99088205D01*
X173604191Y-99082901D01*
X173611239Y-99075851D01*
X173613260Y-99074045D01*
X173639178Y-99053377D01*
X173640639Y-99050342D01*
X173650137Y-99036953D01*
X178907090Y-93780000D01*
X183041708Y-93780000D01*
X183060856Y-94072150D01*
X183117974Y-94359307D01*
X183212087Y-94636555D01*
X183341582Y-94899146D01*
X183504243Y-95142585D01*
X183504243Y-95142586D01*
X183607092Y-95259861D01*
X183697289Y-95362711D01*
X183814564Y-95465559D01*
X183917413Y-95555756D01*
X184080075Y-95664443D01*
X184160854Y-95718418D01*
X184423443Y-95847912D01*
X184700687Y-95942024D01*
X184987844Y-95999143D01*
X185231307Y-96015100D01*
X185279999Y-96018292D01*
X185280000Y-96018292D01*
X185280001Y-96018292D01*
X185321736Y-96015556D01*
X185572156Y-95999143D01*
X185859313Y-95942024D01*
X186136557Y-95847912D01*
X186399146Y-95718418D01*
X186642586Y-95555756D01*
X186862711Y-95362711D01*
X187055756Y-95142586D01*
X187218418Y-94899146D01*
X187347912Y-94636557D01*
X187442024Y-94359313D01*
X187499143Y-94072156D01*
X187518292Y-93780000D01*
X187499143Y-93487844D01*
X187442024Y-93200687D01*
X187347912Y-92923443D01*
X187218418Y-92660854D01*
X187055756Y-92417414D01*
X187055756Y-92417413D01*
X186965559Y-92314564D01*
X186862711Y-92197289D01*
X186759861Y-92107092D01*
X186642586Y-92004243D01*
X186399146Y-91841582D01*
X186136555Y-91712087D01*
X185859307Y-91617974D01*
X185613973Y-91569175D01*
X185572156Y-91560857D01*
X185572154Y-91560856D01*
X185572150Y-91560856D01*
X185280001Y-91541708D01*
X185279999Y-91541708D01*
X184987849Y-91560856D01*
X184700692Y-91617974D01*
X184423444Y-91712087D01*
X184160853Y-91841582D01*
X183917414Y-92004243D01*
X183917413Y-92004243D01*
X183697289Y-92197289D01*
X183504243Y-92417413D01*
X183504243Y-92417414D01*
X183341582Y-92660853D01*
X183212087Y-92923444D01*
X183117974Y-93200692D01*
X183060856Y-93487849D01*
X183041708Y-93779999D01*
X183041708Y-93780000D01*
X178907090Y-93780000D01*
X181344360Y-91342730D01*
X181344373Y-91342721D01*
X181349075Y-91338019D01*
X181376610Y-91310482D01*
X181377992Y-91309204D01*
X181469746Y-91230834D01*
X181475949Y-91226327D01*
X181576353Y-91164795D01*
X181583193Y-91161310D01*
X181691990Y-91116243D01*
X181699285Y-91113873D01*
X181813784Y-91086382D01*
X181821373Y-91085180D01*
X181871396Y-91081243D01*
X181941464Y-91075730D01*
X181943387Y-91075654D01*
X181982484Y-91075654D01*
X189283837Y-91075654D01*
X189283879Y-91075657D01*
G37*
G04 #@! TD.AperFunction*
G04 #@! TA.AperFunction,Conductor*
G36*
X186207545Y-100358320D02*
G01*
X186480068Y-100584954D01*
X186716619Y-100693854D01*
X186951400Y-100741846D01*
X187226445Y-100792510D01*
X187227183Y-100792698D01*
X187573284Y-100905782D01*
X187580082Y-100911607D01*
X187580770Y-100920536D01*
X187580463Y-100921368D01*
X187262562Y-101691214D01*
X187256237Y-101697553D01*
X187256214Y-101697562D01*
X186486368Y-102015463D01*
X186477413Y-102015454D01*
X186471088Y-102009115D01*
X186470788Y-102008301D01*
X186357698Y-101662183D01*
X186357510Y-101661445D01*
X186306846Y-101386400D01*
X186258854Y-101151619D01*
X186149954Y-100915068D01*
X185923320Y-100642545D01*
X185920666Y-100633994D01*
X185924043Y-100626793D01*
X186191793Y-100359043D01*
X186200065Y-100355617D01*
X186207545Y-100358320D01*
G37*
G04 #@! TD.AperFunction*
G04 #@! TA.AperFunction,Conductor*
G36*
X139693893Y-102466852D02*
G01*
X139699335Y-102472744D01*
X139809797Y-102737116D01*
X139810701Y-102741654D01*
X139810033Y-103025864D01*
X139806587Y-103034130D01*
X139798306Y-103037537D01*
X139796120Y-103037326D01*
X139700695Y-103018948D01*
X139697423Y-103017794D01*
X139613371Y-102973185D01*
X139541234Y-102931779D01*
X139505913Y-102927126D01*
X139470595Y-102922474D01*
X139470594Y-102922474D01*
X139470593Y-102922474D01*
X139470592Y-102922474D01*
X139397394Y-102968390D01*
X139388565Y-102969884D01*
X139382904Y-102966752D01*
X139115774Y-102699622D01*
X139112347Y-102691349D01*
X139115774Y-102683076D01*
X139116607Y-102682320D01*
X139224299Y-102593771D01*
X139227034Y-102592094D01*
X139324986Y-102549307D01*
X139327606Y-102548513D01*
X139426354Y-102530881D01*
X139543452Y-102511463D01*
X139543459Y-102511461D01*
X139543467Y-102511460D01*
X139684969Y-102466113D01*
X139693893Y-102466852D01*
G37*
G04 #@! TD.AperFunction*
G04 #@! TA.AperFunction,Conductor*
G36*
X140030347Y-102535157D02*
G01*
X140122286Y-102616730D01*
X140202146Y-102669663D01*
X140275053Y-102710513D01*
X140275408Y-102710729D01*
X140321807Y-102741483D01*
X140354756Y-102763323D01*
X140355408Y-102763824D01*
X140445967Y-102844172D01*
X140449881Y-102852226D01*
X140446954Y-102860689D01*
X140446475Y-102861197D01*
X140179543Y-103128129D01*
X140171270Y-103131556D01*
X140164311Y-103129260D01*
X140123443Y-103099013D01*
X140077842Y-103065262D01*
X140077841Y-103065261D01*
X139994750Y-103045692D01*
X139911367Y-103049304D01*
X139911087Y-103049310D01*
X139816833Y-103048887D01*
X139813899Y-103048499D01*
X139708102Y-103020571D01*
X139700977Y-103015147D01*
X139699776Y-103006273D01*
X139700261Y-103004824D01*
X139808394Y-102741480D01*
X139810967Y-102737629D01*
X140014340Y-102535608D01*
X140022623Y-102532210D01*
X140030347Y-102535157D01*
G37*
G04 #@! TD.AperFunction*
G04 #@! TA.AperFunction,Conductor*
G36*
X139719593Y-102118879D02*
G01*
X139719615Y-102118887D01*
X139807191Y-102147340D01*
X140078633Y-102235533D01*
X140085442Y-102241348D01*
X140086418Y-102249286D01*
X140061265Y-102358479D01*
X140061265Y-102358482D01*
X140062797Y-102446059D01*
X140080226Y-102523942D01*
X140100175Y-102613654D01*
X140100420Y-102615298D01*
X140109035Y-102727443D01*
X140106252Y-102735954D01*
X140098265Y-102740005D01*
X140097406Y-102740039D01*
X139812056Y-102740943D01*
X139807506Y-102740037D01*
X139543483Y-102629646D01*
X139537172Y-102623293D01*
X139537140Y-102614489D01*
X139582722Y-102501112D01*
X139615216Y-102411926D01*
X139640323Y-102333787D01*
X139668050Y-102242843D01*
X139704845Y-102126484D01*
X139710606Y-102119631D01*
X139719526Y-102118858D01*
X139719593Y-102118879D01*
G37*
G04 #@! TD.AperFunction*
G04 #@! TA.AperFunction,Conductor*
G36*
X132407356Y-102143427D02*
G01*
X132410755Y-102150891D01*
X132420399Y-102289989D01*
X132432800Y-102342493D01*
X132445200Y-102394995D01*
X132445201Y-102394997D01*
X132445200Y-102394997D01*
X132474719Y-102484758D01*
X132474855Y-102485241D01*
X132499381Y-102589081D01*
X132499666Y-102590961D01*
X132509135Y-102727532D01*
X132506289Y-102736022D01*
X132498272Y-102740013D01*
X132497502Y-102740041D01*
X132210000Y-102741000D01*
X131922497Y-102740041D01*
X131914235Y-102736587D01*
X131910836Y-102728302D01*
X131910864Y-102727532D01*
X131920334Y-102590949D01*
X131920616Y-102589092D01*
X131945144Y-102485240D01*
X131945274Y-102484777D01*
X131962324Y-102432931D01*
X131974800Y-102394997D01*
X131974799Y-102394997D01*
X131974800Y-102394995D01*
X131999600Y-102289991D01*
X132009245Y-102150891D01*
X132013236Y-102142874D01*
X132020917Y-102140000D01*
X132399083Y-102140000D01*
X132407356Y-102143427D01*
G37*
G04 #@! TD.AperFunction*
G04 #@! TA.AperFunction,Conductor*
G36*
X188328207Y-107229044D02*
G01*
X188595955Y-107496792D01*
X188599382Y-107505065D01*
X188596678Y-107512546D01*
X188370043Y-107785070D01*
X188261144Y-108021619D01*
X188213152Y-108256400D01*
X188162489Y-108531442D01*
X188162299Y-108532190D01*
X188049218Y-108878283D01*
X188043392Y-108885082D01*
X188034463Y-108885770D01*
X188033631Y-108885463D01*
X187263785Y-108567562D01*
X187257447Y-108561238D01*
X186939536Y-107791367D01*
X186939545Y-107782413D01*
X186945884Y-107776088D01*
X186946689Y-107775790D01*
X187292819Y-107662696D01*
X187293549Y-107662510D01*
X187568598Y-107611846D01*
X187803379Y-107563854D01*
X188039931Y-107454954D01*
X188312454Y-107228320D01*
X188321005Y-107225666D01*
X188328207Y-107229044D01*
G37*
G04 #@! TD.AperFunction*
G04 #@! TA.AperFunction,Conductor*
G36*
X132093985Y-102466785D02*
G01*
X132099273Y-102472596D01*
X132178046Y-102661126D01*
X132208827Y-102734793D01*
X132208854Y-102743748D01*
X132208835Y-102743795D01*
X132100102Y-103005358D01*
X132093762Y-103011682D01*
X132084807Y-103011671D01*
X132083869Y-103011231D01*
X132016656Y-102976026D01*
X132016197Y-102975758D01*
X131953114Y-102935030D01*
X131953107Y-102935026D01*
X131897733Y-102908276D01*
X131842772Y-102909396D01*
X131788731Y-102946608D01*
X131779974Y-102948478D01*
X131773823Y-102945245D01*
X131507123Y-102678545D01*
X131503696Y-102670272D01*
X131507123Y-102661999D01*
X131508091Y-102661132D01*
X131616323Y-102574775D01*
X131619491Y-102572974D01*
X131719217Y-102535426D01*
X131722016Y-102534753D01*
X131823167Y-102523395D01*
X131942416Y-102509292D01*
X132085075Y-102465913D01*
X132093985Y-102466785D01*
G37*
G04 #@! TD.AperFunction*
G04 #@! TA.AperFunction,Conductor*
G36*
X132430353Y-102535250D02*
G01*
X132482099Y-102581709D01*
X132522493Y-102617977D01*
X132565848Y-102647959D01*
X132601748Y-102672786D01*
X132601748Y-102672785D01*
X132601752Y-102672788D01*
X132673816Y-102715737D01*
X132674134Y-102715942D01*
X132752928Y-102770432D01*
X132753509Y-102770891D01*
X132813634Y-102824873D01*
X132844411Y-102852506D01*
X132848277Y-102860583D01*
X132845300Y-102869029D01*
X132844867Y-102869485D01*
X132577934Y-103136418D01*
X132569661Y-103139845D01*
X132562636Y-103137501D01*
X132476314Y-103072682D01*
X132476312Y-103072680D01*
X132434988Y-103061865D01*
X132393665Y-103051051D01*
X132393664Y-103051051D01*
X132310685Y-103052238D01*
X132216643Y-103049802D01*
X132213880Y-103049397D01*
X132154037Y-103033144D01*
X132107985Y-103020637D01*
X132100900Y-103015163D01*
X132099761Y-103006281D01*
X132100226Y-103004910D01*
X132208394Y-102741480D01*
X132210967Y-102737629D01*
X132414294Y-102535653D01*
X132422576Y-102532256D01*
X132430353Y-102535250D01*
G37*
G04 #@! TD.AperFunction*
G04 #@! TA.AperFunction,Conductor*
G36*
X121177111Y-109829957D02*
G01*
X121185372Y-109833411D01*
X121188772Y-109841695D01*
X121188714Y-109842824D01*
X121177088Y-109958824D01*
X121176579Y-109961257D01*
X121147461Y-110051311D01*
X121147315Y-110051712D01*
X121115618Y-110129805D01*
X121095931Y-110220469D01*
X121095931Y-110220470D01*
X121102104Y-110338462D01*
X121099114Y-110346903D01*
X121092250Y-110350629D01*
X120719451Y-110409671D01*
X120710744Y-110407580D01*
X120706065Y-110399945D01*
X120706020Y-110399633D01*
X120692171Y-110293813D01*
X120684383Y-110209011D01*
X120674825Y-110136403D01*
X120673140Y-110129805D01*
X120654106Y-110055249D01*
X120618540Y-109960069D01*
X120616777Y-109955351D01*
X120617091Y-109946403D01*
X120623224Y-109940462D01*
X120887664Y-109829924D01*
X120892206Y-109829020D01*
X121177111Y-109829957D01*
G37*
G04 #@! TD.AperFunction*
G04 #@! TA.AperFunction,Conductor*
G36*
X182979190Y-107790552D02*
G01*
X182979562Y-107791358D01*
X183299134Y-108560511D01*
X183299143Y-108569466D01*
X183299134Y-108569489D01*
X182979562Y-109338641D01*
X182973223Y-109344966D01*
X182964268Y-109344957D01*
X182963462Y-109344585D01*
X182638783Y-109179824D01*
X182638110Y-109179424D01*
X182407806Y-109020768D01*
X182207855Y-108888688D01*
X182064687Y-108835784D01*
X181963582Y-108798424D01*
X181610629Y-108765977D01*
X181602704Y-108761807D01*
X181600000Y-108754326D01*
X181600000Y-108375673D01*
X181603427Y-108367400D01*
X181610626Y-108364023D01*
X181963584Y-108331574D01*
X182207855Y-108241311D01*
X182407806Y-108109230D01*
X182638121Y-107950566D01*
X182638766Y-107950183D01*
X182963463Y-107785413D01*
X182972391Y-107784726D01*
X182979190Y-107790552D01*
G37*
G04 #@! TD.AperFunction*
G04 #@! TA.AperFunction,Conductor*
G36*
X121014569Y-109559827D02*
G01*
X121016690Y-109560978D01*
X121061381Y-109591596D01*
X121063751Y-109593752D01*
X121104548Y-109642663D01*
X121138868Y-109685486D01*
X121174243Y-109703174D01*
X121211510Y-109682257D01*
X121220399Y-109681197D01*
X121225507Y-109684188D01*
X121492648Y-109951329D01*
X121496075Y-109959602D01*
X121492648Y-109967875D01*
X121491499Y-109968883D01*
X121404666Y-110035541D01*
X121400930Y-110037459D01*
X121318306Y-110062455D01*
X121315278Y-110062950D01*
X121230508Y-110065563D01*
X121130877Y-110071444D01*
X121014789Y-110104335D01*
X121005895Y-110103293D01*
X121000804Y-110097589D01*
X120975422Y-110036842D01*
X120891171Y-109835204D01*
X120891145Y-109826251D01*
X120999274Y-109566139D01*
X121005614Y-109559816D01*
X121014569Y-109559827D01*
G37*
G04 #@! TD.AperFunction*
G04 #@! TA.AperFunction,Conductor*
G36*
X120590971Y-109437380D02*
G01*
X120647416Y-109509394D01*
X120647417Y-109509395D01*
X120717489Y-109533191D01*
X120717489Y-109533190D01*
X120717490Y-109533191D01*
X120798347Y-109529494D01*
X120891558Y-109526654D01*
X120894579Y-109526958D01*
X120977141Y-109546341D01*
X120991434Y-109549697D01*
X120998705Y-109554924D01*
X121000150Y-109563761D01*
X120999581Y-109565537D01*
X120891351Y-109828707D01*
X120888777Y-109832556D01*
X120685597Y-110034451D01*
X120677313Y-110037852D01*
X120669658Y-110034967D01*
X120629323Y-109999768D01*
X120560220Y-109939462D01*
X120560215Y-109939458D01*
X120560212Y-109939456D01*
X120465363Y-109875308D01*
X120385354Y-109820069D01*
X120383625Y-109818610D01*
X120309386Y-109742474D01*
X120307790Y-109740424D01*
X120235250Y-109622188D01*
X120233845Y-109613345D01*
X120239105Y-109606097D01*
X120239888Y-109605657D01*
X120576452Y-109434172D01*
X120585379Y-109433471D01*
X120590971Y-109437380D01*
G37*
G04 #@! TD.AperFunction*
G04 #@! TA.AperFunction,Conductor*
G36*
X120634465Y-108688348D02*
G01*
X120639168Y-108695968D01*
X120639215Y-108696290D01*
X120668386Y-108915208D01*
X120699144Y-109131051D01*
X120729903Y-109331893D01*
X120760661Y-109517736D01*
X120790336Y-109682558D01*
X120788429Y-109691307D01*
X120787094Y-109692904D01*
X120516497Y-109963501D01*
X120508224Y-109966928D01*
X120500321Y-109963855D01*
X120499935Y-109963501D01*
X120431674Y-109900967D01*
X120431670Y-109900964D01*
X120431670Y-109900963D01*
X120354765Y-109843794D01*
X120277869Y-109799911D01*
X120277870Y-109799911D01*
X120277864Y-109799908D01*
X120220672Y-109777147D01*
X120200957Y-109769301D01*
X120200958Y-109769301D01*
X120133709Y-109754151D01*
X120126391Y-109748990D01*
X120124598Y-109742095D01*
X120147141Y-109331893D01*
X120178132Y-108767967D01*
X120182007Y-108759895D01*
X120187944Y-108757061D01*
X120625753Y-108686285D01*
X120634465Y-108688348D01*
G37*
G04 #@! TD.AperFunction*
G04 #@! TA.AperFunction,Conductor*
G36*
X121037690Y-108195810D02*
G01*
X121720671Y-109137617D01*
X121722753Y-109146327D01*
X121718068Y-109153958D01*
X121713773Y-109155899D01*
X121543162Y-109194383D01*
X121543161Y-109194383D01*
X121355224Y-109269238D01*
X121355215Y-109269243D01*
X121167291Y-109376555D01*
X121167288Y-109376557D01*
X120979360Y-109516332D01*
X120979339Y-109516349D01*
X120791420Y-109688579D01*
X120521042Y-109958956D01*
X120512769Y-109962383D01*
X120504496Y-109958956D01*
X120501933Y-109955094D01*
X120394112Y-109690242D01*
X120394112Y-109690243D01*
X120394111Y-109690242D01*
X120367854Y-109633960D01*
X120279654Y-109444899D01*
X120165191Y-109235361D01*
X120138192Y-109194384D01*
X120050732Y-109061642D01*
X120050729Y-109061637D01*
X119944526Y-108933679D01*
X119941880Y-108925127D01*
X119946058Y-108917206D01*
X119946986Y-108916511D01*
X121021686Y-108192973D01*
X121030460Y-108191196D01*
X121037690Y-108195810D01*
G37*
G04 #@! TD.AperFunction*
G04 #@! TA.AperFunction,Conductor*
G36*
X121041052Y-108193249D02*
G01*
X122098148Y-109004620D01*
X122102624Y-109012375D01*
X122100305Y-109021025D01*
X122099292Y-109022179D01*
X121985273Y-109136066D01*
X121985265Y-109136074D01*
X121861810Y-109293593D01*
X121861809Y-109293595D01*
X121738347Y-109485329D01*
X121649246Y-109648385D01*
X121614880Y-109711278D01*
X121614880Y-109711279D01*
X121498533Y-109956432D01*
X121491890Y-109962437D01*
X121482947Y-109961986D01*
X121479690Y-109959689D01*
X121208580Y-109688579D01*
X121022419Y-109487239D01*
X120988269Y-109456596D01*
X120836261Y-109320197D01*
X120744092Y-109254473D01*
X120650100Y-109187449D01*
X120463940Y-109088998D01*
X120396797Y-109065859D01*
X120294487Y-109030601D01*
X120287782Y-109024665D01*
X120287237Y-109015727D01*
X120289600Y-109011715D01*
X121025235Y-108194701D01*
X121033317Y-108190847D01*
X121041052Y-108193249D01*
G37*
G04 #@! TD.AperFunction*
G04 #@! TA.AperFunction,Conductor*
G36*
X121344597Y-108787031D02*
G01*
X121765633Y-108895857D01*
X121772785Y-108901245D01*
X121774391Y-108906618D01*
X121820978Y-109867377D01*
X121817956Y-109875807D01*
X121809859Y-109879630D01*
X121808887Y-109879637D01*
X121755558Y-109877790D01*
X121689530Y-109885781D01*
X121689520Y-109885783D01*
X121623489Y-109904050D01*
X121557458Y-109932595D01*
X121499223Y-109966832D01*
X121490354Y-109968071D01*
X121485020Y-109965019D01*
X121212819Y-109692818D01*
X121209392Y-109684545D01*
X121209544Y-109682663D01*
X121233186Y-109537598D01*
X121257792Y-109371617D01*
X121282399Y-109190636D01*
X121307005Y-108994655D01*
X121317900Y-108901245D01*
X121330057Y-108797005D01*
X121334419Y-108789185D01*
X121343033Y-108786740D01*
X121344597Y-108787031D01*
G37*
G04 #@! TD.AperFunction*
M02*
