G04 #@! TF.GenerationSoftware,KiCad,Pcbnew,7.0.9*
G04 #@! TF.CreationDate,2023-11-21T14:25:59-05:00*
G04 #@! TF.ProjectId,SCART2VGA,53434152-5432-4564-9741-2e6b69636164,rev?*
G04 #@! TF.SameCoordinates,Original*
G04 #@! TF.FileFunction,Legend,Top*
G04 #@! TF.FilePolarity,Positive*
%FSLAX46Y46*%
G04 Gerber Fmt 4.6, Leading zero omitted, Abs format (unit mm)*
G04 Created by KiCad (PCBNEW 7.0.9) date 2023-11-21 14:25:59*
%MOMM*%
%LPD*%
G01*
G04 APERTURE LIST*
G04 Aperture macros list*
%AMRoundRect*
0 Rectangle with rounded corners*
0 $1 Rounding radius*
0 $2 $3 $4 $5 $6 $7 $8 $9 X,Y pos of 4 corners*
0 Add a 4 corners polygon primitive as box body*
4,1,4,$2,$3,$4,$5,$6,$7,$8,$9,$2,$3,0*
0 Add four circle primitives for the rounded corners*
1,1,$1+$1,$2,$3*
1,1,$1+$1,$4,$5*
1,1,$1+$1,$6,$7*
1,1,$1+$1,$8,$9*
0 Add four rect primitives between the rounded corners*
20,1,$1+$1,$2,$3,$4,$5,0*
20,1,$1+$1,$4,$5,$6,$7,0*
20,1,$1+$1,$6,$7,$8,$9,0*
20,1,$1+$1,$8,$9,$2,$3,0*%
%AMHorizOval*
0 Thick line with rounded ends*
0 $1 width*
0 $2 $3 position (X,Y) of the first rounded end (center of the circle)*
0 $4 $5 position (X,Y) of the second rounded end (center of the circle)*
0 Add line between two ends*
20,1,$1,$2,$3,$4,$5,0*
0 Add two circle primitives to create the rounded ends*
1,1,$1,$2,$3*
1,1,$1,$4,$5*%
G04 Aperture macros list end*
%ADD10C,0.300000*%
%ADD11C,0.150000*%
%ADD12C,0.100000*%
%ADD13C,0.120000*%
%ADD14RoundRect,0.287500X-0.237500X0.250000X-0.237500X-0.250000X0.237500X-0.250000X0.237500X0.250000X0*%
%ADD15HorizOval,1.000000X-0.047936X-0.547907X0.047936X0.547907X0*%
%ADD16RoundRect,0.050000X-0.833997X-0.353658X0.759915X-0.493107X0.833997X0.353658X-0.759915X0.493107X0*%
%ADD17RoundRect,0.500000X-0.836176X-0.378563X0.757736X-0.518012X0.836176X0.378563X-0.757736X0.518012X0*%
%ADD18HorizOval,1.000000X0.047936X0.547907X-0.047936X-0.547907X0*%
%ADD19RoundRect,0.500000X0.836176X0.378563X-0.757736X0.518012X-0.836176X-0.378563X0.757736X-0.518012X0*%
%ADD20RoundRect,0.050000X0.850000X-0.850000X0.850000X0.850000X-0.850000X0.850000X-0.850000X-0.850000X0*%
%ADD21C,1.800000*%
%ADD22C,4.166000*%
%ADD23RoundRect,0.050000X0.850000X0.850000X-0.850000X0.850000X-0.850000X-0.850000X0.850000X-0.850000X0*%
%ADD24O,1.800000X1.800000*%
G04 APERTURE END LIST*
D10*
G36*
X118747000Y-111032242D02*
G01*
X118461236Y-111032242D01*
X118461236Y-110968250D01*
X118460549Y-110944246D01*
X118458488Y-110921081D01*
X118455053Y-110898756D01*
X118450245Y-110877270D01*
X118444062Y-110856624D01*
X118436506Y-110836817D01*
X118427576Y-110817850D01*
X118417272Y-110799723D01*
X118405342Y-110783007D01*
X118391535Y-110768521D01*
X118375850Y-110756263D01*
X118358287Y-110746234D01*
X118338847Y-110738433D01*
X118317529Y-110732861D01*
X118294334Y-110729518D01*
X118269261Y-110728404D01*
X118249116Y-110729194D01*
X118227481Y-110732112D01*
X118207856Y-110737181D01*
X118187890Y-110745608D01*
X118178891Y-110750874D01*
X118162588Y-110762781D01*
X118147872Y-110776031D01*
X118134744Y-110790625D01*
X118123203Y-110806562D01*
X118113312Y-110825460D01*
X118105129Y-110845518D01*
X118098657Y-110866737D01*
X118094396Y-110886255D01*
X118093894Y-110889116D01*
X118090849Y-110909392D01*
X118088551Y-110930042D01*
X118087002Y-110951066D01*
X118086201Y-110972464D01*
X118086079Y-110984859D01*
X118086216Y-111006320D01*
X118086628Y-111026372D01*
X118087456Y-111047988D01*
X118088658Y-111067686D01*
X118089986Y-111083044D01*
X118093387Y-111104369D01*
X118098642Y-111124381D01*
X118105752Y-111143078D01*
X118110503Y-111152898D01*
X118121004Y-111169552D01*
X118133824Y-111184892D01*
X118148962Y-111198918D01*
X118158374Y-111206143D01*
X118175410Y-111217134D01*
X118192621Y-111226751D01*
X118211982Y-111236368D01*
X118230289Y-111244611D01*
X118243371Y-111250107D01*
X118455862Y-111336569D01*
X118478394Y-111345918D01*
X118499826Y-111355650D01*
X118520159Y-111365763D01*
X118539393Y-111376258D01*
X118557528Y-111387134D01*
X118574564Y-111398393D01*
X118590501Y-111410032D01*
X118605339Y-111422054D01*
X118622603Y-111437688D01*
X118638674Y-111454063D01*
X118653553Y-111471176D01*
X118667239Y-111489030D01*
X118679733Y-111507622D01*
X118691034Y-111526954D01*
X118695220Y-111534894D01*
X118704067Y-111556119D01*
X118711983Y-111578275D01*
X118718969Y-111601362D01*
X118723889Y-111620500D01*
X118728213Y-111640234D01*
X118731941Y-111660564D01*
X118735074Y-111681489D01*
X118735764Y-111686813D01*
X118738398Y-111708436D01*
X118740680Y-111730807D01*
X118742611Y-111753926D01*
X118744191Y-111777793D01*
X118745420Y-111802408D01*
X118746297Y-111827771D01*
X118746824Y-111853883D01*
X118746989Y-111873957D01*
X118747000Y-111880742D01*
X118746781Y-111904034D01*
X118746124Y-111927018D01*
X118745029Y-111949693D01*
X118743496Y-111972058D01*
X118741526Y-111994114D01*
X118739117Y-112015861D01*
X118736271Y-112037299D01*
X118732986Y-112058428D01*
X118729264Y-112079248D01*
X118725104Y-112099759D01*
X118722087Y-112113261D01*
X118717145Y-112133132D01*
X118711663Y-112152445D01*
X118705639Y-112171199D01*
X118696766Y-112195337D01*
X118686932Y-112218483D01*
X118676135Y-112240637D01*
X118664377Y-112261798D01*
X118651658Y-112281967D01*
X118641487Y-112296443D01*
X118626267Y-112315456D01*
X118609918Y-112333415D01*
X118592440Y-112350321D01*
X118573831Y-112366174D01*
X118554094Y-112380974D01*
X118533226Y-112394720D01*
X118511229Y-112407413D01*
X118488102Y-112419053D01*
X118470056Y-112426997D01*
X118451271Y-112434160D01*
X118431748Y-112440541D01*
X118411486Y-112446141D01*
X118390486Y-112450959D01*
X118368748Y-112454997D01*
X118346271Y-112458252D01*
X118323055Y-112460727D01*
X118299101Y-112462420D01*
X118274409Y-112463331D01*
X118257537Y-112463505D01*
X118232098Y-112462940D01*
X118207070Y-112461246D01*
X118182455Y-112458422D01*
X118158252Y-112454468D01*
X118134461Y-112449385D01*
X118111083Y-112443172D01*
X118088116Y-112435829D01*
X118065562Y-112427357D01*
X118043725Y-112417771D01*
X118022667Y-112407329D01*
X118002387Y-112396033D01*
X117982886Y-112383882D01*
X117964163Y-112370876D01*
X117946219Y-112357015D01*
X117929053Y-112342300D01*
X117912666Y-112326729D01*
X117897080Y-112310288D01*
X117882319Y-112293207D01*
X117868382Y-112275484D01*
X117855269Y-112257120D01*
X117842981Y-112238115D01*
X117831516Y-112218468D01*
X117820877Y-112198181D01*
X117811061Y-112177252D01*
X117802245Y-112155645D01*
X117794605Y-112133563D01*
X117788140Y-112111009D01*
X117782851Y-112087982D01*
X117778737Y-112064481D01*
X117775799Y-112040507D01*
X117774035Y-112016060D01*
X117773448Y-111991139D01*
X117773448Y-111885138D01*
X118059212Y-111885138D01*
X118059212Y-111974042D01*
X118060321Y-111998097D01*
X118063648Y-112021412D01*
X118069194Y-112043988D01*
X118076958Y-112065824D01*
X118086940Y-112086921D01*
X118099140Y-112107279D01*
X118104641Y-112115215D01*
X118120352Y-112133228D01*
X118139093Y-112148188D01*
X118156266Y-112157957D01*
X118175378Y-112165773D01*
X118196429Y-112171635D01*
X118219418Y-112175543D01*
X118244346Y-112177497D01*
X118257537Y-112177741D01*
X118279190Y-112177228D01*
X118299268Y-112175690D01*
X118321284Y-112172490D01*
X118341034Y-112167813D01*
X118361209Y-112160490D01*
X118368912Y-112156736D01*
X118387810Y-112145134D01*
X118404449Y-112131335D01*
X118418829Y-112115337D01*
X118430949Y-112097141D01*
X118439702Y-112079129D01*
X118446724Y-112059714D01*
X118452017Y-112038897D01*
X118455580Y-112016678D01*
X118456839Y-112003352D01*
X118458333Y-111982572D01*
X118459518Y-111960899D01*
X118460394Y-111938333D01*
X118460961Y-111914875D01*
X118461197Y-111894643D01*
X118461236Y-111882207D01*
X118461104Y-111858474D01*
X118460711Y-111836125D01*
X118460055Y-111815160D01*
X118459137Y-111795577D01*
X118457688Y-111773904D01*
X118455862Y-111754224D01*
X118452997Y-111733146D01*
X118449104Y-111713939D01*
X118443394Y-111694277D01*
X118435366Y-111675078D01*
X118434369Y-111673135D01*
X118422687Y-111656713D01*
X118409073Y-111642069D01*
X118393526Y-111629202D01*
X118384055Y-111622821D01*
X118367141Y-111612868D01*
X118347663Y-111602549D01*
X118328515Y-111593219D01*
X118310541Y-111584999D01*
X118301012Y-111580811D01*
X118102199Y-111497280D01*
X118080249Y-111487629D01*
X118059219Y-111477604D01*
X118039109Y-111467204D01*
X118019919Y-111456431D01*
X118001649Y-111445283D01*
X117984298Y-111433762D01*
X117967867Y-111421867D01*
X117952356Y-111409597D01*
X117930813Y-111390492D01*
X117911340Y-111370545D01*
X117893936Y-111349757D01*
X117878602Y-111328127D01*
X117865337Y-111305656D01*
X117861375Y-111297978D01*
X117850463Y-111274160D01*
X117840624Y-111249235D01*
X117831858Y-111223201D01*
X117824166Y-111196060D01*
X117817547Y-111167812D01*
X117813731Y-111148364D01*
X117810392Y-111128424D01*
X117807530Y-111107991D01*
X117805144Y-111087066D01*
X117803236Y-111065649D01*
X117801805Y-111043740D01*
X117800851Y-111021338D01*
X117800374Y-110998444D01*
X117800314Y-110986813D01*
X117800576Y-110966024D01*
X117801362Y-110945425D01*
X117802671Y-110925015D01*
X117804505Y-110904793D01*
X117806862Y-110884760D01*
X117809743Y-110864917D01*
X117813147Y-110845262D01*
X117817076Y-110825796D01*
X117821528Y-110806519D01*
X117826504Y-110787430D01*
X117830112Y-110774810D01*
X117836057Y-110756187D01*
X117844811Y-110732118D01*
X117854512Y-110708918D01*
X117865160Y-110686589D01*
X117876754Y-110665130D01*
X117889294Y-110644541D01*
X117902781Y-110624822D01*
X117917214Y-110605974D01*
X117920970Y-110601398D01*
X117935869Y-110583782D01*
X117951745Y-110567081D01*
X117968598Y-110551297D01*
X117986427Y-110536429D01*
X118005234Y-110522477D01*
X118025018Y-110509440D01*
X118045778Y-110497320D01*
X118067516Y-110486115D01*
X118090399Y-110475925D01*
X118114350Y-110467095D01*
X118139369Y-110459622D01*
X118158835Y-110454910D01*
X118178902Y-110450961D01*
X118199570Y-110447777D01*
X118220840Y-110445357D01*
X118242710Y-110443701D01*
X118265181Y-110442810D01*
X118280496Y-110442640D01*
X118306233Y-110443250D01*
X118331420Y-110445082D01*
X118356058Y-110448135D01*
X118380147Y-110452409D01*
X118403686Y-110457905D01*
X118426675Y-110464622D01*
X118449115Y-110472559D01*
X118471005Y-110481719D01*
X118492254Y-110491885D01*
X118512771Y-110502846D01*
X118532554Y-110514600D01*
X118551605Y-110527148D01*
X118569924Y-110540490D01*
X118587509Y-110554625D01*
X118604362Y-110569554D01*
X118620482Y-110585278D01*
X118635802Y-110602163D01*
X118650134Y-110619357D01*
X118663478Y-110636860D01*
X118675833Y-110654673D01*
X118687200Y-110672795D01*
X118697579Y-110691226D01*
X118706969Y-110709965D01*
X118715370Y-110729014D01*
X118722783Y-110748373D01*
X118729208Y-110768040D01*
X118734644Y-110788016D01*
X118739092Y-110808302D01*
X118742552Y-110828896D01*
X118745023Y-110849800D01*
X118746505Y-110871013D01*
X118747000Y-110892535D01*
X118747000Y-111032242D01*
G37*
G36*
X119882240Y-111879276D02*
G01*
X119882240Y-112002375D01*
X119881698Y-112025303D01*
X119880073Y-112047926D01*
X119877363Y-112070244D01*
X119873570Y-112092256D01*
X119868693Y-112113963D01*
X119862732Y-112135365D01*
X119855687Y-112156461D01*
X119847558Y-112177252D01*
X119838597Y-112197609D01*
X119828812Y-112217400D01*
X119818203Y-112236626D01*
X119806769Y-112255288D01*
X119794511Y-112273385D01*
X119781429Y-112290917D01*
X119767523Y-112307884D01*
X119752792Y-112324287D01*
X119737206Y-112339872D01*
X119720979Y-112354634D01*
X119704111Y-112368571D01*
X119686602Y-112381684D01*
X119668452Y-112393972D01*
X119649660Y-112405436D01*
X119630228Y-112416076D01*
X119610154Y-112425892D01*
X119589683Y-112434707D01*
X119568816Y-112442348D01*
X119547551Y-112448812D01*
X119525890Y-112454102D01*
X119503832Y-112458216D01*
X119481377Y-112461154D01*
X119458525Y-112462917D01*
X119435276Y-112463505D01*
X119415095Y-112463162D01*
X119394854Y-112462131D01*
X119374551Y-112460414D01*
X119354187Y-112458010D01*
X119333763Y-112454918D01*
X119313277Y-112451140D01*
X119292730Y-112446675D01*
X119272122Y-112441523D01*
X119251735Y-112435387D01*
X119231852Y-112428212D01*
X119212473Y-112419999D01*
X119193598Y-112410749D01*
X119175226Y-112400460D01*
X119157358Y-112389133D01*
X119139994Y-112376768D01*
X119123134Y-112363365D01*
X119106891Y-112348833D01*
X119091382Y-112333324D01*
X119076605Y-112316837D01*
X119062561Y-112299374D01*
X119049250Y-112280934D01*
X119036672Y-112261516D01*
X119024826Y-112241122D01*
X119013713Y-112219751D01*
X119003752Y-112196998D01*
X118995120Y-112172703D01*
X118989517Y-112153471D01*
X118984661Y-112133371D01*
X118980553Y-112112404D01*
X118977191Y-112090569D01*
X118974576Y-112067867D01*
X118972709Y-112044298D01*
X118971588Y-112019862D01*
X118971215Y-111994559D01*
X118971215Y-110900351D01*
X118971726Y-110876148D01*
X118973260Y-110852388D01*
X118975817Y-110829070D01*
X118979397Y-110806195D01*
X118983999Y-110783763D01*
X118989624Y-110761774D01*
X118996272Y-110740227D01*
X119003943Y-110719123D01*
X119012675Y-110698476D01*
X119022261Y-110678548D01*
X119032703Y-110659337D01*
X119043999Y-110640843D01*
X119056150Y-110623066D01*
X119069156Y-110606008D01*
X119083017Y-110589666D01*
X119097732Y-110574042D01*
X119113471Y-110559075D01*
X119129911Y-110544947D01*
X119147054Y-110531659D01*
X119164899Y-110519210D01*
X119183446Y-110507601D01*
X119202696Y-110496831D01*
X119222647Y-110486901D01*
X119243301Y-110477811D01*
X119264588Y-110469567D01*
X119286441Y-110462423D01*
X119308857Y-110456378D01*
X119331839Y-110451432D01*
X119355386Y-110447586D01*
X119379497Y-110444838D01*
X119404173Y-110443189D01*
X119429414Y-110442640D01*
X119453976Y-110443153D01*
X119477957Y-110444693D01*
X119501359Y-110447259D01*
X119524180Y-110450852D01*
X119546422Y-110455472D01*
X119568083Y-110461118D01*
X119589164Y-110467791D01*
X119609665Y-110475490D01*
X119629586Y-110484216D01*
X119648927Y-110493969D01*
X119667688Y-110504748D01*
X119685869Y-110516554D01*
X119703470Y-110529386D01*
X119720491Y-110543245D01*
X119736931Y-110558130D01*
X119752792Y-110574042D01*
X119767523Y-110590529D01*
X119781429Y-110607748D01*
X119794511Y-110625700D01*
X119806769Y-110644384D01*
X119818203Y-110663802D01*
X119828812Y-110683952D01*
X119838597Y-110704834D01*
X119847558Y-110726450D01*
X119855687Y-110748569D01*
X119862732Y-110771207D01*
X119868693Y-110794365D01*
X119873570Y-110818041D01*
X119877363Y-110842236D01*
X119880073Y-110866951D01*
X119881698Y-110892184D01*
X119882240Y-110917936D01*
X119882240Y-111029311D01*
X119596476Y-111029311D01*
X119596476Y-110934545D01*
X119595759Y-110914013D01*
X119593606Y-110894184D01*
X119588898Y-110870384D01*
X119581948Y-110847682D01*
X119572755Y-110826077D01*
X119561321Y-110805569D01*
X119550559Y-110789953D01*
X119535563Y-110772222D01*
X119518969Y-110757495D01*
X119500777Y-110745775D01*
X119480988Y-110737059D01*
X119459600Y-110731349D01*
X119436614Y-110728644D01*
X119426972Y-110728404D01*
X119402402Y-110729427D01*
X119379986Y-110732495D01*
X119359721Y-110737609D01*
X119337417Y-110746878D01*
X119318476Y-110759343D01*
X119302899Y-110775004D01*
X119290684Y-110793861D01*
X119280974Y-110815175D01*
X119272910Y-110838206D01*
X119267643Y-110857868D01*
X119263430Y-110878628D01*
X119260270Y-110900488D01*
X119258164Y-110923447D01*
X119257110Y-110947505D01*
X119256979Y-110959946D01*
X119256979Y-111974042D01*
X119257544Y-111995223D01*
X119259238Y-112015533D01*
X119262062Y-112034973D01*
X119267181Y-112058050D01*
X119274064Y-112079767D01*
X119282713Y-112100125D01*
X119293127Y-112119123D01*
X119305983Y-112136010D01*
X119321653Y-112150035D01*
X119340139Y-112161197D01*
X119361438Y-112169498D01*
X119380505Y-112174077D01*
X119401372Y-112176825D01*
X119424041Y-112177741D01*
X119444740Y-112176367D01*
X119464681Y-112172694D01*
X119481682Y-112167971D01*
X119500792Y-112160625D01*
X119519044Y-112150798D01*
X119536436Y-112138490D01*
X119539812Y-112135731D01*
X119554266Y-112120323D01*
X119565888Y-112103600D01*
X119576196Y-112084173D01*
X119580356Y-112074670D01*
X119587409Y-112053910D01*
X119591927Y-112033741D01*
X119594902Y-112011702D01*
X119596224Y-111991323D01*
X119596476Y-111976973D01*
X119596476Y-111879276D01*
X119882240Y-111879276D01*
G37*
G36*
X121119086Y-112447874D02*
G01*
X120833811Y-112447874D01*
X120749791Y-112010190D01*
X120360468Y-112010190D01*
X120276448Y-112447874D01*
X119990684Y-112447874D01*
X120151764Y-111724426D01*
X120410782Y-111724426D01*
X120696546Y-111724426D01*
X120556351Y-111012703D01*
X120550977Y-111012703D01*
X120410782Y-111724426D01*
X120151764Y-111724426D01*
X120436183Y-110447036D01*
X120674076Y-110447036D01*
X121119086Y-112447874D01*
G37*
G36*
X121742815Y-110447616D02*
G01*
X121773020Y-110449354D01*
X121802234Y-110452252D01*
X121830459Y-110456310D01*
X121857693Y-110461526D01*
X121883936Y-110467902D01*
X121909190Y-110475436D01*
X121933453Y-110484130D01*
X121956726Y-110493984D01*
X121979008Y-110504996D01*
X122000300Y-110517168D01*
X122020602Y-110530498D01*
X122039913Y-110544988D01*
X122058234Y-110560638D01*
X122075565Y-110577446D01*
X122091905Y-110595414D01*
X122107256Y-110614540D01*
X122121615Y-110634826D01*
X122134985Y-110656272D01*
X122147364Y-110678876D01*
X122158753Y-110702640D01*
X122169151Y-110727562D01*
X122178559Y-110753644D01*
X122186977Y-110780886D01*
X122194404Y-110809286D01*
X122200842Y-110838846D01*
X122206288Y-110869564D01*
X122210745Y-110901442D01*
X122214211Y-110934479D01*
X122216687Y-110968676D01*
X122218172Y-111004031D01*
X122218667Y-111040546D01*
X122218454Y-111062625D01*
X122217813Y-111084289D01*
X122216744Y-111105536D01*
X122215248Y-111126367D01*
X122213325Y-111146782D01*
X122210974Y-111166782D01*
X122208196Y-111186365D01*
X122203227Y-111214960D01*
X122197296Y-111242619D01*
X122190404Y-111269342D01*
X122182550Y-111295129D01*
X122173734Y-111319981D01*
X122163957Y-111343896D01*
X122152973Y-111366918D01*
X122140538Y-111389090D01*
X122126652Y-111410412D01*
X122111315Y-111430884D01*
X122094527Y-111450506D01*
X122076287Y-111469278D01*
X122056597Y-111487200D01*
X122035455Y-111504272D01*
X122012862Y-111520493D01*
X121988818Y-111535865D01*
X121971982Y-111545640D01*
X122280217Y-112447874D01*
X121977844Y-112447874D01*
X121708688Y-111603770D01*
X121535276Y-111603770D01*
X121535276Y-112447874D01*
X121249512Y-112447874D01*
X121249512Y-110732800D01*
X121535276Y-110732800D01*
X121535276Y-111353666D01*
X121699896Y-111353666D01*
X121723099Y-111353153D01*
X121744775Y-111351614D01*
X121764925Y-111349050D01*
X121787090Y-111344619D01*
X121807057Y-111338712D01*
X121822017Y-111332661D01*
X121840957Y-111322606D01*
X121858028Y-111310822D01*
X121873228Y-111297308D01*
X121886558Y-111282064D01*
X121893336Y-111272577D01*
X121902489Y-111254782D01*
X121910286Y-111235164D01*
X121916728Y-111213723D01*
X121921170Y-111193893D01*
X121924111Y-111176345D01*
X121927099Y-111154094D01*
X121929117Y-111134581D01*
X121930705Y-111114185D01*
X121931864Y-111092907D01*
X121932594Y-111070746D01*
X121932895Y-111047703D01*
X121932903Y-111042989D01*
X121932689Y-111019922D01*
X121932045Y-110997737D01*
X121930971Y-110976435D01*
X121929469Y-110956015D01*
X121927537Y-110936478D01*
X121924652Y-110914199D01*
X121924111Y-110910609D01*
X121920395Y-110889560D01*
X121915478Y-110869645D01*
X121909359Y-110850863D01*
X121900700Y-110830383D01*
X121890405Y-110811446D01*
X121875354Y-110793014D01*
X121857310Y-110777039D01*
X121836275Y-110763521D01*
X121818535Y-110754996D01*
X121799112Y-110747854D01*
X121778006Y-110742093D01*
X121755217Y-110737716D01*
X121730745Y-110734720D01*
X121704590Y-110733107D01*
X121686218Y-110732800D01*
X121535276Y-110732800D01*
X121249512Y-110732800D01*
X121249512Y-110447036D01*
X121711619Y-110447036D01*
X121742815Y-110447616D01*
G37*
G36*
X122605060Y-112447874D02*
G01*
X122605060Y-110732800D01*
X122265562Y-110732800D01*
X122265562Y-110447036D01*
X123203455Y-110447036D01*
X123203455Y-110732800D01*
X122890824Y-110732800D01*
X122890824Y-112447874D01*
X122605060Y-112447874D01*
G37*
G36*
X124287746Y-110447405D02*
G01*
X124312767Y-110448513D01*
X124337068Y-110450359D01*
X124360647Y-110452944D01*
X124383504Y-110456267D01*
X124405641Y-110460328D01*
X124427056Y-110465128D01*
X124447750Y-110470667D01*
X124467722Y-110476943D01*
X124486974Y-110483959D01*
X124499407Y-110489046D01*
X124517504Y-110497076D01*
X124540657Y-110508544D01*
X124562696Y-110520882D01*
X124583621Y-110534090D01*
X124603431Y-110548168D01*
X124622127Y-110563117D01*
X124639709Y-110578935D01*
X124656176Y-110595624D01*
X124660119Y-110599932D01*
X124675079Y-110617716D01*
X124688940Y-110636141D01*
X124701701Y-110655207D01*
X124713364Y-110674915D01*
X124723927Y-110695263D01*
X124733392Y-110716253D01*
X124741757Y-110737884D01*
X124749023Y-110760155D01*
X124755435Y-110782855D01*
X124760991Y-110805768D01*
X124765693Y-110828895D01*
X124769540Y-110852235D01*
X124772532Y-110875789D01*
X124774669Y-110899557D01*
X124775951Y-110923539D01*
X124776379Y-110947734D01*
X124776379Y-111020518D01*
X124776165Y-111040279D01*
X124775297Y-111063885D01*
X124773761Y-111086275D01*
X124771557Y-111107448D01*
X124768685Y-111127405D01*
X124764357Y-111149748D01*
X124762701Y-111156806D01*
X124757291Y-111177208D01*
X124750954Y-111196648D01*
X124743690Y-111215126D01*
X124734043Y-111235469D01*
X124723134Y-111254503D01*
X124709593Y-111273577D01*
X124694374Y-111291964D01*
X124677475Y-111309664D01*
X124658898Y-111326677D01*
X124638641Y-111343003D01*
X124622346Y-111354797D01*
X124605107Y-111366204D01*
X124586923Y-111377225D01*
X124567795Y-111387860D01*
X124587443Y-111397322D01*
X124606086Y-111407575D01*
X124623724Y-111418617D01*
X124640358Y-111430449D01*
X124655987Y-111443072D01*
X124670612Y-111456484D01*
X124684232Y-111470686D01*
X124696847Y-111485679D01*
X124708458Y-111501461D01*
X124719064Y-111518033D01*
X124725576Y-111529520D01*
X124734655Y-111547615D01*
X124742841Y-111566912D01*
X124750134Y-111587412D01*
X124756534Y-111609113D01*
X124762041Y-111632017D01*
X124766655Y-111656122D01*
X124770376Y-111681430D01*
X124773203Y-111707940D01*
X124775138Y-111735652D01*
X124776180Y-111764566D01*
X124776379Y-111784510D01*
X124776379Y-111898327D01*
X124775873Y-111931119D01*
X124774356Y-111962937D01*
X124771828Y-111993782D01*
X124768288Y-112023654D01*
X124763737Y-112052553D01*
X124758175Y-112080479D01*
X124751601Y-112107431D01*
X124744016Y-112133411D01*
X124735420Y-112158417D01*
X124725813Y-112182450D01*
X124715194Y-112205510D01*
X124703564Y-112227597D01*
X124690922Y-112248711D01*
X124677269Y-112268851D01*
X124662605Y-112288018D01*
X124646930Y-112306213D01*
X124630146Y-112323367D01*
X124612156Y-112339414D01*
X124592960Y-112354355D01*
X124572558Y-112368189D01*
X124550950Y-112380917D01*
X124528136Y-112392537D01*
X124504117Y-112403051D01*
X124478891Y-112412458D01*
X124452459Y-112420759D01*
X124424822Y-112427952D01*
X124395978Y-112434039D01*
X124365928Y-112439020D01*
X124334673Y-112442893D01*
X124302212Y-112445660D01*
X124268544Y-112447320D01*
X124233671Y-112447874D01*
X123838486Y-112447874D01*
X123838486Y-111509981D01*
X124124250Y-111509981D01*
X124124250Y-112162109D01*
X124246372Y-112162109D01*
X124267392Y-112161705D01*
X124287221Y-112160491D01*
X124310334Y-112157837D01*
X124331586Y-112153918D01*
X124350977Y-112148735D01*
X124371791Y-112140846D01*
X124381194Y-112136220D01*
X124398522Y-112125824D01*
X124414235Y-112114055D01*
X124430527Y-112098587D01*
X124444622Y-112081250D01*
X124454955Y-112064901D01*
X124463444Y-112047081D01*
X124470594Y-112028058D01*
X124476404Y-112007834D01*
X124480875Y-111986407D01*
X124484007Y-111963778D01*
X124484753Y-111955968D01*
X124486441Y-111936002D01*
X124487844Y-111915487D01*
X124488960Y-111894424D01*
X124489790Y-111872811D01*
X124490334Y-111850651D01*
X124490592Y-111827941D01*
X124490614Y-111818704D01*
X124490412Y-111795074D01*
X124489803Y-111772422D01*
X124488790Y-111750748D01*
X124487371Y-111730051D01*
X124485546Y-111710333D01*
X124482821Y-111687962D01*
X124482310Y-111684370D01*
X124478612Y-111663522D01*
X124473746Y-111643841D01*
X124466594Y-111622357D01*
X124457852Y-111602461D01*
X124449093Y-111586673D01*
X124435977Y-111570368D01*
X124420990Y-111556072D01*
X124404133Y-111543787D01*
X124385407Y-111533512D01*
X124373866Y-111528543D01*
X124355199Y-111522235D01*
X124334368Y-111517232D01*
X124311373Y-111513534D01*
X124290557Y-111511449D01*
X124268239Y-111510271D01*
X124249303Y-111509981D01*
X124124250Y-111509981D01*
X123838486Y-111509981D01*
X123838486Y-110732800D01*
X124124250Y-110732800D01*
X124124250Y-111259876D01*
X124251745Y-111259876D01*
X124277574Y-111259275D01*
X124301754Y-111257472D01*
X124324285Y-111254467D01*
X124345168Y-111250259D01*
X124364402Y-111244850D01*
X124387483Y-111235767D01*
X124407633Y-111224547D01*
X124424852Y-111211190D01*
X124439140Y-111195696D01*
X124442254Y-111191488D01*
X124453589Y-111173285D01*
X124463412Y-111153112D01*
X124471724Y-111130969D01*
X124478524Y-111106858D01*
X124482633Y-111087482D01*
X124485892Y-111066999D01*
X124488300Y-111045408D01*
X124489859Y-111022709D01*
X124490567Y-110998902D01*
X124490614Y-110990721D01*
X124490138Y-110967195D01*
X124488708Y-110944793D01*
X124486325Y-110923517D01*
X124482989Y-110903366D01*
X124477059Y-110878247D01*
X124469434Y-110855128D01*
X124460115Y-110834008D01*
X124449101Y-110814889D01*
X124436393Y-110797769D01*
X124421585Y-110782542D01*
X124404030Y-110769345D01*
X124383728Y-110758179D01*
X124360677Y-110749042D01*
X124341586Y-110743523D01*
X124320950Y-110739145D01*
X124298767Y-110735909D01*
X124275040Y-110733815D01*
X124249766Y-110732864D01*
X124240998Y-110732800D01*
X124124250Y-110732800D01*
X123838486Y-110732800D01*
X123838486Y-110447036D01*
X124262003Y-110447036D01*
X124287746Y-110447405D01*
G37*
G36*
X125433338Y-111025838D02*
G01*
X125455404Y-111027143D01*
X125477119Y-111029319D01*
X125498483Y-111032364D01*
X125519495Y-111036280D01*
X125540156Y-111041065D01*
X125560467Y-111046721D01*
X125580426Y-111053247D01*
X125599897Y-111060635D01*
X125618742Y-111068878D01*
X125636961Y-111077976D01*
X125654554Y-111087929D01*
X125671521Y-111098737D01*
X125687862Y-111110400D01*
X125703578Y-111122917D01*
X125718667Y-111136289D01*
X125732475Y-111150639D01*
X125745565Y-111165843D01*
X125757937Y-111181902D01*
X125769592Y-111198816D01*
X125780530Y-111216584D01*
X125790750Y-111235208D01*
X125800252Y-111254686D01*
X125809037Y-111275019D01*
X125817052Y-111296223D01*
X125823997Y-111318311D01*
X125829874Y-111341285D01*
X125834683Y-111365145D01*
X125838423Y-111389890D01*
X125841094Y-111415520D01*
X125842397Y-111435324D01*
X125843098Y-111455625D01*
X125843231Y-111469437D01*
X125843231Y-112447874D01*
X125557467Y-112447874D01*
X125557467Y-112302793D01*
X125552094Y-112302793D01*
X125538027Y-112321646D01*
X125523914Y-112339369D01*
X125509756Y-112355962D01*
X125495552Y-112371425D01*
X125481302Y-112385759D01*
X125463425Y-112402088D01*
X125445476Y-112416652D01*
X125438277Y-112421984D01*
X125419143Y-112433945D01*
X125397767Y-112443880D01*
X125379052Y-112450367D01*
X125358902Y-112455558D01*
X125337317Y-112459450D01*
X125314297Y-112462045D01*
X125289842Y-112463343D01*
X125277076Y-112463505D01*
X125254804Y-112462757D01*
X125232437Y-112460513D01*
X125209977Y-112456773D01*
X125190652Y-112452377D01*
X125174494Y-112447874D01*
X125155215Y-112441250D01*
X125136209Y-112432738D01*
X125117479Y-112422337D01*
X125099023Y-112410046D01*
X125080843Y-112395867D01*
X125074843Y-112390721D01*
X125057527Y-112374830D01*
X125044067Y-112359698D01*
X125031490Y-112342849D01*
X125019796Y-112324283D01*
X125008984Y-112303999D01*
X124999054Y-112281998D01*
X124997174Y-112277392D01*
X124990305Y-112258150D01*
X124984351Y-112237550D01*
X124979314Y-112215591D01*
X124975192Y-112192273D01*
X124971987Y-112167597D01*
X124969697Y-112141562D01*
X124968581Y-112121145D01*
X124967979Y-112099963D01*
X124967865Y-112085417D01*
X124968037Y-112063143D01*
X124968552Y-112041385D01*
X124969102Y-112027776D01*
X125253629Y-112027776D01*
X125254240Y-112047933D01*
X125256720Y-112071778D01*
X125261109Y-112094120D01*
X125267406Y-112114960D01*
X125275611Y-112134296D01*
X125285724Y-112152130D01*
X125292708Y-112162109D01*
X125305824Y-112176886D01*
X125323547Y-112191311D01*
X125343434Y-112202130D01*
X125365484Y-112209343D01*
X125385513Y-112212599D01*
X125402617Y-112213400D01*
X125424716Y-112212220D01*
X125445217Y-112208678D01*
X125464119Y-112202774D01*
X125484693Y-112192573D01*
X125502965Y-112178972D01*
X125516434Y-112165040D01*
X125528255Y-112148950D01*
X125538073Y-112130904D01*
X125545887Y-112110901D01*
X125551697Y-112088943D01*
X125555504Y-112065030D01*
X125557107Y-112044490D01*
X125557467Y-112028264D01*
X125557467Y-111831405D01*
X125537508Y-111827978D01*
X125516588Y-111825093D01*
X125495460Y-111823161D01*
X125478821Y-111822612D01*
X125455923Y-111823306D01*
X125433880Y-111825390D01*
X125412692Y-111828863D01*
X125392359Y-111833725D01*
X125372881Y-111839976D01*
X125354257Y-111847616D01*
X125336488Y-111856646D01*
X125319575Y-111867064D01*
X125304119Y-111879192D01*
X125290723Y-111893595D01*
X125279389Y-111910272D01*
X125270115Y-111929224D01*
X125262903Y-111950450D01*
X125257751Y-111973951D01*
X125254660Y-111999726D01*
X125253694Y-112020550D01*
X125253629Y-112027776D01*
X124969102Y-112027776D01*
X124969411Y-112020141D01*
X124970613Y-111999413D01*
X124972158Y-111979200D01*
X124974047Y-111959502D01*
X124977100Y-111934040D01*
X124980764Y-111909494D01*
X124985038Y-111885863D01*
X124987404Y-111874391D01*
X124992923Y-111852020D01*
X124999464Y-111830580D01*
X125007028Y-111810071D01*
X125015614Y-111790494D01*
X125025224Y-111771847D01*
X125035856Y-111754132D01*
X125047511Y-111737348D01*
X125060189Y-111721495D01*
X125073569Y-111707184D01*
X125088063Y-111693804D01*
X125103672Y-111681355D01*
X125120395Y-111669838D01*
X125138232Y-111659252D01*
X125157184Y-111649596D01*
X125177250Y-111640872D01*
X125198430Y-111633079D01*
X125220908Y-111626210D01*
X125244867Y-111620257D01*
X125270306Y-111615219D01*
X125290358Y-111612042D01*
X125311242Y-111609380D01*
X125332959Y-111607234D01*
X125355509Y-111605602D01*
X125378892Y-111604486D01*
X125403108Y-111603885D01*
X125419714Y-111603770D01*
X125439569Y-111603770D01*
X125450977Y-111603770D01*
X125471013Y-111603770D01*
X125481752Y-111603770D01*
X125501558Y-111603770D01*
X125515457Y-111603770D01*
X125535730Y-111605846D01*
X125554670Y-111611069D01*
X125557467Y-111612074D01*
X125557467Y-111470902D01*
X125556704Y-111449822D01*
X125554414Y-111429934D01*
X125549651Y-111407643D01*
X125542691Y-111387070D01*
X125533531Y-111368213D01*
X125526204Y-111356596D01*
X125512895Y-111341158D01*
X125496048Y-111328913D01*
X125475663Y-111319863D01*
X125455973Y-111314761D01*
X125433827Y-111311877D01*
X125414341Y-111311167D01*
X125393452Y-111312387D01*
X125373285Y-111316045D01*
X125353839Y-111322141D01*
X125335115Y-111330676D01*
X125317111Y-111341650D01*
X125311270Y-111345850D01*
X125295002Y-111359806D01*
X125281000Y-111376029D01*
X125269264Y-111394519D01*
X125259796Y-111415276D01*
X125253638Y-111434305D01*
X125250698Y-111446478D01*
X124979100Y-111446478D01*
X124979562Y-111423370D01*
X124980947Y-111400820D01*
X124983256Y-111378826D01*
X124986488Y-111357390D01*
X124990644Y-111336511D01*
X124995724Y-111316190D01*
X125001727Y-111296425D01*
X125008654Y-111277218D01*
X125016504Y-111258567D01*
X125025277Y-111240474D01*
X125034975Y-111222938D01*
X125045595Y-111205960D01*
X125057140Y-111189538D01*
X125069607Y-111173674D01*
X125082999Y-111158367D01*
X125097314Y-111143617D01*
X125111831Y-111130298D01*
X125127050Y-111117696D01*
X125142972Y-111105812D01*
X125159596Y-111094646D01*
X125176922Y-111084197D01*
X125194950Y-111074465D01*
X125213680Y-111065451D01*
X125233113Y-111057155D01*
X125253202Y-111049713D01*
X125273901Y-111043263D01*
X125295211Y-111037806D01*
X125317132Y-111033341D01*
X125339664Y-111029868D01*
X125362806Y-111027388D01*
X125386558Y-111025899D01*
X125410922Y-111025403D01*
X125433338Y-111025838D01*
G37*
G36*
X126351745Y-112039988D02*
G01*
X126352651Y-112059997D01*
X126356132Y-112082025D01*
X126362223Y-112101889D01*
X126370924Y-112119589D01*
X126384374Y-112137504D01*
X126388870Y-112142081D01*
X126406565Y-112155976D01*
X126426737Y-112166458D01*
X126446000Y-112172726D01*
X126467083Y-112176487D01*
X126489986Y-112177741D01*
X126513850Y-112176596D01*
X126535066Y-112173161D01*
X126557031Y-112166017D01*
X126575183Y-112155576D01*
X126589523Y-112141837D01*
X126596965Y-112130846D01*
X126606118Y-112113278D01*
X126614930Y-112092825D01*
X126621733Y-112072419D01*
X126626524Y-112052059D01*
X126628716Y-112037546D01*
X126914480Y-112037546D01*
X126914034Y-112060586D01*
X126912694Y-112083059D01*
X126910462Y-112104962D01*
X126907336Y-112126297D01*
X126903318Y-112147064D01*
X126898406Y-112167261D01*
X126892602Y-112186890D01*
X126885904Y-112205951D01*
X126878313Y-112224443D01*
X126869830Y-112242366D01*
X126860453Y-112259721D01*
X126850184Y-112276507D01*
X126839021Y-112292724D01*
X126826965Y-112308373D01*
X126814017Y-112323453D01*
X126800175Y-112337964D01*
X126785787Y-112352336D01*
X126770713Y-112365899D01*
X126754952Y-112378654D01*
X126738503Y-112390599D01*
X126721368Y-112401734D01*
X126703546Y-112412061D01*
X126685037Y-112421579D01*
X126665841Y-112430288D01*
X126645997Y-112438073D01*
X126625541Y-112444820D01*
X126604475Y-112450530D01*
X126582799Y-112455201D01*
X126560512Y-112458834D01*
X126537614Y-112461429D01*
X126514105Y-112462986D01*
X126489986Y-112463505D01*
X126465242Y-112463020D01*
X126441203Y-112461564D01*
X126417867Y-112459139D01*
X126395235Y-112455743D01*
X126373308Y-112451376D01*
X126352085Y-112446040D01*
X126331565Y-112439733D01*
X126311750Y-112432456D01*
X126292639Y-112424208D01*
X126274232Y-112414990D01*
X126262352Y-112408306D01*
X126245240Y-112397639D01*
X126228893Y-112386336D01*
X126213309Y-112374397D01*
X126193720Y-112357491D01*
X126175490Y-112339455D01*
X126158618Y-112320290D01*
X126143105Y-112299995D01*
X126128950Y-112278570D01*
X126119226Y-112261760D01*
X126110086Y-112243953D01*
X126101900Y-112225334D01*
X126094668Y-112205904D01*
X126088390Y-112185664D01*
X126083066Y-112164612D01*
X126078697Y-112142749D01*
X126077216Y-112133777D01*
X126073979Y-112110875D01*
X126071291Y-112087352D01*
X126069152Y-112063209D01*
X126067835Y-112043448D01*
X126066870Y-112023291D01*
X126066255Y-112002736D01*
X126065992Y-111981785D01*
X126065981Y-111976485D01*
X126065981Y-111512912D01*
X126066156Y-111491640D01*
X126066683Y-111470811D01*
X126067561Y-111450424D01*
X126068790Y-111430480D01*
X126070370Y-111410979D01*
X126072838Y-111387225D01*
X126075855Y-111364162D01*
X126077216Y-111355131D01*
X126081204Y-111333085D01*
X126086146Y-111311826D01*
X126092042Y-111291354D01*
X126098893Y-111271669D01*
X126106697Y-111252771D01*
X126115455Y-111234660D01*
X126119226Y-111227636D01*
X126132361Y-111205364D01*
X126146856Y-111184222D01*
X126162709Y-111164209D01*
X126179920Y-111145326D01*
X126198490Y-111127573D01*
X126218419Y-111110949D01*
X126234257Y-111099223D01*
X126250859Y-111088132D01*
X126262352Y-111081091D01*
X126280290Y-111071139D01*
X126298931Y-111062166D01*
X126318277Y-111054171D01*
X126338327Y-111047156D01*
X126359081Y-111041120D01*
X126380539Y-111036062D01*
X126402701Y-111031983D01*
X126425567Y-111028884D01*
X126449138Y-111026763D01*
X126473412Y-111025621D01*
X126489986Y-111025403D01*
X126514128Y-111025930D01*
X126537705Y-111027510D01*
X126560718Y-111030143D01*
X126583165Y-111033830D01*
X126605048Y-111038569D01*
X126626365Y-111044363D01*
X126647119Y-111051209D01*
X126667307Y-111059109D01*
X126686839Y-111067810D01*
X126705622Y-111077305D01*
X126723658Y-111087593D01*
X126740946Y-111098676D01*
X126757486Y-111110552D01*
X126773278Y-111123222D01*
X126788321Y-111136686D01*
X126802617Y-111150944D01*
X126816163Y-111166869D01*
X126828835Y-111183382D01*
X126840633Y-111200483D01*
X126851557Y-111218172D01*
X126861608Y-111236448D01*
X126870784Y-111255312D01*
X126879086Y-111274764D01*
X126886515Y-111294803D01*
X126893069Y-111315430D01*
X126898750Y-111336645D01*
X126903556Y-111358447D01*
X126907489Y-111380838D01*
X126910548Y-111403815D01*
X126912733Y-111427381D01*
X126914044Y-111451534D01*
X126914480Y-111476275D01*
X126628716Y-111476275D01*
X126628129Y-111455622D01*
X126625741Y-111431822D01*
X126621517Y-111410265D01*
X126615456Y-111390950D01*
X126605759Y-111370731D01*
X126593417Y-111353741D01*
X126591103Y-111351223D01*
X126576237Y-111337610D01*
X126559481Y-111326814D01*
X126540837Y-111318834D01*
X126520303Y-111313671D01*
X126497880Y-111311324D01*
X126489986Y-111311167D01*
X126467083Y-111312576D01*
X126446000Y-111316800D01*
X126426737Y-111323841D01*
X126409295Y-111333699D01*
X126393673Y-111346373D01*
X126388870Y-111351223D01*
X126376253Y-111367486D01*
X126366247Y-111386600D01*
X126358851Y-111408565D01*
X126354682Y-111429046D01*
X126352325Y-111451508D01*
X126351745Y-111470902D01*
X126351745Y-112039988D01*
G37*
G36*
X127068353Y-112447874D02*
G01*
X127068353Y-110447036D01*
X127354118Y-110447036D01*
X127354118Y-111654084D01*
X127359979Y-111654084D01*
X127704362Y-111041035D01*
X127990126Y-111041035D01*
X127651117Y-111612563D01*
X128059979Y-112447874D01*
X127749303Y-112447874D01*
X127491382Y-111840197D01*
X127354118Y-112053666D01*
X127354118Y-112447874D01*
X127068353Y-112447874D01*
G37*
G36*
X161623844Y-103217177D02*
G01*
X161661601Y-103219351D01*
X161698119Y-103222973D01*
X161733400Y-103228045D01*
X161767442Y-103234565D01*
X161800247Y-103242535D01*
X161831813Y-103251953D01*
X161862142Y-103262821D01*
X161891233Y-103275137D01*
X161919086Y-103288903D01*
X161945701Y-103304117D01*
X161971078Y-103320781D01*
X161995218Y-103338893D01*
X162018119Y-103358455D01*
X162039782Y-103379465D01*
X162060208Y-103401925D01*
X162079396Y-103425833D01*
X162097345Y-103451191D01*
X162114057Y-103477997D01*
X162129531Y-103506253D01*
X162143767Y-103535957D01*
X162156765Y-103567111D01*
X162168525Y-103599713D01*
X162179047Y-103633765D01*
X162188332Y-103669265D01*
X162196378Y-103706215D01*
X162203187Y-103744613D01*
X162208757Y-103784460D01*
X162213090Y-103825757D01*
X162216185Y-103868502D01*
X162218041Y-103912697D01*
X162218660Y-103958340D01*
X162218393Y-103985939D01*
X162217592Y-104013018D01*
X162216256Y-104039577D01*
X162214386Y-104065616D01*
X162211982Y-104091136D01*
X162209043Y-104116135D01*
X162205571Y-104140614D01*
X162199360Y-104176358D01*
X162191946Y-104210931D01*
X162183331Y-104244335D01*
X162173514Y-104276569D01*
X162162494Y-104307633D01*
X162150272Y-104337527D01*
X162136543Y-104366305D01*
X162120999Y-104394020D01*
X162103642Y-104420673D01*
X162084470Y-104446263D01*
X162063485Y-104470791D01*
X162040685Y-104494255D01*
X162016072Y-104516658D01*
X161989645Y-104537997D01*
X161961403Y-104558274D01*
X161931348Y-104577489D01*
X161910304Y-104589708D01*
X162295597Y-105717500D01*
X161917631Y-105717500D01*
X161581187Y-104662370D01*
X161364421Y-104662370D01*
X161364421Y-105717500D01*
X161007216Y-105717500D01*
X161007216Y-103573658D01*
X161364421Y-103573658D01*
X161364421Y-104349740D01*
X161570196Y-104349740D01*
X161599200Y-104349099D01*
X161626295Y-104347175D01*
X161651483Y-104343970D01*
X161679189Y-104338432D01*
X161704148Y-104331047D01*
X161722847Y-104323483D01*
X161746523Y-104310915D01*
X161767861Y-104296185D01*
X161786861Y-104279293D01*
X161803524Y-104260238D01*
X161811996Y-104248379D01*
X161823437Y-104226135D01*
X161833184Y-104201612D01*
X161841235Y-104174811D01*
X161846788Y-104150024D01*
X161850464Y-104128089D01*
X161854200Y-104100276D01*
X161856722Y-104075884D01*
X161858708Y-104050389D01*
X161860157Y-104023792D01*
X161861069Y-103996091D01*
X161861445Y-103967287D01*
X161861455Y-103961393D01*
X161861187Y-103932560D01*
X161860382Y-103904829D01*
X161859040Y-103878201D01*
X161857162Y-103852677D01*
X161854747Y-103828255D01*
X161851141Y-103800406D01*
X161850464Y-103795919D01*
X161845820Y-103769608D01*
X161839674Y-103744714D01*
X161832024Y-103721236D01*
X161821201Y-103695637D01*
X161808332Y-103671966D01*
X161789518Y-103648925D01*
X161766964Y-103628956D01*
X161740670Y-103612059D01*
X161718495Y-103601403D01*
X161694216Y-103592475D01*
X161667833Y-103585274D01*
X161639347Y-103579802D01*
X161608757Y-103576058D01*
X161576063Y-103574042D01*
X161553099Y-103573658D01*
X161364421Y-103573658D01*
X161007216Y-103573658D01*
X161007216Y-103216453D01*
X161584850Y-103216453D01*
X161623844Y-103217177D01*
G37*
G36*
X162701651Y-105717500D02*
G01*
X162701651Y-103573658D01*
X162277279Y-103573658D01*
X162277279Y-103216453D01*
X163449644Y-103216453D01*
X163449644Y-103573658D01*
X163058856Y-103573658D01*
X163058856Y-105717500D01*
X162701651Y-105717500D01*
G37*
G36*
X164179931Y-105717500D02*
G01*
X164179931Y-105371285D01*
X163476511Y-105371285D01*
X163476511Y-105014080D01*
X163985757Y-103216453D01*
X164361891Y-103216453D01*
X163830053Y-105014080D01*
X164179931Y-105014080D01*
X164179931Y-104310661D01*
X164537136Y-104310661D01*
X164537136Y-105014080D01*
X164727034Y-105014080D01*
X164727034Y-105371285D01*
X164537136Y-105371285D01*
X164537136Y-105717500D01*
X164179931Y-105717500D01*
G37*
G36*
X164895562Y-105717500D02*
G01*
X164895562Y-103216453D01*
X165252767Y-103216453D01*
X165252767Y-104358288D01*
X165259484Y-104358288D01*
X165780942Y-103216453D01*
X166138148Y-103216453D01*
X165651494Y-104217848D01*
X166229128Y-105717500D01*
X165851162Y-105717500D01*
X165445108Y-104607416D01*
X165252767Y-104969506D01*
X165252767Y-105717500D01*
X164895562Y-105717500D01*
G37*
G36*
X168173912Y-103947960D02*
G01*
X167816707Y-103947960D01*
X167816707Y-103867971D01*
X167815848Y-103837965D01*
X167813272Y-103809009D01*
X167808979Y-103781102D01*
X167802968Y-103754245D01*
X167795240Y-103728437D01*
X167785795Y-103703679D01*
X167774632Y-103679970D01*
X167761752Y-103657311D01*
X167746840Y-103636417D01*
X167729580Y-103618309D01*
X167709974Y-103602986D01*
X167688021Y-103590450D01*
X167663721Y-103580699D01*
X167637074Y-103573734D01*
X167608079Y-103569555D01*
X167576738Y-103568162D01*
X167551558Y-103569150D01*
X167524514Y-103572798D01*
X167499983Y-103579134D01*
X167475024Y-103589667D01*
X167463776Y-103596250D01*
X167443397Y-103611134D01*
X167425002Y-103627697D01*
X167408592Y-103645939D01*
X167394166Y-103665860D01*
X167381802Y-103689482D01*
X167371574Y-103714556D01*
X167363483Y-103741079D01*
X167358157Y-103765476D01*
X167357530Y-103769052D01*
X167353723Y-103794397D01*
X167350851Y-103820210D01*
X167348915Y-103846490D01*
X167347913Y-103873237D01*
X167347760Y-103888731D01*
X167347932Y-103915557D01*
X167348447Y-103940623D01*
X167349482Y-103967642D01*
X167350985Y-103992265D01*
X167352645Y-104011463D01*
X167356895Y-104038119D01*
X167363464Y-104063133D01*
X167372351Y-104086505D01*
X167378291Y-104098780D01*
X167391417Y-104119597D01*
X167407442Y-104138772D01*
X167426365Y-104156305D01*
X167438130Y-104165336D01*
X167459425Y-104179075D01*
X167480938Y-104191096D01*
X167505139Y-104203118D01*
X167528023Y-104213422D01*
X167544376Y-104220291D01*
X167809990Y-104328368D01*
X167838154Y-104340056D01*
X167864944Y-104352220D01*
X167890361Y-104364862D01*
X167914404Y-104377980D01*
X167937072Y-104391576D01*
X167958367Y-104405648D01*
X167978288Y-104420198D01*
X167996836Y-104435225D01*
X168018416Y-104454768D01*
X168038505Y-104475236D01*
X168057103Y-104496628D01*
X168074211Y-104518945D01*
X168089828Y-104542185D01*
X168103954Y-104566350D01*
X168109187Y-104576275D01*
X168120246Y-104602807D01*
X168130141Y-104630502D01*
X168138874Y-104659360D01*
X168145023Y-104683283D01*
X168150428Y-104707951D01*
X168155088Y-104733362D01*
X168159005Y-104759518D01*
X168159868Y-104766174D01*
X168163159Y-104793203D01*
X168166012Y-104821166D01*
X168168426Y-104850065D01*
X168170401Y-104879899D01*
X168171937Y-104910668D01*
X168173034Y-104942372D01*
X168173692Y-104975011D01*
X168173898Y-105000104D01*
X168173912Y-105008585D01*
X168173638Y-105037701D01*
X168172817Y-105066430D01*
X168171448Y-105094773D01*
X168169532Y-105122730D01*
X168167069Y-105150300D01*
X168164058Y-105177484D01*
X168160500Y-105204282D01*
X168156395Y-105230693D01*
X168151742Y-105256718D01*
X168146542Y-105282356D01*
X168142771Y-105299234D01*
X168136594Y-105324072D01*
X168129740Y-105348213D01*
X168122211Y-105371657D01*
X168111120Y-105401829D01*
X168098827Y-105430762D01*
X168085331Y-105458454D01*
X168070634Y-105484905D01*
X168054734Y-105510117D01*
X168042021Y-105528211D01*
X168022996Y-105551977D01*
X168002560Y-105574427D01*
X167980712Y-105595559D01*
X167957451Y-105615375D01*
X167932779Y-105633875D01*
X167906695Y-105651058D01*
X167879198Y-105666924D01*
X167850290Y-105681474D01*
X167827732Y-105691404D01*
X167804251Y-105700357D01*
X167779847Y-105708334D01*
X167754520Y-105715334D01*
X167728270Y-105721357D01*
X167701097Y-105726403D01*
X167673000Y-105730473D01*
X167643981Y-105733566D01*
X167614039Y-105735682D01*
X167583173Y-105736822D01*
X167562083Y-105737039D01*
X167530284Y-105736333D01*
X167499000Y-105734215D01*
X167468231Y-105730685D01*
X167437977Y-105725743D01*
X167408239Y-105719389D01*
X167379016Y-105711622D01*
X167350308Y-105702444D01*
X167322115Y-105691854D01*
X167294819Y-105679871D01*
X167268496Y-105666819D01*
X167243146Y-105652699D01*
X167218769Y-105637510D01*
X167195366Y-105621253D01*
X167172936Y-105603927D01*
X167151479Y-105585532D01*
X167130995Y-105566069D01*
X167111513Y-105545518D01*
X167093061Y-105524166D01*
X167075639Y-105502012D01*
X167059248Y-105479057D01*
X167043888Y-105455301D01*
X167029558Y-105430743D01*
X167016258Y-105405384D01*
X167003988Y-105379223D01*
X166992969Y-105352213D01*
X166983419Y-105324612D01*
X166975338Y-105296419D01*
X166968726Y-105267635D01*
X166963583Y-105238259D01*
X166959910Y-105208291D01*
X166957706Y-105177732D01*
X166956972Y-105146582D01*
X166956972Y-105014080D01*
X167314177Y-105014080D01*
X167314177Y-105125211D01*
X167315563Y-105155279D01*
X167319722Y-105184423D01*
X167326654Y-105212642D01*
X167336359Y-105239938D01*
X167348837Y-105266309D01*
X167364087Y-105291756D01*
X167370963Y-105301676D01*
X167390602Y-105324192D01*
X167414028Y-105342892D01*
X167435494Y-105355104D01*
X167459384Y-105364874D01*
X167485698Y-105372201D01*
X167514435Y-105377086D01*
X167545595Y-105379528D01*
X167562083Y-105379834D01*
X167589149Y-105379193D01*
X167614247Y-105377270D01*
X167641768Y-105373270D01*
X167666454Y-105367424D01*
X167691674Y-105358270D01*
X167701302Y-105353578D01*
X167724925Y-105339076D01*
X167745723Y-105321826D01*
X167763698Y-105301829D01*
X167778849Y-105279084D01*
X167789789Y-105256569D01*
X167798567Y-105232301D01*
X167805183Y-105206279D01*
X167809637Y-105178505D01*
X167811211Y-105161847D01*
X167813079Y-105135872D01*
X167814560Y-105108781D01*
X167815655Y-105080574D01*
X167816363Y-105051251D01*
X167816658Y-105025962D01*
X167816707Y-105010416D01*
X167816543Y-104980751D01*
X167816051Y-104952814D01*
X167815231Y-104926607D01*
X167814083Y-104902129D01*
X167812272Y-104875038D01*
X167809990Y-104850437D01*
X167806408Y-104824091D01*
X167801542Y-104800081D01*
X167794405Y-104775504D01*
X167784369Y-104751505D01*
X167783123Y-104749077D01*
X167768520Y-104728549D01*
X167751503Y-104710243D01*
X167732070Y-104694160D01*
X167720231Y-104686184D01*
X167699088Y-104673743D01*
X167674740Y-104660844D01*
X167650806Y-104649182D01*
X167628338Y-104638906D01*
X167616427Y-104633672D01*
X167367910Y-104529258D01*
X167340473Y-104517194D01*
X167314186Y-104504662D01*
X167289049Y-104491663D01*
X167265061Y-104478196D01*
X167242223Y-104464262D01*
X167220535Y-104449860D01*
X167199996Y-104434991D01*
X167180607Y-104419654D01*
X167153678Y-104395772D01*
X167129337Y-104370839D01*
X167107582Y-104344854D01*
X167088414Y-104317816D01*
X167071833Y-104289727D01*
X167066881Y-104280130D01*
X167053241Y-104250358D01*
X167040942Y-104219201D01*
X167029985Y-104186659D01*
X167020370Y-104152733D01*
X167012096Y-104117422D01*
X167007326Y-104093112D01*
X167003152Y-104068187D01*
X166999574Y-104042647D01*
X166996593Y-104016491D01*
X166994207Y-103989719D01*
X166992418Y-103962333D01*
X166991226Y-103934331D01*
X166990630Y-103905713D01*
X166990555Y-103891174D01*
X166990882Y-103865188D01*
X166991865Y-103839439D01*
X166993501Y-103813926D01*
X166995793Y-103788649D01*
X166998739Y-103763608D01*
X167002340Y-103738803D01*
X167006596Y-103714235D01*
X167011507Y-103689902D01*
X167017072Y-103665806D01*
X167023292Y-103641946D01*
X167027802Y-103626170D01*
X167035233Y-103602891D01*
X167046176Y-103572805D01*
X167058303Y-103543806D01*
X167071612Y-103515894D01*
X167086104Y-103489070D01*
X167101780Y-103463334D01*
X167118638Y-103438686D01*
X167136680Y-103415125D01*
X167141375Y-103409405D01*
X167159999Y-103387385D01*
X167179843Y-103366509D01*
X167200909Y-103346779D01*
X167223196Y-103328194D01*
X167246705Y-103310753D01*
X167271434Y-103294458D01*
X167297385Y-103279307D01*
X167324557Y-103265301D01*
X167353160Y-103252564D01*
X167383099Y-103241526D01*
X167414374Y-103232185D01*
X167438706Y-103226295D01*
X167463790Y-103221359D01*
X167489625Y-103217379D01*
X167516211Y-103214354D01*
X167543549Y-103212284D01*
X167571638Y-103211170D01*
X167590782Y-103210957D01*
X167622953Y-103211721D01*
X167654438Y-103214010D01*
X167685235Y-103217827D01*
X167715346Y-103223169D01*
X167744769Y-103230039D01*
X167773506Y-103238435D01*
X167801556Y-103248357D01*
X167828919Y-103259806D01*
X167855480Y-103272514D01*
X167881126Y-103286215D01*
X167905855Y-103300907D01*
X167929669Y-103316592D01*
X167952567Y-103333270D01*
X167974548Y-103350939D01*
X167995614Y-103369601D01*
X168015764Y-103389255D01*
X168034915Y-103410361D01*
X168052830Y-103431854D01*
X168069510Y-103453733D01*
X168084954Y-103475999D01*
X168099162Y-103498651D01*
X168112135Y-103521690D01*
X168123873Y-103545114D01*
X168134375Y-103568926D01*
X168143641Y-103593123D01*
X168151672Y-103617707D01*
X168158468Y-103642678D01*
X168164027Y-103668035D01*
X168168352Y-103693778D01*
X168171441Y-103719908D01*
X168173294Y-103746424D01*
X168173912Y-103773326D01*
X168173912Y-103947960D01*
G37*
G36*
X169592963Y-105006753D02*
G01*
X169592963Y-105160626D01*
X169592285Y-105189286D01*
X169590253Y-105217565D01*
X169586866Y-105245462D01*
X169582124Y-105272978D01*
X169576028Y-105300111D01*
X169568576Y-105326864D01*
X169559770Y-105353234D01*
X169549610Y-105379223D01*
X169538409Y-105404668D01*
X169526177Y-105429407D01*
X169512916Y-105453441D01*
X169498624Y-105476768D01*
X169483301Y-105499389D01*
X169466949Y-105521304D01*
X169449565Y-105542513D01*
X169431152Y-105563016D01*
X169411670Y-105582498D01*
X169391386Y-105600950D01*
X169370301Y-105618371D01*
X169348414Y-105634762D01*
X169325727Y-105650123D01*
X169302237Y-105664453D01*
X169277947Y-105677753D01*
X169252854Y-105690022D01*
X169227266Y-105701042D01*
X169201182Y-105710592D01*
X169174601Y-105718673D01*
X169147525Y-105725285D01*
X169119952Y-105730427D01*
X169091883Y-105734100D01*
X169063318Y-105736304D01*
X169034257Y-105737039D01*
X169009031Y-105736610D01*
X168983729Y-105735322D01*
X168958351Y-105733175D01*
X168932896Y-105730170D01*
X168907365Y-105726306D01*
X168881758Y-105721583D01*
X168856074Y-105716002D01*
X168830314Y-105709562D01*
X168804831Y-105701891D01*
X168779977Y-105692923D01*
X168755753Y-105682657D01*
X168732159Y-105671093D01*
X168709195Y-105658232D01*
X168686860Y-105644074D01*
X168665155Y-105628618D01*
X168644079Y-105611864D01*
X168623776Y-105593699D01*
X168604390Y-105574312D01*
X168585919Y-105553704D01*
X168568364Y-105531875D01*
X168551725Y-105508825D01*
X168536002Y-105484553D01*
X168521194Y-105459060D01*
X168507303Y-105432346D01*
X168494852Y-105403905D01*
X168484062Y-105373537D01*
X168477058Y-105349496D01*
X168470989Y-105324371D01*
X168465853Y-105298162D01*
X168461651Y-105270869D01*
X168458382Y-105242492D01*
X168456048Y-105213031D01*
X168454647Y-105182485D01*
X168454180Y-105150856D01*
X168454180Y-103783096D01*
X168454820Y-103752842D01*
X168456737Y-103723142D01*
X168459933Y-103693995D01*
X168464408Y-103665402D01*
X168470161Y-103637361D01*
X168477193Y-103609875D01*
X168485503Y-103582941D01*
X168495091Y-103556561D01*
X168506006Y-103530753D01*
X168517989Y-103505842D01*
X168531041Y-103481828D01*
X168545161Y-103458711D01*
X168560350Y-103436491D01*
X168576607Y-103415167D01*
X168593933Y-103394740D01*
X168612328Y-103375211D01*
X168632001Y-103356501D01*
X168652551Y-103338841D01*
X168673980Y-103322231D01*
X168696286Y-103306670D01*
X168719470Y-103292158D01*
X168743532Y-103278697D01*
X168768471Y-103266284D01*
X168794288Y-103254921D01*
X168820898Y-103244617D01*
X168848213Y-103235687D01*
X168876234Y-103228131D01*
X168904961Y-103221948D01*
X168934394Y-103217140D01*
X168964533Y-103213705D01*
X168995379Y-103211644D01*
X169026930Y-103210957D01*
X169057632Y-103211599D01*
X169087609Y-103213524D01*
X169116861Y-103216732D01*
X169145388Y-103221223D01*
X169173189Y-103226998D01*
X169200266Y-103234055D01*
X169226617Y-103242396D01*
X169252244Y-103252021D01*
X169277145Y-103262928D01*
X169301321Y-103275119D01*
X169324773Y-103288593D01*
X169347499Y-103303350D01*
X169369499Y-103319390D01*
X169390775Y-103336714D01*
X169411326Y-103355321D01*
X169431152Y-103375211D01*
X169449565Y-103395819D01*
X169466949Y-103417342D01*
X169483301Y-103439782D01*
X169498624Y-103463138D01*
X169512916Y-103487410D01*
X169526177Y-103512597D01*
X169538409Y-103538701D01*
X169549610Y-103565720D01*
X169559770Y-103593369D01*
X169568576Y-103621667D01*
X169576028Y-103650613D01*
X169582124Y-103680209D01*
X169586866Y-103710453D01*
X169590253Y-103741346D01*
X169592285Y-103772888D01*
X169592963Y-103805078D01*
X169592963Y-103944296D01*
X169235757Y-103944296D01*
X169235757Y-103825839D01*
X169234861Y-103800174D01*
X169232170Y-103775387D01*
X169226285Y-103745638D01*
X169217597Y-103717260D01*
X169206106Y-103690254D01*
X169191813Y-103664619D01*
X169178360Y-103645099D01*
X169159616Y-103622935D01*
X169138874Y-103604527D01*
X169116134Y-103589876D01*
X169091397Y-103578982D01*
X169064662Y-103571844D01*
X169035929Y-103568463D01*
X169023877Y-103568162D01*
X168993165Y-103569441D01*
X168965144Y-103573276D01*
X168939813Y-103579669D01*
X168911934Y-103591255D01*
X168888258Y-103606836D01*
X168868786Y-103626412D01*
X168853517Y-103649984D01*
X168841380Y-103676626D01*
X168831299Y-103705415D01*
X168824716Y-103729992D01*
X168819450Y-103755943D01*
X168815500Y-103783268D01*
X168812867Y-103811966D01*
X168811550Y-103842039D01*
X168811385Y-103857590D01*
X168811385Y-105125211D01*
X168812092Y-105151686D01*
X168814210Y-105177074D01*
X168817740Y-105201374D01*
X168824138Y-105230220D01*
X168832742Y-105257366D01*
X168843553Y-105282813D01*
X168856570Y-105306561D01*
X168872641Y-105327670D01*
X168892229Y-105345201D01*
X168915335Y-105359154D01*
X168941960Y-105369530D01*
X168965793Y-105375254D01*
X168991877Y-105378689D01*
X169020213Y-105379834D01*
X169046088Y-105378116D01*
X169071013Y-105373525D01*
X169092265Y-105367622D01*
X169116152Y-105358439D01*
X169138967Y-105346155D01*
X169160708Y-105330771D01*
X169164927Y-105327322D01*
X169182995Y-105308061D01*
X169197522Y-105287158D01*
X169210408Y-105262874D01*
X169215607Y-105250996D01*
X169224423Y-105225045D01*
X169230071Y-105199833D01*
X169233790Y-105172285D01*
X169235443Y-105146811D01*
X169235757Y-105128874D01*
X169235757Y-105006753D01*
X169592963Y-105006753D01*
G37*
G36*
X171139020Y-105717500D02*
G01*
X170782425Y-105717500D01*
X170677401Y-105170396D01*
X170190747Y-105170396D01*
X170085723Y-105717500D01*
X169728517Y-105717500D01*
X169929867Y-104813190D01*
X170253640Y-104813190D01*
X170610845Y-104813190D01*
X170435600Y-103923536D01*
X170428884Y-103923536D01*
X170253640Y-104813190D01*
X169929867Y-104813190D01*
X170285391Y-103216453D01*
X170582757Y-103216453D01*
X171139020Y-105717500D01*
G37*
G36*
X171918680Y-103217177D02*
G01*
X171956437Y-103219351D01*
X171992955Y-103222973D01*
X172028236Y-103228045D01*
X172062278Y-103234565D01*
X172095083Y-103242535D01*
X172126649Y-103251953D01*
X172156978Y-103262821D01*
X172186069Y-103275137D01*
X172213922Y-103288903D01*
X172240537Y-103304117D01*
X172265914Y-103320781D01*
X172290054Y-103338893D01*
X172312955Y-103358455D01*
X172334618Y-103379465D01*
X172355044Y-103401925D01*
X172374232Y-103425833D01*
X172392181Y-103451191D01*
X172408893Y-103477997D01*
X172424367Y-103506253D01*
X172438603Y-103535957D01*
X172451601Y-103567111D01*
X172463361Y-103599713D01*
X172473883Y-103633765D01*
X172483168Y-103669265D01*
X172491214Y-103706215D01*
X172498023Y-103744613D01*
X172503593Y-103784460D01*
X172507926Y-103825757D01*
X172511021Y-103868502D01*
X172512877Y-103912697D01*
X172513496Y-103958340D01*
X172513229Y-103985939D01*
X172512428Y-104013018D01*
X172511092Y-104039577D01*
X172509222Y-104065616D01*
X172506818Y-104091136D01*
X172503879Y-104116135D01*
X172500407Y-104140614D01*
X172494196Y-104176358D01*
X172486782Y-104210931D01*
X172478167Y-104244335D01*
X172468350Y-104276569D01*
X172457330Y-104307633D01*
X172445108Y-104337527D01*
X172431379Y-104366305D01*
X172415835Y-104394020D01*
X172398478Y-104420673D01*
X172379306Y-104446263D01*
X172358321Y-104470791D01*
X172335521Y-104494255D01*
X172310908Y-104516658D01*
X172284481Y-104537997D01*
X172256239Y-104558274D01*
X172226184Y-104577489D01*
X172205140Y-104589708D01*
X172590433Y-105717500D01*
X172212467Y-105717500D01*
X171876023Y-104662370D01*
X171659257Y-104662370D01*
X171659257Y-105717500D01*
X171302052Y-105717500D01*
X171302052Y-103573658D01*
X171659257Y-103573658D01*
X171659257Y-104349740D01*
X171865032Y-104349740D01*
X171894036Y-104349099D01*
X171921131Y-104347175D01*
X171946319Y-104343970D01*
X171974025Y-104338432D01*
X171998984Y-104331047D01*
X172017683Y-104323483D01*
X172041359Y-104310915D01*
X172062697Y-104296185D01*
X172081697Y-104279293D01*
X172098360Y-104260238D01*
X172106832Y-104248379D01*
X172118273Y-104226135D01*
X172128020Y-104201612D01*
X172136071Y-104174811D01*
X172141624Y-104150024D01*
X172145300Y-104128089D01*
X172149036Y-104100276D01*
X172151558Y-104075884D01*
X172153544Y-104050389D01*
X172154993Y-104023792D01*
X172155905Y-103996091D01*
X172156281Y-103967287D01*
X172156291Y-103961393D01*
X172156023Y-103932560D01*
X172155218Y-103904829D01*
X172153876Y-103878201D01*
X172151998Y-103852677D01*
X172149583Y-103828255D01*
X172145977Y-103800406D01*
X172145300Y-103795919D01*
X172140656Y-103769608D01*
X172134510Y-103744714D01*
X172126861Y-103721236D01*
X172116037Y-103695637D01*
X172103168Y-103671966D01*
X172084354Y-103648925D01*
X172061800Y-103628956D01*
X172035506Y-103612059D01*
X172013331Y-103601403D01*
X171989052Y-103592475D01*
X171962669Y-103585274D01*
X171934183Y-103579802D01*
X171903593Y-103576058D01*
X171870899Y-103574042D01*
X171847935Y-103573658D01*
X171659257Y-103573658D01*
X171302052Y-103573658D01*
X171302052Y-103216453D01*
X171879686Y-103216453D01*
X171918680Y-103217177D01*
G37*
G36*
X172996487Y-105717500D02*
G01*
X172996487Y-103573658D01*
X172572115Y-103573658D01*
X172572115Y-103216453D01*
X173744480Y-103216453D01*
X173744480Y-103573658D01*
X173353692Y-103573658D01*
X173353692Y-105717500D01*
X172996487Y-105717500D01*
G37*
G36*
X174806326Y-105717500D02*
G01*
X174806326Y-103573658D01*
X174381954Y-103573658D01*
X174381954Y-103216453D01*
X175554320Y-103216453D01*
X175554320Y-103573658D01*
X175163531Y-103573658D01*
X175163531Y-105717500D01*
X174806326Y-105717500D01*
G37*
G36*
X176005451Y-103940023D02*
G01*
X176035583Y-103941859D01*
X176064814Y-103944918D01*
X176093143Y-103949200D01*
X176120570Y-103954707D01*
X176147095Y-103961436D01*
X176172719Y-103969390D01*
X176197442Y-103978567D01*
X176221263Y-103988967D01*
X176244182Y-104000592D01*
X176258961Y-104009021D01*
X176280459Y-104022355D01*
X176300992Y-104036484D01*
X176320559Y-104051407D01*
X176345146Y-104072539D01*
X176368015Y-104095084D01*
X176389167Y-104119041D01*
X176408601Y-104144410D01*
X176426318Y-104171191D01*
X176438479Y-104192203D01*
X176449904Y-104214448D01*
X176460136Y-104237676D01*
X176469176Y-104261889D01*
X176477024Y-104287086D01*
X176483678Y-104313266D01*
X176489140Y-104340430D01*
X176490991Y-104351571D01*
X176495037Y-104380053D01*
X176498397Y-104409400D01*
X176501072Y-104439612D01*
X176502717Y-104464403D01*
X176503924Y-104489748D01*
X176504692Y-104515646D01*
X176505021Y-104542098D01*
X176505035Y-104548797D01*
X176505035Y-105128264D01*
X176504816Y-105154577D01*
X176504157Y-105180394D01*
X176503060Y-105205715D01*
X176501524Y-105230540D01*
X176498987Y-105260874D01*
X176495764Y-105290432D01*
X176491855Y-105319216D01*
X176490991Y-105324879D01*
X176486006Y-105352613D01*
X176479829Y-105379333D01*
X176472458Y-105405039D01*
X176463896Y-105429732D01*
X176454140Y-105453411D01*
X176443192Y-105476076D01*
X176438479Y-105484858D01*
X176422050Y-105512698D01*
X176403903Y-105539126D01*
X176384040Y-105564142D01*
X176362458Y-105587745D01*
X176339160Y-105609937D01*
X176314144Y-105630717D01*
X176294255Y-105645375D01*
X176273400Y-105659239D01*
X176258961Y-105668040D01*
X176236642Y-105680371D01*
X176213423Y-105691489D01*
X176189301Y-105701394D01*
X176164278Y-105710086D01*
X176138354Y-105717566D01*
X176111528Y-105723832D01*
X176083800Y-105728886D01*
X176055170Y-105732727D01*
X176025639Y-105735354D01*
X175995207Y-105736769D01*
X175974418Y-105737039D01*
X175943488Y-105736432D01*
X175913438Y-105734613D01*
X175884268Y-105731581D01*
X175855979Y-105727336D01*
X175828570Y-105721878D01*
X175802040Y-105715207D01*
X175776391Y-105707324D01*
X175751622Y-105698227D01*
X175727734Y-105687918D01*
X175704725Y-105676396D01*
X175689875Y-105668040D01*
X175668485Y-105654706D01*
X175648050Y-105640577D01*
X175628571Y-105625654D01*
X175604085Y-105604522D01*
X175581297Y-105581977D01*
X175560207Y-105558020D01*
X175540816Y-105532651D01*
X175523122Y-105505870D01*
X175510967Y-105484858D01*
X175499542Y-105462598D01*
X175489309Y-105439325D01*
X175480269Y-105415038D01*
X175472422Y-105389737D01*
X175465768Y-105363423D01*
X175460305Y-105336094D01*
X175458455Y-105324879D01*
X175454409Y-105296251D01*
X175451049Y-105266848D01*
X175448374Y-105236669D01*
X175446728Y-105211968D01*
X175445522Y-105186771D01*
X175445324Y-105180165D01*
X175801616Y-105180165D01*
X175802749Y-105210236D01*
X175806148Y-105237863D01*
X175811812Y-105263044D01*
X175821601Y-105290035D01*
X175834653Y-105313505D01*
X175848022Y-105330375D01*
X175866791Y-105347183D01*
X175887835Y-105360514D01*
X175911155Y-105370367D01*
X175936751Y-105376743D01*
X175964622Y-105379641D01*
X175974418Y-105379834D01*
X176003233Y-105378095D01*
X176029687Y-105372879D01*
X176053780Y-105364185D01*
X176075511Y-105352013D01*
X176094881Y-105336364D01*
X176100813Y-105330375D01*
X176116792Y-105309838D01*
X176129464Y-105285781D01*
X176138831Y-105258204D01*
X176144111Y-105232533D01*
X176147095Y-105204418D01*
X176147830Y-105180165D01*
X176147830Y-104496285D01*
X176146682Y-104466229D01*
X176143239Y-104438647D01*
X176137499Y-104413540D01*
X176127582Y-104386678D01*
X176114358Y-104363380D01*
X176100813Y-104346687D01*
X176082230Y-104329671D01*
X176061286Y-104316175D01*
X176037980Y-104306200D01*
X176012313Y-104299746D01*
X175984285Y-104296812D01*
X175974418Y-104296617D01*
X175945788Y-104298377D01*
X175919434Y-104303658D01*
X175895356Y-104312459D01*
X175873553Y-104324781D01*
X175854025Y-104340623D01*
X175848022Y-104346687D01*
X175832251Y-104367015D01*
X175819743Y-104390908D01*
X175810498Y-104418364D01*
X175805287Y-104443966D01*
X175802341Y-104472042D01*
X175801616Y-104496285D01*
X175801616Y-105180165D01*
X175445324Y-105180165D01*
X175444753Y-105161078D01*
X175444424Y-105134888D01*
X175444411Y-105128264D01*
X175444411Y-104548797D01*
X175444630Y-104522207D01*
X175445288Y-104496171D01*
X175446386Y-104470687D01*
X175447922Y-104445758D01*
X175449897Y-104421381D01*
X175452982Y-104391688D01*
X175456754Y-104362860D01*
X175458455Y-104351571D01*
X175463440Y-104324014D01*
X175469617Y-104297440D01*
X175476987Y-104271850D01*
X175485550Y-104247243D01*
X175495306Y-104223621D01*
X175506254Y-104200983D01*
X175510967Y-104192203D01*
X175527386Y-104164363D01*
X175545504Y-104137935D01*
X175565320Y-104112919D01*
X175586835Y-104089316D01*
X175610047Y-104067124D01*
X175634958Y-104046344D01*
X175654756Y-104031686D01*
X175675509Y-104017822D01*
X175689875Y-104009021D01*
X175712297Y-103996581D01*
X175735599Y-103985365D01*
X175759781Y-103975372D01*
X175784843Y-103966603D01*
X175810786Y-103959057D01*
X175837608Y-103952735D01*
X175865311Y-103947637D01*
X175893894Y-103943762D01*
X175923357Y-103941111D01*
X175953700Y-103939683D01*
X175974418Y-103939412D01*
X176005451Y-103940023D01*
G37*
G36*
X178650098Y-103216453D02*
G01*
X178139630Y-105717500D01*
X177824557Y-105717500D01*
X177317143Y-103216453D01*
X177695108Y-103216453D01*
X177978430Y-104962178D01*
X177985147Y-104962178D01*
X178272132Y-103216453D01*
X178650098Y-103216453D01*
G37*
G36*
X178851598Y-103818511D02*
G01*
X178852065Y-103790653D01*
X178853466Y-103763406D01*
X178855800Y-103736772D01*
X178859069Y-103710749D01*
X178863271Y-103685338D01*
X178868407Y-103660538D01*
X178874476Y-103636351D01*
X178881480Y-103612775D01*
X178892270Y-103582292D01*
X178904721Y-103552897D01*
X178918555Y-103524657D01*
X178933496Y-103497637D01*
X178949544Y-103471839D01*
X178966698Y-103447262D01*
X178984959Y-103423907D01*
X179004326Y-103401772D01*
X179024801Y-103380859D01*
X179046382Y-103361167D01*
X179068097Y-103343259D01*
X179090498Y-103326477D01*
X179113587Y-103310820D01*
X179137362Y-103296290D01*
X179161825Y-103282885D01*
X179186974Y-103270606D01*
X179212811Y-103259453D01*
X179239334Y-103249426D01*
X179266382Y-103240410D01*
X179293487Y-103232596D01*
X179320650Y-103225984D01*
X179347869Y-103220574D01*
X179375146Y-103216367D01*
X179402480Y-103213362D01*
X179429872Y-103211558D01*
X179457321Y-103210957D01*
X179484760Y-103211558D01*
X179512123Y-103213362D01*
X179539409Y-103216367D01*
X179566619Y-103220574D01*
X179593753Y-103225984D01*
X179620811Y-103232596D01*
X179647792Y-103240410D01*
X179674697Y-103249426D01*
X179701420Y-103259586D01*
X179727552Y-103270835D01*
X179753093Y-103283171D01*
X179778042Y-103296595D01*
X179802399Y-103311106D01*
X179826165Y-103326705D01*
X179849340Y-103343392D01*
X179871923Y-103361167D01*
X179892645Y-103381002D01*
X179912376Y-103402039D01*
X179931114Y-103424279D01*
X179948859Y-103447720D01*
X179965613Y-103472364D01*
X179981374Y-103498210D01*
X179996143Y-103525258D01*
X180009920Y-103553508D01*
X180022371Y-103582912D01*
X180033161Y-103613424D01*
X180040165Y-103637033D01*
X180046234Y-103661266D01*
X180051370Y-103686121D01*
X180055572Y-103711598D01*
X180058841Y-103737698D01*
X180061175Y-103764420D01*
X180062576Y-103791765D01*
X180063043Y-103819733D01*
X180063043Y-103944907D01*
X179705838Y-103944907D01*
X179705838Y-103819733D01*
X179704683Y-103788439D01*
X179701220Y-103759282D01*
X179695448Y-103732263D01*
X179687367Y-103707381D01*
X179676977Y-103684636D01*
X179660743Y-103659210D01*
X179640901Y-103637123D01*
X179631954Y-103629223D01*
X179608225Y-103611632D01*
X179583213Y-103597023D01*
X179556919Y-103585395D01*
X179529344Y-103576749D01*
X179500486Y-103571084D01*
X179470346Y-103568401D01*
X179457931Y-103568162D01*
X179433020Y-103569117D01*
X179403089Y-103572992D01*
X179374500Y-103579850D01*
X179347252Y-103589689D01*
X179321346Y-103602509D01*
X179296782Y-103618311D01*
X179282687Y-103629223D01*
X179261402Y-103649974D01*
X179243725Y-103674065D01*
X179232181Y-103695741D01*
X179222945Y-103719555D01*
X179216019Y-103745506D01*
X179211401Y-103773594D01*
X179209092Y-103803819D01*
X179208804Y-103819733D01*
X179208804Y-105128874D01*
X179209958Y-105160025D01*
X179213421Y-105189057D01*
X179219193Y-105215972D01*
X179227274Y-105240768D01*
X179237664Y-105263446D01*
X179253898Y-105288816D01*
X179273740Y-105310876D01*
X179282687Y-105318773D01*
X179306446Y-105336364D01*
X179331547Y-105350973D01*
X179357990Y-105362601D01*
X179385775Y-105371247D01*
X179414901Y-105376912D01*
X179445368Y-105379595D01*
X179457931Y-105379834D01*
X179482556Y-105378880D01*
X179512183Y-105375004D01*
X179540528Y-105368146D01*
X179567591Y-105358307D01*
X179593371Y-105345487D01*
X179617870Y-105329685D01*
X179631954Y-105318773D01*
X179653239Y-105298037D01*
X179670916Y-105273991D01*
X179682461Y-105252372D01*
X179691696Y-105228635D01*
X179698623Y-105202779D01*
X179703240Y-105174806D01*
X179705549Y-105144714D01*
X179705838Y-105128874D01*
X179705838Y-104662370D01*
X179414578Y-104662370D01*
X179414578Y-104349740D01*
X180063043Y-104349740D01*
X180063043Y-105130706D01*
X180062576Y-105159733D01*
X180061175Y-105187965D01*
X180058841Y-105215403D01*
X180055572Y-105242046D01*
X180051370Y-105267896D01*
X180046234Y-105292951D01*
X180040165Y-105317212D01*
X180033161Y-105340679D01*
X180022371Y-105370732D01*
X180009920Y-105399373D01*
X179996143Y-105426564D01*
X179981374Y-105452572D01*
X179965613Y-105477397D01*
X179948859Y-105501039D01*
X179931114Y-105523498D01*
X179912376Y-105544774D01*
X179892645Y-105564867D01*
X179871923Y-105583777D01*
X179849340Y-105602410D01*
X179826165Y-105619841D01*
X179802399Y-105636069D01*
X179778042Y-105651096D01*
X179753093Y-105664921D01*
X179727552Y-105677543D01*
X179701420Y-105688963D01*
X179674697Y-105699181D01*
X179647792Y-105708054D01*
X179620811Y-105715744D01*
X179593753Y-105722251D01*
X179566619Y-105727575D01*
X179539409Y-105731715D01*
X179512123Y-105734673D01*
X179484760Y-105736447D01*
X179457321Y-105737039D01*
X179429872Y-105736447D01*
X179402480Y-105734673D01*
X179375146Y-105731715D01*
X179347869Y-105727575D01*
X179320650Y-105722251D01*
X179293487Y-105715744D01*
X179266382Y-105708054D01*
X179239334Y-105699181D01*
X179212811Y-105688963D01*
X179186974Y-105677543D01*
X179161825Y-105664921D01*
X179137362Y-105651096D01*
X179113587Y-105636069D01*
X179090498Y-105619841D01*
X179068097Y-105602410D01*
X179046382Y-105583777D01*
X179024801Y-105564857D01*
X179004326Y-105544736D01*
X178984959Y-105523412D01*
X178966698Y-105500887D01*
X178949544Y-105477159D01*
X178933496Y-105452229D01*
X178918555Y-105426097D01*
X178904721Y-105398763D01*
X178892270Y-105370121D01*
X178881480Y-105340068D01*
X178874476Y-105316601D01*
X178868407Y-105292340D01*
X178863271Y-105267285D01*
X178859069Y-105241436D01*
X178855800Y-105214792D01*
X178853466Y-105187354D01*
X178852065Y-105159122D01*
X178851598Y-105130095D01*
X178851598Y-103818511D01*
G37*
G36*
X181602383Y-105717500D02*
G01*
X181245789Y-105717500D01*
X181140764Y-105170396D01*
X180654111Y-105170396D01*
X180549086Y-105717500D01*
X180191881Y-105717500D01*
X180393231Y-104813190D01*
X180717003Y-104813190D01*
X181074208Y-104813190D01*
X180898964Y-103923536D01*
X180892247Y-103923536D01*
X180717003Y-104813190D01*
X180393231Y-104813190D01*
X180748755Y-103216453D01*
X181046120Y-103216453D01*
X181602383Y-105717500D01*
G37*
G36*
X166553521Y-107531871D02*
G01*
X166553521Y-108677859D01*
X166553143Y-108696894D01*
X166552009Y-108715531D01*
X166550120Y-108733771D01*
X166547476Y-108751613D01*
X166544075Y-108769056D01*
X166539919Y-108786102D01*
X166535008Y-108802750D01*
X166529341Y-108819001D01*
X166522918Y-108834853D01*
X166515739Y-108850308D01*
X166507805Y-108865364D01*
X166499116Y-108880023D01*
X166489670Y-108894284D01*
X166479469Y-108908147D01*
X166468513Y-108921613D01*
X166456800Y-108934680D01*
X166444430Y-108947074D01*
X166431498Y-108958792D01*
X166418006Y-108969834D01*
X166403952Y-108980201D01*
X166389338Y-108989892D01*
X166374162Y-108998908D01*
X166358426Y-109007249D01*
X166342128Y-109014914D01*
X166325293Y-109021783D01*
X166307759Y-109027737D01*
X166289527Y-109032774D01*
X166270596Y-109036896D01*
X166255939Y-109039386D01*
X166240890Y-109041361D01*
X166225448Y-109042821D01*
X166209613Y-109043765D01*
X166193386Y-109044195D01*
X166187889Y-109044223D01*
X166168892Y-109043827D01*
X166150507Y-109042639D01*
X166132734Y-109040659D01*
X166115572Y-109037886D01*
X166099022Y-109034322D01*
X166083085Y-109029965D01*
X166067758Y-109024816D01*
X166053044Y-109018875D01*
X166038942Y-109012142D01*
X166025451Y-109004617D01*
X166016797Y-108999160D01*
X166004268Y-108990718D01*
X165992235Y-108982288D01*
X165976962Y-108971068D01*
X165962571Y-108959871D01*
X165949061Y-108948697D01*
X165936433Y-108937545D01*
X165924686Y-108926417D01*
X165913821Y-108915312D01*
X165908719Y-108909767D01*
X166076514Y-108774945D01*
X166088673Y-108786051D01*
X166101702Y-108796286D01*
X166115601Y-108805651D01*
X166128476Y-108813132D01*
X166130370Y-108814146D01*
X166143814Y-108820285D01*
X166159522Y-108825454D01*
X166175596Y-108828654D01*
X166192036Y-108829885D01*
X166194117Y-108829900D01*
X166209281Y-108828870D01*
X166224720Y-108826115D01*
X166238447Y-108822573D01*
X166252493Y-108817379D01*
X166266191Y-108810041D01*
X166279541Y-108800558D01*
X166286807Y-108794363D01*
X166297821Y-108783853D01*
X166307782Y-108771373D01*
X166315633Y-108758839D01*
X166322678Y-108744796D01*
X166324543Y-108740507D01*
X166329523Y-108726683D01*
X166333473Y-108711313D01*
X166336393Y-108694397D01*
X166338038Y-108679120D01*
X166338969Y-108662769D01*
X166339198Y-108648916D01*
X166339198Y-107531871D01*
X166553521Y-107531871D01*
G37*
G36*
X167056327Y-107966042D02*
G01*
X167074010Y-107967227D01*
X167091269Y-107969202D01*
X167108105Y-107971967D01*
X167124517Y-107975521D01*
X167140505Y-107979866D01*
X167156070Y-107985001D01*
X167171211Y-107990926D01*
X167185860Y-107997452D01*
X167199947Y-108004573D01*
X167213474Y-108012289D01*
X167226440Y-108020601D01*
X167238845Y-108029509D01*
X167250689Y-108039011D01*
X167261972Y-108049109D01*
X167272694Y-108059802D01*
X167282853Y-108071713D01*
X167292357Y-108084000D01*
X167301206Y-108096661D01*
X167309399Y-108109697D01*
X167316936Y-108123108D01*
X167323819Y-108136893D01*
X167330045Y-108151054D01*
X167335617Y-108165590D01*
X167340533Y-108180501D01*
X167344793Y-108195786D01*
X167348398Y-108211447D01*
X167351348Y-108227483D01*
X167353642Y-108243893D01*
X167355280Y-108260679D01*
X167356263Y-108277839D01*
X167356591Y-108295375D01*
X167356591Y-108587001D01*
X166934539Y-108587001D01*
X166934539Y-108727684D01*
X166935219Y-108742480D01*
X166937830Y-108758795D01*
X166942398Y-108773538D01*
X166948924Y-108786710D01*
X166959011Y-108800091D01*
X166962383Y-108803522D01*
X166975654Y-108813800D01*
X166990784Y-108821554D01*
X167005231Y-108826191D01*
X167021043Y-108828973D01*
X167038221Y-108829900D01*
X167056118Y-108829059D01*
X167072031Y-108826537D01*
X167088504Y-108821290D01*
X167102118Y-108813623D01*
X167112873Y-108803533D01*
X167118454Y-108795462D01*
X167125319Y-108782423D01*
X167131929Y-108767244D01*
X167137030Y-108752099D01*
X167140624Y-108736990D01*
X167142268Y-108726219D01*
X167356591Y-108726219D01*
X167356256Y-108743411D01*
X167355252Y-108760182D01*
X167353577Y-108776533D01*
X167351233Y-108792462D01*
X167348219Y-108807971D01*
X167344535Y-108823059D01*
X167340182Y-108837727D01*
X167335159Y-108851974D01*
X167329466Y-108865799D01*
X167323103Y-108879205D01*
X167316071Y-108892189D01*
X167308368Y-108904753D01*
X167299996Y-108916896D01*
X167290955Y-108928618D01*
X167281243Y-108939920D01*
X167270862Y-108950800D01*
X167260071Y-108961408D01*
X167248766Y-108971431D01*
X167236945Y-108980871D01*
X167224608Y-108989726D01*
X167211757Y-108997998D01*
X167198390Y-109005686D01*
X167184509Y-109012790D01*
X167170112Y-109019310D01*
X167155228Y-109025149D01*
X167139887Y-109030210D01*
X167124087Y-109034492D01*
X167107830Y-109037995D01*
X167091114Y-109040720D01*
X167073941Y-109042666D01*
X167056310Y-109043834D01*
X167038221Y-109044223D01*
X167019663Y-109043859D01*
X167001633Y-109042768D01*
X166984131Y-109040948D01*
X166967157Y-109038401D01*
X166950712Y-109035127D01*
X166934794Y-109031124D01*
X166919405Y-109026394D01*
X166904543Y-109020936D01*
X166890210Y-109014751D01*
X166876405Y-109007837D01*
X166867495Y-109002824D01*
X166854661Y-108994823D01*
X166842400Y-108986346D01*
X166830713Y-108977392D01*
X166816021Y-108964713D01*
X166802348Y-108951186D01*
X166789694Y-108936812D01*
X166778059Y-108921591D01*
X166767443Y-108905522D01*
X166760150Y-108892915D01*
X166753295Y-108879559D01*
X166747156Y-108865595D01*
X166741732Y-108851023D01*
X166737023Y-108835842D01*
X166733031Y-108820053D01*
X166729753Y-108803656D01*
X166728643Y-108796927D01*
X166726215Y-108779750D01*
X166724199Y-108762108D01*
X166722595Y-108744001D01*
X166721607Y-108729181D01*
X166720883Y-108714062D01*
X166720422Y-108698646D01*
X166720225Y-108682933D01*
X166720216Y-108678958D01*
X166720216Y-108422869D01*
X166934539Y-108422869D01*
X167142268Y-108422869D01*
X167142268Y-108301603D01*
X167141827Y-108286794D01*
X167140037Y-108269651D01*
X167136868Y-108254028D01*
X167132323Y-108239927D01*
X167125050Y-108225012D01*
X167115794Y-108212286D01*
X167114058Y-108210378D01*
X167102908Y-108200044D01*
X167090342Y-108191848D01*
X167076358Y-108185790D01*
X167060958Y-108181870D01*
X167044141Y-108180089D01*
X167038221Y-108179970D01*
X167021043Y-108181039D01*
X167005231Y-108184246D01*
X166990784Y-108189591D01*
X166977702Y-108197074D01*
X166965985Y-108206696D01*
X166962383Y-108210378D01*
X166952921Y-108222739D01*
X166945416Y-108237289D01*
X166939869Y-108254028D01*
X166936742Y-108269651D01*
X166934975Y-108286794D01*
X166934539Y-108301603D01*
X166934539Y-108422869D01*
X166720216Y-108422869D01*
X166720216Y-108331278D01*
X166720348Y-108315324D01*
X166720743Y-108299702D01*
X166721401Y-108284412D01*
X166722323Y-108269454D01*
X166723508Y-108254828D01*
X166725359Y-108237013D01*
X166727622Y-108219716D01*
X166728643Y-108212943D01*
X166731634Y-108196408D01*
X166735340Y-108180464D01*
X166739762Y-108165110D01*
X166744900Y-108150346D01*
X166750753Y-108136172D01*
X166757322Y-108122589D01*
X166760150Y-108117322D01*
X166770002Y-108100618D01*
X166780873Y-108084761D01*
X166792762Y-108069751D01*
X166805671Y-108055589D01*
X166819598Y-108042274D01*
X166834545Y-108029806D01*
X166846423Y-108021011D01*
X166858875Y-108012693D01*
X166867495Y-108007412D01*
X166880948Y-107999948D01*
X166894929Y-107993219D01*
X166909438Y-107987223D01*
X166924476Y-107981961D01*
X166940041Y-107977434D01*
X166956135Y-107973641D01*
X166972757Y-107970582D01*
X166989906Y-107968257D01*
X167007584Y-107966666D01*
X167025790Y-107965810D01*
X167038221Y-107965647D01*
X167056327Y-107966042D01*
G37*
G36*
X167563953Y-109032500D02*
G01*
X167563953Y-108141502D01*
X167450014Y-108141502D01*
X167450014Y-107977370D01*
X167563953Y-107977370D01*
X167563953Y-107827527D01*
X167564146Y-107812637D01*
X167565005Y-107793474D01*
X167566551Y-107775102D01*
X167568783Y-107757519D01*
X167571703Y-107740727D01*
X167575309Y-107724724D01*
X167579602Y-107709511D01*
X167584583Y-107695089D01*
X167585935Y-107691606D01*
X167591677Y-107677982D01*
X167599546Y-107661789D01*
X167608185Y-107646526D01*
X167617592Y-107632194D01*
X167627769Y-107618791D01*
X167638716Y-107606319D01*
X167645653Y-107599282D01*
X167657141Y-107588256D01*
X167669166Y-107578302D01*
X167681727Y-107569422D01*
X167694825Y-107561616D01*
X167708460Y-107554882D01*
X167722632Y-107549222D01*
X167728451Y-107547259D01*
X167743177Y-107542826D01*
X167758046Y-107539144D01*
X167773059Y-107536214D01*
X167788214Y-107534035D01*
X167803513Y-107532608D01*
X167818954Y-107531932D01*
X167825171Y-107531871D01*
X167918960Y-107531871D01*
X167918960Y-107746195D01*
X167833597Y-107746195D01*
X167817660Y-107748010D01*
X167802101Y-107754983D01*
X167790432Y-107767184D01*
X167783679Y-107781347D01*
X167779627Y-107799141D01*
X167778330Y-107815991D01*
X167778276Y-107820566D01*
X167778276Y-107977370D01*
X167918960Y-107977370D01*
X167918960Y-108141502D01*
X167778276Y-108141502D01*
X167778276Y-109032500D01*
X167563953Y-109032500D01*
G37*
G36*
X168029969Y-109032500D02*
G01*
X168029969Y-108141502D01*
X167916029Y-108141502D01*
X167916029Y-107977370D01*
X168029969Y-107977370D01*
X168029969Y-107827527D01*
X168030162Y-107812637D01*
X168031020Y-107793474D01*
X168032566Y-107775102D01*
X168034799Y-107757519D01*
X168037718Y-107740727D01*
X168041324Y-107724724D01*
X168045618Y-107709511D01*
X168050598Y-107695089D01*
X168051950Y-107691606D01*
X168057692Y-107677982D01*
X168065561Y-107661789D01*
X168074200Y-107646526D01*
X168083608Y-107632194D01*
X168093785Y-107618791D01*
X168104731Y-107606319D01*
X168111668Y-107599282D01*
X168123156Y-107588256D01*
X168135181Y-107578302D01*
X168147743Y-107569422D01*
X168160841Y-107561616D01*
X168174476Y-107554882D01*
X168188647Y-107549222D01*
X168194466Y-107547259D01*
X168209192Y-107542826D01*
X168224062Y-107539144D01*
X168239074Y-107536214D01*
X168254229Y-107534035D01*
X168269528Y-107532608D01*
X168284970Y-107531932D01*
X168291186Y-107531871D01*
X168384976Y-107531871D01*
X168384976Y-107746195D01*
X168299613Y-107746195D01*
X168283676Y-107748010D01*
X168268116Y-107754983D01*
X168256447Y-107767184D01*
X168249694Y-107781347D01*
X168245642Y-107799141D01*
X168244346Y-107815991D01*
X168244292Y-107820566D01*
X168244292Y-107977370D01*
X168384976Y-107977370D01*
X168384976Y-108141502D01*
X168244292Y-108141502D01*
X168244292Y-109032500D01*
X168029969Y-109032500D01*
G37*
G36*
X169525468Y-108606051D02*
G01*
X169525468Y-108698375D01*
X169525061Y-108715572D01*
X169523842Y-108732539D01*
X169521810Y-108749277D01*
X169518965Y-108765786D01*
X169515307Y-108782067D01*
X169510836Y-108798118D01*
X169505552Y-108813940D01*
X169499456Y-108829534D01*
X169492735Y-108844801D01*
X169485396Y-108859644D01*
X169477440Y-108874064D01*
X169468864Y-108888060D01*
X169459671Y-108901633D01*
X169449859Y-108914782D01*
X169439429Y-108927508D01*
X169428381Y-108939809D01*
X169416692Y-108951499D01*
X169404522Y-108962570D01*
X169391871Y-108973023D01*
X169378739Y-108982857D01*
X169365126Y-108992073D01*
X169351032Y-109000672D01*
X169336458Y-109008651D01*
X169321403Y-109016013D01*
X169306050Y-109022625D01*
X169290399Y-109028355D01*
X169274451Y-109033204D01*
X169258205Y-109037171D01*
X169241661Y-109040256D01*
X169224820Y-109042460D01*
X169207681Y-109043782D01*
X169190244Y-109044223D01*
X169175109Y-109043966D01*
X169159928Y-109043193D01*
X169144701Y-109041905D01*
X169129428Y-109040102D01*
X169114109Y-109037783D01*
X169098745Y-109034950D01*
X169083335Y-109031601D01*
X169067879Y-109027737D01*
X169052589Y-109023134D01*
X169037676Y-109017753D01*
X169023142Y-109011594D01*
X169008986Y-109004656D01*
X168995207Y-108996939D01*
X168981806Y-108988444D01*
X168968783Y-108979171D01*
X168956137Y-108969118D01*
X168943956Y-108958219D01*
X168932324Y-108946587D01*
X168921241Y-108934222D01*
X168910708Y-108921125D01*
X168900725Y-108907295D01*
X168891291Y-108892732D01*
X168882407Y-108877436D01*
X168874072Y-108861407D01*
X168866602Y-108844343D01*
X168860127Y-108826122D01*
X168855925Y-108811697D01*
X168852283Y-108796622D01*
X168849202Y-108780897D01*
X168846680Y-108764521D01*
X168844719Y-108747495D01*
X168843319Y-108729818D01*
X168842478Y-108711491D01*
X168842198Y-108692513D01*
X168842198Y-107871857D01*
X168842582Y-107853705D01*
X168843732Y-107835885D01*
X168845650Y-107818397D01*
X168848335Y-107801241D01*
X168851787Y-107784417D01*
X168856006Y-107767925D01*
X168860992Y-107751764D01*
X168866745Y-107735936D01*
X168873293Y-107720452D01*
X168880483Y-107705505D01*
X168888314Y-107691097D01*
X168896786Y-107677226D01*
X168905900Y-107663894D01*
X168915654Y-107651100D01*
X168926050Y-107638844D01*
X168937087Y-107627126D01*
X168948890Y-107615901D01*
X168961221Y-107605305D01*
X168974078Y-107595338D01*
X168987462Y-107586002D01*
X169001372Y-107577295D01*
X169015809Y-107569218D01*
X169030773Y-107561770D01*
X169046263Y-107554952D01*
X169062229Y-107548770D01*
X169078618Y-107543412D01*
X169095430Y-107538878D01*
X169112667Y-107535169D01*
X169130327Y-107532284D01*
X169148410Y-107530223D01*
X169166917Y-107528986D01*
X169185848Y-107528574D01*
X169204269Y-107528959D01*
X169222255Y-107530114D01*
X169239806Y-107532039D01*
X169256923Y-107534734D01*
X169273604Y-107538198D01*
X169289850Y-107542433D01*
X169305660Y-107547438D01*
X169321036Y-107553212D01*
X169335977Y-107559757D01*
X169350483Y-107567071D01*
X169364554Y-107575155D01*
X169378189Y-107584010D01*
X169391390Y-107593634D01*
X169404155Y-107604028D01*
X169416486Y-107615192D01*
X169428381Y-107627126D01*
X169439429Y-107639491D01*
X169449859Y-107652405D01*
X169459671Y-107665869D01*
X169468864Y-107679883D01*
X169477440Y-107694446D01*
X169485396Y-107709558D01*
X169492735Y-107725220D01*
X169499456Y-107741432D01*
X169505552Y-107758021D01*
X169510836Y-107775000D01*
X169515307Y-107792368D01*
X169518965Y-107810125D01*
X169521810Y-107828272D01*
X169523842Y-107846807D01*
X169525061Y-107865732D01*
X169525468Y-107885047D01*
X169525468Y-107968578D01*
X169311144Y-107968578D01*
X169311144Y-107897503D01*
X169310606Y-107882104D01*
X169308992Y-107867232D01*
X169305461Y-107849383D01*
X169300248Y-107832356D01*
X169293354Y-107816152D01*
X169284778Y-107800771D01*
X169276706Y-107789059D01*
X169265459Y-107775761D01*
X169253014Y-107764716D01*
X169239370Y-107755925D01*
X169224528Y-107749389D01*
X169208487Y-107745106D01*
X169191247Y-107743078D01*
X169184016Y-107742897D01*
X169165589Y-107743664D01*
X169148776Y-107745966D01*
X169133578Y-107749801D01*
X169116850Y-107756753D01*
X169102645Y-107766101D01*
X169090961Y-107777847D01*
X169081800Y-107791990D01*
X169074518Y-107807976D01*
X169068470Y-107825249D01*
X169064520Y-107839995D01*
X169061360Y-107855566D01*
X169058990Y-107871961D01*
X169057410Y-107889180D01*
X169056620Y-107907223D01*
X169056521Y-107916554D01*
X169056521Y-108677126D01*
X169056945Y-108693011D01*
X169058216Y-108708244D01*
X169060334Y-108722824D01*
X169064173Y-108740132D01*
X169069335Y-108756420D01*
X169075822Y-108771688D01*
X169083632Y-108785936D01*
X169093274Y-108798602D01*
X169105027Y-108809120D01*
X169118891Y-108817492D01*
X169134866Y-108823718D01*
X169149166Y-108827152D01*
X169164816Y-108829213D01*
X169181818Y-108829900D01*
X169197343Y-108828870D01*
X169212298Y-108826115D01*
X169225049Y-108822573D01*
X169239381Y-108817063D01*
X169253070Y-108809693D01*
X169266115Y-108800462D01*
X169268646Y-108798393D01*
X169279487Y-108786837D01*
X169288203Y-108774295D01*
X169295935Y-108759724D01*
X169299054Y-108752597D01*
X169304344Y-108737027D01*
X169307732Y-108721900D01*
X169309964Y-108705371D01*
X169310956Y-108690086D01*
X169311144Y-108679324D01*
X169311144Y-108606051D01*
X169525468Y-108606051D01*
G37*
G36*
X169696560Y-109032500D02*
G01*
X169696560Y-107531871D01*
X169910883Y-107531871D01*
X169910883Y-108081051D01*
X169915279Y-108081051D01*
X169923820Y-108068698D01*
X169932773Y-108056917D01*
X169944544Y-108042996D01*
X169956959Y-108029969D01*
X169970018Y-108017837D01*
X169983721Y-108006599D01*
X169995147Y-107998253D01*
X170010427Y-107988860D01*
X170026960Y-107981058D01*
X170041088Y-107975964D01*
X170056017Y-107971888D01*
X170071748Y-107968831D01*
X170088280Y-107966793D01*
X170105614Y-107965774D01*
X170114581Y-107965647D01*
X170129419Y-107966123D01*
X170144257Y-107967553D01*
X170159095Y-107969936D01*
X170173932Y-107973272D01*
X170188770Y-107977561D01*
X170193716Y-107979202D01*
X170208258Y-107984904D01*
X170222207Y-107991842D01*
X170235563Y-108000016D01*
X170248327Y-108009427D01*
X170260499Y-108020075D01*
X170264424Y-108023899D01*
X170275664Y-108036208D01*
X170286028Y-108049779D01*
X170295517Y-108064612D01*
X170302754Y-108077938D01*
X170309384Y-108092140D01*
X170314250Y-108104132D01*
X170319633Y-108119896D01*
X170324103Y-108136733D01*
X170327661Y-108154643D01*
X170329851Y-108169745D01*
X170331456Y-108185533D01*
X170332478Y-108202008D01*
X170332916Y-108219169D01*
X170332934Y-108223567D01*
X170332934Y-109032500D01*
X170118611Y-109032500D01*
X170118611Y-108304167D01*
X170117958Y-108286686D01*
X170116000Y-108270422D01*
X170112735Y-108255374D01*
X170107093Y-108238922D01*
X170099571Y-108224221D01*
X170091867Y-108213309D01*
X170081052Y-108201979D01*
X170068666Y-108192993D01*
X170054708Y-108186351D01*
X170039179Y-108182054D01*
X170022079Y-108180100D01*
X170016029Y-108179970D01*
X169998271Y-108180882D01*
X169982320Y-108183619D01*
X169968175Y-108188181D01*
X169953586Y-108196063D01*
X169941599Y-108206573D01*
X169933597Y-108217339D01*
X169925878Y-108232400D01*
X169920665Y-108246761D01*
X169916561Y-108262768D01*
X169913567Y-108280421D01*
X169911970Y-108295728D01*
X169911082Y-108312089D01*
X169910883Y-108325050D01*
X169910883Y-109032500D01*
X169696560Y-109032500D01*
G37*
G36*
X170825483Y-107966042D02*
G01*
X170843165Y-107967227D01*
X170860425Y-107969202D01*
X170877260Y-107971967D01*
X170893672Y-107975521D01*
X170909660Y-107979866D01*
X170925225Y-107985001D01*
X170940366Y-107990926D01*
X170955015Y-107997452D01*
X170969103Y-108004573D01*
X170982630Y-108012289D01*
X170995596Y-108020601D01*
X171008001Y-108029509D01*
X171019845Y-108039011D01*
X171031127Y-108049109D01*
X171041849Y-108059802D01*
X171052009Y-108071713D01*
X171061513Y-108084000D01*
X171070361Y-108096661D01*
X171078554Y-108109697D01*
X171086092Y-108123108D01*
X171092974Y-108136893D01*
X171099201Y-108151054D01*
X171104772Y-108165590D01*
X171109688Y-108180501D01*
X171113949Y-108195786D01*
X171117554Y-108211447D01*
X171120503Y-108227483D01*
X171122797Y-108243893D01*
X171124436Y-108260679D01*
X171125419Y-108277839D01*
X171125747Y-108295375D01*
X171125747Y-108587001D01*
X170703695Y-108587001D01*
X170703695Y-108727684D01*
X170704375Y-108742480D01*
X170706985Y-108758795D01*
X170711553Y-108773538D01*
X170718079Y-108786710D01*
X170728167Y-108800091D01*
X170731539Y-108803522D01*
X170744810Y-108813800D01*
X170759939Y-108821554D01*
X170774386Y-108826191D01*
X170790199Y-108828973D01*
X170807376Y-108829900D01*
X170825274Y-108829059D01*
X170841186Y-108826537D01*
X170857660Y-108821290D01*
X170871274Y-108813623D01*
X170882029Y-108803533D01*
X170887610Y-108795462D01*
X170894475Y-108782423D01*
X170901084Y-108767244D01*
X170906186Y-108752099D01*
X170909780Y-108736990D01*
X170911424Y-108726219D01*
X171125747Y-108726219D01*
X171125412Y-108743411D01*
X171124407Y-108760182D01*
X171122733Y-108776533D01*
X171120389Y-108792462D01*
X171117375Y-108807971D01*
X171113691Y-108823059D01*
X171109338Y-108837727D01*
X171104314Y-108851974D01*
X171098621Y-108865799D01*
X171092259Y-108879205D01*
X171085226Y-108892189D01*
X171077524Y-108904753D01*
X171069152Y-108916896D01*
X171060110Y-108928618D01*
X171050399Y-108939920D01*
X171040017Y-108950800D01*
X171029227Y-108961408D01*
X171017921Y-108971431D01*
X171006100Y-108980871D01*
X170993764Y-108989726D01*
X170980913Y-108997998D01*
X170967546Y-109005686D01*
X170953664Y-109012790D01*
X170939267Y-109019310D01*
X170924384Y-109025149D01*
X170909042Y-109030210D01*
X170893243Y-109034492D01*
X170876985Y-109037995D01*
X170860270Y-109040720D01*
X170843097Y-109042666D01*
X170825465Y-109043834D01*
X170807376Y-109044223D01*
X170788818Y-109043859D01*
X170770788Y-109042768D01*
X170753287Y-109040948D01*
X170736313Y-109038401D01*
X170719867Y-109035127D01*
X170703950Y-109031124D01*
X170688560Y-109026394D01*
X170673699Y-109020936D01*
X170659366Y-109014751D01*
X170645561Y-109007837D01*
X170636650Y-109002824D01*
X170623817Y-108994823D01*
X170611556Y-108986346D01*
X170599868Y-108977392D01*
X170585177Y-108964713D01*
X170571504Y-108951186D01*
X170558850Y-108936812D01*
X170547215Y-108921591D01*
X170536599Y-108905522D01*
X170529306Y-108892915D01*
X170522451Y-108879559D01*
X170516311Y-108865595D01*
X170510887Y-108851023D01*
X170506179Y-108835842D01*
X170502186Y-108820053D01*
X170498909Y-108803656D01*
X170497798Y-108796927D01*
X170495371Y-108779750D01*
X170493355Y-108762108D01*
X170491750Y-108744001D01*
X170490763Y-108729181D01*
X170490039Y-108714062D01*
X170489578Y-108698646D01*
X170489380Y-108682933D01*
X170489372Y-108678958D01*
X170489372Y-108422869D01*
X170703695Y-108422869D01*
X170911424Y-108422869D01*
X170911424Y-108301603D01*
X170910983Y-108286794D01*
X170909192Y-108269651D01*
X170906024Y-108254028D01*
X170901478Y-108239927D01*
X170894206Y-108225012D01*
X170884949Y-108212286D01*
X170883214Y-108210378D01*
X170872064Y-108200044D01*
X170859497Y-108191848D01*
X170845514Y-108185790D01*
X170830114Y-108181870D01*
X170813297Y-108180089D01*
X170807376Y-108179970D01*
X170790199Y-108181039D01*
X170774386Y-108184246D01*
X170759939Y-108189591D01*
X170746857Y-108197074D01*
X170735141Y-108206696D01*
X170731539Y-108210378D01*
X170722076Y-108222739D01*
X170714572Y-108237289D01*
X170709025Y-108254028D01*
X170705898Y-108269651D01*
X170704130Y-108286794D01*
X170703695Y-108301603D01*
X170703695Y-108422869D01*
X170489372Y-108422869D01*
X170489372Y-108331278D01*
X170489504Y-108315324D01*
X170489899Y-108299702D01*
X170490557Y-108284412D01*
X170491479Y-108269454D01*
X170492664Y-108254828D01*
X170494515Y-108237013D01*
X170496778Y-108219716D01*
X170497798Y-108212943D01*
X170500789Y-108196408D01*
X170504496Y-108180464D01*
X170508918Y-108165110D01*
X170514056Y-108150346D01*
X170519909Y-108136172D01*
X170526478Y-108122589D01*
X170529306Y-108117322D01*
X170539157Y-108100618D01*
X170550028Y-108084761D01*
X170561918Y-108069751D01*
X170574826Y-108055589D01*
X170588754Y-108042274D01*
X170603701Y-108029806D01*
X170615579Y-108021011D01*
X170628031Y-108012693D01*
X170636650Y-108007412D01*
X170650104Y-107999948D01*
X170664085Y-107993219D01*
X170678594Y-107987223D01*
X170693632Y-107981961D01*
X170709197Y-107977434D01*
X170725291Y-107973641D01*
X170741912Y-107970582D01*
X170759062Y-107968257D01*
X170776740Y-107966666D01*
X170794946Y-107965810D01*
X170807376Y-107965647D01*
X170825483Y-107966042D01*
G37*
G36*
X171289512Y-109032500D02*
G01*
X171289512Y-107977370D01*
X171503835Y-107977370D01*
X171503835Y-108080685D01*
X171508231Y-108080685D01*
X171516772Y-108068418D01*
X171525725Y-108056711D01*
X171537496Y-108042867D01*
X171549911Y-108029899D01*
X171562970Y-108017808D01*
X171576672Y-108006594D01*
X171588098Y-107998253D01*
X171603379Y-107988860D01*
X171619912Y-107981058D01*
X171634040Y-107975964D01*
X171648969Y-107971888D01*
X171664700Y-107968831D01*
X171681232Y-107966793D01*
X171698566Y-107965774D01*
X171707533Y-107965647D01*
X171722371Y-107966123D01*
X171737209Y-107967553D01*
X171752046Y-107969936D01*
X171766884Y-107973272D01*
X171781722Y-107977561D01*
X171786668Y-107979202D01*
X171801209Y-107984904D01*
X171815158Y-107991842D01*
X171828515Y-108000016D01*
X171841279Y-108009427D01*
X171853451Y-108020075D01*
X171857376Y-108023899D01*
X171868616Y-108036208D01*
X171878980Y-108049779D01*
X171888468Y-108064612D01*
X171895706Y-108077938D01*
X171902336Y-108092140D01*
X171907202Y-108104132D01*
X171912584Y-108119896D01*
X171917055Y-108136733D01*
X171920613Y-108154643D01*
X171922803Y-108169745D01*
X171924408Y-108185533D01*
X171925430Y-108202008D01*
X171925868Y-108219169D01*
X171925886Y-108223567D01*
X171925886Y-109032500D01*
X171711563Y-109032500D01*
X171711563Y-108304167D01*
X171710910Y-108286686D01*
X171708951Y-108270422D01*
X171705687Y-108255374D01*
X171700045Y-108238922D01*
X171692523Y-108224221D01*
X171684819Y-108213309D01*
X171674004Y-108201979D01*
X171661617Y-108192993D01*
X171647660Y-108186351D01*
X171632131Y-108182054D01*
X171615030Y-108180100D01*
X171608981Y-108179970D01*
X171591223Y-108180882D01*
X171575271Y-108183619D01*
X171561127Y-108188181D01*
X171546538Y-108196063D01*
X171534551Y-108206573D01*
X171526549Y-108217339D01*
X171518830Y-108232400D01*
X171513617Y-108246761D01*
X171509513Y-108262768D01*
X171506519Y-108280421D01*
X171504922Y-108295728D01*
X171504034Y-108312089D01*
X171503835Y-108325050D01*
X171503835Y-109032500D01*
X171289512Y-109032500D01*
G37*
G36*
X172105771Y-109191502D02*
G01*
X172105771Y-108821474D01*
X172320094Y-108821474D01*
X172320094Y-109035797D01*
X172105771Y-109191502D01*
G37*
G36*
X172861947Y-109032500D02*
G01*
X172861947Y-108830633D01*
X173246629Y-108104865D01*
X173253476Y-108091521D01*
X173260939Y-108075438D01*
X173267186Y-108060016D01*
X173272216Y-108045255D01*
X173276647Y-108028417D01*
X173279326Y-108012532D01*
X173279602Y-108009977D01*
X173281096Y-107993907D01*
X173282281Y-107976472D01*
X173283033Y-107960899D01*
X173283569Y-107944379D01*
X173283891Y-107926911D01*
X173283994Y-107912253D01*
X173283999Y-107908494D01*
X173283999Y-107892835D01*
X173283999Y-107876770D01*
X173283999Y-107860300D01*
X173283999Y-107850975D01*
X173283335Y-107836229D01*
X173281000Y-107820734D01*
X173276985Y-107806398D01*
X173273374Y-107797486D01*
X173265889Y-107783969D01*
X173256258Y-107771811D01*
X173244480Y-107761014D01*
X173241867Y-107759017D01*
X173228613Y-107751225D01*
X173214302Y-107746439D01*
X173199826Y-107743905D01*
X173183528Y-107742913D01*
X173181050Y-107742897D01*
X173163624Y-107743863D01*
X173147614Y-107746761D01*
X173133021Y-107751591D01*
X173119845Y-107758353D01*
X173106263Y-107768684D01*
X173104480Y-107770375D01*
X173093488Y-107783445D01*
X173086215Y-107796574D01*
X173080926Y-107811481D01*
X173077620Y-107828165D01*
X173076380Y-107843426D01*
X173076270Y-107849876D01*
X173076270Y-107971142D01*
X172861947Y-107971142D01*
X172861947Y-107853906D01*
X172862336Y-107837190D01*
X172863504Y-107820750D01*
X172865450Y-107804584D01*
X172868175Y-107788693D01*
X172871679Y-107773077D01*
X172875960Y-107757735D01*
X172881021Y-107742668D01*
X172886860Y-107727876D01*
X172893471Y-107713445D01*
X172900667Y-107699460D01*
X172908447Y-107685922D01*
X172916810Y-107672830D01*
X172925757Y-107660185D01*
X172935289Y-107647986D01*
X172945404Y-107636234D01*
X172956103Y-107624928D01*
X172966807Y-107614298D01*
X172978039Y-107604205D01*
X172989797Y-107594651D01*
X173002081Y-107585635D01*
X173014893Y-107577158D01*
X173028231Y-107569218D01*
X173042095Y-107561816D01*
X173056486Y-107554952D01*
X173071273Y-107548770D01*
X173086322Y-107543412D01*
X173101635Y-107538878D01*
X173117211Y-107535169D01*
X173133051Y-107532284D01*
X173149154Y-107530223D01*
X173165520Y-107528986D01*
X173182149Y-107528574D01*
X173197668Y-107528841D01*
X173212761Y-107529643D01*
X173227429Y-107530980D01*
X173246325Y-107533593D01*
X173264466Y-107537156D01*
X173281851Y-107541670D01*
X173298481Y-107547134D01*
X173314355Y-107553548D01*
X173325764Y-107558982D01*
X173340384Y-107566928D01*
X173354386Y-107575560D01*
X173367770Y-107584880D01*
X173380536Y-107594886D01*
X173392683Y-107605579D01*
X173404212Y-107616960D01*
X173415123Y-107629027D01*
X173425415Y-107641781D01*
X173434448Y-107655107D01*
X173442863Y-107668892D01*
X173450660Y-107683134D01*
X173457838Y-107697834D01*
X173464399Y-107712993D01*
X173470341Y-107728609D01*
X173475664Y-107744683D01*
X173480370Y-107761215D01*
X173484577Y-107778103D01*
X173488224Y-107795242D01*
X173491309Y-107812632D01*
X173493834Y-107830275D01*
X173495797Y-107848170D01*
X173497200Y-107866316D01*
X173498041Y-107884715D01*
X173498322Y-107903365D01*
X173498322Y-107919880D01*
X173498322Y-107935536D01*
X173498322Y-107950334D01*
X173498322Y-107966958D01*
X173498322Y-107982345D01*
X173498322Y-107994223D01*
X173498024Y-108010111D01*
X173497130Y-108025719D01*
X173495639Y-108041046D01*
X173493553Y-108056093D01*
X173492094Y-108064565D01*
X173488948Y-108079169D01*
X173484961Y-108093807D01*
X173480132Y-108108481D01*
X173474462Y-108123189D01*
X173470844Y-108131610D01*
X173463799Y-108147040D01*
X173457007Y-108161354D01*
X173449520Y-108176672D01*
X173442749Y-108190205D01*
X173435495Y-108204436D01*
X173430911Y-108213309D01*
X173114006Y-108818176D01*
X173498322Y-108818176D01*
X173498322Y-109032500D01*
X172861947Y-109032500D01*
G37*
G36*
X173976988Y-107528918D02*
G01*
X173992410Y-107529948D01*
X174007671Y-107531665D01*
X174022772Y-107534070D01*
X174037713Y-107537161D01*
X174052493Y-107540939D01*
X174067114Y-107545404D01*
X174081574Y-107550556D01*
X174095747Y-107556361D01*
X174109509Y-107562783D01*
X174122858Y-107569824D01*
X174135796Y-107577484D01*
X174148321Y-107585761D01*
X174160434Y-107594657D01*
X174172134Y-107604171D01*
X174183423Y-107614303D01*
X174194047Y-107625094D01*
X174204122Y-107636400D01*
X174213648Y-107648221D01*
X174222624Y-107660557D01*
X174231050Y-107673408D01*
X174238927Y-107686775D01*
X174246254Y-107700657D01*
X174253032Y-107715054D01*
X174259215Y-107729966D01*
X174264573Y-107745393D01*
X174269106Y-107761336D01*
X174272816Y-107777793D01*
X174275701Y-107794766D01*
X174277762Y-107812255D01*
X174278998Y-107830258D01*
X174279410Y-107848777D01*
X174279410Y-108724387D01*
X174278998Y-108742906D01*
X174277762Y-108760909D01*
X174275701Y-108778397D01*
X174272816Y-108795370D01*
X174269106Y-108811828D01*
X174264573Y-108827771D01*
X174259215Y-108843198D01*
X174253032Y-108858110D01*
X174246254Y-108872421D01*
X174238927Y-108886229D01*
X174231050Y-108899532D01*
X174222624Y-108912332D01*
X174213648Y-108924628D01*
X174204122Y-108936420D01*
X174194047Y-108947709D01*
X174183423Y-108958494D01*
X174172134Y-108968626D01*
X174160434Y-108978140D01*
X174148321Y-108987036D01*
X174135796Y-108995314D01*
X174122858Y-109002973D01*
X174109509Y-109010014D01*
X174095747Y-109016437D01*
X174081574Y-109022241D01*
X174067114Y-109027393D01*
X174052493Y-109031858D01*
X174037713Y-109035636D01*
X174022772Y-109038728D01*
X174007671Y-109041132D01*
X173992410Y-109042849D01*
X173976988Y-109043880D01*
X173961406Y-109044223D01*
X173945738Y-109043880D01*
X173930242Y-109042849D01*
X173914918Y-109041132D01*
X173899765Y-109038728D01*
X173884785Y-109035636D01*
X173869975Y-109031858D01*
X173855338Y-109027393D01*
X173840872Y-109022241D01*
X173826704Y-109016437D01*
X173812960Y-109010014D01*
X173799639Y-109002973D01*
X173786742Y-108995314D01*
X173774268Y-108987036D01*
X173762218Y-108978140D01*
X173750592Y-108968626D01*
X173739389Y-108958494D01*
X173728673Y-108947709D01*
X173718507Y-108936420D01*
X173708890Y-108924628D01*
X173699822Y-108912332D01*
X173691304Y-108899532D01*
X173683336Y-108886229D01*
X173675917Y-108872421D01*
X173669047Y-108858110D01*
X173662951Y-108843198D01*
X173657667Y-108827771D01*
X173653196Y-108811828D01*
X173649539Y-108795370D01*
X173646694Y-108778397D01*
X173644661Y-108760909D01*
X173643442Y-108742906D01*
X173643036Y-108724387D01*
X173643036Y-108723654D01*
X173857359Y-108723654D01*
X173858376Y-108740287D01*
X173861429Y-108755837D01*
X173866516Y-108770306D01*
X173873639Y-108783692D01*
X173882797Y-108795997D01*
X173886301Y-108799858D01*
X173897748Y-108810068D01*
X173910378Y-108818165D01*
X173924194Y-108824150D01*
X173939195Y-108828022D01*
X173955381Y-108829783D01*
X173961040Y-108829900D01*
X173977621Y-108828844D01*
X173993017Y-108825675D01*
X174007227Y-108820395D01*
X174020253Y-108813002D01*
X174032094Y-108803496D01*
X174035778Y-108799858D01*
X174045739Y-108787914D01*
X174053638Y-108774888D01*
X174059477Y-108760780D01*
X174063255Y-108745590D01*
X174064973Y-108729319D01*
X174065087Y-108723654D01*
X174065087Y-107849509D01*
X174064057Y-107832877D01*
X174060966Y-107817326D01*
X174055814Y-107802858D01*
X174048601Y-107789471D01*
X174039327Y-107777167D01*
X174035778Y-107773306D01*
X174024332Y-107762971D01*
X174011701Y-107754775D01*
X173997885Y-107748718D01*
X173982884Y-107744798D01*
X173966698Y-107743016D01*
X173961040Y-107742897D01*
X173944459Y-107743966D01*
X173929063Y-107747173D01*
X173914852Y-107752519D01*
X173901826Y-107760002D01*
X173889985Y-107769623D01*
X173886301Y-107773306D01*
X173876465Y-107785250D01*
X173868664Y-107798276D01*
X173862899Y-107812383D01*
X173859168Y-107827573D01*
X173857472Y-107843845D01*
X173857359Y-107849509D01*
X173857359Y-108723654D01*
X173643036Y-108723654D01*
X173643036Y-107848777D01*
X173643442Y-107830258D01*
X173644661Y-107812255D01*
X173646694Y-107794766D01*
X173649539Y-107777793D01*
X173653196Y-107761336D01*
X173657667Y-107745393D01*
X173662951Y-107729966D01*
X173669047Y-107715054D01*
X173675917Y-107700657D01*
X173683336Y-107686775D01*
X173691304Y-107673408D01*
X173699822Y-107660557D01*
X173708890Y-107648221D01*
X173718507Y-107636400D01*
X173728673Y-107625094D01*
X173739389Y-107614303D01*
X173750592Y-107604171D01*
X173762218Y-107594657D01*
X173774268Y-107585761D01*
X173786742Y-107577484D01*
X173799639Y-107569824D01*
X173812960Y-107562783D01*
X173826704Y-107556361D01*
X173840872Y-107550556D01*
X173855338Y-107545404D01*
X173869975Y-107540939D01*
X173884785Y-107537161D01*
X173899765Y-107534070D01*
X173914918Y-107531665D01*
X173930242Y-107529948D01*
X173945738Y-107528918D01*
X173961406Y-107528574D01*
X173976988Y-107528918D01*
G37*
G36*
X174424124Y-109032500D02*
G01*
X174424124Y-108830633D01*
X174808807Y-108104865D01*
X174815653Y-108091521D01*
X174823116Y-108075438D01*
X174829363Y-108060016D01*
X174834394Y-108045255D01*
X174838824Y-108028417D01*
X174841503Y-108012532D01*
X174841780Y-108009977D01*
X174843274Y-107993907D01*
X174844459Y-107976472D01*
X174845210Y-107960899D01*
X174845747Y-107944379D01*
X174846069Y-107926911D01*
X174846172Y-107912253D01*
X174846176Y-107908494D01*
X174846176Y-107892835D01*
X174846176Y-107876770D01*
X174846176Y-107860300D01*
X174846176Y-107850975D01*
X174845512Y-107836229D01*
X174843177Y-107820734D01*
X174839162Y-107806398D01*
X174835551Y-107797486D01*
X174828067Y-107783969D01*
X174818435Y-107771811D01*
X174806657Y-107761014D01*
X174804044Y-107759017D01*
X174790790Y-107751225D01*
X174776479Y-107746439D01*
X174762004Y-107743905D01*
X174745705Y-107742913D01*
X174743228Y-107742897D01*
X174725801Y-107743863D01*
X174709791Y-107746761D01*
X174695198Y-107751591D01*
X174682022Y-107758353D01*
X174668440Y-107768684D01*
X174666657Y-107770375D01*
X174655665Y-107783445D01*
X174648392Y-107796574D01*
X174643103Y-107811481D01*
X174639797Y-107828165D01*
X174638558Y-107843426D01*
X174638447Y-107849876D01*
X174638447Y-107971142D01*
X174424124Y-107971142D01*
X174424124Y-107853906D01*
X174424514Y-107837190D01*
X174425681Y-107820750D01*
X174427628Y-107804584D01*
X174430352Y-107788693D01*
X174433856Y-107773077D01*
X174438138Y-107757735D01*
X174443198Y-107742668D01*
X174449037Y-107727876D01*
X174455649Y-107713445D01*
X174462844Y-107699460D01*
X174470624Y-107685922D01*
X174478987Y-107672830D01*
X174487935Y-107660185D01*
X174497466Y-107647986D01*
X174507581Y-107636234D01*
X174518280Y-107624928D01*
X174528985Y-107614298D01*
X174540216Y-107604205D01*
X174551974Y-107594651D01*
X174564259Y-107585635D01*
X174577070Y-107577158D01*
X174590408Y-107569218D01*
X174604272Y-107561816D01*
X174618664Y-107554952D01*
X174633450Y-107548770D01*
X174648499Y-107543412D01*
X174663812Y-107538878D01*
X174679389Y-107535169D01*
X174695228Y-107532284D01*
X174711331Y-107530223D01*
X174727697Y-107528986D01*
X174744327Y-107528574D01*
X174759845Y-107528841D01*
X174774938Y-107529643D01*
X174789606Y-107530980D01*
X174808503Y-107533593D01*
X174826643Y-107537156D01*
X174844028Y-107541670D01*
X174860658Y-107547134D01*
X174876532Y-107553548D01*
X174887941Y-107558982D01*
X174902562Y-107566928D01*
X174916564Y-107575560D01*
X174929947Y-107584880D01*
X174942713Y-107594886D01*
X174954860Y-107605579D01*
X174966389Y-107616960D01*
X174977300Y-107629027D01*
X174987592Y-107641781D01*
X174996626Y-107655107D01*
X175005041Y-107668892D01*
X175012837Y-107683134D01*
X175020016Y-107697834D01*
X175026576Y-107712993D01*
X175032518Y-107728609D01*
X175037842Y-107744683D01*
X175042547Y-107761215D01*
X175046755Y-107778103D01*
X175050401Y-107795242D01*
X175053487Y-107812632D01*
X175056011Y-107830275D01*
X175057974Y-107848170D01*
X175059377Y-107866316D01*
X175060218Y-107884715D01*
X175060499Y-107903365D01*
X175060499Y-107919880D01*
X175060499Y-107935536D01*
X175060499Y-107950334D01*
X175060499Y-107966958D01*
X175060499Y-107982345D01*
X175060499Y-107994223D01*
X175060201Y-108010111D01*
X175059307Y-108025719D01*
X175057817Y-108041046D01*
X175055731Y-108056093D01*
X175054271Y-108064565D01*
X175051125Y-108079169D01*
X175047138Y-108093807D01*
X175042310Y-108108481D01*
X175036640Y-108123189D01*
X175033022Y-108131610D01*
X175025977Y-108147040D01*
X175019185Y-108161354D01*
X175011697Y-108176672D01*
X175004926Y-108190205D01*
X174997672Y-108204436D01*
X174993088Y-108213309D01*
X174676183Y-108818176D01*
X175060499Y-108818176D01*
X175060499Y-109032500D01*
X174424124Y-109032500D01*
G37*
G36*
X175458737Y-108164949D02*
G01*
X175476144Y-108164749D01*
X175492508Y-108164150D01*
X175507829Y-108163152D01*
X175526634Y-108161200D01*
X175543584Y-108158538D01*
X175558679Y-108155167D01*
X175574940Y-108149954D01*
X175588303Y-108143632D01*
X175590628Y-108142234D01*
X175603079Y-108131604D01*
X175611487Y-108119518D01*
X175618105Y-108104499D01*
X175622113Y-108090371D01*
X175624975Y-108074365D01*
X175626692Y-108056482D01*
X175627265Y-108036721D01*
X175627265Y-107846212D01*
X175626273Y-107829756D01*
X175623297Y-107814459D01*
X175618339Y-107800321D01*
X175611396Y-107787342D01*
X175602471Y-107775522D01*
X175599054Y-107771840D01*
X175587905Y-107762004D01*
X175575338Y-107754203D01*
X175561355Y-107748437D01*
X175545955Y-107744706D01*
X175529138Y-107743010D01*
X175523217Y-107742897D01*
X175506487Y-107743765D01*
X175491332Y-107746368D01*
X175475223Y-107751782D01*
X175461382Y-107759694D01*
X175449807Y-107770106D01*
X175443350Y-107778435D01*
X175435257Y-107791534D01*
X175427931Y-107806588D01*
X175422885Y-107821397D01*
X175420117Y-107835960D01*
X175419536Y-107846212D01*
X175419536Y-107966379D01*
X175205213Y-107966379D01*
X175205213Y-107843647D01*
X175205602Y-107827539D01*
X175206770Y-107811636D01*
X175208716Y-107795940D01*
X175211441Y-107780450D01*
X175214944Y-107765165D01*
X175219226Y-107750087D01*
X175224287Y-107735215D01*
X175230126Y-107720549D01*
X175236737Y-107706164D01*
X175243933Y-107692316D01*
X175251713Y-107679007D01*
X175260076Y-107666236D01*
X175269023Y-107654002D01*
X175278554Y-107642307D01*
X175288670Y-107631150D01*
X175299368Y-107620532D01*
X175310588Y-107610354D01*
X175322266Y-107600702D01*
X175334402Y-107591577D01*
X175346996Y-107582979D01*
X175360048Y-107574908D01*
X175373557Y-107567363D01*
X175387525Y-107560345D01*
X175401950Y-107553853D01*
X175416737Y-107547929D01*
X175431786Y-107542794D01*
X175447099Y-107538449D01*
X175462675Y-107534894D01*
X175478515Y-107532129D01*
X175494618Y-107530154D01*
X175510984Y-107528969D01*
X175527613Y-107528574D01*
X175543833Y-107528877D01*
X175559517Y-107529785D01*
X175574667Y-107531298D01*
X175589283Y-107533417D01*
X175607939Y-107537184D01*
X175625644Y-107542027D01*
X175642400Y-107547946D01*
X175658205Y-107554941D01*
X175673060Y-107563012D01*
X175687085Y-107571633D01*
X175700217Y-107580277D01*
X175712456Y-107588944D01*
X175726498Y-107599810D01*
X175739146Y-107610711D01*
X175750398Y-107621649D01*
X175760255Y-107632622D01*
X175770215Y-107645101D01*
X175779580Y-107657626D01*
X175788350Y-107670197D01*
X175796525Y-107682814D01*
X175804081Y-107695911D01*
X175810996Y-107710291D01*
X175816521Y-107723925D01*
X175821555Y-107738541D01*
X175822903Y-107742897D01*
X175827282Y-107761153D01*
X175830183Y-107776204D01*
X175832756Y-107792421D01*
X175835001Y-107809803D01*
X175836916Y-107828352D01*
X175838504Y-107848066D01*
X175839763Y-107868945D01*
X175840694Y-107890990D01*
X175841131Y-107906335D01*
X175841423Y-107922197D01*
X175841569Y-107938578D01*
X175841588Y-107946962D01*
X175841588Y-107965744D01*
X175841588Y-107983621D01*
X175841588Y-108000594D01*
X175841588Y-108016663D01*
X175841588Y-108031827D01*
X175841588Y-108049510D01*
X175841588Y-108065780D01*
X175841588Y-108071892D01*
X175841137Y-108089173D01*
X175839784Y-108105294D01*
X175837530Y-108120257D01*
X175833761Y-108136248D01*
X175828765Y-108150661D01*
X175821454Y-108164756D01*
X175812987Y-108177869D01*
X175803362Y-108190000D01*
X175792581Y-108201150D01*
X175785900Y-108207081D01*
X175773040Y-108217211D01*
X175760426Y-108226202D01*
X175746344Y-108235475D01*
X175733487Y-108243420D01*
X175719611Y-108251561D01*
X175710796Y-108256540D01*
X175723321Y-108264440D01*
X175737882Y-108274121D01*
X175751227Y-108283588D01*
X175763356Y-108292840D01*
X175776305Y-108303659D01*
X175787502Y-108314169D01*
X175789198Y-108315891D01*
X175800232Y-108328173D01*
X175809934Y-108341296D01*
X175818304Y-108355261D01*
X175825342Y-108370067D01*
X175828765Y-108378906D01*
X175833123Y-108393670D01*
X175836579Y-108409388D01*
X175839133Y-108426059D01*
X175840573Y-108440680D01*
X175841387Y-108455962D01*
X175841588Y-108468665D01*
X175841588Y-108485400D01*
X175841588Y-108503548D01*
X175841588Y-108519084D01*
X175841588Y-108535525D01*
X175841588Y-108552870D01*
X175841588Y-108571120D01*
X175841588Y-108590273D01*
X175841588Y-108600190D01*
X175841588Y-108618210D01*
X175841588Y-108635452D01*
X175841588Y-108651916D01*
X175841588Y-108667601D01*
X175841588Y-108682507D01*
X175841588Y-108700045D01*
X175841588Y-108716367D01*
X175841588Y-108722555D01*
X175841436Y-108737256D01*
X175840852Y-108753811D01*
X175839830Y-108769182D01*
X175838084Y-108785616D01*
X175835743Y-108800437D01*
X175835359Y-108802423D01*
X175831971Y-108818474D01*
X175828032Y-108833289D01*
X175822945Y-108848478D01*
X175818507Y-108859209D01*
X175811258Y-108873814D01*
X175803694Y-108887264D01*
X175795145Y-108901003D01*
X175791029Y-108907203D01*
X175780611Y-108921720D01*
X175769505Y-108935596D01*
X175757713Y-108948831D01*
X175745234Y-108961425D01*
X175732068Y-108973377D01*
X175718214Y-108984689D01*
X175703674Y-108995359D01*
X175688447Y-109005389D01*
X175672259Y-109014490D01*
X175654833Y-109022379D01*
X175640953Y-109027498D01*
X175626377Y-109031936D01*
X175611106Y-109035690D01*
X175595139Y-109038762D01*
X175578477Y-109041151D01*
X175561119Y-109042858D01*
X175543065Y-109043882D01*
X175524316Y-109044223D01*
X175508356Y-109043821D01*
X175492073Y-109042613D01*
X175475469Y-109040601D01*
X175458542Y-109037783D01*
X175441294Y-109034161D01*
X175423723Y-109029733D01*
X175416605Y-109027737D01*
X175402483Y-109023192D01*
X175388693Y-109017982D01*
X175375235Y-109012109D01*
X175362108Y-109005572D01*
X175349314Y-108998370D01*
X175336852Y-108990505D01*
X175324722Y-108981976D01*
X175312924Y-108972782D01*
X175301538Y-108962896D01*
X175290644Y-108952289D01*
X175280243Y-108940960D01*
X175270334Y-108928910D01*
X175260917Y-108916139D01*
X175251993Y-108902646D01*
X175243561Y-108888432D01*
X175235621Y-108873497D01*
X175228494Y-108857778D01*
X175222317Y-108841212D01*
X175217091Y-108823798D01*
X175212815Y-108805537D01*
X175209489Y-108786429D01*
X175207618Y-108771542D01*
X175206282Y-108756178D01*
X175205480Y-108740338D01*
X175205213Y-108724021D01*
X175205213Y-108601655D01*
X175419536Y-108601655D01*
X175419536Y-108713763D01*
X175420216Y-108729133D01*
X175422826Y-108746443D01*
X175427394Y-108762518D01*
X175433920Y-108777355D01*
X175442404Y-108790957D01*
X175447380Y-108797294D01*
X175458529Y-108808375D01*
X175471096Y-108817163D01*
X175485079Y-108823659D01*
X175500480Y-108827862D01*
X175517297Y-108829773D01*
X175523217Y-108829900D01*
X175540506Y-108828754D01*
X175556379Y-108825315D01*
X175570834Y-108819583D01*
X175583873Y-108811559D01*
X175595495Y-108801242D01*
X175599054Y-108797294D01*
X175608641Y-108784156D01*
X175616245Y-108769473D01*
X175621865Y-108753244D01*
X175625033Y-108738539D01*
X175626824Y-108722761D01*
X175627265Y-108709366D01*
X175627265Y-108494310D01*
X175626971Y-108478221D01*
X175626092Y-108463201D01*
X175624009Y-108444837D01*
X175620883Y-108428373D01*
X175616716Y-108413810D01*
X175610041Y-108398279D01*
X175601739Y-108385718D01*
X175593925Y-108377807D01*
X175580924Y-108368526D01*
X175566959Y-108362314D01*
X175552745Y-108358496D01*
X175543001Y-108356924D01*
X175527949Y-108355211D01*
X175511004Y-108353918D01*
X175494973Y-108353146D01*
X175477550Y-108352682D01*
X175461969Y-108352532D01*
X175458737Y-108352527D01*
X175458737Y-108164949D01*
G37*
D11*
G36*
X148090838Y-100507371D02*
G01*
X148105941Y-100508240D01*
X148120548Y-100509689D01*
X148134660Y-100511718D01*
X148148277Y-100514326D01*
X148161399Y-100517514D01*
X148174026Y-100521281D01*
X148186157Y-100525628D01*
X148197794Y-100530555D01*
X148208935Y-100536061D01*
X148219581Y-100542147D01*
X148229732Y-100548812D01*
X148239387Y-100556057D01*
X148248548Y-100563882D01*
X148257213Y-100572286D01*
X148265383Y-100581270D01*
X148273059Y-100590833D01*
X148280238Y-100600976D01*
X148286923Y-100611699D01*
X148293113Y-100623001D01*
X148298807Y-100634883D01*
X148304006Y-100647344D01*
X148308710Y-100660385D01*
X148312919Y-100674006D01*
X148316633Y-100688206D01*
X148319852Y-100702986D01*
X148322575Y-100718345D01*
X148324803Y-100734284D01*
X148326536Y-100750802D01*
X148327774Y-100767901D01*
X148328517Y-100785578D01*
X148328764Y-100803836D01*
X148328658Y-100814875D01*
X148328337Y-100825707D01*
X148327803Y-100836331D01*
X148327055Y-100846746D01*
X148326093Y-100856954D01*
X148324918Y-100866954D01*
X148323529Y-100876745D01*
X148321044Y-100891043D01*
X148318079Y-100904872D01*
X148314633Y-100918234D01*
X148310706Y-100931127D01*
X148306298Y-100943553D01*
X148301409Y-100955511D01*
X148295917Y-100967022D01*
X148289700Y-100978108D01*
X148282757Y-100988769D01*
X148275088Y-100999005D01*
X148266694Y-101008816D01*
X148257574Y-101018202D01*
X148247729Y-101027163D01*
X148237158Y-101035699D01*
X148225862Y-101043809D01*
X148213840Y-101051495D01*
X148205422Y-101056383D01*
X148359539Y-101507500D01*
X148208353Y-101507500D01*
X148073775Y-101085448D01*
X147987069Y-101085448D01*
X147987069Y-101507500D01*
X147844187Y-101507500D01*
X147844187Y-100649963D01*
X147987069Y-100649963D01*
X147987069Y-100960396D01*
X148069379Y-100960396D01*
X148080980Y-100960139D01*
X148091818Y-100959370D01*
X148101893Y-100958088D01*
X148112976Y-100955872D01*
X148122959Y-100952919D01*
X148130439Y-100949893D01*
X148139909Y-100944866D01*
X148148445Y-100938974D01*
X148156045Y-100932217D01*
X148162710Y-100924595D01*
X148166099Y-100919851D01*
X148170675Y-100910954D01*
X148174574Y-100901145D01*
X148177794Y-100890424D01*
X148180016Y-100880509D01*
X148181486Y-100871735D01*
X148182980Y-100860610D01*
X148183989Y-100850853D01*
X148184783Y-100840655D01*
X148185363Y-100830016D01*
X148185728Y-100818936D01*
X148185878Y-100807414D01*
X148185882Y-100805057D01*
X148185775Y-100793524D01*
X148185453Y-100782431D01*
X148184916Y-100771780D01*
X148184165Y-100761570D01*
X148183199Y-100751802D01*
X148181757Y-100740662D01*
X148181486Y-100738867D01*
X148179628Y-100728343D01*
X148177170Y-100718385D01*
X148174110Y-100708994D01*
X148169781Y-100698754D01*
X148164633Y-100689286D01*
X148157108Y-100680070D01*
X148148086Y-100672082D01*
X148137568Y-100665323D01*
X148128698Y-100661061D01*
X148118987Y-100657490D01*
X148108434Y-100654609D01*
X148097039Y-100652421D01*
X148084803Y-100650923D01*
X148071726Y-100650116D01*
X148062540Y-100649963D01*
X147987069Y-100649963D01*
X147844187Y-100649963D01*
X147844187Y-100507081D01*
X148075240Y-100507081D01*
X148090838Y-100507371D01*
G37*
G36*
X148596455Y-101507500D02*
G01*
X148596455Y-100658756D01*
X148455771Y-100764269D01*
X148455771Y-100612349D01*
X148596455Y-100507081D01*
X148739337Y-100507081D01*
X148739337Y-101507500D01*
X148596455Y-101507500D01*
G37*
D12*
G36*
X105245311Y-101294718D02*
G01*
X105256105Y-101295130D01*
X105266646Y-101295817D01*
X105276933Y-101296779D01*
X105286968Y-101298015D01*
X105296748Y-101299527D01*
X105309396Y-101301969D01*
X105321593Y-101304900D01*
X105333339Y-101308319D01*
X105339043Y-101310212D01*
X105350267Y-101314437D01*
X105361224Y-101319417D01*
X105371913Y-101325153D01*
X105382336Y-101331645D01*
X105392491Y-101338892D01*
X105402379Y-101346895D01*
X105412000Y-101355653D01*
X105419040Y-101362718D01*
X105421353Y-101365167D01*
X105428067Y-101372660D01*
X105434376Y-101380394D01*
X105440283Y-101388368D01*
X105445785Y-101396583D01*
X105450884Y-101405038D01*
X105455580Y-101413733D01*
X105459872Y-101422669D01*
X105463760Y-101431845D01*
X105467245Y-101441262D01*
X105470326Y-101450919D01*
X105472156Y-101457491D01*
X105474687Y-101467711D01*
X105476970Y-101478588D01*
X105479004Y-101490122D01*
X105480788Y-101502313D01*
X105482324Y-101515161D01*
X105483610Y-101528666D01*
X105484648Y-101542827D01*
X105485201Y-101552633D01*
X105485644Y-101562731D01*
X105485976Y-101573121D01*
X105486197Y-101583803D01*
X105486308Y-101594776D01*
X105486322Y-101600373D01*
X105486253Y-101612874D01*
X105486047Y-101625005D01*
X105485704Y-101636767D01*
X105485223Y-101648160D01*
X105484605Y-101659184D01*
X105483849Y-101669839D01*
X105482956Y-101680124D01*
X105481926Y-101690040D01*
X105480338Y-101702688D01*
X105478506Y-101714678D01*
X105476274Y-101726192D01*
X105473484Y-101737530D01*
X105470137Y-101748693D01*
X105466233Y-101759680D01*
X105461772Y-101770492D01*
X105456753Y-101781128D01*
X105451178Y-101791588D01*
X105445045Y-101801873D01*
X105439282Y-101810976D01*
X105433167Y-101819693D01*
X105426699Y-101828024D01*
X105419880Y-101835968D01*
X105412709Y-101843526D01*
X105405186Y-101850697D01*
X105397310Y-101857482D01*
X105389083Y-101863880D01*
X105380503Y-101869892D01*
X105371572Y-101875518D01*
X105365422Y-101879054D01*
X105355803Y-101883943D01*
X105345629Y-101888350D01*
X105334903Y-101892277D01*
X105323622Y-101895724D01*
X105311787Y-101898689D01*
X105299399Y-101901173D01*
X105286457Y-101903177D01*
X105272961Y-101904699D01*
X105258911Y-101905741D01*
X105244307Y-101906302D01*
X105234263Y-101906409D01*
X105160258Y-101906409D01*
X105160258Y-102295000D01*
X105017376Y-102295000D01*
X105017376Y-101437463D01*
X105160258Y-101437463D01*
X105160258Y-101763527D01*
X105229378Y-101763527D01*
X105239942Y-101763340D01*
X105249895Y-101762779D01*
X105261477Y-101761552D01*
X105272106Y-101759740D01*
X105281780Y-101757344D01*
X105292130Y-101753698D01*
X105296789Y-101751559D01*
X105305327Y-101746653D01*
X105314182Y-101740105D01*
X105321843Y-101732669D01*
X105328313Y-101724344D01*
X105332205Y-101717854D01*
X105336582Y-101708540D01*
X105339885Y-101698339D01*
X105342112Y-101687249D01*
X105343166Y-101677037D01*
X105343440Y-101668028D01*
X105343440Y-101656631D01*
X105343440Y-101646792D01*
X105343440Y-101636643D01*
X105343440Y-101626184D01*
X105343440Y-101615415D01*
X105343440Y-101604336D01*
X105343440Y-101602083D01*
X105343440Y-101591563D01*
X105343440Y-101581222D01*
X105343440Y-101571060D01*
X105343440Y-101561076D01*
X105343440Y-101551272D01*
X105343440Y-101539743D01*
X105343440Y-101537847D01*
X105343045Y-101526747D01*
X105341860Y-101516162D01*
X105339885Y-101506093D01*
X105337120Y-101496539D01*
X105332896Y-101486044D01*
X105332205Y-101484602D01*
X105326752Y-101475167D01*
X105320223Y-101466737D01*
X105312620Y-101459312D01*
X105303941Y-101452892D01*
X105298499Y-101449675D01*
X105289477Y-101445525D01*
X105279082Y-101442233D01*
X105269369Y-101440146D01*
X105258703Y-101438655D01*
X105247082Y-101437761D01*
X105237099Y-101437475D01*
X105234508Y-101437463D01*
X105160258Y-101437463D01*
X105017376Y-101437463D01*
X105017376Y-101294581D01*
X105234263Y-101294581D01*
X105245311Y-101294718D01*
G37*
G36*
X105743265Y-102295000D02*
G01*
X105743265Y-101446256D01*
X105602582Y-101551769D01*
X105602582Y-101399849D01*
X105743265Y-101294581D01*
X105886147Y-101294581D01*
X105886147Y-102295000D01*
X105743265Y-102295000D01*
G37*
D13*
X148982500Y-103015276D02*
X148982500Y-103524724D01*
X147937500Y-103015276D02*
X147937500Y-103524724D01*
%LPC*%
D14*
X148460000Y-102357500D03*
X148460000Y-104182500D03*
D15*
X139179336Y-108759270D03*
D16*
X139926082Y-109400967D03*
D17*
X140031745Y-108187370D03*
D15*
X140773247Y-108898719D03*
D18*
X138924824Y-103661226D03*
D19*
X139669486Y-104328668D03*
D16*
X139771436Y-103157882D03*
D18*
X140518735Y-103800676D03*
D15*
X135379336Y-108759270D03*
D16*
X136126082Y-109400967D03*
D17*
X136231745Y-108187370D03*
D15*
X136973247Y-108898719D03*
D18*
X135124824Y-103661226D03*
D19*
X135869486Y-104328668D03*
D16*
X135971436Y-103157882D03*
D18*
X136718735Y-103800676D03*
D15*
X131579356Y-108759271D03*
D16*
X132327828Y-109402413D03*
D17*
X132431765Y-108187371D03*
D15*
X133173267Y-108898720D03*
D18*
X131324824Y-103661226D03*
D19*
X132069486Y-104328668D03*
D16*
X132171436Y-103157882D03*
D18*
X132918735Y-103800676D03*
D15*
X127779356Y-108759271D03*
D16*
X128527828Y-109402413D03*
D17*
X128631765Y-108187371D03*
D15*
X129373267Y-108898720D03*
D18*
X127524824Y-103661226D03*
D19*
X128269486Y-104328668D03*
D16*
X128371436Y-103157882D03*
D18*
X129118735Y-103800676D03*
D15*
X123979356Y-108759271D03*
D16*
X124727828Y-109402413D03*
D17*
X124831765Y-108187371D03*
D15*
X125573267Y-108898720D03*
D18*
X123724824Y-103661226D03*
D19*
X124469486Y-104328668D03*
D16*
X124571436Y-103157882D03*
D18*
X125318735Y-103800676D03*
D15*
X120179356Y-108759271D03*
D16*
X120927828Y-109402413D03*
D17*
X121031765Y-108187371D03*
D15*
X121773267Y-108898720D03*
D18*
X119924824Y-103661226D03*
D19*
X120669486Y-104328668D03*
D16*
X120771436Y-103157882D03*
D18*
X121518735Y-103800676D03*
D15*
X116379356Y-108759271D03*
D16*
X117127828Y-109402413D03*
D17*
X117231765Y-108187371D03*
D15*
X117973267Y-108898720D03*
D18*
X116124824Y-103661226D03*
D19*
X116869486Y-104328668D03*
D16*
X116971436Y-103157882D03*
D18*
X117718735Y-103800676D03*
D15*
X112579356Y-108759271D03*
D16*
X113327828Y-109402413D03*
D17*
X113431765Y-108187371D03*
D15*
X114173267Y-108898720D03*
D18*
X112324824Y-103661226D03*
D19*
X113069486Y-104328668D03*
D16*
X113171436Y-103157882D03*
D18*
X113918735Y-103800676D03*
D15*
X108779356Y-108759271D03*
D16*
X109527828Y-109402413D03*
D17*
X109631765Y-108187371D03*
D15*
X110373267Y-108898720D03*
D18*
X108524824Y-103661226D03*
D19*
X109269486Y-104328668D03*
D16*
X109371436Y-103157882D03*
D18*
X110118735Y-103800676D03*
D15*
X104979356Y-108759271D03*
D16*
X105727828Y-109402413D03*
D17*
X105831765Y-108187371D03*
D15*
X106573267Y-108898720D03*
D18*
X104724822Y-103661226D03*
D19*
X105469484Y-104328668D03*
D16*
X105571915Y-103157880D03*
D18*
X106318733Y-103800675D03*
D20*
X183300000Y-110855000D03*
D21*
X183300000Y-108565000D03*
X183300000Y-106275000D03*
X183300000Y-103985000D03*
X183300000Y-101695000D03*
X185280000Y-112000000D03*
X185280000Y-109710000D03*
X185280000Y-107420000D03*
X185280000Y-105130000D03*
X185280000Y-102840000D03*
X187260000Y-110855000D03*
X187260000Y-108565000D03*
X187260000Y-106275000D03*
X187260000Y-103985000D03*
X187260000Y-101695000D03*
D22*
X185280000Y-93780000D03*
X185280000Y-118770000D03*
D23*
X150400000Y-102005000D03*
D24*
X150400000Y-104545000D03*
%LPD*%
M02*
