G04 #@! TF.GenerationSoftware,KiCad,Pcbnew,7.0.9*
G04 #@! TF.CreationDate,2023-11-21T14:26:00-05:00*
G04 #@! TF.ProjectId,SCART2VGA,53434152-5432-4564-9741-2e6b69636164,rev?*
G04 #@! TF.SameCoordinates,Original*
G04 #@! TF.FileFunction,Legend,Bot*
G04 #@! TF.FilePolarity,Positive*
%FSLAX46Y46*%
G04 Gerber Fmt 4.6, Leading zero omitted, Abs format (unit mm)*
G04 Created by KiCad (PCBNEW 7.0.9) date 2023-11-21 14:26:00*
%MOMM*%
%LPD*%
G01*
G04 APERTURE LIST*
G04 Aperture macros list*
%AMRoundRect*
0 Rectangle with rounded corners*
0 $1 Rounding radius*
0 $2 $3 $4 $5 $6 $7 $8 $9 X,Y pos of 4 corners*
0 Add a 4 corners polygon primitive as box body*
4,1,4,$2,$3,$4,$5,$6,$7,$8,$9,$2,$3,0*
0 Add four circle primitives for the rounded corners*
1,1,$1+$1,$2,$3*
1,1,$1+$1,$4,$5*
1,1,$1+$1,$6,$7*
1,1,$1+$1,$8,$9*
0 Add four rect primitives between the rounded corners*
20,1,$1+$1,$2,$3,$4,$5,0*
20,1,$1+$1,$4,$5,$6,$7,0*
20,1,$1+$1,$6,$7,$8,$9,0*
20,1,$1+$1,$8,$9,$2,$3,0*%
%AMHorizOval*
0 Thick line with rounded ends*
0 $1 width*
0 $2 $3 position (X,Y) of the first rounded end (center of the circle)*
0 $4 $5 position (X,Y) of the second rounded end (center of the circle)*
0 Add line between two ends*
20,1,$1,$2,$3,$4,$5,0*
0 Add two circle primitives to create the rounded ends*
1,1,$1,$2,$3*
1,1,$1,$4,$5*%
G04 Aperture macros list end*
%ADD10C,0.150000*%
%ADD11C,0.120000*%
%ADD12HorizOval,1.000000X-0.047936X-0.547907X0.047936X0.547907X0*%
%ADD13RoundRect,0.500000X-0.836176X-0.378563X0.757736X-0.518012X0.836176X0.378563X-0.757736X0.518012X0*%
%ADD14HorizOval,1.000000X0.047936X0.547907X-0.047936X-0.547907X0*%
%ADD15RoundRect,0.500000X0.836176X0.378563X-0.757736X0.518012X-0.836176X-0.378563X0.757736X-0.518012X0*%
%ADD16RoundRect,0.050000X0.850000X-0.850000X0.850000X0.850000X-0.850000X0.850000X-0.850000X-0.850000X0*%
%ADD17C,1.800000*%
%ADD18C,4.166000*%
%ADD19RoundRect,0.050000X0.850000X0.850000X-0.850000X0.850000X-0.850000X-0.850000X0.850000X-0.850000X0*%
%ADD20O,1.800000X1.800000*%
G04 APERTURE END LIST*
D10*
G36*
X185762623Y-100965000D02*
G01*
X185619741Y-100965000D01*
X185619741Y-100576409D01*
X185545736Y-100576409D01*
X185535692Y-100576302D01*
X185521088Y-100575741D01*
X185507038Y-100574699D01*
X185493542Y-100573177D01*
X185480600Y-100571173D01*
X185468212Y-100568689D01*
X185456377Y-100565724D01*
X185445096Y-100562277D01*
X185434370Y-100558350D01*
X185424196Y-100553943D01*
X185414577Y-100549054D01*
X185408427Y-100545518D01*
X185399496Y-100539892D01*
X185390916Y-100533880D01*
X185382689Y-100527482D01*
X185374813Y-100520697D01*
X185367290Y-100513526D01*
X185360119Y-100505968D01*
X185353300Y-100498024D01*
X185346832Y-100489693D01*
X185340717Y-100480976D01*
X185334954Y-100471873D01*
X185328821Y-100461588D01*
X185323246Y-100451128D01*
X185318227Y-100440492D01*
X185313766Y-100429680D01*
X185309862Y-100418693D01*
X185306515Y-100407530D01*
X185303725Y-100396192D01*
X185301493Y-100384678D01*
X185299661Y-100372688D01*
X185298073Y-100360040D01*
X185297043Y-100350124D01*
X185296150Y-100339839D01*
X185296022Y-100338028D01*
X185436559Y-100338028D01*
X185436833Y-100347037D01*
X185437887Y-100357249D01*
X185440114Y-100368339D01*
X185443417Y-100378540D01*
X185447794Y-100387854D01*
X185451686Y-100394344D01*
X185458156Y-100402669D01*
X185465817Y-100410105D01*
X185474672Y-100416653D01*
X185483210Y-100421559D01*
X185487869Y-100423698D01*
X185498219Y-100427344D01*
X185507893Y-100429740D01*
X185518522Y-100431552D01*
X185530104Y-100432779D01*
X185540057Y-100433340D01*
X185550621Y-100433527D01*
X185619741Y-100433527D01*
X185619741Y-100107463D01*
X185545491Y-100107463D01*
X185542900Y-100107475D01*
X185532917Y-100107761D01*
X185521296Y-100108655D01*
X185510630Y-100110146D01*
X185500917Y-100112233D01*
X185490522Y-100115525D01*
X185481500Y-100119675D01*
X185476058Y-100122892D01*
X185467379Y-100129312D01*
X185459776Y-100136737D01*
X185453247Y-100145167D01*
X185447794Y-100154602D01*
X185447103Y-100156044D01*
X185442879Y-100166539D01*
X185440114Y-100176093D01*
X185438139Y-100186162D01*
X185436954Y-100196747D01*
X185436559Y-100207847D01*
X185436559Y-100209743D01*
X185436559Y-100221272D01*
X185436559Y-100231076D01*
X185436559Y-100241060D01*
X185436559Y-100251222D01*
X185436559Y-100261563D01*
X185436559Y-100272083D01*
X185436559Y-100274336D01*
X185436559Y-100285415D01*
X185436559Y-100296184D01*
X185436559Y-100306643D01*
X185436559Y-100316792D01*
X185436559Y-100326631D01*
X185436559Y-100338028D01*
X185296022Y-100338028D01*
X185295394Y-100329184D01*
X185294776Y-100318160D01*
X185294295Y-100306767D01*
X185293952Y-100295005D01*
X185293746Y-100282874D01*
X185293677Y-100270373D01*
X185293691Y-100264776D01*
X185293802Y-100253803D01*
X185294023Y-100243121D01*
X185294355Y-100232731D01*
X185294798Y-100222633D01*
X185295351Y-100212827D01*
X185296389Y-100198666D01*
X185297675Y-100185161D01*
X185299211Y-100172313D01*
X185300995Y-100160122D01*
X185303029Y-100148588D01*
X185305312Y-100137711D01*
X185307843Y-100127491D01*
X185309673Y-100120919D01*
X185312754Y-100111262D01*
X185316239Y-100101845D01*
X185320127Y-100092669D01*
X185324419Y-100083733D01*
X185329115Y-100075038D01*
X185334214Y-100066583D01*
X185339716Y-100058368D01*
X185345623Y-100050394D01*
X185351932Y-100042660D01*
X185358646Y-100035167D01*
X185360959Y-100032718D01*
X185367999Y-100025653D01*
X185377620Y-100016895D01*
X185387508Y-100008892D01*
X185397663Y-100001645D01*
X185408086Y-99995153D01*
X185418775Y-99989417D01*
X185429732Y-99984437D01*
X185440956Y-99980212D01*
X185446660Y-99978319D01*
X185458406Y-99974900D01*
X185470603Y-99971969D01*
X185483251Y-99969527D01*
X185493031Y-99968015D01*
X185503066Y-99966779D01*
X185513353Y-99965817D01*
X185523894Y-99965130D01*
X185534688Y-99964718D01*
X185545736Y-99964581D01*
X185762623Y-99964581D01*
X185762623Y-100965000D01*
G37*
G36*
X185208681Y-100965000D02*
G01*
X185208681Y-100830422D01*
X184952226Y-100346577D01*
X184947661Y-100337681D01*
X184942686Y-100326958D01*
X184938521Y-100316677D01*
X184935168Y-100306837D01*
X184932214Y-100295611D01*
X184930428Y-100285021D01*
X184930244Y-100283318D01*
X184929248Y-100272604D01*
X184928458Y-100260981D01*
X184927957Y-100250599D01*
X184927599Y-100239586D01*
X184927384Y-100227940D01*
X184927316Y-100218169D01*
X184927313Y-100215662D01*
X184927313Y-100205223D01*
X184927313Y-100194513D01*
X184927313Y-100183533D01*
X184927313Y-100177316D01*
X184927755Y-100167486D01*
X184929312Y-100157156D01*
X184931989Y-100147599D01*
X184934396Y-100141657D01*
X184939386Y-100132646D01*
X184945807Y-100124541D01*
X184953659Y-100117342D01*
X184955401Y-100116011D01*
X184964236Y-100110816D01*
X184973777Y-100107626D01*
X184983428Y-100105936D01*
X184994294Y-100105275D01*
X184995945Y-100105265D01*
X185007563Y-100105909D01*
X185018236Y-100107841D01*
X185027965Y-100111061D01*
X185036749Y-100115569D01*
X185045803Y-100122456D01*
X185046992Y-100123583D01*
X185054320Y-100132297D01*
X185059168Y-100141049D01*
X185062695Y-100150987D01*
X185064899Y-100162110D01*
X185065725Y-100172284D01*
X185065798Y-100176584D01*
X185065798Y-100257428D01*
X185208681Y-100257428D01*
X185208681Y-100179270D01*
X185208421Y-100168127D01*
X185207643Y-100157166D01*
X185206345Y-100146389D01*
X185204528Y-100135795D01*
X185202193Y-100125384D01*
X185199338Y-100115157D01*
X185195965Y-100105112D01*
X185192072Y-100095251D01*
X185187664Y-100085630D01*
X185182867Y-100076307D01*
X185177681Y-100067281D01*
X185172105Y-100058553D01*
X185166140Y-100050123D01*
X185159786Y-100041991D01*
X185153043Y-100034156D01*
X185145910Y-100026618D01*
X185138774Y-100019532D01*
X185131286Y-100012803D01*
X185123447Y-100006434D01*
X185115258Y-100000423D01*
X185106717Y-99994772D01*
X185097825Y-99989478D01*
X185088582Y-99984544D01*
X185078988Y-99979968D01*
X185069130Y-99975846D01*
X185059097Y-99972274D01*
X185048888Y-99969252D01*
X185038504Y-99966779D01*
X185027945Y-99964856D01*
X185017209Y-99963482D01*
X185006299Y-99962657D01*
X184995212Y-99962383D01*
X184984867Y-99962561D01*
X184974805Y-99963095D01*
X184965026Y-99963986D01*
X184952428Y-99965728D01*
X184940334Y-99968104D01*
X184928744Y-99971113D01*
X184917658Y-99974756D01*
X184907075Y-99979032D01*
X184899469Y-99982655D01*
X184889722Y-99987952D01*
X184880388Y-99993707D01*
X184871465Y-99999920D01*
X184862955Y-100006591D01*
X184854857Y-100013719D01*
X184847171Y-100021306D01*
X184839897Y-100029351D01*
X184833035Y-100037854D01*
X184827013Y-100046738D01*
X184821403Y-100055928D01*
X184816205Y-100065423D01*
X184811420Y-100075223D01*
X184807046Y-100085328D01*
X184803085Y-100095739D01*
X184799536Y-100106455D01*
X184796399Y-100117477D01*
X184793594Y-100128735D01*
X184791163Y-100140161D01*
X184789106Y-100151755D01*
X184787423Y-100163517D01*
X184786114Y-100175446D01*
X184785179Y-100187544D01*
X184784618Y-100199810D01*
X184784431Y-100212243D01*
X184784431Y-100223253D01*
X184784431Y-100233691D01*
X184784431Y-100243556D01*
X184784431Y-100254638D01*
X184784431Y-100264896D01*
X184784431Y-100272815D01*
X184784629Y-100283407D01*
X184785225Y-100293813D01*
X184786219Y-100304031D01*
X184787610Y-100314062D01*
X184788583Y-100319710D01*
X184790680Y-100329446D01*
X184793338Y-100339204D01*
X184796557Y-100348987D01*
X184800337Y-100358793D01*
X184802749Y-100364406D01*
X184807446Y-100374693D01*
X184811974Y-100384236D01*
X184816965Y-100394448D01*
X184821479Y-100403470D01*
X184826315Y-100412957D01*
X184829371Y-100418872D01*
X185040641Y-100822117D01*
X184784431Y-100822117D01*
X184784431Y-100965000D01*
X185208681Y-100965000D01*
G37*
G36*
X185585723Y-97460479D02*
G01*
X185789910Y-98460898D01*
X185915939Y-98460898D01*
X186118905Y-97460479D01*
X185967719Y-97460479D01*
X185854390Y-98158769D01*
X185851704Y-98158769D01*
X185736909Y-97460479D01*
X185585723Y-97460479D01*
G37*
G36*
X185505123Y-97701302D02*
G01*
X185504936Y-97690159D01*
X185504376Y-97679260D01*
X185503442Y-97668606D01*
X185502135Y-97658197D01*
X185500454Y-97648033D01*
X185498400Y-97638113D01*
X185495972Y-97628438D01*
X185493170Y-97619008D01*
X185488854Y-97606815D01*
X185483874Y-97595057D01*
X185478340Y-97583760D01*
X185472364Y-97572953D01*
X185465945Y-97562633D01*
X185459083Y-97552803D01*
X185451779Y-97543460D01*
X185444032Y-97534607D01*
X185435842Y-97526241D01*
X185427210Y-97518364D01*
X185418524Y-97511201D01*
X185409563Y-97504488D01*
X185400328Y-97498226D01*
X185390817Y-97492414D01*
X185381032Y-97487052D01*
X185370973Y-97482140D01*
X185360638Y-97477679D01*
X185350029Y-97473668D01*
X185339210Y-97470062D01*
X185328368Y-97466936D01*
X185317503Y-97464291D01*
X185306615Y-97462127D01*
X185295704Y-97460444D01*
X185284770Y-97459242D01*
X185273814Y-97458521D01*
X185262834Y-97458281D01*
X185251858Y-97458521D01*
X185240913Y-97459242D01*
X185229999Y-97460444D01*
X185219115Y-97462127D01*
X185208261Y-97464291D01*
X185197438Y-97466936D01*
X185186646Y-97470062D01*
X185175884Y-97473668D01*
X185165194Y-97477732D01*
X185154741Y-97482232D01*
X185144525Y-97487166D01*
X185134546Y-97492536D01*
X185124803Y-97498340D01*
X185115296Y-97504580D01*
X185106026Y-97511255D01*
X185096993Y-97518364D01*
X185088704Y-97526298D01*
X185080812Y-97534713D01*
X185073317Y-97543609D01*
X185066219Y-97552986D01*
X185059517Y-97562843D01*
X185053213Y-97573182D01*
X185047305Y-97584001D01*
X185041794Y-97595301D01*
X185036814Y-97607063D01*
X185032498Y-97619267D01*
X185029696Y-97628711D01*
X185027269Y-97638404D01*
X185025214Y-97648346D01*
X185023533Y-97658537D01*
X185022226Y-97668977D01*
X185021292Y-97679666D01*
X185020732Y-97690604D01*
X185020545Y-97701791D01*
X185020545Y-97751861D01*
X185163427Y-97751861D01*
X185163427Y-97701791D01*
X185163889Y-97689273D01*
X185165274Y-97677611D01*
X185167583Y-97666803D01*
X185170816Y-97656850D01*
X185174972Y-97647752D01*
X185181465Y-97637582D01*
X185189402Y-97628747D01*
X185192981Y-97625587D01*
X185202472Y-97618551D01*
X185212477Y-97612707D01*
X185222995Y-97608056D01*
X185234025Y-97604597D01*
X185245568Y-97602331D01*
X185257624Y-97601258D01*
X185262590Y-97601163D01*
X185272554Y-97601544D01*
X185284527Y-97603095D01*
X185295962Y-97605838D01*
X185306862Y-97609773D01*
X185317224Y-97614901D01*
X185327050Y-97621222D01*
X185332688Y-97625587D01*
X185341201Y-97633887D01*
X185348272Y-97643524D01*
X185352890Y-97652194D01*
X185356584Y-97661720D01*
X185359355Y-97672100D01*
X185361202Y-97683335D01*
X185362126Y-97695425D01*
X185362241Y-97701791D01*
X185362241Y-98225447D01*
X185361779Y-98237908D01*
X185360394Y-98249521D01*
X185358085Y-98260286D01*
X185354853Y-98270205D01*
X185350697Y-98279276D01*
X185344203Y-98289424D01*
X185336266Y-98298248D01*
X185332688Y-98301407D01*
X185323184Y-98308443D01*
X185313143Y-98314287D01*
X185302566Y-98318938D01*
X185291452Y-98322397D01*
X185279802Y-98324662D01*
X185267615Y-98325736D01*
X185262590Y-98325831D01*
X185252740Y-98325450D01*
X185240889Y-98323899D01*
X185229551Y-98321156D01*
X185218726Y-98317221D01*
X185208414Y-98312093D01*
X185198614Y-98305772D01*
X185192981Y-98301407D01*
X185184467Y-98293112D01*
X185177396Y-98283494D01*
X185172778Y-98274846D01*
X185169084Y-98265352D01*
X185166313Y-98255009D01*
X185164466Y-98243820D01*
X185163543Y-98231783D01*
X185163427Y-98225447D01*
X185163427Y-98038846D01*
X185279931Y-98038846D01*
X185279931Y-97913794D01*
X185020545Y-97913794D01*
X185020545Y-98226180D01*
X185020732Y-98237791D01*
X185021292Y-98249084D01*
X185022226Y-98260059D01*
X185023533Y-98270716D01*
X185025214Y-98281056D01*
X185027269Y-98291078D01*
X185029696Y-98300782D01*
X185032498Y-98310169D01*
X185036814Y-98322190D01*
X185041794Y-98333647D01*
X185047305Y-98344523D01*
X185053213Y-98354927D01*
X185059517Y-98364857D01*
X185066219Y-98374313D01*
X185073317Y-98383297D01*
X185080812Y-98391807D01*
X185088704Y-98399844D01*
X185096993Y-98407408D01*
X185106026Y-98414862D01*
X185115296Y-98421834D01*
X185124803Y-98428325D01*
X185134546Y-98434336D01*
X185144525Y-98439866D01*
X185154741Y-98444915D01*
X185165194Y-98449483D01*
X185175884Y-98453570D01*
X185186646Y-98457119D01*
X185197438Y-98460195D01*
X185208261Y-98462798D01*
X185219115Y-98464928D01*
X185229999Y-98466584D01*
X185240913Y-98467767D01*
X185251858Y-98468477D01*
X185262834Y-98468713D01*
X185273814Y-98468477D01*
X185284770Y-98467767D01*
X185295704Y-98466584D01*
X185306615Y-98464928D01*
X185317503Y-98462798D01*
X185328368Y-98460195D01*
X185339210Y-98457119D01*
X185350029Y-98453570D01*
X185360638Y-98449483D01*
X185370973Y-98444915D01*
X185381032Y-98439866D01*
X185390817Y-98434336D01*
X185400328Y-98428325D01*
X185409563Y-98421834D01*
X185418524Y-98414862D01*
X185427210Y-98407408D01*
X185435842Y-98399841D01*
X185444032Y-98391792D01*
X185451779Y-98383263D01*
X185459083Y-98374252D01*
X185465945Y-98364761D01*
X185472364Y-98354789D01*
X185478340Y-98344336D01*
X185483874Y-98333403D01*
X185488854Y-98321946D01*
X185493170Y-98309925D01*
X185495972Y-98300538D01*
X185498400Y-98290834D01*
X185500454Y-98280812D01*
X185502135Y-98270472D01*
X185503442Y-98259815D01*
X185504376Y-98248839D01*
X185504936Y-98237546D01*
X185505123Y-98225936D01*
X185505123Y-97701302D01*
G37*
G36*
X184969010Y-98460898D02*
G01*
X184826128Y-98460898D01*
X184784118Y-98242056D01*
X184589457Y-98242056D01*
X184547447Y-98460898D01*
X184404809Y-98460898D01*
X184485261Y-98099174D01*
X184616079Y-98099174D01*
X184758961Y-98099174D01*
X184688863Y-97743312D01*
X184686177Y-97743312D01*
X184616079Y-98099174D01*
X184485261Y-98099174D01*
X184627314Y-97460479D01*
X184746260Y-97460479D01*
X184969010Y-98460898D01*
G37*
G36*
X153155170Y-102694581D02*
G01*
X153155170Y-103458572D01*
X153155422Y-103471263D01*
X153156177Y-103483687D01*
X153157437Y-103495847D01*
X153159200Y-103507742D01*
X153161467Y-103519371D01*
X153164237Y-103530735D01*
X153167512Y-103541833D01*
X153171290Y-103552667D01*
X153175572Y-103563235D01*
X153180357Y-103573538D01*
X153185647Y-103583576D01*
X153191440Y-103593349D01*
X153197737Y-103602856D01*
X153204537Y-103612098D01*
X153211842Y-103621075D01*
X153219650Y-103629787D01*
X153227897Y-103638049D01*
X153236518Y-103645861D01*
X153245513Y-103653223D01*
X153254882Y-103660134D01*
X153264625Y-103666595D01*
X153274742Y-103672605D01*
X153285233Y-103678166D01*
X153296098Y-103683276D01*
X153307322Y-103687855D01*
X153319011Y-103691824D01*
X153331166Y-103695183D01*
X153343786Y-103697930D01*
X153353557Y-103699591D01*
X153363590Y-103700907D01*
X153373885Y-103701880D01*
X153384441Y-103702510D01*
X153395260Y-103702796D01*
X153398924Y-103702815D01*
X153411589Y-103702551D01*
X153423845Y-103701759D01*
X153435694Y-103700439D01*
X153447135Y-103698591D01*
X153458169Y-103696214D01*
X153468794Y-103693310D01*
X153479011Y-103689877D01*
X153488821Y-103685917D01*
X153498222Y-103681428D01*
X153507216Y-103676411D01*
X153512986Y-103672773D01*
X153521338Y-103667145D01*
X153529360Y-103661525D01*
X153539542Y-103654045D01*
X153549136Y-103646580D01*
X153558143Y-103639131D01*
X153566562Y-103631697D01*
X153574393Y-103624278D01*
X153581636Y-103616874D01*
X153585037Y-103613178D01*
X153473174Y-103523297D01*
X153465068Y-103530700D01*
X153456382Y-103537524D01*
X153447116Y-103543767D01*
X153438533Y-103548755D01*
X153437270Y-103549431D01*
X153428308Y-103553523D01*
X153417836Y-103556969D01*
X153407120Y-103559102D01*
X153396159Y-103559923D01*
X153394772Y-103559933D01*
X153384663Y-103559246D01*
X153374370Y-103557410D01*
X153365219Y-103555048D01*
X153355855Y-103551586D01*
X153346723Y-103546694D01*
X153337823Y-103540372D01*
X153332979Y-103536242D01*
X153325636Y-103529235D01*
X153318996Y-103520915D01*
X153313761Y-103512559D01*
X153309065Y-103503197D01*
X153307822Y-103500338D01*
X153304501Y-103491122D01*
X153301868Y-103480875D01*
X153299922Y-103469598D01*
X153298825Y-103459413D01*
X153298204Y-103448513D01*
X153298052Y-103439277D01*
X153298052Y-102694581D01*
X153155170Y-102694581D01*
G37*
G36*
X153019615Y-103695000D02*
G01*
X152876733Y-103695000D01*
X152876733Y-103306409D01*
X152802727Y-103306409D01*
X152792684Y-103306302D01*
X152778080Y-103305741D01*
X152764030Y-103304699D01*
X152750534Y-103303177D01*
X152737592Y-103301173D01*
X152725203Y-103298689D01*
X152713369Y-103295724D01*
X152702088Y-103292277D01*
X152691361Y-103288350D01*
X152681188Y-103283943D01*
X152671569Y-103279054D01*
X152665419Y-103275518D01*
X152656487Y-103269892D01*
X152647908Y-103263880D01*
X152639680Y-103257482D01*
X152631805Y-103250697D01*
X152624282Y-103243526D01*
X152617110Y-103235968D01*
X152610291Y-103228024D01*
X152603824Y-103219693D01*
X152597709Y-103210976D01*
X152591946Y-103201873D01*
X152585813Y-103191588D01*
X152580237Y-103181128D01*
X152575219Y-103170492D01*
X152570758Y-103159680D01*
X152566854Y-103148693D01*
X152563507Y-103137530D01*
X152560717Y-103126192D01*
X152558484Y-103114678D01*
X152556653Y-103102688D01*
X152555065Y-103090040D01*
X152554035Y-103080124D01*
X152553142Y-103069839D01*
X152553014Y-103068028D01*
X152693551Y-103068028D01*
X152693825Y-103077037D01*
X152694878Y-103087249D01*
X152697106Y-103098339D01*
X152700408Y-103108540D01*
X152704786Y-103117854D01*
X152708677Y-103124344D01*
X152715147Y-103132669D01*
X152722809Y-103140105D01*
X152731663Y-103146653D01*
X152740201Y-103151559D01*
X152744861Y-103153698D01*
X152755211Y-103157344D01*
X152764885Y-103159740D01*
X152775513Y-103161552D01*
X152787096Y-103162779D01*
X152797049Y-103163340D01*
X152807612Y-103163527D01*
X152876733Y-103163527D01*
X152876733Y-102837463D01*
X152802483Y-102837463D01*
X152799892Y-102837475D01*
X152789908Y-102837761D01*
X152778288Y-102838655D01*
X152767621Y-102840146D01*
X152757909Y-102842233D01*
X152747513Y-102845525D01*
X152738491Y-102849675D01*
X152733049Y-102852892D01*
X152724371Y-102859312D01*
X152716767Y-102866737D01*
X152710239Y-102875167D01*
X152704786Y-102884602D01*
X152704095Y-102886044D01*
X152699871Y-102896539D01*
X152697106Y-102906093D01*
X152695131Y-102916162D01*
X152693946Y-102926747D01*
X152693551Y-102937847D01*
X152693551Y-102939743D01*
X152693551Y-102951272D01*
X152693551Y-102961076D01*
X152693551Y-102971060D01*
X152693551Y-102981222D01*
X152693551Y-102991563D01*
X152693551Y-103002083D01*
X152693551Y-103004336D01*
X152693551Y-103015415D01*
X152693551Y-103026184D01*
X152693551Y-103036643D01*
X152693551Y-103046792D01*
X152693551Y-103056631D01*
X152693551Y-103068028D01*
X152553014Y-103068028D01*
X152552386Y-103059184D01*
X152551768Y-103048160D01*
X152551287Y-103036767D01*
X152550943Y-103025005D01*
X152550737Y-103012874D01*
X152550669Y-103000373D01*
X152550683Y-102994776D01*
X152550793Y-102983803D01*
X152551015Y-102973121D01*
X152551347Y-102962731D01*
X152551789Y-102952633D01*
X152552343Y-102942827D01*
X152553380Y-102928666D01*
X152554667Y-102915161D01*
X152556202Y-102902313D01*
X152557987Y-102890122D01*
X152560021Y-102878588D01*
X152562303Y-102867711D01*
X152564835Y-102857491D01*
X152566665Y-102850919D01*
X152569746Y-102841262D01*
X152573231Y-102831845D01*
X152577119Y-102822669D01*
X152581411Y-102813733D01*
X152586106Y-102805038D01*
X152591205Y-102796583D01*
X152596708Y-102788368D01*
X152602614Y-102780394D01*
X152608924Y-102772660D01*
X152615637Y-102765167D01*
X152617951Y-102762718D01*
X152624991Y-102755653D01*
X152634612Y-102746895D01*
X152644500Y-102738892D01*
X152654655Y-102731645D01*
X152665077Y-102725153D01*
X152675767Y-102719417D01*
X152686723Y-102714437D01*
X152697947Y-102710212D01*
X152703652Y-102708319D01*
X152715398Y-102704900D01*
X152727595Y-102701969D01*
X152740242Y-102699527D01*
X152750023Y-102698015D01*
X152760057Y-102696779D01*
X152770345Y-102695817D01*
X152780886Y-102695130D01*
X152791680Y-102694718D01*
X152802727Y-102694581D01*
X153019615Y-102694581D01*
X153019615Y-103695000D01*
G37*
G36*
X152293725Y-103695000D02*
G01*
X152293725Y-102846256D01*
X152434409Y-102951769D01*
X152434409Y-102799849D01*
X152293725Y-102694581D01*
X152150843Y-102694581D01*
X152150843Y-103695000D01*
X152293725Y-103695000D01*
G37*
G36*
X153472574Y-107290000D02*
G01*
X153472574Y-106289581D01*
X153336531Y-106289581D01*
X153115247Y-106892372D01*
X153115247Y-106289581D01*
X152972365Y-106289581D01*
X152972365Y-107290000D01*
X153105477Y-107290000D01*
X153329692Y-106688674D01*
X153329692Y-107290000D01*
X153472574Y-107290000D01*
G37*
G36*
X152663136Y-106578873D02*
G01*
X152675274Y-106579444D01*
X152687059Y-106580505D01*
X152698492Y-106582054D01*
X152709573Y-106584094D01*
X152720302Y-106586623D01*
X152730679Y-106589641D01*
X152740704Y-106593148D01*
X152750377Y-106597146D01*
X152759698Y-106601632D01*
X152768666Y-106606608D01*
X152774413Y-106610129D01*
X152782714Y-106615674D01*
X152790633Y-106621537D01*
X152800597Y-106629849D01*
X152809882Y-106638726D01*
X152818488Y-106648167D01*
X152826415Y-106658174D01*
X152833662Y-106668745D01*
X152840230Y-106679881D01*
X152842115Y-106683393D01*
X152846494Y-106692448D01*
X152850396Y-106701897D01*
X152853821Y-106711740D01*
X152856769Y-106721976D01*
X152859240Y-106732605D01*
X152861234Y-106743628D01*
X152861915Y-106748144D01*
X152863423Y-106759675D01*
X152864658Y-106771552D01*
X152865448Y-106781303D01*
X152866062Y-106791275D01*
X152866501Y-106801468D01*
X152866764Y-106811883D01*
X152866852Y-106822519D01*
X152866852Y-107054305D01*
X152866847Y-107056955D01*
X152866715Y-107067431D01*
X152866408Y-107077708D01*
X152865925Y-107087787D01*
X152865267Y-107097667D01*
X152864197Y-107109739D01*
X152862853Y-107121500D01*
X152861234Y-107132951D01*
X152860494Y-107137437D01*
X152858309Y-107148369D01*
X152855647Y-107158895D01*
X152852509Y-107169015D01*
X152848893Y-107178730D01*
X152844800Y-107188039D01*
X152840230Y-107196943D01*
X152835367Y-107205348D01*
X152828290Y-107216060D01*
X152820533Y-107226208D01*
X152812098Y-107235790D01*
X152802982Y-107244808D01*
X152793188Y-107253261D01*
X152785396Y-107259231D01*
X152777222Y-107264882D01*
X152768666Y-107270216D01*
X152762726Y-107273558D01*
X152753523Y-107278167D01*
X152743967Y-107282291D01*
X152734060Y-107285929D01*
X152723800Y-107289083D01*
X152713188Y-107291751D01*
X152702225Y-107293934D01*
X152690909Y-107295632D01*
X152679241Y-107296845D01*
X152667221Y-107297573D01*
X152654849Y-107297815D01*
X152646534Y-107297707D01*
X152634361Y-107297141D01*
X152622548Y-107296090D01*
X152611096Y-107294554D01*
X152600005Y-107292533D01*
X152589275Y-107290026D01*
X152578905Y-107287034D01*
X152568896Y-107283557D01*
X152559247Y-107279595D01*
X152549959Y-107275148D01*
X152541032Y-107270216D01*
X152535256Y-107266695D01*
X152526914Y-107261150D01*
X152518959Y-107255286D01*
X152508952Y-107246975D01*
X152499633Y-107238098D01*
X152491000Y-107228656D01*
X152483055Y-107218650D01*
X152475796Y-107208079D01*
X152469225Y-107196943D01*
X152467339Y-107193430D01*
X152462960Y-107184364D01*
X152459058Y-107174892D01*
X152455633Y-107165015D01*
X152452685Y-107154733D01*
X152450214Y-107144045D01*
X152448220Y-107132951D01*
X152447874Y-107130686D01*
X152446311Y-107119173D01*
X152445022Y-107107349D01*
X152444007Y-107095216D01*
X152443392Y-107085286D01*
X152442953Y-107075157D01*
X152442951Y-107075066D01*
X152585484Y-107075066D01*
X152585778Y-107084767D01*
X152586972Y-107096013D01*
X152589084Y-107106281D01*
X152592831Y-107117312D01*
X152597900Y-107126935D01*
X152604291Y-107135150D01*
X152606664Y-107137545D01*
X152614412Y-107143805D01*
X152623104Y-107148674D01*
X152632741Y-107152151D01*
X152643323Y-107154238D01*
X152654849Y-107154933D01*
X152658768Y-107154856D01*
X152669916Y-107153697D01*
X152680154Y-107151146D01*
X152689482Y-107147205D01*
X152697900Y-107141873D01*
X152705408Y-107135150D01*
X152710755Y-107128402D01*
X152715976Y-107119014D01*
X152719891Y-107108217D01*
X152722157Y-107098145D01*
X152723517Y-107087094D01*
X152723970Y-107075066D01*
X152723970Y-106801514D01*
X152723680Y-106791817D01*
X152722502Y-106780586D01*
X152720417Y-106770345D01*
X152716719Y-106759363D01*
X152711716Y-106749806D01*
X152705408Y-106741674D01*
X152703006Y-106739249D01*
X152695195Y-106732912D01*
X152686474Y-106727983D01*
X152676843Y-106724463D01*
X152666301Y-106722351D01*
X152654849Y-106721646D01*
X152650902Y-106721725D01*
X152639691Y-106722898D01*
X152629424Y-106725480D01*
X152620102Y-106729470D01*
X152611724Y-106734868D01*
X152604291Y-106741674D01*
X152598873Y-106748352D01*
X152593584Y-106757671D01*
X152589617Y-106768416D01*
X152587321Y-106778459D01*
X152585943Y-106789491D01*
X152585484Y-106801514D01*
X152585484Y-107075066D01*
X152442951Y-107075066D01*
X152442690Y-107064830D01*
X152442602Y-107054305D01*
X152442602Y-106822519D01*
X152442608Y-106819839D01*
X152442739Y-106809258D01*
X152443047Y-106798899D01*
X152443529Y-106788761D01*
X152444188Y-106778844D01*
X152445257Y-106766760D01*
X152446601Y-106755021D01*
X152448220Y-106743628D01*
X152448960Y-106739172D01*
X152451145Y-106728306D01*
X152453807Y-106717834D01*
X152456946Y-106707755D01*
X152460562Y-106698070D01*
X152464655Y-106688779D01*
X152469225Y-106679881D01*
X152474089Y-106671476D01*
X152481176Y-106660764D01*
X152488950Y-106650616D01*
X152497410Y-106641033D01*
X152506558Y-106632015D01*
X152516393Y-106623562D01*
X152524219Y-106617593D01*
X152532433Y-106611942D01*
X152541032Y-106606608D01*
X152546944Y-106603236D01*
X152556111Y-106598587D01*
X152565640Y-106594426D01*
X152575529Y-106590756D01*
X152585778Y-106587574D01*
X152596388Y-106584882D01*
X152607359Y-106582680D01*
X152618691Y-106580967D01*
X152630383Y-106579743D01*
X152642436Y-106579009D01*
X152654849Y-106578764D01*
X152663136Y-106578873D01*
G37*
G36*
X152133391Y-107290000D02*
G01*
X151990509Y-107290000D01*
X151948499Y-107071158D01*
X151753837Y-107071158D01*
X151711828Y-107290000D01*
X151569190Y-107290000D01*
X151649642Y-106928276D01*
X151780460Y-106928276D01*
X151923342Y-106928276D01*
X151853244Y-106572414D01*
X151850558Y-106572414D01*
X151780460Y-106928276D01*
X151649642Y-106928276D01*
X151791695Y-106289581D01*
X151910641Y-106289581D01*
X152133391Y-107290000D01*
G37*
G36*
X151506175Y-106586580D02*
G01*
X151506175Y-106359923D01*
X151363293Y-106359923D01*
X151363293Y-106586580D01*
X151285135Y-106586580D01*
X151285135Y-106696001D01*
X151363293Y-106696001D01*
X151363293Y-107078974D01*
X151363083Y-107089240D01*
X151362327Y-107099685D01*
X151360820Y-107109794D01*
X151358897Y-107117320D01*
X151354844Y-107126467D01*
X151348748Y-107134284D01*
X151344731Y-107137592D01*
X151335909Y-107142262D01*
X151325717Y-107145158D01*
X151320551Y-107145896D01*
X151309974Y-107146592D01*
X151300076Y-107146946D01*
X151289057Y-107147107D01*
X151285135Y-107147117D01*
X151285135Y-107290000D01*
X151341555Y-107290000D01*
X151353039Y-107289763D01*
X151364041Y-107289053D01*
X151374563Y-107287870D01*
X151384603Y-107286214D01*
X151394163Y-107284084D01*
X151405437Y-107280757D01*
X151415959Y-107276690D01*
X151419957Y-107274856D01*
X151429423Y-107269845D01*
X151438280Y-107264428D01*
X151446530Y-107258606D01*
X151454171Y-107252378D01*
X151462537Y-107244370D01*
X151470027Y-107235778D01*
X151476728Y-107226679D01*
X151482724Y-107217150D01*
X151488016Y-107207193D01*
X151492604Y-107196806D01*
X151496488Y-107185989D01*
X151497627Y-107182288D01*
X151500532Y-107171100D01*
X151502836Y-107160066D01*
X151504539Y-107149187D01*
X151505641Y-107138462D01*
X151506142Y-107127892D01*
X151506175Y-107124403D01*
X151506175Y-106696001D01*
X151582135Y-106696001D01*
X151582135Y-106586580D01*
X151506175Y-106586580D01*
G37*
G36*
X151220900Y-106586580D02*
G01*
X151220900Y-106359923D01*
X151078017Y-106359923D01*
X151078017Y-106586580D01*
X150999860Y-106586580D01*
X150999860Y-106696001D01*
X151078017Y-106696001D01*
X151078017Y-107078974D01*
X151077807Y-107089240D01*
X151077051Y-107099685D01*
X151075544Y-107109794D01*
X151073621Y-107117320D01*
X151069568Y-107126467D01*
X151063472Y-107134284D01*
X151059455Y-107137592D01*
X151050633Y-107142262D01*
X151040441Y-107145158D01*
X151035275Y-107145896D01*
X151024699Y-107146592D01*
X151014801Y-107146946D01*
X151003782Y-107147107D01*
X150999860Y-107147117D01*
X150999860Y-107290000D01*
X151056280Y-107290000D01*
X151067763Y-107289763D01*
X151078765Y-107289053D01*
X151089287Y-107287870D01*
X151099328Y-107286214D01*
X151108887Y-107284084D01*
X151120161Y-107280757D01*
X151130683Y-107276690D01*
X151134682Y-107274856D01*
X151144147Y-107269845D01*
X151153005Y-107264428D01*
X151161254Y-107258606D01*
X151168895Y-107252378D01*
X151177261Y-107244370D01*
X151184752Y-107235778D01*
X151191452Y-107226679D01*
X151197448Y-107217150D01*
X151202741Y-107207193D01*
X151207329Y-107196806D01*
X151211213Y-107185989D01*
X151212351Y-107182288D01*
X151215256Y-107171100D01*
X151217560Y-107160066D01*
X151219263Y-107149187D01*
X151220365Y-107138462D01*
X151220866Y-107127892D01*
X151220900Y-107124403D01*
X151220900Y-106696001D01*
X151296859Y-106696001D01*
X151296859Y-106586580D01*
X151220900Y-106586580D01*
G37*
G36*
X150745342Y-106578873D02*
G01*
X150757479Y-106579444D01*
X150769264Y-106580505D01*
X150780697Y-106582054D01*
X150791778Y-106584094D01*
X150802507Y-106586623D01*
X150812884Y-106589641D01*
X150822909Y-106593148D01*
X150832582Y-106597146D01*
X150841903Y-106601632D01*
X150850872Y-106606608D01*
X150856618Y-106610129D01*
X150864919Y-106615674D01*
X150872838Y-106621537D01*
X150882803Y-106629849D01*
X150892088Y-106638726D01*
X150900693Y-106648167D01*
X150908620Y-106658174D01*
X150915867Y-106668745D01*
X150922435Y-106679881D01*
X150924320Y-106683393D01*
X150928699Y-106692448D01*
X150932601Y-106701897D01*
X150936026Y-106711740D01*
X150938975Y-106721976D01*
X150941446Y-106732605D01*
X150943440Y-106743628D01*
X150944120Y-106748144D01*
X150945629Y-106759675D01*
X150946863Y-106771552D01*
X150947653Y-106781303D01*
X150948267Y-106791275D01*
X150948706Y-106801468D01*
X150948969Y-106811883D01*
X150949057Y-106822519D01*
X150949057Y-107054305D01*
X150949052Y-107056955D01*
X150948920Y-107067431D01*
X150948613Y-107077708D01*
X150948130Y-107087787D01*
X150947472Y-107097667D01*
X150946402Y-107109739D01*
X150945058Y-107121500D01*
X150943440Y-107132951D01*
X150942699Y-107137437D01*
X150940514Y-107148369D01*
X150937853Y-107158895D01*
X150934714Y-107169015D01*
X150931098Y-107178730D01*
X150927005Y-107188039D01*
X150922435Y-107196943D01*
X150917573Y-107205348D01*
X150910495Y-107216060D01*
X150902739Y-107226208D01*
X150894303Y-107235790D01*
X150885187Y-107244808D01*
X150875393Y-107253261D01*
X150867601Y-107259231D01*
X150859428Y-107264882D01*
X150850872Y-107270216D01*
X150844932Y-107273558D01*
X150835728Y-107278167D01*
X150826173Y-107282291D01*
X150816265Y-107285929D01*
X150806005Y-107289083D01*
X150795394Y-107291751D01*
X150784430Y-107293934D01*
X150773114Y-107295632D01*
X150761446Y-107296845D01*
X150749426Y-107297573D01*
X150737054Y-107297815D01*
X150724995Y-107297556D01*
X150713241Y-107296777D01*
X150701792Y-107295480D01*
X150690648Y-107293663D01*
X150679810Y-107291328D01*
X150669277Y-107288473D01*
X150659049Y-107285099D01*
X150649127Y-107281207D01*
X150639529Y-107276860D01*
X150630275Y-107272124D01*
X150621363Y-107266999D01*
X150612796Y-107261484D01*
X150604572Y-107255580D01*
X150596691Y-107249287D01*
X150589154Y-107242605D01*
X150581960Y-107235533D01*
X150575039Y-107228280D01*
X150568565Y-107220745D01*
X150562537Y-107212930D01*
X150556956Y-107204835D01*
X150551821Y-107196459D01*
X150547133Y-107187803D01*
X150542891Y-107178866D01*
X150539096Y-107169649D01*
X150535747Y-107160151D01*
X150532845Y-107150373D01*
X150530389Y-107140314D01*
X150528379Y-107129975D01*
X150526817Y-107119355D01*
X150525700Y-107108455D01*
X150525031Y-107097274D01*
X150524807Y-107085812D01*
X150667689Y-107085812D01*
X150668785Y-107092993D01*
X150671181Y-107103066D01*
X150674582Y-107113162D01*
X150678989Y-107123282D01*
X150683565Y-107131974D01*
X150687286Y-107137355D01*
X150694456Y-107144082D01*
X150703532Y-107149193D01*
X150714514Y-107152691D01*
X150725123Y-107154373D01*
X150737054Y-107154933D01*
X150748506Y-107154315D01*
X150759048Y-107152460D01*
X150768679Y-107149369D01*
X150778765Y-107144200D01*
X150787613Y-107137348D01*
X150789861Y-107135061D01*
X150796586Y-107126140D01*
X150800936Y-107117359D01*
X150803982Y-107107530D01*
X150805722Y-107096653D01*
X150806175Y-107086789D01*
X150806175Y-106993000D01*
X150524807Y-106993000D01*
X150524807Y-106883579D01*
X150667689Y-106883579D01*
X150806175Y-106883579D01*
X150806175Y-106802735D01*
X150805885Y-106792862D01*
X150804707Y-106781434D01*
X150802622Y-106771019D01*
X150798924Y-106759859D01*
X150793921Y-106750159D01*
X150787613Y-106741919D01*
X150785211Y-106739464D01*
X150777400Y-106733049D01*
X150768679Y-106728061D01*
X150759048Y-106724497D01*
X150748506Y-106722359D01*
X150737054Y-106721646D01*
X150733107Y-106721726D01*
X150721896Y-106722913D01*
X150711629Y-106725527D01*
X150702307Y-106729565D01*
X150693929Y-106735029D01*
X150686496Y-106741919D01*
X150685339Y-106743191D01*
X150679168Y-106751674D01*
X150674320Y-106761618D01*
X150671289Y-106771019D01*
X150669177Y-106781434D01*
X150667983Y-106792862D01*
X150667689Y-106802735D01*
X150667689Y-106883579D01*
X150524807Y-106883579D01*
X150524807Y-106798583D01*
X150525026Y-106786893D01*
X150525681Y-106775452D01*
X150526774Y-106764262D01*
X150528303Y-106753322D01*
X150530269Y-106742631D01*
X150532673Y-106732191D01*
X150535513Y-106722000D01*
X150538790Y-106712060D01*
X150542505Y-106702369D01*
X150546656Y-106692929D01*
X150551244Y-106683738D01*
X150556269Y-106674798D01*
X150561731Y-106666107D01*
X150567630Y-106657666D01*
X150573966Y-106649475D01*
X150580739Y-106641535D01*
X150587887Y-106634406D01*
X150595409Y-106627674D01*
X150603305Y-106621339D01*
X150611575Y-106615401D01*
X150620219Y-106609859D01*
X150629236Y-106604715D01*
X150638628Y-106599968D01*
X150648394Y-106595617D01*
X150658488Y-106591667D01*
X150668865Y-106588244D01*
X150679524Y-106585347D01*
X150690465Y-106582978D01*
X150701689Y-106581134D01*
X150713195Y-106579818D01*
X150724984Y-106579028D01*
X150737054Y-106578764D01*
X150745342Y-106578873D01*
G37*
G36*
X150415631Y-107290000D02*
G01*
X150415631Y-106586580D01*
X150272749Y-106586580D01*
X150272749Y-106655457D01*
X150269818Y-106655457D01*
X150264124Y-106647278D01*
X150258155Y-106639474D01*
X150250308Y-106630244D01*
X150242031Y-106621599D01*
X150233326Y-106613539D01*
X150224190Y-106606062D01*
X150216573Y-106600502D01*
X150206386Y-106594240D01*
X150195364Y-106589039D01*
X150185945Y-106585642D01*
X150175992Y-106582925D01*
X150165505Y-106580887D01*
X150154484Y-106579529D01*
X150142928Y-106578849D01*
X150136950Y-106578764D01*
X150127058Y-106579082D01*
X150117166Y-106580035D01*
X150107274Y-106581624D01*
X150097382Y-106583848D01*
X150087491Y-106586707D01*
X150084193Y-106587801D01*
X150074499Y-106591602D01*
X150065200Y-106596228D01*
X150056295Y-106601677D01*
X150047786Y-106607951D01*
X150039671Y-106615050D01*
X150037054Y-106617599D01*
X150029561Y-106625805D01*
X150022652Y-106634852D01*
X150016326Y-106644741D01*
X150011501Y-106653625D01*
X150007081Y-106663093D01*
X150003837Y-106671088D01*
X150000249Y-106681597D01*
X149997269Y-106692822D01*
X149994897Y-106704762D01*
X149993437Y-106714830D01*
X149992366Y-106725355D01*
X149991685Y-106736338D01*
X149991393Y-106747779D01*
X149991381Y-106750711D01*
X149991381Y-107290000D01*
X150134263Y-107290000D01*
X150134263Y-106804445D01*
X150134698Y-106792791D01*
X150136004Y-106781948D01*
X150138181Y-106771916D01*
X150141942Y-106760948D01*
X150146956Y-106751147D01*
X150152093Y-106743872D01*
X150159303Y-106736319D01*
X150167560Y-106730328D01*
X150176865Y-106725901D01*
X150187218Y-106723036D01*
X150198618Y-106721733D01*
X150202651Y-106721646D01*
X150214490Y-106722255D01*
X150225124Y-106724079D01*
X150234554Y-106727120D01*
X150244280Y-106732375D01*
X150252271Y-106739382D01*
X150257606Y-106746559D01*
X150262752Y-106756600D01*
X150266227Y-106766174D01*
X150268963Y-106776845D01*
X150270959Y-106788614D01*
X150272024Y-106798819D01*
X150272616Y-106809726D01*
X150272749Y-106818367D01*
X150272749Y-107290000D01*
X150415631Y-107290000D01*
G37*
G36*
X149447208Y-106586580D02*
G01*
X149447208Y-107290000D01*
X149590090Y-107290000D01*
X149590090Y-107221123D01*
X149592777Y-107221123D01*
X149598474Y-107229359D01*
X149604455Y-107237213D01*
X149612327Y-107246493D01*
X149620640Y-107255178D01*
X149629395Y-107263266D01*
X149638591Y-107270758D01*
X149646266Y-107276322D01*
X149656453Y-107282514D01*
X149667475Y-107287656D01*
X149676894Y-107291015D01*
X149686846Y-107293701D01*
X149697334Y-107295716D01*
X149708355Y-107297060D01*
X149719911Y-107297731D01*
X149725889Y-107297815D01*
X149735781Y-107297506D01*
X149745673Y-107296579D01*
X149755565Y-107295033D01*
X149765456Y-107292869D01*
X149775348Y-107290087D01*
X149778646Y-107289023D01*
X149788340Y-107285221D01*
X149797639Y-107280596D01*
X149806544Y-107275146D01*
X149815053Y-107268872D01*
X149823167Y-107261774D01*
X149825784Y-107259225D01*
X149833278Y-107251019D01*
X149840187Y-107241971D01*
X149846513Y-107232082D01*
X149851338Y-107223199D01*
X149855758Y-107213731D01*
X149859001Y-107205736D01*
X149862590Y-107195156D01*
X149865570Y-107183873D01*
X149867942Y-107171886D01*
X149869402Y-107161790D01*
X149870472Y-107151244D01*
X149871154Y-107140247D01*
X149871446Y-107128800D01*
X149871458Y-107125868D01*
X149871458Y-106586580D01*
X149728576Y-106586580D01*
X149728576Y-107072135D01*
X149728140Y-107083795D01*
X149726835Y-107094656D01*
X149724658Y-107104718D01*
X149720897Y-107115737D01*
X149715882Y-107125606D01*
X149710746Y-107132951D01*
X149703527Y-107140422D01*
X149695244Y-107146347D01*
X149685896Y-107150726D01*
X149675483Y-107153559D01*
X149664006Y-107154847D01*
X149659943Y-107154933D01*
X149648111Y-107154331D01*
X149637494Y-107152524D01*
X149628094Y-107149513D01*
X149618420Y-107144309D01*
X149610497Y-107137371D01*
X149605233Y-107130265D01*
X149600087Y-107120141D01*
X149596612Y-107110511D01*
X149593876Y-107099795D01*
X149591879Y-107087995D01*
X149590815Y-107077773D01*
X149590223Y-107066856D01*
X149590090Y-107058213D01*
X149590090Y-106586580D01*
X149447208Y-106586580D01*
G37*
G36*
X149149201Y-106579012D02*
G01*
X149161077Y-106579757D01*
X149172648Y-106580997D01*
X149183914Y-106582733D01*
X149194875Y-106584966D01*
X149205530Y-106587694D01*
X149215879Y-106590919D01*
X149225924Y-106594640D01*
X149235640Y-106598788D01*
X149245005Y-106603295D01*
X149254020Y-106608161D01*
X149262682Y-106613386D01*
X149270994Y-106618969D01*
X149278955Y-106624911D01*
X149286565Y-106631212D01*
X149293823Y-106637871D01*
X149300981Y-106645246D01*
X149307677Y-106652900D01*
X149313911Y-106660832D01*
X149319683Y-106669043D01*
X149324993Y-106677532D01*
X149329842Y-106686300D01*
X149334228Y-106695346D01*
X149338154Y-106704672D01*
X149341617Y-106714275D01*
X149344618Y-106724158D01*
X149347158Y-106734318D01*
X149349236Y-106744758D01*
X149350852Y-106755476D01*
X149352007Y-106766473D01*
X149352699Y-106777748D01*
X149352930Y-106789302D01*
X149217131Y-106789302D01*
X149215661Y-106783215D01*
X149212582Y-106773701D01*
X149207848Y-106763322D01*
X149201981Y-106754077D01*
X149194980Y-106745966D01*
X149186845Y-106738988D01*
X149183925Y-106736888D01*
X149174923Y-106731401D01*
X149165561Y-106727133D01*
X149155838Y-106724085D01*
X149145754Y-106722256D01*
X149135310Y-106721646D01*
X149125567Y-106722001D01*
X149114494Y-106723443D01*
X149104649Y-106725994D01*
X149094456Y-106730519D01*
X149086033Y-106736642D01*
X149079378Y-106744361D01*
X149075715Y-106750169D01*
X149071135Y-106759598D01*
X149067655Y-106769884D01*
X149065273Y-106781030D01*
X149064128Y-106790974D01*
X149063747Y-106801514D01*
X149063747Y-106872100D01*
X149065145Y-106871597D01*
X149074616Y-106868986D01*
X149084752Y-106867948D01*
X149091701Y-106867948D01*
X149101604Y-106867948D01*
X149106974Y-106867948D01*
X149116992Y-106867948D01*
X149122696Y-106867948D01*
X149132623Y-106867948D01*
X149140926Y-106868005D01*
X149153034Y-106868306D01*
X149164726Y-106868864D01*
X149176001Y-106869680D01*
X149186859Y-106870753D01*
X149197302Y-106872084D01*
X149207327Y-106873672D01*
X149220047Y-106876191D01*
X149232026Y-106879168D01*
X149243265Y-106882602D01*
X149253855Y-106886499D01*
X149263888Y-106890861D01*
X149273364Y-106895689D01*
X149282283Y-106900982D01*
X149290644Y-106906740D01*
X149298449Y-106912965D01*
X149305696Y-106919655D01*
X149312386Y-106926810D01*
X149318725Y-106934737D01*
X149324552Y-106943129D01*
X149329868Y-106951986D01*
X149334673Y-106961310D01*
X149338966Y-106971098D01*
X149342748Y-106981353D01*
X149346019Y-106992073D01*
X149348778Y-107003258D01*
X149349961Y-107008994D01*
X149352098Y-107020810D01*
X149353930Y-107033083D01*
X149355457Y-107045814D01*
X149356401Y-107055663D01*
X149357174Y-107065769D01*
X149357775Y-107076133D01*
X149358204Y-107086755D01*
X149358462Y-107097634D01*
X149358548Y-107108771D01*
X149358491Y-107116044D01*
X149358190Y-107126635D01*
X149357632Y-107136844D01*
X149356487Y-107149861D01*
X149354884Y-107162199D01*
X149352823Y-107173858D01*
X149350305Y-107184838D01*
X149347328Y-107195138D01*
X149343893Y-107204759D01*
X149342953Y-107207062D01*
X149337988Y-107218062D01*
X149332582Y-107228204D01*
X149326735Y-107237487D01*
X149320447Y-107245912D01*
X149313717Y-107253478D01*
X149305059Y-107261423D01*
X149302059Y-107263996D01*
X149292969Y-107271086D01*
X149283741Y-107277231D01*
X149274376Y-107282432D01*
X149264873Y-107286688D01*
X149255233Y-107290000D01*
X149247154Y-107292251D01*
X149237492Y-107294449D01*
X149226262Y-107296319D01*
X149215079Y-107297441D01*
X149203942Y-107297815D01*
X149197559Y-107297734D01*
X149185332Y-107297085D01*
X149173822Y-107295788D01*
X149163030Y-107293842D01*
X149152954Y-107291246D01*
X149143597Y-107288003D01*
X149132909Y-107283035D01*
X149123342Y-107277055D01*
X149119742Y-107274389D01*
X149110768Y-107267107D01*
X149101829Y-107258942D01*
X149094704Y-107251775D01*
X149087602Y-107244044D01*
X149080523Y-107235747D01*
X149073467Y-107226886D01*
X149066433Y-107217459D01*
X149063747Y-107217459D01*
X149063747Y-107290000D01*
X148920865Y-107290000D01*
X148920865Y-107080195D01*
X149063747Y-107080195D01*
X149063927Y-107088308D01*
X149064728Y-107098578D01*
X149066632Y-107110534D01*
X149069537Y-107121513D01*
X149073444Y-107131515D01*
X149078353Y-107140538D01*
X149084263Y-107148583D01*
X149090998Y-107155549D01*
X149100134Y-107162349D01*
X149110421Y-107167450D01*
X149119872Y-107170402D01*
X149130122Y-107172173D01*
X149141172Y-107172763D01*
X149149724Y-107172362D01*
X149159738Y-107170734D01*
X149170763Y-107167128D01*
X149180707Y-107161718D01*
X149189568Y-107154506D01*
X149196126Y-107147117D01*
X149199618Y-107142128D01*
X149204675Y-107133211D01*
X149208777Y-107123543D01*
X149211926Y-107113123D01*
X149214120Y-107101952D01*
X149215360Y-107090029D01*
X149215666Y-107079951D01*
X149215634Y-107076338D01*
X149215151Y-107065926D01*
X149213605Y-107053038D01*
X149211029Y-107041288D01*
X149207423Y-107030675D01*
X149202786Y-107021199D01*
X149197119Y-107012860D01*
X149190421Y-107005659D01*
X149182693Y-106999595D01*
X149174236Y-106994386D01*
X149165352Y-106989871D01*
X149156040Y-106986051D01*
X149146301Y-106982925D01*
X149136134Y-106980494D01*
X149125540Y-106978758D01*
X149114519Y-106977716D01*
X149103070Y-106977369D01*
X149094750Y-106977643D01*
X149084187Y-106978609D01*
X149073726Y-106980052D01*
X149063747Y-106981765D01*
X149063747Y-107080195D01*
X148920865Y-107080195D01*
X148920865Y-106800781D01*
X148920931Y-106793875D01*
X148921282Y-106783725D01*
X148921933Y-106773823D01*
X148923269Y-106761008D01*
X148925139Y-106748635D01*
X148927543Y-106736705D01*
X148930482Y-106725218D01*
X148933955Y-106714174D01*
X148937962Y-106703572D01*
X148942354Y-106693406D01*
X148947105Y-106683667D01*
X148952215Y-106674355D01*
X148957684Y-106665471D01*
X148963512Y-106657014D01*
X148969698Y-106648984D01*
X148976243Y-106641382D01*
X148983147Y-106634207D01*
X148990691Y-106627521D01*
X148998549Y-106621263D01*
X149006720Y-106615431D01*
X149015203Y-106610027D01*
X149024000Y-106605051D01*
X149033109Y-106600502D01*
X149042532Y-106596380D01*
X149052267Y-106592686D01*
X149062247Y-106589423D01*
X149072402Y-106586595D01*
X149082733Y-106584203D01*
X149093239Y-106582245D01*
X149103921Y-106580722D01*
X149114778Y-106579634D01*
X149125811Y-106578982D01*
X149137020Y-106578764D01*
X149149201Y-106579012D01*
G37*
G36*
X148811688Y-106586580D02*
G01*
X148811688Y-106359923D01*
X148668806Y-106359923D01*
X148668806Y-106586580D01*
X148590648Y-106586580D01*
X148590648Y-106696001D01*
X148668806Y-106696001D01*
X148668806Y-107078974D01*
X148668596Y-107089240D01*
X148667840Y-107099685D01*
X148666333Y-107109794D01*
X148664410Y-107117320D01*
X148660357Y-107126467D01*
X148654261Y-107134284D01*
X148650244Y-107137592D01*
X148641422Y-107142262D01*
X148631230Y-107145158D01*
X148626064Y-107145896D01*
X148615487Y-107146592D01*
X148605589Y-107146946D01*
X148594570Y-107147107D01*
X148590648Y-107147117D01*
X148590648Y-107290000D01*
X148647068Y-107290000D01*
X148658552Y-107289763D01*
X148669554Y-107289053D01*
X148680076Y-107287870D01*
X148690116Y-107286214D01*
X148699676Y-107284084D01*
X148710950Y-107280757D01*
X148721472Y-107276690D01*
X148725470Y-107274856D01*
X148734936Y-107269845D01*
X148743793Y-107264428D01*
X148752042Y-107258606D01*
X148759683Y-107252378D01*
X148768050Y-107244370D01*
X148775540Y-107235778D01*
X148782241Y-107226679D01*
X148788237Y-107217150D01*
X148793529Y-107207193D01*
X148798117Y-107196806D01*
X148802001Y-107185989D01*
X148803140Y-107182288D01*
X148806045Y-107171100D01*
X148808349Y-107160066D01*
X148810052Y-107149187D01*
X148811154Y-107138462D01*
X148811655Y-107127892D01*
X148811688Y-107124403D01*
X148811688Y-106696001D01*
X148887648Y-106696001D01*
X148887648Y-106586580D01*
X148811688Y-106586580D01*
G37*
G36*
X148524214Y-107290000D02*
G01*
X148524214Y-106586580D01*
X148381332Y-106586580D01*
X148381332Y-107290000D01*
X148524214Y-107290000D01*
G37*
G36*
X148524214Y-106432463D02*
G01*
X148524214Y-106289581D01*
X148381332Y-106289581D01*
X148381332Y-106432463D01*
X148524214Y-106432463D01*
G37*
G36*
X148076256Y-106578873D02*
G01*
X148088393Y-106579444D01*
X148100178Y-106580505D01*
X148111611Y-106582054D01*
X148122692Y-106584094D01*
X148133421Y-106586623D01*
X148143798Y-106589641D01*
X148153823Y-106593148D01*
X148163496Y-106597146D01*
X148172817Y-106601632D01*
X148181786Y-106606608D01*
X148187532Y-106610129D01*
X148195833Y-106615674D01*
X148203752Y-106621537D01*
X148213717Y-106629849D01*
X148223002Y-106638726D01*
X148231608Y-106648167D01*
X148239534Y-106658174D01*
X148246781Y-106668745D01*
X148253349Y-106679881D01*
X148255234Y-106683393D01*
X148259613Y-106692448D01*
X148263516Y-106701897D01*
X148266941Y-106711740D01*
X148269889Y-106721976D01*
X148272360Y-106732605D01*
X148274354Y-106743628D01*
X148275034Y-106748144D01*
X148276543Y-106759675D01*
X148277777Y-106771552D01*
X148278567Y-106781303D01*
X148279181Y-106791275D01*
X148279620Y-106801468D01*
X148279884Y-106811883D01*
X148279971Y-106822519D01*
X148279971Y-107054305D01*
X148279966Y-107056955D01*
X148279834Y-107067431D01*
X148279527Y-107077708D01*
X148279044Y-107087787D01*
X148278386Y-107097667D01*
X148277316Y-107109739D01*
X148275972Y-107121500D01*
X148274354Y-107132951D01*
X148273613Y-107137437D01*
X148271429Y-107148369D01*
X148268767Y-107158895D01*
X148265628Y-107169015D01*
X148262012Y-107178730D01*
X148257919Y-107188039D01*
X148253349Y-107196943D01*
X148248487Y-107205348D01*
X148241409Y-107216060D01*
X148233653Y-107226208D01*
X148225217Y-107235790D01*
X148216102Y-107244808D01*
X148206307Y-107253261D01*
X148198515Y-107259231D01*
X148190342Y-107264882D01*
X148181786Y-107270216D01*
X148175846Y-107273558D01*
X148166642Y-107278167D01*
X148157087Y-107282291D01*
X148147179Y-107285929D01*
X148136920Y-107289083D01*
X148126308Y-107291751D01*
X148115344Y-107293934D01*
X148104028Y-107295632D01*
X148092360Y-107296845D01*
X148080341Y-107297573D01*
X148067969Y-107297815D01*
X148059653Y-107297707D01*
X148047480Y-107297141D01*
X148035667Y-107296090D01*
X148024216Y-107294554D01*
X148013125Y-107292533D01*
X148002394Y-107290026D01*
X147992024Y-107287034D01*
X147982015Y-107283557D01*
X147972367Y-107279595D01*
X147963079Y-107275148D01*
X147954151Y-107270216D01*
X147948375Y-107266695D01*
X147940034Y-107261150D01*
X147932078Y-107255286D01*
X147922072Y-107246975D01*
X147912752Y-107238098D01*
X147904120Y-107228656D01*
X147896174Y-107218650D01*
X147888916Y-107208079D01*
X147882344Y-107196943D01*
X147880459Y-107193430D01*
X147876080Y-107184364D01*
X147872177Y-107174892D01*
X147868752Y-107165015D01*
X147865804Y-107154733D01*
X147863333Y-107144045D01*
X147861339Y-107132951D01*
X147860994Y-107130686D01*
X147859430Y-107119173D01*
X147858141Y-107107349D01*
X147857126Y-107095216D01*
X147856512Y-107085286D01*
X147856073Y-107075157D01*
X147856071Y-107075066D01*
X147998604Y-107075066D01*
X147998897Y-107084767D01*
X148000091Y-107096013D01*
X148002203Y-107106281D01*
X148005950Y-107117312D01*
X148011019Y-107126935D01*
X148017410Y-107135150D01*
X148019783Y-107137545D01*
X148027531Y-107143805D01*
X148036224Y-107148674D01*
X148045861Y-107152151D01*
X148056442Y-107154238D01*
X148067969Y-107154933D01*
X148071887Y-107154856D01*
X148083035Y-107153697D01*
X148093274Y-107151146D01*
X148102601Y-107147205D01*
X148111019Y-107141873D01*
X148118527Y-107135150D01*
X148123874Y-107128402D01*
X148129095Y-107119014D01*
X148133011Y-107108217D01*
X148135277Y-107098145D01*
X148136636Y-107087094D01*
X148137089Y-107075066D01*
X148137089Y-106801514D01*
X148136799Y-106791817D01*
X148135621Y-106780586D01*
X148133536Y-106770345D01*
X148129838Y-106759363D01*
X148124835Y-106749806D01*
X148118527Y-106741674D01*
X148116125Y-106739249D01*
X148108314Y-106732912D01*
X148099593Y-106727983D01*
X148089962Y-106724463D01*
X148079420Y-106722351D01*
X148067969Y-106721646D01*
X148064022Y-106721725D01*
X148052810Y-106722898D01*
X148042544Y-106725480D01*
X148033221Y-106729470D01*
X148024844Y-106734868D01*
X148017410Y-106741674D01*
X148011992Y-106748352D01*
X148006703Y-106757671D01*
X148002736Y-106768416D01*
X148000440Y-106778459D01*
X147999063Y-106789491D01*
X147998604Y-106801514D01*
X147998604Y-107075066D01*
X147856071Y-107075066D01*
X147855809Y-107064830D01*
X147855722Y-107054305D01*
X147855722Y-106822519D01*
X147855727Y-106819839D01*
X147855859Y-106809258D01*
X147856166Y-106798899D01*
X147856649Y-106788761D01*
X147857307Y-106778844D01*
X147858377Y-106766760D01*
X147859721Y-106755021D01*
X147861339Y-106743628D01*
X147862080Y-106739172D01*
X147864264Y-106728306D01*
X147866926Y-106717834D01*
X147870065Y-106707755D01*
X147873681Y-106698070D01*
X147877774Y-106688779D01*
X147882344Y-106679881D01*
X147887208Y-106671476D01*
X147894295Y-106660764D01*
X147902069Y-106650616D01*
X147910530Y-106641033D01*
X147919677Y-106632015D01*
X147929512Y-106623562D01*
X147937339Y-106617593D01*
X147945552Y-106611942D01*
X147954151Y-106606608D01*
X147960063Y-106603236D01*
X147969231Y-106598587D01*
X147978759Y-106594426D01*
X147988648Y-106590756D01*
X147998897Y-106587574D01*
X148009508Y-106584882D01*
X148020479Y-106582680D01*
X148031810Y-106580967D01*
X148043502Y-106579743D01*
X148055555Y-106579009D01*
X148067969Y-106578764D01*
X148076256Y-106578873D01*
G37*
G36*
X147746545Y-107290000D02*
G01*
X147746545Y-106586580D01*
X147603663Y-106586580D01*
X147603663Y-106655457D01*
X147600732Y-106655457D01*
X147595038Y-106647278D01*
X147589069Y-106639474D01*
X147581222Y-106630244D01*
X147572946Y-106621599D01*
X147564240Y-106613539D01*
X147555104Y-106606062D01*
X147547487Y-106600502D01*
X147537300Y-106594240D01*
X147526278Y-106589039D01*
X147516859Y-106585642D01*
X147506907Y-106582925D01*
X147496419Y-106580887D01*
X147485398Y-106579529D01*
X147473842Y-106578849D01*
X147467864Y-106578764D01*
X147457972Y-106579082D01*
X147448080Y-106580035D01*
X147438188Y-106581624D01*
X147428297Y-106583848D01*
X147418405Y-106586707D01*
X147415107Y-106587801D01*
X147405413Y-106591602D01*
X147396114Y-106596228D01*
X147387209Y-106601677D01*
X147378700Y-106607951D01*
X147370586Y-106615050D01*
X147367969Y-106617599D01*
X147360475Y-106625805D01*
X147353566Y-106634852D01*
X147347240Y-106644741D01*
X147342415Y-106653625D01*
X147337995Y-106663093D01*
X147334752Y-106671088D01*
X147331163Y-106681597D01*
X147328183Y-106692822D01*
X147325811Y-106704762D01*
X147324351Y-106714830D01*
X147323281Y-106725355D01*
X147322599Y-106736338D01*
X147322307Y-106747779D01*
X147322295Y-106750711D01*
X147322295Y-107290000D01*
X147465177Y-107290000D01*
X147465177Y-106804445D01*
X147465613Y-106792791D01*
X147466918Y-106781948D01*
X147469095Y-106771916D01*
X147472856Y-106760948D01*
X147477870Y-106751147D01*
X147483007Y-106743872D01*
X147490217Y-106736319D01*
X147498474Y-106730328D01*
X147507780Y-106725901D01*
X147518132Y-106723036D01*
X147529532Y-106721733D01*
X147533565Y-106721646D01*
X147545404Y-106722255D01*
X147556038Y-106724079D01*
X147565468Y-106727120D01*
X147575194Y-106732375D01*
X147583185Y-106739382D01*
X147588520Y-106746559D01*
X147593666Y-106756600D01*
X147597141Y-106766174D01*
X147599877Y-106776845D01*
X147601874Y-106788614D01*
X147602938Y-106798819D01*
X147603530Y-106809726D01*
X147603663Y-106818367D01*
X147603663Y-107290000D01*
X147746545Y-107290000D01*
G37*
D11*
X151730000Y-105875000D02*
X149070000Y-105875000D01*
X151730000Y-103275000D02*
X151730000Y-105875000D01*
X151730000Y-103275000D02*
X149070000Y-103275000D01*
X151730000Y-102005000D02*
X151730000Y-100675000D01*
X151730000Y-100675000D02*
X150400000Y-100675000D01*
X149070000Y-103275000D02*
X149070000Y-105875000D01*
%LPC*%
D12*
X139179336Y-108759270D03*
D13*
X140031745Y-108187370D03*
D12*
X140773247Y-108898719D03*
D14*
X138924824Y-103661226D03*
D15*
X139669486Y-104328668D03*
D14*
X140518735Y-103800676D03*
D12*
X135379336Y-108759270D03*
D13*
X136231745Y-108187370D03*
D12*
X136973247Y-108898719D03*
D14*
X135124824Y-103661226D03*
D15*
X135869486Y-104328668D03*
D14*
X136718735Y-103800676D03*
D12*
X131579356Y-108759271D03*
D13*
X132431765Y-108187371D03*
D12*
X133173267Y-108898720D03*
D14*
X131324824Y-103661226D03*
D15*
X132069486Y-104328668D03*
D14*
X132918735Y-103800676D03*
D12*
X127779356Y-108759271D03*
D13*
X128631765Y-108187371D03*
D12*
X129373267Y-108898720D03*
D14*
X127524824Y-103661226D03*
D15*
X128269486Y-104328668D03*
D14*
X129118735Y-103800676D03*
D12*
X123979356Y-108759271D03*
D13*
X124831765Y-108187371D03*
D12*
X125573267Y-108898720D03*
D14*
X123724824Y-103661226D03*
D15*
X124469486Y-104328668D03*
D14*
X125318735Y-103800676D03*
D12*
X120179356Y-108759271D03*
D13*
X121031765Y-108187371D03*
D12*
X121773267Y-108898720D03*
D14*
X119924824Y-103661226D03*
D15*
X120669486Y-104328668D03*
D14*
X121518735Y-103800676D03*
D12*
X116379356Y-108759271D03*
D13*
X117231765Y-108187371D03*
D12*
X117973267Y-108898720D03*
D14*
X116124824Y-103661226D03*
D15*
X116869486Y-104328668D03*
D14*
X117718735Y-103800676D03*
D12*
X112579356Y-108759271D03*
D13*
X113431765Y-108187371D03*
D12*
X114173267Y-108898720D03*
D14*
X112324824Y-103661226D03*
D15*
X113069486Y-104328668D03*
D14*
X113918735Y-103800676D03*
D12*
X108779356Y-108759271D03*
D13*
X109631765Y-108187371D03*
D12*
X110373267Y-108898720D03*
D14*
X108524824Y-103661226D03*
D15*
X109269486Y-104328668D03*
D14*
X110118735Y-103800676D03*
D12*
X104979356Y-108759271D03*
D13*
X105831765Y-108187371D03*
D12*
X106573267Y-108898720D03*
D14*
X104724822Y-103661226D03*
D15*
X105469484Y-104328668D03*
D14*
X106318733Y-103800675D03*
D16*
X183300000Y-110855000D03*
D17*
X183300000Y-108565000D03*
X183300000Y-106275000D03*
X183300000Y-103985000D03*
X183300000Y-101695000D03*
X185280000Y-112000000D03*
X185280000Y-109710000D03*
X185280000Y-107420000D03*
X185280000Y-105130000D03*
X185280000Y-102840000D03*
X187260000Y-110855000D03*
X187260000Y-108565000D03*
X187260000Y-106275000D03*
X187260000Y-103985000D03*
X187260000Y-101695000D03*
D18*
X185280000Y-93780000D03*
X185280000Y-118770000D03*
D19*
X150400000Y-102005000D03*
D20*
X150400000Y-104545000D03*
%LPD*%
M02*
