G04 #@! TF.GenerationSoftware,KiCad,Pcbnew,7.0.9*
G04 #@! TF.CreationDate,2023-11-21T14:26:00-05:00*
G04 #@! TF.ProjectId,SCART2VGA,53434152-5432-4564-9741-2e6b69636164,rev?*
G04 #@! TF.SameCoordinates,Original*
G04 #@! TF.FileFunction,Soldermask,Bot*
G04 #@! TF.FilePolarity,Negative*
%FSLAX46Y46*%
G04 Gerber Fmt 4.6, Leading zero omitted, Abs format (unit mm)*
G04 Created by KiCad (PCBNEW 7.0.9) date 2023-11-21 14:26:00*
%MOMM*%
%LPD*%
G01*
G04 APERTURE LIST*
G04 APERTURE END LIST*
G36*
X185703799Y-116730568D02*
G01*
X185977554Y-116807270D01*
X186238315Y-116920535D01*
X186481225Y-117068252D01*
X186701758Y-117247669D01*
X186895807Y-117455444D01*
X187059756Y-117687707D01*
X187190551Y-117940131D01*
X187285757Y-118208013D01*
X187343599Y-118486365D01*
X187363000Y-118770000D01*
X187343599Y-119053635D01*
X187285757Y-119331987D01*
X187190551Y-119599869D01*
X187059756Y-119852293D01*
X186895807Y-120084556D01*
X186701758Y-120292331D01*
X186481225Y-120471748D01*
X186238315Y-120619465D01*
X185977554Y-120732730D01*
X185703799Y-120809432D01*
X185422149Y-120848144D01*
X185137851Y-120848144D01*
X184856201Y-120809432D01*
X184582446Y-120732730D01*
X184321685Y-120619465D01*
X184078775Y-120471748D01*
X183858242Y-120292331D01*
X183664193Y-120084556D01*
X183500244Y-119852293D01*
X183369449Y-119599869D01*
X183274243Y-119331987D01*
X183216401Y-119053635D01*
X183197000Y-118770000D01*
X183216401Y-118486365D01*
X183274243Y-118208013D01*
X183369449Y-117940131D01*
X183500244Y-117687707D01*
X183664193Y-117455444D01*
X183858242Y-117247669D01*
X184078775Y-117068252D01*
X184321685Y-116920535D01*
X184582446Y-116807270D01*
X184856201Y-116730568D01*
X185137851Y-116691856D01*
X185422149Y-116691856D01*
X185703799Y-116730568D01*
G37*
G36*
X185325151Y-111104930D02*
G01*
X185374076Y-111104930D01*
X185416321Y-111113909D01*
X185455485Y-111117767D01*
X185504689Y-111132693D01*
X185558115Y-111144049D01*
X185592300Y-111159269D01*
X185624230Y-111168955D01*
X185674971Y-111196076D01*
X185730000Y-111220577D01*
X185755583Y-111239164D01*
X185779743Y-111252078D01*
X185829023Y-111292521D01*
X185882218Y-111331170D01*
X185899491Y-111350354D01*
X185916053Y-111363946D01*
X185960563Y-111418182D01*
X186008115Y-111470993D01*
X186018103Y-111488293D01*
X186027921Y-111500256D01*
X186064237Y-111568200D01*
X186102191Y-111633937D01*
X186106557Y-111647374D01*
X186111044Y-111655769D01*
X186135779Y-111737311D01*
X186160333Y-111812879D01*
X186161197Y-111821103D01*
X186162232Y-111824514D01*
X186172305Y-111926787D01*
X186180000Y-112000000D01*
X186172304Y-112073218D01*
X186162232Y-112175485D01*
X186161197Y-112178895D01*
X186160333Y-112187121D01*
X186135774Y-112262702D01*
X186111044Y-112344230D01*
X186106558Y-112352622D01*
X186102191Y-112366063D01*
X186064230Y-112431812D01*
X186027921Y-112499743D01*
X186018105Y-112511703D01*
X186008115Y-112529007D01*
X185960554Y-112581828D01*
X185916053Y-112636053D01*
X185899494Y-112649642D01*
X185882218Y-112668830D01*
X185829012Y-112707486D01*
X185779743Y-112747921D01*
X185755588Y-112760831D01*
X185730000Y-112779423D01*
X185674960Y-112803928D01*
X185624230Y-112831044D01*
X185592307Y-112840727D01*
X185558115Y-112855951D01*
X185504678Y-112867309D01*
X185455485Y-112882232D01*
X185416330Y-112886088D01*
X185374076Y-112895070D01*
X185325140Y-112895070D01*
X185280000Y-112899516D01*
X185234859Y-112895070D01*
X185185924Y-112895070D01*
X185143669Y-112886088D01*
X185104514Y-112882232D01*
X185055317Y-112867308D01*
X185001885Y-112855951D01*
X184967694Y-112840728D01*
X184935769Y-112831044D01*
X184885033Y-112803925D01*
X184830000Y-112779423D01*
X184804413Y-112760833D01*
X184780256Y-112747921D01*
X184730978Y-112707479D01*
X184677782Y-112668830D01*
X184660507Y-112649645D01*
X184643946Y-112636053D01*
X184599434Y-112581815D01*
X184551885Y-112529007D01*
X184541897Y-112511707D01*
X184532078Y-112499743D01*
X184495756Y-112431788D01*
X184457809Y-112366063D01*
X184453443Y-112352627D01*
X184448955Y-112344230D01*
X184424210Y-112262656D01*
X184399667Y-112187121D01*
X184398802Y-112178900D01*
X184397767Y-112175485D01*
X184387679Y-112073067D01*
X184380000Y-112000000D01*
X184387678Y-111926939D01*
X184397767Y-111824514D01*
X184398803Y-111821098D01*
X184399667Y-111812879D01*
X184424205Y-111737357D01*
X184448955Y-111655769D01*
X184453444Y-111647369D01*
X184457809Y-111633937D01*
X184495748Y-111568223D01*
X184532078Y-111500256D01*
X184541899Y-111488289D01*
X184551885Y-111470993D01*
X184599424Y-111418194D01*
X184643946Y-111363946D01*
X184660511Y-111350350D01*
X184677782Y-111331170D01*
X184730968Y-111292527D01*
X184780256Y-111252078D01*
X184804419Y-111239162D01*
X184830000Y-111220577D01*
X184885022Y-111196079D01*
X184935769Y-111168955D01*
X184967701Y-111159268D01*
X185001885Y-111144049D01*
X185055306Y-111132693D01*
X185104514Y-111117767D01*
X185143678Y-111113909D01*
X185185924Y-111104930D01*
X185234849Y-111104930D01*
X185280000Y-111100483D01*
X185325151Y-111104930D01*
G37*
G36*
X184169134Y-109958806D02*
G01*
X184185355Y-109969645D01*
X184196194Y-109985866D01*
X184200000Y-110005000D01*
X184200000Y-111705000D01*
X184196194Y-111724134D01*
X184185355Y-111740355D01*
X184169134Y-111751194D01*
X184150000Y-111755000D01*
X182450000Y-111755000D01*
X182430866Y-111751194D01*
X182414645Y-111740355D01*
X182403806Y-111724134D01*
X182400000Y-111705000D01*
X182400000Y-110005000D01*
X182403806Y-109985866D01*
X182414645Y-109969645D01*
X182430866Y-109958806D01*
X182450000Y-109955000D01*
X184150000Y-109955000D01*
X184169134Y-109958806D01*
G37*
G36*
X187305151Y-109959930D02*
G01*
X187354076Y-109959930D01*
X187396321Y-109968909D01*
X187435485Y-109972767D01*
X187484689Y-109987693D01*
X187538115Y-109999049D01*
X187572300Y-110014269D01*
X187604230Y-110023955D01*
X187654971Y-110051076D01*
X187710000Y-110075577D01*
X187735583Y-110094164D01*
X187759743Y-110107078D01*
X187809023Y-110147521D01*
X187862218Y-110186170D01*
X187879491Y-110205354D01*
X187896053Y-110218946D01*
X187940563Y-110273182D01*
X187988115Y-110325993D01*
X187998103Y-110343293D01*
X188007921Y-110355256D01*
X188044237Y-110423200D01*
X188082191Y-110488937D01*
X188086557Y-110502374D01*
X188091044Y-110510769D01*
X188115779Y-110592311D01*
X188140333Y-110667879D01*
X188141197Y-110676103D01*
X188142232Y-110679514D01*
X188152305Y-110781787D01*
X188160000Y-110855000D01*
X188152304Y-110928218D01*
X188142232Y-111030485D01*
X188141197Y-111033895D01*
X188140333Y-111042121D01*
X188115774Y-111117702D01*
X188091044Y-111199230D01*
X188086558Y-111207622D01*
X188082191Y-111221063D01*
X188044230Y-111286812D01*
X188007921Y-111354743D01*
X187998105Y-111366703D01*
X187988115Y-111384007D01*
X187940554Y-111436828D01*
X187896053Y-111491053D01*
X187879494Y-111504642D01*
X187862218Y-111523830D01*
X187809012Y-111562486D01*
X187759743Y-111602921D01*
X187735588Y-111615831D01*
X187710000Y-111634423D01*
X187654960Y-111658928D01*
X187604230Y-111686044D01*
X187572307Y-111695727D01*
X187538115Y-111710951D01*
X187484678Y-111722309D01*
X187435485Y-111737232D01*
X187396330Y-111741088D01*
X187354076Y-111750070D01*
X187305140Y-111750070D01*
X187260000Y-111754516D01*
X187214859Y-111750070D01*
X187165924Y-111750070D01*
X187123669Y-111741088D01*
X187084514Y-111737232D01*
X187035317Y-111722308D01*
X186981885Y-111710951D01*
X186947694Y-111695728D01*
X186915769Y-111686044D01*
X186865033Y-111658925D01*
X186810000Y-111634423D01*
X186784413Y-111615833D01*
X186760256Y-111602921D01*
X186710978Y-111562479D01*
X186657782Y-111523830D01*
X186640507Y-111504645D01*
X186623946Y-111491053D01*
X186579434Y-111436815D01*
X186531885Y-111384007D01*
X186521897Y-111366707D01*
X186512078Y-111354743D01*
X186475756Y-111286788D01*
X186437809Y-111221063D01*
X186433443Y-111207627D01*
X186428955Y-111199230D01*
X186404210Y-111117656D01*
X186379667Y-111042121D01*
X186378802Y-111033900D01*
X186377767Y-111030485D01*
X186367679Y-110928067D01*
X186360000Y-110855000D01*
X186367678Y-110781939D01*
X186377767Y-110679514D01*
X186378803Y-110676098D01*
X186379667Y-110667879D01*
X186404205Y-110592357D01*
X186428955Y-110510769D01*
X186433444Y-110502369D01*
X186437809Y-110488937D01*
X186475748Y-110423223D01*
X186512078Y-110355256D01*
X186521899Y-110343289D01*
X186531885Y-110325993D01*
X186579424Y-110273194D01*
X186623946Y-110218946D01*
X186640511Y-110205350D01*
X186657782Y-110186170D01*
X186710968Y-110147527D01*
X186760256Y-110107078D01*
X186784419Y-110094162D01*
X186810000Y-110075577D01*
X186865022Y-110051079D01*
X186915769Y-110023955D01*
X186947701Y-110014268D01*
X186981885Y-109999049D01*
X187035306Y-109987693D01*
X187084514Y-109972767D01*
X187123678Y-109968909D01*
X187165924Y-109959930D01*
X187214849Y-109959930D01*
X187260000Y-109955483D01*
X187305151Y-109959930D01*
G37*
G36*
X185325151Y-108814930D02*
G01*
X185374076Y-108814930D01*
X185416321Y-108823909D01*
X185455485Y-108827767D01*
X185504689Y-108842693D01*
X185558115Y-108854049D01*
X185592300Y-108869269D01*
X185624230Y-108878955D01*
X185674971Y-108906076D01*
X185730000Y-108930577D01*
X185755583Y-108949164D01*
X185779743Y-108962078D01*
X185829023Y-109002521D01*
X185882218Y-109041170D01*
X185899491Y-109060354D01*
X185916053Y-109073946D01*
X185960563Y-109128182D01*
X186008115Y-109180993D01*
X186018103Y-109198293D01*
X186027921Y-109210256D01*
X186064237Y-109278200D01*
X186102191Y-109343937D01*
X186106557Y-109357374D01*
X186111044Y-109365769D01*
X186135779Y-109447311D01*
X186160333Y-109522879D01*
X186161197Y-109531103D01*
X186162232Y-109534514D01*
X186172305Y-109636787D01*
X186180000Y-109710000D01*
X186172304Y-109783218D01*
X186162232Y-109885485D01*
X186161197Y-109888895D01*
X186160333Y-109897121D01*
X186135774Y-109972702D01*
X186111044Y-110054230D01*
X186106558Y-110062622D01*
X186102191Y-110076063D01*
X186064230Y-110141812D01*
X186027921Y-110209743D01*
X186018105Y-110221703D01*
X186008115Y-110239007D01*
X185960554Y-110291828D01*
X185916053Y-110346053D01*
X185899494Y-110359642D01*
X185882218Y-110378830D01*
X185829012Y-110417486D01*
X185779743Y-110457921D01*
X185755588Y-110470831D01*
X185730000Y-110489423D01*
X185674960Y-110513928D01*
X185624230Y-110541044D01*
X185592307Y-110550727D01*
X185558115Y-110565951D01*
X185504678Y-110577309D01*
X185455485Y-110592232D01*
X185416330Y-110596088D01*
X185374076Y-110605070D01*
X185325140Y-110605070D01*
X185280000Y-110609516D01*
X185234859Y-110605070D01*
X185185924Y-110605070D01*
X185143669Y-110596088D01*
X185104514Y-110592232D01*
X185055317Y-110577308D01*
X185001885Y-110565951D01*
X184967694Y-110550728D01*
X184935769Y-110541044D01*
X184885033Y-110513925D01*
X184830000Y-110489423D01*
X184804413Y-110470833D01*
X184780256Y-110457921D01*
X184730978Y-110417479D01*
X184677782Y-110378830D01*
X184660507Y-110359645D01*
X184643946Y-110346053D01*
X184599434Y-110291815D01*
X184551885Y-110239007D01*
X184541897Y-110221707D01*
X184532078Y-110209743D01*
X184495756Y-110141788D01*
X184457809Y-110076063D01*
X184453443Y-110062627D01*
X184448955Y-110054230D01*
X184424210Y-109972656D01*
X184399667Y-109897121D01*
X184398802Y-109888900D01*
X184397767Y-109885485D01*
X184387679Y-109783067D01*
X184380000Y-109710000D01*
X184387678Y-109636939D01*
X184397767Y-109534514D01*
X184398803Y-109531098D01*
X184399667Y-109522879D01*
X184424205Y-109447357D01*
X184448955Y-109365769D01*
X184453444Y-109357369D01*
X184457809Y-109343937D01*
X184495748Y-109278223D01*
X184532078Y-109210256D01*
X184541899Y-109198289D01*
X184551885Y-109180993D01*
X184599424Y-109128194D01*
X184643946Y-109073946D01*
X184660511Y-109060350D01*
X184677782Y-109041170D01*
X184730968Y-109002527D01*
X184780256Y-108962078D01*
X184804419Y-108949162D01*
X184830000Y-108930577D01*
X184885022Y-108906079D01*
X184935769Y-108878955D01*
X184967701Y-108869268D01*
X185001885Y-108854049D01*
X185055306Y-108842693D01*
X185104514Y-108827767D01*
X185143678Y-108823909D01*
X185185924Y-108814930D01*
X185234849Y-108814930D01*
X185280000Y-108810483D01*
X185325151Y-108814930D01*
G37*
G36*
X105428592Y-107198468D02*
G01*
X106704982Y-107310138D01*
X106704990Y-107310139D01*
X106711519Y-107310711D01*
X106816401Y-107331357D01*
X106830091Y-107337873D01*
X106838658Y-107339773D01*
X106887554Y-107365226D01*
X106944900Y-107392524D01*
X106951729Y-107398634D01*
X106954232Y-107399937D01*
X106997435Y-107439525D01*
X107050963Y-107487415D01*
X107088868Y-107548507D01*
X107120311Y-107597862D01*
X107121157Y-107600546D01*
X107125995Y-107608343D01*
X107142932Y-107669605D01*
X107159495Y-107722134D01*
X107159877Y-107730896D01*
X107163918Y-107745511D01*
X107166038Y-107852386D01*
X107119035Y-108389629D01*
X107119300Y-108394391D01*
X107118727Y-108400930D01*
X107118728Y-108400934D01*
X107025676Y-109464516D01*
X107023428Y-109490205D01*
X107007028Y-109560223D01*
X106994366Y-109617342D01*
X106993065Y-109619840D01*
X106990974Y-109628770D01*
X106959629Y-109684069D01*
X106934199Y-109732920D01*
X106928276Y-109739383D01*
X106920797Y-109752579D01*
X106879725Y-109792367D01*
X106846170Y-109828987D01*
X106833772Y-109836885D01*
X106818581Y-109851602D01*
X106773373Y-109875363D01*
X106736275Y-109898998D01*
X106716613Y-109905197D01*
X106692608Y-109917815D01*
X106648448Y-109926689D01*
X106612004Y-109938181D01*
X106585518Y-109939337D01*
X106553083Y-109945856D01*
X106514172Y-109942451D01*
X106481828Y-109943864D01*
X106450221Y-109936857D01*
X106411310Y-109933453D01*
X106380496Y-109921399D01*
X106354614Y-109915662D01*
X106320717Y-109898016D01*
X106278773Y-109881609D01*
X106257325Y-109865016D01*
X106239038Y-109855496D01*
X106206598Y-109825770D01*
X106166213Y-109794526D01*
X106153812Y-109777401D01*
X106142968Y-109767464D01*
X106116266Y-109725550D01*
X106082745Y-109679258D01*
X106077672Y-109664969D01*
X106072959Y-109657571D01*
X106056388Y-109605016D01*
X106035133Y-109545144D01*
X106034624Y-109535989D01*
X106033776Y-109533300D01*
X106031218Y-109474733D01*
X106027234Y-109403049D01*
X106027804Y-109396529D01*
X106027804Y-109396520D01*
X106043394Y-109218316D01*
X105990145Y-109154856D01*
X105509139Y-109112773D01*
X105445680Y-109166023D01*
X105432827Y-109312921D01*
X105429517Y-109350756D01*
X105413117Y-109420774D01*
X105400455Y-109477893D01*
X105399154Y-109480391D01*
X105397063Y-109489321D01*
X105365718Y-109544620D01*
X105340288Y-109593471D01*
X105334365Y-109599934D01*
X105326886Y-109613130D01*
X105285814Y-109652918D01*
X105252259Y-109689538D01*
X105239861Y-109697436D01*
X105224670Y-109712153D01*
X105179462Y-109735914D01*
X105142364Y-109759549D01*
X105122702Y-109765748D01*
X105098697Y-109778366D01*
X105054537Y-109787240D01*
X105018093Y-109798732D01*
X104991607Y-109799888D01*
X104959172Y-109806407D01*
X104920261Y-109803002D01*
X104887917Y-109804415D01*
X104856310Y-109797408D01*
X104817399Y-109794004D01*
X104786585Y-109781950D01*
X104760703Y-109776213D01*
X104726806Y-109758567D01*
X104684862Y-109742160D01*
X104663414Y-109725567D01*
X104645127Y-109716047D01*
X104612687Y-109686321D01*
X104572302Y-109655077D01*
X104559901Y-109637952D01*
X104549057Y-109628015D01*
X104522355Y-109586101D01*
X104488834Y-109539809D01*
X104483761Y-109525520D01*
X104479048Y-109518122D01*
X104462477Y-109465567D01*
X104441222Y-109405695D01*
X104440713Y-109396540D01*
X104439865Y-109393851D01*
X104437308Y-109335295D01*
X104433323Y-109263600D01*
X104433893Y-109257077D01*
X104433893Y-109257064D01*
X104497617Y-108528703D01*
X104497492Y-108522356D01*
X104508283Y-108399009D01*
X104575360Y-107632314D01*
X104575360Y-107632310D01*
X104575932Y-107625781D01*
X104596579Y-107520898D01*
X104603093Y-107507212D01*
X104604993Y-107498643D01*
X104630450Y-107449739D01*
X104657745Y-107392399D01*
X104663856Y-107385567D01*
X104665159Y-107383066D01*
X104704743Y-107339867D01*
X104752636Y-107286337D01*
X104813623Y-107248496D01*
X104863083Y-107216987D01*
X104865775Y-107216138D01*
X104873565Y-107211305D01*
X104934782Y-107194380D01*
X104987355Y-107177804D01*
X104996122Y-107177421D01*
X105010733Y-107173382D01*
X105117607Y-107171261D01*
X105428592Y-107198468D01*
G37*
G36*
X109228592Y-107198468D02*
G01*
X110504982Y-107310138D01*
X110504990Y-107310139D01*
X110511519Y-107310711D01*
X110616401Y-107331357D01*
X110630091Y-107337873D01*
X110638658Y-107339773D01*
X110687554Y-107365226D01*
X110744900Y-107392524D01*
X110751729Y-107398634D01*
X110754232Y-107399937D01*
X110797435Y-107439525D01*
X110850963Y-107487415D01*
X110888868Y-107548507D01*
X110920311Y-107597862D01*
X110921157Y-107600546D01*
X110925995Y-107608343D01*
X110942932Y-107669605D01*
X110959495Y-107722134D01*
X110959877Y-107730896D01*
X110963918Y-107745511D01*
X110966038Y-107852386D01*
X110919035Y-108389629D01*
X110919300Y-108394391D01*
X110918727Y-108400930D01*
X110918728Y-108400934D01*
X110825676Y-109464516D01*
X110823428Y-109490205D01*
X110807028Y-109560223D01*
X110794366Y-109617342D01*
X110793065Y-109619840D01*
X110790974Y-109628770D01*
X110759629Y-109684069D01*
X110734199Y-109732920D01*
X110728276Y-109739383D01*
X110720797Y-109752579D01*
X110679725Y-109792367D01*
X110646170Y-109828987D01*
X110633772Y-109836885D01*
X110618581Y-109851602D01*
X110573373Y-109875363D01*
X110536275Y-109898998D01*
X110516613Y-109905197D01*
X110492608Y-109917815D01*
X110448448Y-109926689D01*
X110412004Y-109938181D01*
X110385518Y-109939337D01*
X110353083Y-109945856D01*
X110314172Y-109942451D01*
X110281828Y-109943864D01*
X110250221Y-109936857D01*
X110211310Y-109933453D01*
X110180496Y-109921399D01*
X110154614Y-109915662D01*
X110120717Y-109898016D01*
X110078773Y-109881609D01*
X110057325Y-109865016D01*
X110039038Y-109855496D01*
X110006598Y-109825770D01*
X109966213Y-109794526D01*
X109953812Y-109777401D01*
X109942968Y-109767464D01*
X109916266Y-109725550D01*
X109882745Y-109679258D01*
X109877672Y-109664969D01*
X109872959Y-109657571D01*
X109856388Y-109605016D01*
X109835133Y-109545144D01*
X109834624Y-109535989D01*
X109833776Y-109533300D01*
X109831218Y-109474733D01*
X109827234Y-109403049D01*
X109827804Y-109396529D01*
X109827804Y-109396520D01*
X109843394Y-109218316D01*
X109790145Y-109154856D01*
X109309139Y-109112773D01*
X109245680Y-109166023D01*
X109232827Y-109312921D01*
X109229517Y-109350756D01*
X109213117Y-109420774D01*
X109200455Y-109477893D01*
X109199154Y-109480391D01*
X109197063Y-109489321D01*
X109165718Y-109544620D01*
X109140288Y-109593471D01*
X109134365Y-109599934D01*
X109126886Y-109613130D01*
X109085814Y-109652918D01*
X109052259Y-109689538D01*
X109039861Y-109697436D01*
X109024670Y-109712153D01*
X108979462Y-109735914D01*
X108942364Y-109759549D01*
X108922702Y-109765748D01*
X108898697Y-109778366D01*
X108854537Y-109787240D01*
X108818093Y-109798732D01*
X108791607Y-109799888D01*
X108759172Y-109806407D01*
X108720261Y-109803002D01*
X108687917Y-109804415D01*
X108656310Y-109797408D01*
X108617399Y-109794004D01*
X108586585Y-109781950D01*
X108560703Y-109776213D01*
X108526806Y-109758567D01*
X108484862Y-109742160D01*
X108463414Y-109725567D01*
X108445127Y-109716047D01*
X108412687Y-109686321D01*
X108372302Y-109655077D01*
X108359901Y-109637952D01*
X108349057Y-109628015D01*
X108322355Y-109586101D01*
X108288834Y-109539809D01*
X108283761Y-109525520D01*
X108279048Y-109518122D01*
X108262477Y-109465567D01*
X108241222Y-109405695D01*
X108240713Y-109396540D01*
X108239865Y-109393851D01*
X108237308Y-109335295D01*
X108233323Y-109263600D01*
X108233893Y-109257077D01*
X108233893Y-109257064D01*
X108297617Y-108528703D01*
X108297492Y-108522356D01*
X108308283Y-108399009D01*
X108375360Y-107632314D01*
X108375360Y-107632310D01*
X108375932Y-107625781D01*
X108396579Y-107520898D01*
X108403093Y-107507212D01*
X108404993Y-107498643D01*
X108430450Y-107449739D01*
X108457745Y-107392399D01*
X108463856Y-107385567D01*
X108465159Y-107383066D01*
X108504743Y-107339867D01*
X108552636Y-107286337D01*
X108613623Y-107248496D01*
X108663083Y-107216987D01*
X108665775Y-107216138D01*
X108673565Y-107211305D01*
X108734782Y-107194380D01*
X108787355Y-107177804D01*
X108796122Y-107177421D01*
X108810733Y-107173382D01*
X108917607Y-107171261D01*
X109228592Y-107198468D01*
G37*
G36*
X113028592Y-107198468D02*
G01*
X114304982Y-107310138D01*
X114304990Y-107310139D01*
X114311519Y-107310711D01*
X114416401Y-107331357D01*
X114430091Y-107337873D01*
X114438658Y-107339773D01*
X114487554Y-107365226D01*
X114544900Y-107392524D01*
X114551729Y-107398634D01*
X114554232Y-107399937D01*
X114597435Y-107439525D01*
X114650963Y-107487415D01*
X114688868Y-107548507D01*
X114720311Y-107597862D01*
X114721157Y-107600546D01*
X114725995Y-107608343D01*
X114742932Y-107669605D01*
X114759495Y-107722134D01*
X114759877Y-107730896D01*
X114763918Y-107745511D01*
X114766038Y-107852386D01*
X114719035Y-108389629D01*
X114719300Y-108394391D01*
X114718727Y-108400930D01*
X114718728Y-108400934D01*
X114625676Y-109464516D01*
X114623428Y-109490205D01*
X114607028Y-109560223D01*
X114594366Y-109617342D01*
X114593065Y-109619840D01*
X114590974Y-109628770D01*
X114559629Y-109684069D01*
X114534199Y-109732920D01*
X114528276Y-109739383D01*
X114520797Y-109752579D01*
X114479725Y-109792367D01*
X114446170Y-109828987D01*
X114433772Y-109836885D01*
X114418581Y-109851602D01*
X114373373Y-109875363D01*
X114336275Y-109898998D01*
X114316613Y-109905197D01*
X114292608Y-109917815D01*
X114248448Y-109926689D01*
X114212004Y-109938181D01*
X114185518Y-109939337D01*
X114153083Y-109945856D01*
X114114172Y-109942451D01*
X114081828Y-109943864D01*
X114050221Y-109936857D01*
X114011310Y-109933453D01*
X113980496Y-109921399D01*
X113954614Y-109915662D01*
X113920717Y-109898016D01*
X113878773Y-109881609D01*
X113857325Y-109865016D01*
X113839038Y-109855496D01*
X113806598Y-109825770D01*
X113766213Y-109794526D01*
X113753812Y-109777401D01*
X113742968Y-109767464D01*
X113716266Y-109725550D01*
X113682745Y-109679258D01*
X113677672Y-109664969D01*
X113672959Y-109657571D01*
X113656388Y-109605016D01*
X113635133Y-109545144D01*
X113634624Y-109535989D01*
X113633776Y-109533300D01*
X113631218Y-109474733D01*
X113627234Y-109403049D01*
X113627804Y-109396529D01*
X113627804Y-109396520D01*
X113643394Y-109218316D01*
X113590145Y-109154856D01*
X113109139Y-109112773D01*
X113045680Y-109166023D01*
X113032827Y-109312921D01*
X113029517Y-109350756D01*
X113013117Y-109420774D01*
X113000455Y-109477893D01*
X112999154Y-109480391D01*
X112997063Y-109489321D01*
X112965718Y-109544620D01*
X112940288Y-109593471D01*
X112934365Y-109599934D01*
X112926886Y-109613130D01*
X112885814Y-109652918D01*
X112852259Y-109689538D01*
X112839861Y-109697436D01*
X112824670Y-109712153D01*
X112779462Y-109735914D01*
X112742364Y-109759549D01*
X112722702Y-109765748D01*
X112698697Y-109778366D01*
X112654537Y-109787240D01*
X112618093Y-109798732D01*
X112591607Y-109799888D01*
X112559172Y-109806407D01*
X112520261Y-109803002D01*
X112487917Y-109804415D01*
X112456310Y-109797408D01*
X112417399Y-109794004D01*
X112386585Y-109781950D01*
X112360703Y-109776213D01*
X112326806Y-109758567D01*
X112284862Y-109742160D01*
X112263414Y-109725567D01*
X112245127Y-109716047D01*
X112212687Y-109686321D01*
X112172302Y-109655077D01*
X112159901Y-109637952D01*
X112149057Y-109628015D01*
X112122355Y-109586101D01*
X112088834Y-109539809D01*
X112083761Y-109525520D01*
X112079048Y-109518122D01*
X112062477Y-109465567D01*
X112041222Y-109405695D01*
X112040713Y-109396540D01*
X112039865Y-109393851D01*
X112037308Y-109335295D01*
X112033323Y-109263600D01*
X112033893Y-109257077D01*
X112033893Y-109257064D01*
X112097617Y-108528703D01*
X112097492Y-108522356D01*
X112108283Y-108399009D01*
X112175360Y-107632314D01*
X112175360Y-107632310D01*
X112175932Y-107625781D01*
X112196579Y-107520898D01*
X112203093Y-107507212D01*
X112204993Y-107498643D01*
X112230450Y-107449739D01*
X112257745Y-107392399D01*
X112263856Y-107385567D01*
X112265159Y-107383066D01*
X112304743Y-107339867D01*
X112352636Y-107286337D01*
X112413623Y-107248496D01*
X112463083Y-107216987D01*
X112465775Y-107216138D01*
X112473565Y-107211305D01*
X112534782Y-107194380D01*
X112587355Y-107177804D01*
X112596122Y-107177421D01*
X112610733Y-107173382D01*
X112717607Y-107171261D01*
X113028592Y-107198468D01*
G37*
G36*
X116828592Y-107198468D02*
G01*
X118104982Y-107310138D01*
X118104990Y-107310139D01*
X118111519Y-107310711D01*
X118216401Y-107331357D01*
X118230091Y-107337873D01*
X118238658Y-107339773D01*
X118287554Y-107365226D01*
X118344900Y-107392524D01*
X118351729Y-107398634D01*
X118354232Y-107399937D01*
X118397435Y-107439525D01*
X118450963Y-107487415D01*
X118488868Y-107548507D01*
X118520311Y-107597862D01*
X118521157Y-107600546D01*
X118525995Y-107608343D01*
X118542932Y-107669605D01*
X118559495Y-107722134D01*
X118559877Y-107730896D01*
X118563918Y-107745511D01*
X118566038Y-107852386D01*
X118519035Y-108389629D01*
X118519300Y-108394391D01*
X118518727Y-108400930D01*
X118518728Y-108400934D01*
X118425676Y-109464516D01*
X118423428Y-109490205D01*
X118407028Y-109560223D01*
X118394366Y-109617342D01*
X118393065Y-109619840D01*
X118390974Y-109628770D01*
X118359629Y-109684069D01*
X118334199Y-109732920D01*
X118328276Y-109739383D01*
X118320797Y-109752579D01*
X118279725Y-109792367D01*
X118246170Y-109828987D01*
X118233772Y-109836885D01*
X118218581Y-109851602D01*
X118173373Y-109875363D01*
X118136275Y-109898998D01*
X118116613Y-109905197D01*
X118092608Y-109917815D01*
X118048448Y-109926689D01*
X118012004Y-109938181D01*
X117985518Y-109939337D01*
X117953083Y-109945856D01*
X117914172Y-109942451D01*
X117881828Y-109943864D01*
X117850221Y-109936857D01*
X117811310Y-109933453D01*
X117780496Y-109921399D01*
X117754614Y-109915662D01*
X117720717Y-109898016D01*
X117678773Y-109881609D01*
X117657325Y-109865016D01*
X117639038Y-109855496D01*
X117606598Y-109825770D01*
X117566213Y-109794526D01*
X117553812Y-109777401D01*
X117542968Y-109767464D01*
X117516266Y-109725550D01*
X117482745Y-109679258D01*
X117477672Y-109664969D01*
X117472959Y-109657571D01*
X117456388Y-109605016D01*
X117435133Y-109545144D01*
X117434624Y-109535989D01*
X117433776Y-109533300D01*
X117431218Y-109474733D01*
X117427234Y-109403049D01*
X117427804Y-109396529D01*
X117427804Y-109396520D01*
X117443394Y-109218316D01*
X117390145Y-109154856D01*
X116909139Y-109112773D01*
X116845680Y-109166023D01*
X116832827Y-109312921D01*
X116829517Y-109350756D01*
X116813117Y-109420774D01*
X116800455Y-109477893D01*
X116799154Y-109480391D01*
X116797063Y-109489321D01*
X116765718Y-109544620D01*
X116740288Y-109593471D01*
X116734365Y-109599934D01*
X116726886Y-109613130D01*
X116685814Y-109652918D01*
X116652259Y-109689538D01*
X116639861Y-109697436D01*
X116624670Y-109712153D01*
X116579462Y-109735914D01*
X116542364Y-109759549D01*
X116522702Y-109765748D01*
X116498697Y-109778366D01*
X116454537Y-109787240D01*
X116418093Y-109798732D01*
X116391607Y-109799888D01*
X116359172Y-109806407D01*
X116320261Y-109803002D01*
X116287917Y-109804415D01*
X116256310Y-109797408D01*
X116217399Y-109794004D01*
X116186585Y-109781950D01*
X116160703Y-109776213D01*
X116126806Y-109758567D01*
X116084862Y-109742160D01*
X116063414Y-109725567D01*
X116045127Y-109716047D01*
X116012687Y-109686321D01*
X115972302Y-109655077D01*
X115959901Y-109637952D01*
X115949057Y-109628015D01*
X115922355Y-109586101D01*
X115888834Y-109539809D01*
X115883761Y-109525520D01*
X115879048Y-109518122D01*
X115862477Y-109465567D01*
X115841222Y-109405695D01*
X115840713Y-109396540D01*
X115839865Y-109393851D01*
X115837308Y-109335295D01*
X115833323Y-109263600D01*
X115833893Y-109257077D01*
X115833893Y-109257064D01*
X115897617Y-108528703D01*
X115897492Y-108522356D01*
X115908283Y-108399009D01*
X115975360Y-107632314D01*
X115975360Y-107632310D01*
X115975932Y-107625781D01*
X115996579Y-107520898D01*
X116003093Y-107507212D01*
X116004993Y-107498643D01*
X116030450Y-107449739D01*
X116057745Y-107392399D01*
X116063856Y-107385567D01*
X116065159Y-107383066D01*
X116104743Y-107339867D01*
X116152636Y-107286337D01*
X116213623Y-107248496D01*
X116263083Y-107216987D01*
X116265775Y-107216138D01*
X116273565Y-107211305D01*
X116334782Y-107194380D01*
X116387355Y-107177804D01*
X116396122Y-107177421D01*
X116410733Y-107173382D01*
X116517607Y-107171261D01*
X116828592Y-107198468D01*
G37*
G36*
X120628592Y-107198468D02*
G01*
X121904982Y-107310138D01*
X121904990Y-107310139D01*
X121911519Y-107310711D01*
X122016401Y-107331357D01*
X122030091Y-107337873D01*
X122038658Y-107339773D01*
X122087554Y-107365226D01*
X122144900Y-107392524D01*
X122151729Y-107398634D01*
X122154232Y-107399937D01*
X122197435Y-107439525D01*
X122250963Y-107487415D01*
X122288868Y-107548507D01*
X122320311Y-107597862D01*
X122321157Y-107600546D01*
X122325995Y-107608343D01*
X122342932Y-107669605D01*
X122359495Y-107722134D01*
X122359877Y-107730896D01*
X122363918Y-107745511D01*
X122366038Y-107852386D01*
X122319035Y-108389629D01*
X122319300Y-108394391D01*
X122318727Y-108400930D01*
X122318728Y-108400934D01*
X122225676Y-109464516D01*
X122223428Y-109490205D01*
X122207028Y-109560223D01*
X122194366Y-109617342D01*
X122193065Y-109619840D01*
X122190974Y-109628770D01*
X122159629Y-109684069D01*
X122134199Y-109732920D01*
X122128276Y-109739383D01*
X122120797Y-109752579D01*
X122079725Y-109792367D01*
X122046170Y-109828987D01*
X122033772Y-109836885D01*
X122018581Y-109851602D01*
X121973373Y-109875363D01*
X121936275Y-109898998D01*
X121916613Y-109905197D01*
X121892608Y-109917815D01*
X121848448Y-109926689D01*
X121812004Y-109938181D01*
X121785518Y-109939337D01*
X121753083Y-109945856D01*
X121714172Y-109942451D01*
X121681828Y-109943864D01*
X121650221Y-109936857D01*
X121611310Y-109933453D01*
X121580496Y-109921399D01*
X121554614Y-109915662D01*
X121520717Y-109898016D01*
X121478773Y-109881609D01*
X121457325Y-109865016D01*
X121439038Y-109855496D01*
X121406598Y-109825770D01*
X121366213Y-109794526D01*
X121353812Y-109777401D01*
X121342968Y-109767464D01*
X121316266Y-109725550D01*
X121282745Y-109679258D01*
X121277672Y-109664969D01*
X121272959Y-109657571D01*
X121256388Y-109605016D01*
X121235133Y-109545144D01*
X121234624Y-109535989D01*
X121233776Y-109533300D01*
X121231218Y-109474733D01*
X121227234Y-109403049D01*
X121227804Y-109396529D01*
X121227804Y-109396520D01*
X121243394Y-109218316D01*
X121190145Y-109154856D01*
X120709139Y-109112773D01*
X120645680Y-109166023D01*
X120632827Y-109312921D01*
X120629517Y-109350756D01*
X120613117Y-109420774D01*
X120600455Y-109477893D01*
X120599154Y-109480391D01*
X120597063Y-109489321D01*
X120565718Y-109544620D01*
X120540288Y-109593471D01*
X120534365Y-109599934D01*
X120526886Y-109613130D01*
X120485814Y-109652918D01*
X120452259Y-109689538D01*
X120439861Y-109697436D01*
X120424670Y-109712153D01*
X120379462Y-109735914D01*
X120342364Y-109759549D01*
X120322702Y-109765748D01*
X120298697Y-109778366D01*
X120254537Y-109787240D01*
X120218093Y-109798732D01*
X120191607Y-109799888D01*
X120159172Y-109806407D01*
X120120261Y-109803002D01*
X120087917Y-109804415D01*
X120056310Y-109797408D01*
X120017399Y-109794004D01*
X119986585Y-109781950D01*
X119960703Y-109776213D01*
X119926806Y-109758567D01*
X119884862Y-109742160D01*
X119863414Y-109725567D01*
X119845127Y-109716047D01*
X119812687Y-109686321D01*
X119772302Y-109655077D01*
X119759901Y-109637952D01*
X119749057Y-109628015D01*
X119722355Y-109586101D01*
X119688834Y-109539809D01*
X119683761Y-109525520D01*
X119679048Y-109518122D01*
X119662477Y-109465567D01*
X119641222Y-109405695D01*
X119640713Y-109396540D01*
X119639865Y-109393851D01*
X119637308Y-109335295D01*
X119633323Y-109263600D01*
X119633893Y-109257077D01*
X119633893Y-109257064D01*
X119697617Y-108528703D01*
X119697492Y-108522356D01*
X119708283Y-108399009D01*
X119775360Y-107632314D01*
X119775360Y-107632310D01*
X119775932Y-107625781D01*
X119796579Y-107520898D01*
X119803093Y-107507212D01*
X119804993Y-107498643D01*
X119830450Y-107449739D01*
X119857745Y-107392399D01*
X119863856Y-107385567D01*
X119865159Y-107383066D01*
X119904743Y-107339867D01*
X119952636Y-107286337D01*
X120013623Y-107248496D01*
X120063083Y-107216987D01*
X120065775Y-107216138D01*
X120073565Y-107211305D01*
X120134782Y-107194380D01*
X120187355Y-107177804D01*
X120196122Y-107177421D01*
X120210733Y-107173382D01*
X120317607Y-107171261D01*
X120628592Y-107198468D01*
G37*
G36*
X124428592Y-107198468D02*
G01*
X125704982Y-107310138D01*
X125704990Y-107310139D01*
X125711519Y-107310711D01*
X125816401Y-107331357D01*
X125830091Y-107337873D01*
X125838658Y-107339773D01*
X125887554Y-107365226D01*
X125944900Y-107392524D01*
X125951729Y-107398634D01*
X125954232Y-107399937D01*
X125997435Y-107439525D01*
X126050963Y-107487415D01*
X126088868Y-107548507D01*
X126120311Y-107597862D01*
X126121157Y-107600546D01*
X126125995Y-107608343D01*
X126142932Y-107669605D01*
X126159495Y-107722134D01*
X126159877Y-107730896D01*
X126163918Y-107745511D01*
X126166038Y-107852386D01*
X126119035Y-108389629D01*
X126119300Y-108394391D01*
X126118727Y-108400930D01*
X126118728Y-108400934D01*
X126025676Y-109464516D01*
X126023428Y-109490205D01*
X126007028Y-109560223D01*
X125994366Y-109617342D01*
X125993065Y-109619840D01*
X125990974Y-109628770D01*
X125959629Y-109684069D01*
X125934199Y-109732920D01*
X125928276Y-109739383D01*
X125920797Y-109752579D01*
X125879725Y-109792367D01*
X125846170Y-109828987D01*
X125833772Y-109836885D01*
X125818581Y-109851602D01*
X125773373Y-109875363D01*
X125736275Y-109898998D01*
X125716613Y-109905197D01*
X125692608Y-109917815D01*
X125648448Y-109926689D01*
X125612004Y-109938181D01*
X125585518Y-109939337D01*
X125553083Y-109945856D01*
X125514172Y-109942451D01*
X125481828Y-109943864D01*
X125450221Y-109936857D01*
X125411310Y-109933453D01*
X125380496Y-109921399D01*
X125354614Y-109915662D01*
X125320717Y-109898016D01*
X125278773Y-109881609D01*
X125257325Y-109865016D01*
X125239038Y-109855496D01*
X125206598Y-109825770D01*
X125166213Y-109794526D01*
X125153812Y-109777401D01*
X125142968Y-109767464D01*
X125116266Y-109725550D01*
X125082745Y-109679258D01*
X125077672Y-109664969D01*
X125072959Y-109657571D01*
X125056388Y-109605016D01*
X125035133Y-109545144D01*
X125034624Y-109535989D01*
X125033776Y-109533300D01*
X125031218Y-109474733D01*
X125027234Y-109403049D01*
X125027804Y-109396529D01*
X125027804Y-109396520D01*
X125043394Y-109218316D01*
X124990145Y-109154856D01*
X124509139Y-109112773D01*
X124445680Y-109166023D01*
X124432827Y-109312921D01*
X124429517Y-109350756D01*
X124413117Y-109420774D01*
X124400455Y-109477893D01*
X124399154Y-109480391D01*
X124397063Y-109489321D01*
X124365718Y-109544620D01*
X124340288Y-109593471D01*
X124334365Y-109599934D01*
X124326886Y-109613130D01*
X124285814Y-109652918D01*
X124252259Y-109689538D01*
X124239861Y-109697436D01*
X124224670Y-109712153D01*
X124179462Y-109735914D01*
X124142364Y-109759549D01*
X124122702Y-109765748D01*
X124098697Y-109778366D01*
X124054537Y-109787240D01*
X124018093Y-109798732D01*
X123991607Y-109799888D01*
X123959172Y-109806407D01*
X123920261Y-109803002D01*
X123887917Y-109804415D01*
X123856310Y-109797408D01*
X123817399Y-109794004D01*
X123786585Y-109781950D01*
X123760703Y-109776213D01*
X123726806Y-109758567D01*
X123684862Y-109742160D01*
X123663414Y-109725567D01*
X123645127Y-109716047D01*
X123612687Y-109686321D01*
X123572302Y-109655077D01*
X123559901Y-109637952D01*
X123549057Y-109628015D01*
X123522355Y-109586101D01*
X123488834Y-109539809D01*
X123483761Y-109525520D01*
X123479048Y-109518122D01*
X123462477Y-109465567D01*
X123441222Y-109405695D01*
X123440713Y-109396540D01*
X123439865Y-109393851D01*
X123437308Y-109335295D01*
X123433323Y-109263600D01*
X123433893Y-109257077D01*
X123433893Y-109257064D01*
X123497617Y-108528703D01*
X123497492Y-108522356D01*
X123508283Y-108399009D01*
X123575360Y-107632314D01*
X123575360Y-107632310D01*
X123575932Y-107625781D01*
X123596579Y-107520898D01*
X123603093Y-107507212D01*
X123604993Y-107498643D01*
X123630450Y-107449739D01*
X123657745Y-107392399D01*
X123663856Y-107385567D01*
X123665159Y-107383066D01*
X123704743Y-107339867D01*
X123752636Y-107286337D01*
X123813623Y-107248496D01*
X123863083Y-107216987D01*
X123865775Y-107216138D01*
X123873565Y-107211305D01*
X123934782Y-107194380D01*
X123987355Y-107177804D01*
X123996122Y-107177421D01*
X124010733Y-107173382D01*
X124117607Y-107171261D01*
X124428592Y-107198468D01*
G37*
G36*
X128228592Y-107198468D02*
G01*
X129504982Y-107310138D01*
X129504990Y-107310139D01*
X129511519Y-107310711D01*
X129616401Y-107331357D01*
X129630091Y-107337873D01*
X129638658Y-107339773D01*
X129687554Y-107365226D01*
X129744900Y-107392524D01*
X129751729Y-107398634D01*
X129754232Y-107399937D01*
X129797435Y-107439525D01*
X129850963Y-107487415D01*
X129888868Y-107548507D01*
X129920311Y-107597862D01*
X129921157Y-107600546D01*
X129925995Y-107608343D01*
X129942932Y-107669605D01*
X129959495Y-107722134D01*
X129959877Y-107730896D01*
X129963918Y-107745511D01*
X129966038Y-107852386D01*
X129919035Y-108389629D01*
X129919300Y-108394391D01*
X129918727Y-108400930D01*
X129918728Y-108400934D01*
X129825676Y-109464516D01*
X129823428Y-109490205D01*
X129807028Y-109560223D01*
X129794366Y-109617342D01*
X129793065Y-109619840D01*
X129790974Y-109628770D01*
X129759629Y-109684069D01*
X129734199Y-109732920D01*
X129728276Y-109739383D01*
X129720797Y-109752579D01*
X129679725Y-109792367D01*
X129646170Y-109828987D01*
X129633772Y-109836885D01*
X129618581Y-109851602D01*
X129573373Y-109875363D01*
X129536275Y-109898998D01*
X129516613Y-109905197D01*
X129492608Y-109917815D01*
X129448448Y-109926689D01*
X129412004Y-109938181D01*
X129385518Y-109939337D01*
X129353083Y-109945856D01*
X129314172Y-109942451D01*
X129281828Y-109943864D01*
X129250221Y-109936857D01*
X129211310Y-109933453D01*
X129180496Y-109921399D01*
X129154614Y-109915662D01*
X129120717Y-109898016D01*
X129078773Y-109881609D01*
X129057325Y-109865016D01*
X129039038Y-109855496D01*
X129006598Y-109825770D01*
X128966213Y-109794526D01*
X128953812Y-109777401D01*
X128942968Y-109767464D01*
X128916266Y-109725550D01*
X128882745Y-109679258D01*
X128877672Y-109664969D01*
X128872959Y-109657571D01*
X128856388Y-109605016D01*
X128835133Y-109545144D01*
X128834624Y-109535989D01*
X128833776Y-109533300D01*
X128831218Y-109474733D01*
X128827234Y-109403049D01*
X128827804Y-109396529D01*
X128827804Y-109396520D01*
X128843394Y-109218316D01*
X128790145Y-109154856D01*
X128309139Y-109112773D01*
X128245680Y-109166023D01*
X128232827Y-109312921D01*
X128229517Y-109350756D01*
X128213117Y-109420774D01*
X128200455Y-109477893D01*
X128199154Y-109480391D01*
X128197063Y-109489321D01*
X128165718Y-109544620D01*
X128140288Y-109593471D01*
X128134365Y-109599934D01*
X128126886Y-109613130D01*
X128085814Y-109652918D01*
X128052259Y-109689538D01*
X128039861Y-109697436D01*
X128024670Y-109712153D01*
X127979462Y-109735914D01*
X127942364Y-109759549D01*
X127922702Y-109765748D01*
X127898697Y-109778366D01*
X127854537Y-109787240D01*
X127818093Y-109798732D01*
X127791607Y-109799888D01*
X127759172Y-109806407D01*
X127720261Y-109803002D01*
X127687917Y-109804415D01*
X127656310Y-109797408D01*
X127617399Y-109794004D01*
X127586585Y-109781950D01*
X127560703Y-109776213D01*
X127526806Y-109758567D01*
X127484862Y-109742160D01*
X127463414Y-109725567D01*
X127445127Y-109716047D01*
X127412687Y-109686321D01*
X127372302Y-109655077D01*
X127359901Y-109637952D01*
X127349057Y-109628015D01*
X127322355Y-109586101D01*
X127288834Y-109539809D01*
X127283761Y-109525520D01*
X127279048Y-109518122D01*
X127262477Y-109465567D01*
X127241222Y-109405695D01*
X127240713Y-109396540D01*
X127239865Y-109393851D01*
X127237308Y-109335295D01*
X127233323Y-109263600D01*
X127233893Y-109257077D01*
X127233893Y-109257064D01*
X127297617Y-108528703D01*
X127297492Y-108522356D01*
X127308283Y-108399009D01*
X127375360Y-107632314D01*
X127375360Y-107632310D01*
X127375932Y-107625781D01*
X127396579Y-107520898D01*
X127403093Y-107507212D01*
X127404993Y-107498643D01*
X127430450Y-107449739D01*
X127457745Y-107392399D01*
X127463856Y-107385567D01*
X127465159Y-107383066D01*
X127504743Y-107339867D01*
X127552636Y-107286337D01*
X127613623Y-107248496D01*
X127663083Y-107216987D01*
X127665775Y-107216138D01*
X127673565Y-107211305D01*
X127734782Y-107194380D01*
X127787355Y-107177804D01*
X127796122Y-107177421D01*
X127810733Y-107173382D01*
X127917607Y-107171261D01*
X128228592Y-107198468D01*
G37*
G36*
X132028592Y-107198468D02*
G01*
X133304982Y-107310138D01*
X133304990Y-107310139D01*
X133311519Y-107310711D01*
X133416401Y-107331357D01*
X133430091Y-107337873D01*
X133438658Y-107339773D01*
X133487554Y-107365226D01*
X133544900Y-107392524D01*
X133551729Y-107398634D01*
X133554232Y-107399937D01*
X133597435Y-107439525D01*
X133650963Y-107487415D01*
X133688868Y-107548507D01*
X133720311Y-107597862D01*
X133721157Y-107600546D01*
X133725995Y-107608343D01*
X133742932Y-107669605D01*
X133759495Y-107722134D01*
X133759877Y-107730896D01*
X133763918Y-107745511D01*
X133766038Y-107852386D01*
X133719035Y-108389629D01*
X133719300Y-108394391D01*
X133718727Y-108400930D01*
X133718728Y-108400934D01*
X133625676Y-109464516D01*
X133623428Y-109490205D01*
X133607028Y-109560223D01*
X133594366Y-109617342D01*
X133593065Y-109619840D01*
X133590974Y-109628770D01*
X133559629Y-109684069D01*
X133534199Y-109732920D01*
X133528276Y-109739383D01*
X133520797Y-109752579D01*
X133479725Y-109792367D01*
X133446170Y-109828987D01*
X133433772Y-109836885D01*
X133418581Y-109851602D01*
X133373373Y-109875363D01*
X133336275Y-109898998D01*
X133316613Y-109905197D01*
X133292608Y-109917815D01*
X133248448Y-109926689D01*
X133212004Y-109938181D01*
X133185518Y-109939337D01*
X133153083Y-109945856D01*
X133114172Y-109942451D01*
X133081828Y-109943864D01*
X133050221Y-109936857D01*
X133011310Y-109933453D01*
X132980496Y-109921399D01*
X132954614Y-109915662D01*
X132920717Y-109898016D01*
X132878773Y-109881609D01*
X132857325Y-109865016D01*
X132839038Y-109855496D01*
X132806598Y-109825770D01*
X132766213Y-109794526D01*
X132753812Y-109777401D01*
X132742968Y-109767464D01*
X132716266Y-109725550D01*
X132682745Y-109679258D01*
X132677672Y-109664969D01*
X132672959Y-109657571D01*
X132656388Y-109605016D01*
X132635133Y-109545144D01*
X132634624Y-109535989D01*
X132633776Y-109533300D01*
X132631218Y-109474733D01*
X132627234Y-109403049D01*
X132627804Y-109396529D01*
X132627804Y-109396520D01*
X132643394Y-109218316D01*
X132590145Y-109154856D01*
X132109139Y-109112773D01*
X132045680Y-109166023D01*
X132032827Y-109312921D01*
X132029517Y-109350756D01*
X132013117Y-109420774D01*
X132000455Y-109477893D01*
X131999154Y-109480391D01*
X131997063Y-109489321D01*
X131965718Y-109544620D01*
X131940288Y-109593471D01*
X131934365Y-109599934D01*
X131926886Y-109613130D01*
X131885814Y-109652918D01*
X131852259Y-109689538D01*
X131839861Y-109697436D01*
X131824670Y-109712153D01*
X131779462Y-109735914D01*
X131742364Y-109759549D01*
X131722702Y-109765748D01*
X131698697Y-109778366D01*
X131654537Y-109787240D01*
X131618093Y-109798732D01*
X131591607Y-109799888D01*
X131559172Y-109806407D01*
X131520261Y-109803002D01*
X131487917Y-109804415D01*
X131456310Y-109797408D01*
X131417399Y-109794004D01*
X131386585Y-109781950D01*
X131360703Y-109776213D01*
X131326806Y-109758567D01*
X131284862Y-109742160D01*
X131263414Y-109725567D01*
X131245127Y-109716047D01*
X131212687Y-109686321D01*
X131172302Y-109655077D01*
X131159901Y-109637952D01*
X131149057Y-109628015D01*
X131122355Y-109586101D01*
X131088834Y-109539809D01*
X131083761Y-109525520D01*
X131079048Y-109518122D01*
X131062477Y-109465567D01*
X131041222Y-109405695D01*
X131040713Y-109396540D01*
X131039865Y-109393851D01*
X131037308Y-109335295D01*
X131033323Y-109263600D01*
X131033893Y-109257077D01*
X131033893Y-109257064D01*
X131097617Y-108528703D01*
X131097492Y-108522356D01*
X131108283Y-108399009D01*
X131175360Y-107632314D01*
X131175360Y-107632310D01*
X131175932Y-107625781D01*
X131196579Y-107520898D01*
X131203093Y-107507212D01*
X131204993Y-107498643D01*
X131230450Y-107449739D01*
X131257745Y-107392399D01*
X131263856Y-107385567D01*
X131265159Y-107383066D01*
X131304743Y-107339867D01*
X131352636Y-107286337D01*
X131413623Y-107248496D01*
X131463083Y-107216987D01*
X131465775Y-107216138D01*
X131473565Y-107211305D01*
X131534782Y-107194380D01*
X131587355Y-107177804D01*
X131596122Y-107177421D01*
X131610733Y-107173382D01*
X131717607Y-107171261D01*
X132028592Y-107198468D01*
G37*
G36*
X135828572Y-107198467D02*
G01*
X137104962Y-107310137D01*
X137104970Y-107310138D01*
X137111499Y-107310710D01*
X137216381Y-107331356D01*
X137230071Y-107337872D01*
X137238638Y-107339772D01*
X137287534Y-107365225D01*
X137344880Y-107392523D01*
X137351709Y-107398633D01*
X137354212Y-107399936D01*
X137397415Y-107439524D01*
X137450943Y-107487414D01*
X137488848Y-107548506D01*
X137520291Y-107597861D01*
X137521137Y-107600545D01*
X137525975Y-107608342D01*
X137542912Y-107669604D01*
X137559475Y-107722133D01*
X137559857Y-107730895D01*
X137563898Y-107745510D01*
X137566018Y-107852385D01*
X137519015Y-108389628D01*
X137519280Y-108394390D01*
X137518707Y-108400929D01*
X137518708Y-108400933D01*
X137424485Y-109477892D01*
X137423408Y-109490204D01*
X137407008Y-109560222D01*
X137394346Y-109617341D01*
X137393045Y-109619839D01*
X137390954Y-109628769D01*
X137359609Y-109684068D01*
X137334179Y-109732919D01*
X137328256Y-109739382D01*
X137320777Y-109752578D01*
X137279705Y-109792366D01*
X137246150Y-109828986D01*
X137233752Y-109836884D01*
X137218561Y-109851601D01*
X137173353Y-109875362D01*
X137136255Y-109898997D01*
X137116593Y-109905196D01*
X137092588Y-109917814D01*
X137048428Y-109926688D01*
X137011984Y-109938180D01*
X136985498Y-109939336D01*
X136953063Y-109945855D01*
X136914152Y-109942450D01*
X136881808Y-109943863D01*
X136850201Y-109936856D01*
X136811290Y-109933452D01*
X136780476Y-109921398D01*
X136754594Y-109915661D01*
X136720697Y-109898015D01*
X136678753Y-109881608D01*
X136657305Y-109865015D01*
X136639018Y-109855495D01*
X136606578Y-109825769D01*
X136566193Y-109794525D01*
X136553792Y-109777400D01*
X136542948Y-109767463D01*
X136516246Y-109725549D01*
X136482725Y-109679257D01*
X136477652Y-109664968D01*
X136472939Y-109657570D01*
X136456368Y-109605015D01*
X136435113Y-109545143D01*
X136434604Y-109535988D01*
X136433756Y-109533299D01*
X136431198Y-109474732D01*
X136427214Y-109403048D01*
X136427784Y-109396528D01*
X136427784Y-109396519D01*
X136443374Y-109218315D01*
X136390125Y-109154855D01*
X135909119Y-109112772D01*
X135845660Y-109166022D01*
X135832807Y-109312921D01*
X135829497Y-109350755D01*
X135813097Y-109420773D01*
X135800435Y-109477892D01*
X135799134Y-109480390D01*
X135797043Y-109489320D01*
X135765698Y-109544619D01*
X135740268Y-109593470D01*
X135734345Y-109599933D01*
X135726866Y-109613129D01*
X135685794Y-109652917D01*
X135652239Y-109689537D01*
X135639841Y-109697435D01*
X135624650Y-109712152D01*
X135579442Y-109735913D01*
X135542344Y-109759548D01*
X135522682Y-109765747D01*
X135498677Y-109778365D01*
X135454517Y-109787239D01*
X135418073Y-109798731D01*
X135391587Y-109799887D01*
X135359152Y-109806406D01*
X135320241Y-109803001D01*
X135287897Y-109804414D01*
X135256290Y-109797407D01*
X135217379Y-109794003D01*
X135186565Y-109781949D01*
X135160683Y-109776212D01*
X135126786Y-109758566D01*
X135084842Y-109742159D01*
X135063394Y-109725566D01*
X135045107Y-109716046D01*
X135012667Y-109686320D01*
X134972282Y-109655076D01*
X134959881Y-109637951D01*
X134949037Y-109628014D01*
X134922335Y-109586100D01*
X134888814Y-109539808D01*
X134883741Y-109525519D01*
X134879028Y-109518121D01*
X134862457Y-109465566D01*
X134841202Y-109405694D01*
X134840693Y-109396539D01*
X134839845Y-109393850D01*
X134837288Y-109335294D01*
X134833303Y-109263599D01*
X134833873Y-109257076D01*
X134833873Y-109257063D01*
X134897597Y-108528702D01*
X134897472Y-108522355D01*
X134915607Y-108315070D01*
X134975340Y-107632313D01*
X134975340Y-107632309D01*
X134975912Y-107625780D01*
X134996559Y-107520897D01*
X135003073Y-107507211D01*
X135004973Y-107498642D01*
X135030430Y-107449738D01*
X135057725Y-107392398D01*
X135063836Y-107385566D01*
X135065139Y-107383065D01*
X135104723Y-107339866D01*
X135152616Y-107286336D01*
X135213603Y-107248495D01*
X135263063Y-107216986D01*
X135265755Y-107216137D01*
X135273545Y-107211304D01*
X135334762Y-107194379D01*
X135387335Y-107177803D01*
X135396102Y-107177420D01*
X135410713Y-107173381D01*
X135517587Y-107171260D01*
X135828572Y-107198467D01*
G37*
G36*
X139628572Y-107198467D02*
G01*
X140904962Y-107310137D01*
X140904970Y-107310138D01*
X140911499Y-107310710D01*
X141016381Y-107331356D01*
X141030071Y-107337872D01*
X141038638Y-107339772D01*
X141087534Y-107365225D01*
X141144880Y-107392523D01*
X141151709Y-107398633D01*
X141154212Y-107399936D01*
X141197415Y-107439524D01*
X141250943Y-107487414D01*
X141288848Y-107548506D01*
X141320291Y-107597861D01*
X141321137Y-107600545D01*
X141325975Y-107608342D01*
X141342912Y-107669604D01*
X141359475Y-107722133D01*
X141359857Y-107730895D01*
X141363898Y-107745510D01*
X141366018Y-107852385D01*
X141319015Y-108389628D01*
X141319280Y-108394390D01*
X141318707Y-108400929D01*
X141318708Y-108400933D01*
X141224485Y-109477892D01*
X141223408Y-109490204D01*
X141207008Y-109560222D01*
X141194346Y-109617341D01*
X141193045Y-109619839D01*
X141190954Y-109628769D01*
X141159609Y-109684068D01*
X141134179Y-109732919D01*
X141128256Y-109739382D01*
X141120777Y-109752578D01*
X141079705Y-109792366D01*
X141046150Y-109828986D01*
X141033752Y-109836884D01*
X141018561Y-109851601D01*
X140973353Y-109875362D01*
X140936255Y-109898997D01*
X140916593Y-109905196D01*
X140892588Y-109917814D01*
X140848428Y-109926688D01*
X140811984Y-109938180D01*
X140785498Y-109939336D01*
X140753063Y-109945855D01*
X140714152Y-109942450D01*
X140681808Y-109943863D01*
X140650201Y-109936856D01*
X140611290Y-109933452D01*
X140580476Y-109921398D01*
X140554594Y-109915661D01*
X140520697Y-109898015D01*
X140478753Y-109881608D01*
X140457305Y-109865015D01*
X140439018Y-109855495D01*
X140406578Y-109825769D01*
X140366193Y-109794525D01*
X140353792Y-109777400D01*
X140342948Y-109767463D01*
X140316246Y-109725549D01*
X140282725Y-109679257D01*
X140277652Y-109664968D01*
X140272939Y-109657570D01*
X140256368Y-109605015D01*
X140235113Y-109545143D01*
X140234604Y-109535988D01*
X140233756Y-109533299D01*
X140231198Y-109474732D01*
X140227214Y-109403048D01*
X140227784Y-109396528D01*
X140227784Y-109396519D01*
X140243374Y-109218315D01*
X140190125Y-109154855D01*
X139709119Y-109112772D01*
X139645660Y-109166022D01*
X139632807Y-109312921D01*
X139629497Y-109350755D01*
X139613097Y-109420773D01*
X139600435Y-109477892D01*
X139599134Y-109480390D01*
X139597043Y-109489320D01*
X139565698Y-109544619D01*
X139540268Y-109593470D01*
X139534345Y-109599933D01*
X139526866Y-109613129D01*
X139485794Y-109652917D01*
X139452239Y-109689537D01*
X139439841Y-109697435D01*
X139424650Y-109712152D01*
X139379442Y-109735913D01*
X139342344Y-109759548D01*
X139322682Y-109765747D01*
X139298677Y-109778365D01*
X139254517Y-109787239D01*
X139218073Y-109798731D01*
X139191587Y-109799887D01*
X139159152Y-109806406D01*
X139120241Y-109803001D01*
X139087897Y-109804414D01*
X139056290Y-109797407D01*
X139017379Y-109794003D01*
X138986565Y-109781949D01*
X138960683Y-109776212D01*
X138926786Y-109758566D01*
X138884842Y-109742159D01*
X138863394Y-109725566D01*
X138845107Y-109716046D01*
X138812667Y-109686320D01*
X138772282Y-109655076D01*
X138759881Y-109637951D01*
X138749037Y-109628014D01*
X138722335Y-109586100D01*
X138688814Y-109539808D01*
X138683741Y-109525519D01*
X138679028Y-109518121D01*
X138662457Y-109465566D01*
X138641202Y-109405694D01*
X138640693Y-109396539D01*
X138639845Y-109393850D01*
X138637288Y-109335294D01*
X138633303Y-109263599D01*
X138633873Y-109257076D01*
X138633873Y-109257063D01*
X138697597Y-108528702D01*
X138697472Y-108522355D01*
X138715607Y-108315070D01*
X138775340Y-107632313D01*
X138775340Y-107632309D01*
X138775912Y-107625780D01*
X138796559Y-107520897D01*
X138803073Y-107507211D01*
X138804973Y-107498642D01*
X138830430Y-107449738D01*
X138857725Y-107392398D01*
X138863836Y-107385566D01*
X138865139Y-107383065D01*
X138904723Y-107339866D01*
X138952616Y-107286336D01*
X139013603Y-107248495D01*
X139063063Y-107216986D01*
X139065755Y-107216137D01*
X139073545Y-107211304D01*
X139134762Y-107194379D01*
X139187335Y-107177803D01*
X139196102Y-107177420D01*
X139210713Y-107173381D01*
X139317587Y-107171260D01*
X139628572Y-107198467D01*
G37*
G36*
X183345151Y-107669930D02*
G01*
X183394076Y-107669930D01*
X183436321Y-107678909D01*
X183475485Y-107682767D01*
X183524689Y-107697693D01*
X183578115Y-107709049D01*
X183612300Y-107724269D01*
X183644230Y-107733955D01*
X183694971Y-107761076D01*
X183750000Y-107785577D01*
X183775583Y-107804164D01*
X183799743Y-107817078D01*
X183849023Y-107857521D01*
X183902218Y-107896170D01*
X183919491Y-107915354D01*
X183936053Y-107928946D01*
X183980563Y-107983182D01*
X184028115Y-108035993D01*
X184038103Y-108053293D01*
X184047921Y-108065256D01*
X184084237Y-108133200D01*
X184122191Y-108198937D01*
X184126557Y-108212374D01*
X184131044Y-108220769D01*
X184155779Y-108302311D01*
X184180333Y-108377879D01*
X184181197Y-108386103D01*
X184182232Y-108389514D01*
X184192305Y-108491787D01*
X184200000Y-108565000D01*
X184192304Y-108638218D01*
X184182232Y-108740485D01*
X184181197Y-108743895D01*
X184180333Y-108752121D01*
X184155774Y-108827702D01*
X184131044Y-108909230D01*
X184126558Y-108917622D01*
X184122191Y-108931063D01*
X184084230Y-108996812D01*
X184047921Y-109064743D01*
X184038105Y-109076703D01*
X184028115Y-109094007D01*
X183980554Y-109146828D01*
X183936053Y-109201053D01*
X183919494Y-109214642D01*
X183902218Y-109233830D01*
X183849012Y-109272486D01*
X183799743Y-109312921D01*
X183775588Y-109325831D01*
X183750000Y-109344423D01*
X183694960Y-109368928D01*
X183644230Y-109396044D01*
X183612307Y-109405727D01*
X183578115Y-109420951D01*
X183524678Y-109432309D01*
X183475485Y-109447232D01*
X183436330Y-109451088D01*
X183394076Y-109460070D01*
X183345140Y-109460070D01*
X183300000Y-109464516D01*
X183254859Y-109460070D01*
X183205924Y-109460070D01*
X183163669Y-109451088D01*
X183124514Y-109447232D01*
X183075317Y-109432308D01*
X183021885Y-109420951D01*
X182987694Y-109405728D01*
X182955769Y-109396044D01*
X182905033Y-109368925D01*
X182850000Y-109344423D01*
X182824413Y-109325833D01*
X182800256Y-109312921D01*
X182750978Y-109272479D01*
X182697782Y-109233830D01*
X182680507Y-109214645D01*
X182663946Y-109201053D01*
X182619434Y-109146815D01*
X182571885Y-109094007D01*
X182561897Y-109076707D01*
X182552078Y-109064743D01*
X182515756Y-108996788D01*
X182477809Y-108931063D01*
X182473443Y-108917627D01*
X182468955Y-108909230D01*
X182444210Y-108827656D01*
X182419667Y-108752121D01*
X182418802Y-108743900D01*
X182417767Y-108740485D01*
X182407679Y-108638067D01*
X182400000Y-108565000D01*
X182407678Y-108491939D01*
X182417767Y-108389514D01*
X182418803Y-108386098D01*
X182419667Y-108377879D01*
X182444205Y-108302357D01*
X182468955Y-108220769D01*
X182473444Y-108212369D01*
X182477809Y-108198937D01*
X182515748Y-108133223D01*
X182552078Y-108065256D01*
X182561899Y-108053289D01*
X182571885Y-108035993D01*
X182619424Y-107983194D01*
X182663946Y-107928946D01*
X182680511Y-107915350D01*
X182697782Y-107896170D01*
X182750968Y-107857527D01*
X182800256Y-107817078D01*
X182824419Y-107804162D01*
X182850000Y-107785577D01*
X182905022Y-107761079D01*
X182955769Y-107733955D01*
X182987701Y-107724268D01*
X183021885Y-107709049D01*
X183075306Y-107697693D01*
X183124514Y-107682767D01*
X183163678Y-107678909D01*
X183205924Y-107669930D01*
X183254849Y-107669930D01*
X183300000Y-107665483D01*
X183345151Y-107669930D01*
G37*
G36*
X187305151Y-107669930D02*
G01*
X187354076Y-107669930D01*
X187396321Y-107678909D01*
X187435485Y-107682767D01*
X187484689Y-107697693D01*
X187538115Y-107709049D01*
X187572300Y-107724269D01*
X187604230Y-107733955D01*
X187654971Y-107761076D01*
X187710000Y-107785577D01*
X187735583Y-107804164D01*
X187759743Y-107817078D01*
X187809023Y-107857521D01*
X187862218Y-107896170D01*
X187879491Y-107915354D01*
X187896053Y-107928946D01*
X187940563Y-107983182D01*
X187988115Y-108035993D01*
X187998103Y-108053293D01*
X188007921Y-108065256D01*
X188044237Y-108133200D01*
X188082191Y-108198937D01*
X188086557Y-108212374D01*
X188091044Y-108220769D01*
X188115779Y-108302311D01*
X188140333Y-108377879D01*
X188141197Y-108386103D01*
X188142232Y-108389514D01*
X188152305Y-108491787D01*
X188160000Y-108565000D01*
X188152304Y-108638218D01*
X188142232Y-108740485D01*
X188141197Y-108743895D01*
X188140333Y-108752121D01*
X188115774Y-108827702D01*
X188091044Y-108909230D01*
X188086558Y-108917622D01*
X188082191Y-108931063D01*
X188044230Y-108996812D01*
X188007921Y-109064743D01*
X187998105Y-109076703D01*
X187988115Y-109094007D01*
X187940554Y-109146828D01*
X187896053Y-109201053D01*
X187879494Y-109214642D01*
X187862218Y-109233830D01*
X187809012Y-109272486D01*
X187759743Y-109312921D01*
X187735588Y-109325831D01*
X187710000Y-109344423D01*
X187654960Y-109368928D01*
X187604230Y-109396044D01*
X187572307Y-109405727D01*
X187538115Y-109420951D01*
X187484678Y-109432309D01*
X187435485Y-109447232D01*
X187396330Y-109451088D01*
X187354076Y-109460070D01*
X187305140Y-109460070D01*
X187260000Y-109464516D01*
X187214859Y-109460070D01*
X187165924Y-109460070D01*
X187123669Y-109451088D01*
X187084514Y-109447232D01*
X187035317Y-109432308D01*
X186981885Y-109420951D01*
X186947694Y-109405728D01*
X186915769Y-109396044D01*
X186865033Y-109368925D01*
X186810000Y-109344423D01*
X186784413Y-109325833D01*
X186760256Y-109312921D01*
X186710978Y-109272479D01*
X186657782Y-109233830D01*
X186640507Y-109214645D01*
X186623946Y-109201053D01*
X186579434Y-109146815D01*
X186531885Y-109094007D01*
X186521897Y-109076707D01*
X186512078Y-109064743D01*
X186475756Y-108996788D01*
X186437809Y-108931063D01*
X186433443Y-108917627D01*
X186428955Y-108909230D01*
X186404210Y-108827656D01*
X186379667Y-108752121D01*
X186378802Y-108743900D01*
X186377767Y-108740485D01*
X186367679Y-108638067D01*
X186360000Y-108565000D01*
X186367678Y-108491939D01*
X186377767Y-108389514D01*
X186378803Y-108386098D01*
X186379667Y-108377879D01*
X186404205Y-108302357D01*
X186428955Y-108220769D01*
X186433444Y-108212369D01*
X186437809Y-108198937D01*
X186475748Y-108133223D01*
X186512078Y-108065256D01*
X186521899Y-108053289D01*
X186531885Y-108035993D01*
X186579424Y-107983194D01*
X186623946Y-107928946D01*
X186640511Y-107915350D01*
X186657782Y-107896170D01*
X186710968Y-107857527D01*
X186760256Y-107817078D01*
X186784419Y-107804162D01*
X186810000Y-107785577D01*
X186865022Y-107761079D01*
X186915769Y-107733955D01*
X186947701Y-107724268D01*
X186981885Y-107709049D01*
X187035306Y-107697693D01*
X187084514Y-107682767D01*
X187123678Y-107678909D01*
X187165924Y-107669930D01*
X187214849Y-107669930D01*
X187260000Y-107665483D01*
X187305151Y-107669930D01*
G37*
G36*
X185325151Y-106524930D02*
G01*
X185374076Y-106524930D01*
X185416321Y-106533909D01*
X185455485Y-106537767D01*
X185504689Y-106552693D01*
X185558115Y-106564049D01*
X185592300Y-106579269D01*
X185624230Y-106588955D01*
X185674971Y-106616076D01*
X185730000Y-106640577D01*
X185755583Y-106659164D01*
X185779743Y-106672078D01*
X185829023Y-106712521D01*
X185882218Y-106751170D01*
X185899491Y-106770354D01*
X185916053Y-106783946D01*
X185960563Y-106838182D01*
X186008115Y-106890993D01*
X186018103Y-106908293D01*
X186027921Y-106920256D01*
X186064237Y-106988200D01*
X186102191Y-107053937D01*
X186106557Y-107067374D01*
X186111044Y-107075769D01*
X186135779Y-107157311D01*
X186160333Y-107232879D01*
X186161197Y-107241103D01*
X186162232Y-107244514D01*
X186172305Y-107346787D01*
X186180000Y-107420000D01*
X186172304Y-107493218D01*
X186162232Y-107595485D01*
X186161197Y-107598895D01*
X186160333Y-107607121D01*
X186135774Y-107682702D01*
X186111044Y-107764230D01*
X186106558Y-107772622D01*
X186102191Y-107786063D01*
X186064230Y-107851812D01*
X186027921Y-107919743D01*
X186018105Y-107931703D01*
X186008115Y-107949007D01*
X185960554Y-108001828D01*
X185916053Y-108056053D01*
X185899494Y-108069642D01*
X185882218Y-108088830D01*
X185829012Y-108127486D01*
X185779743Y-108167921D01*
X185755588Y-108180831D01*
X185730000Y-108199423D01*
X185674960Y-108223928D01*
X185624230Y-108251044D01*
X185592307Y-108260727D01*
X185558115Y-108275951D01*
X185504678Y-108287309D01*
X185455485Y-108302232D01*
X185416330Y-108306088D01*
X185374076Y-108315070D01*
X185325140Y-108315070D01*
X185280000Y-108319516D01*
X185234859Y-108315070D01*
X185185924Y-108315070D01*
X185143669Y-108306088D01*
X185104514Y-108302232D01*
X185055317Y-108287308D01*
X185001885Y-108275951D01*
X184967694Y-108260728D01*
X184935769Y-108251044D01*
X184885033Y-108223925D01*
X184830000Y-108199423D01*
X184804413Y-108180833D01*
X184780256Y-108167921D01*
X184730978Y-108127479D01*
X184677782Y-108088830D01*
X184660507Y-108069645D01*
X184643946Y-108056053D01*
X184599434Y-108001815D01*
X184551885Y-107949007D01*
X184541897Y-107931707D01*
X184532078Y-107919743D01*
X184495756Y-107851788D01*
X184457809Y-107786063D01*
X184453443Y-107772627D01*
X184448955Y-107764230D01*
X184424210Y-107682656D01*
X184399667Y-107607121D01*
X184398802Y-107598900D01*
X184397767Y-107595485D01*
X184387679Y-107493067D01*
X184380000Y-107420000D01*
X184387678Y-107346939D01*
X184397767Y-107244514D01*
X184398803Y-107241098D01*
X184399667Y-107232879D01*
X184424205Y-107157357D01*
X184448955Y-107075769D01*
X184453444Y-107067369D01*
X184457809Y-107053937D01*
X184495748Y-106988223D01*
X184532078Y-106920256D01*
X184541899Y-106908289D01*
X184551885Y-106890993D01*
X184599424Y-106838194D01*
X184643946Y-106783946D01*
X184660511Y-106770350D01*
X184677782Y-106751170D01*
X184730968Y-106712527D01*
X184780256Y-106672078D01*
X184804419Y-106659162D01*
X184830000Y-106640577D01*
X184885022Y-106616079D01*
X184935769Y-106588955D01*
X184967701Y-106579268D01*
X185001885Y-106564049D01*
X185055306Y-106552693D01*
X185104514Y-106537767D01*
X185143678Y-106533909D01*
X185185924Y-106524930D01*
X185234849Y-106524930D01*
X185280000Y-106520483D01*
X185325151Y-106524930D01*
G37*
G36*
X183345151Y-105379930D02*
G01*
X183394076Y-105379930D01*
X183436321Y-105388909D01*
X183475485Y-105392767D01*
X183524689Y-105407693D01*
X183578115Y-105419049D01*
X183612300Y-105434269D01*
X183644230Y-105443955D01*
X183694971Y-105471076D01*
X183750000Y-105495577D01*
X183775583Y-105514164D01*
X183799743Y-105527078D01*
X183849023Y-105567521D01*
X183902218Y-105606170D01*
X183919491Y-105625354D01*
X183936053Y-105638946D01*
X183980563Y-105693182D01*
X184028115Y-105745993D01*
X184038103Y-105763293D01*
X184047921Y-105775256D01*
X184084237Y-105843200D01*
X184122191Y-105908937D01*
X184126557Y-105922374D01*
X184131044Y-105930769D01*
X184155779Y-106012311D01*
X184180333Y-106087879D01*
X184181197Y-106096103D01*
X184182232Y-106099514D01*
X184192305Y-106201787D01*
X184200000Y-106275000D01*
X184192304Y-106348218D01*
X184182232Y-106450485D01*
X184181197Y-106453895D01*
X184180333Y-106462121D01*
X184155774Y-106537702D01*
X184131044Y-106619230D01*
X184126558Y-106627622D01*
X184122191Y-106641063D01*
X184084230Y-106706812D01*
X184047921Y-106774743D01*
X184038105Y-106786703D01*
X184028115Y-106804007D01*
X183980554Y-106856828D01*
X183936053Y-106911053D01*
X183919494Y-106924642D01*
X183902218Y-106943830D01*
X183849012Y-106982486D01*
X183799743Y-107022921D01*
X183775588Y-107035831D01*
X183750000Y-107054423D01*
X183694960Y-107078928D01*
X183644230Y-107106044D01*
X183612307Y-107115727D01*
X183578115Y-107130951D01*
X183524678Y-107142309D01*
X183475485Y-107157232D01*
X183436330Y-107161088D01*
X183394076Y-107170070D01*
X183345140Y-107170070D01*
X183300000Y-107174516D01*
X183254859Y-107170070D01*
X183205924Y-107170070D01*
X183163669Y-107161088D01*
X183124514Y-107157232D01*
X183075317Y-107142308D01*
X183021885Y-107130951D01*
X182987694Y-107115728D01*
X182955769Y-107106044D01*
X182905033Y-107078925D01*
X182850000Y-107054423D01*
X182824413Y-107035833D01*
X182800256Y-107022921D01*
X182750978Y-106982479D01*
X182697782Y-106943830D01*
X182680507Y-106924645D01*
X182663946Y-106911053D01*
X182619434Y-106856815D01*
X182571885Y-106804007D01*
X182561897Y-106786707D01*
X182552078Y-106774743D01*
X182515756Y-106706788D01*
X182477809Y-106641063D01*
X182473443Y-106627627D01*
X182468955Y-106619230D01*
X182444210Y-106537656D01*
X182419667Y-106462121D01*
X182418802Y-106453900D01*
X182417767Y-106450485D01*
X182407679Y-106348067D01*
X182400000Y-106275000D01*
X182407678Y-106201939D01*
X182417767Y-106099514D01*
X182418803Y-106096098D01*
X182419667Y-106087879D01*
X182444205Y-106012357D01*
X182468955Y-105930769D01*
X182473444Y-105922369D01*
X182477809Y-105908937D01*
X182515748Y-105843223D01*
X182552078Y-105775256D01*
X182561899Y-105763289D01*
X182571885Y-105745993D01*
X182619424Y-105693194D01*
X182663946Y-105638946D01*
X182680511Y-105625350D01*
X182697782Y-105606170D01*
X182750968Y-105567527D01*
X182800256Y-105527078D01*
X182824419Y-105514162D01*
X182850000Y-105495577D01*
X182905022Y-105471079D01*
X182955769Y-105443955D01*
X182987701Y-105434268D01*
X183021885Y-105419049D01*
X183075306Y-105407693D01*
X183124514Y-105392767D01*
X183163678Y-105388909D01*
X183205924Y-105379930D01*
X183254849Y-105379930D01*
X183300000Y-105375483D01*
X183345151Y-105379930D01*
G37*
G36*
X187305151Y-105379930D02*
G01*
X187354076Y-105379930D01*
X187396321Y-105388909D01*
X187435485Y-105392767D01*
X187484689Y-105407693D01*
X187538115Y-105419049D01*
X187572300Y-105434269D01*
X187604230Y-105443955D01*
X187654971Y-105471076D01*
X187710000Y-105495577D01*
X187735583Y-105514164D01*
X187759743Y-105527078D01*
X187809023Y-105567521D01*
X187862218Y-105606170D01*
X187879491Y-105625354D01*
X187896053Y-105638946D01*
X187940563Y-105693182D01*
X187988115Y-105745993D01*
X187998103Y-105763293D01*
X188007921Y-105775256D01*
X188044237Y-105843200D01*
X188082191Y-105908937D01*
X188086557Y-105922374D01*
X188091044Y-105930769D01*
X188115779Y-106012311D01*
X188140333Y-106087879D01*
X188141197Y-106096103D01*
X188142232Y-106099514D01*
X188152305Y-106201787D01*
X188160000Y-106275000D01*
X188152304Y-106348218D01*
X188142232Y-106450485D01*
X188141197Y-106453895D01*
X188140333Y-106462121D01*
X188115774Y-106537702D01*
X188091044Y-106619230D01*
X188086558Y-106627622D01*
X188082191Y-106641063D01*
X188044230Y-106706812D01*
X188007921Y-106774743D01*
X187998105Y-106786703D01*
X187988115Y-106804007D01*
X187940554Y-106856828D01*
X187896053Y-106911053D01*
X187879494Y-106924642D01*
X187862218Y-106943830D01*
X187809012Y-106982486D01*
X187759743Y-107022921D01*
X187735588Y-107035831D01*
X187710000Y-107054423D01*
X187654960Y-107078928D01*
X187604230Y-107106044D01*
X187572307Y-107115727D01*
X187538115Y-107130951D01*
X187484678Y-107142309D01*
X187435485Y-107157232D01*
X187396330Y-107161088D01*
X187354076Y-107170070D01*
X187305140Y-107170070D01*
X187260000Y-107174516D01*
X187214859Y-107170070D01*
X187165924Y-107170070D01*
X187123669Y-107161088D01*
X187084514Y-107157232D01*
X187035317Y-107142308D01*
X186981885Y-107130951D01*
X186947694Y-107115728D01*
X186915769Y-107106044D01*
X186865033Y-107078925D01*
X186810000Y-107054423D01*
X186784413Y-107035833D01*
X186760256Y-107022921D01*
X186710978Y-106982479D01*
X186657782Y-106943830D01*
X186640507Y-106924645D01*
X186623946Y-106911053D01*
X186579434Y-106856815D01*
X186531885Y-106804007D01*
X186521897Y-106786707D01*
X186512078Y-106774743D01*
X186475756Y-106706788D01*
X186437809Y-106641063D01*
X186433443Y-106627627D01*
X186428955Y-106619230D01*
X186404210Y-106537656D01*
X186379667Y-106462121D01*
X186378802Y-106453900D01*
X186377767Y-106450485D01*
X186367679Y-106348067D01*
X186360000Y-106275000D01*
X186367678Y-106201939D01*
X186377767Y-106099514D01*
X186378803Y-106096098D01*
X186379667Y-106087879D01*
X186404205Y-106012357D01*
X186428955Y-105930769D01*
X186433444Y-105922369D01*
X186437809Y-105908937D01*
X186475748Y-105843223D01*
X186512078Y-105775256D01*
X186521899Y-105763289D01*
X186531885Y-105745993D01*
X186579424Y-105693194D01*
X186623946Y-105638946D01*
X186640511Y-105625350D01*
X186657782Y-105606170D01*
X186710968Y-105567527D01*
X186760256Y-105527078D01*
X186784419Y-105514162D01*
X186810000Y-105495577D01*
X186865022Y-105471079D01*
X186915769Y-105443955D01*
X186947701Y-105434268D01*
X186981885Y-105419049D01*
X187035306Y-105407693D01*
X187084514Y-105392767D01*
X187123678Y-105388909D01*
X187165924Y-105379930D01*
X187214849Y-105379930D01*
X187260000Y-105375483D01*
X187305151Y-105379930D01*
G37*
G36*
X185325151Y-104234930D02*
G01*
X185374076Y-104234930D01*
X185416321Y-104243909D01*
X185455485Y-104247767D01*
X185504689Y-104262693D01*
X185558115Y-104274049D01*
X185592300Y-104289269D01*
X185624230Y-104298955D01*
X185674971Y-104326076D01*
X185730000Y-104350577D01*
X185755583Y-104369164D01*
X185779743Y-104382078D01*
X185829023Y-104422521D01*
X185882218Y-104461170D01*
X185899491Y-104480354D01*
X185916053Y-104493946D01*
X185960563Y-104548182D01*
X186008115Y-104600993D01*
X186018103Y-104618293D01*
X186027921Y-104630256D01*
X186064237Y-104698200D01*
X186102191Y-104763937D01*
X186106557Y-104777374D01*
X186111044Y-104785769D01*
X186135779Y-104867311D01*
X186160333Y-104942879D01*
X186161197Y-104951103D01*
X186162232Y-104954514D01*
X186172305Y-105056787D01*
X186180000Y-105130000D01*
X186172304Y-105203218D01*
X186162232Y-105305485D01*
X186161197Y-105308895D01*
X186160333Y-105317121D01*
X186135774Y-105392702D01*
X186111044Y-105474230D01*
X186106558Y-105482622D01*
X186102191Y-105496063D01*
X186064230Y-105561812D01*
X186027921Y-105629743D01*
X186018105Y-105641703D01*
X186008115Y-105659007D01*
X185960554Y-105711828D01*
X185916053Y-105766053D01*
X185899494Y-105779642D01*
X185882218Y-105798830D01*
X185829012Y-105837486D01*
X185779743Y-105877921D01*
X185755588Y-105890831D01*
X185730000Y-105909423D01*
X185674960Y-105933928D01*
X185624230Y-105961044D01*
X185592307Y-105970727D01*
X185558115Y-105985951D01*
X185504678Y-105997309D01*
X185455485Y-106012232D01*
X185416330Y-106016088D01*
X185374076Y-106025070D01*
X185325140Y-106025070D01*
X185280000Y-106029516D01*
X185234859Y-106025070D01*
X185185924Y-106025070D01*
X185143669Y-106016088D01*
X185104514Y-106012232D01*
X185055317Y-105997308D01*
X185001885Y-105985951D01*
X184967694Y-105970728D01*
X184935769Y-105961044D01*
X184885033Y-105933925D01*
X184830000Y-105909423D01*
X184804413Y-105890833D01*
X184780256Y-105877921D01*
X184730978Y-105837479D01*
X184677782Y-105798830D01*
X184660507Y-105779645D01*
X184643946Y-105766053D01*
X184599434Y-105711815D01*
X184551885Y-105659007D01*
X184541897Y-105641707D01*
X184532078Y-105629743D01*
X184495756Y-105561788D01*
X184457809Y-105496063D01*
X184453443Y-105482627D01*
X184448955Y-105474230D01*
X184424210Y-105392656D01*
X184399667Y-105317121D01*
X184398802Y-105308900D01*
X184397767Y-105305485D01*
X184387679Y-105203067D01*
X184380000Y-105130000D01*
X184387678Y-105056939D01*
X184397767Y-104954514D01*
X184398803Y-104951098D01*
X184399667Y-104942879D01*
X184424205Y-104867357D01*
X184448955Y-104785769D01*
X184453444Y-104777369D01*
X184457809Y-104763937D01*
X184495748Y-104698223D01*
X184532078Y-104630256D01*
X184541899Y-104618289D01*
X184551885Y-104600993D01*
X184599424Y-104548194D01*
X184643946Y-104493946D01*
X184660511Y-104480350D01*
X184677782Y-104461170D01*
X184730968Y-104422527D01*
X184780256Y-104382078D01*
X184804419Y-104369162D01*
X184830000Y-104350577D01*
X184885022Y-104326079D01*
X184935769Y-104298955D01*
X184967701Y-104289268D01*
X185001885Y-104274049D01*
X185055306Y-104262693D01*
X185104514Y-104247767D01*
X185143678Y-104243909D01*
X185185924Y-104234930D01*
X185234849Y-104234930D01*
X185280000Y-104230483D01*
X185325151Y-104234930D01*
G37*
G36*
X150445151Y-103649930D02*
G01*
X150494076Y-103649930D01*
X150536321Y-103658909D01*
X150575485Y-103662767D01*
X150624689Y-103677693D01*
X150678115Y-103689049D01*
X150712300Y-103704269D01*
X150744230Y-103713955D01*
X150794971Y-103741076D01*
X150850000Y-103765577D01*
X150875583Y-103784164D01*
X150899743Y-103797078D01*
X150949023Y-103837521D01*
X151002218Y-103876170D01*
X151019491Y-103895354D01*
X151036053Y-103908946D01*
X151080563Y-103963182D01*
X151128115Y-104015993D01*
X151138103Y-104033293D01*
X151147921Y-104045256D01*
X151184237Y-104113200D01*
X151222191Y-104178937D01*
X151226557Y-104192374D01*
X151231044Y-104200769D01*
X151255779Y-104282311D01*
X151280333Y-104357879D01*
X151281197Y-104366103D01*
X151282232Y-104369514D01*
X151292305Y-104471787D01*
X151300000Y-104545000D01*
X151292304Y-104618218D01*
X151282232Y-104720485D01*
X151281197Y-104723895D01*
X151280333Y-104732121D01*
X151255774Y-104807702D01*
X151231044Y-104889230D01*
X151226558Y-104897622D01*
X151222191Y-104911063D01*
X151184230Y-104976812D01*
X151147921Y-105044743D01*
X151138105Y-105056703D01*
X151128115Y-105074007D01*
X151080554Y-105126828D01*
X151036053Y-105181053D01*
X151019494Y-105194642D01*
X151002218Y-105213830D01*
X150949012Y-105252486D01*
X150899743Y-105292921D01*
X150875588Y-105305831D01*
X150850000Y-105324423D01*
X150794960Y-105348928D01*
X150744230Y-105376044D01*
X150712307Y-105385727D01*
X150678115Y-105400951D01*
X150624678Y-105412309D01*
X150575485Y-105427232D01*
X150536330Y-105431088D01*
X150494076Y-105440070D01*
X150445140Y-105440070D01*
X150400000Y-105444516D01*
X150354859Y-105440070D01*
X150305924Y-105440070D01*
X150263669Y-105431088D01*
X150224514Y-105427232D01*
X150175317Y-105412308D01*
X150121885Y-105400951D01*
X150087694Y-105385728D01*
X150055769Y-105376044D01*
X150005033Y-105348925D01*
X149950000Y-105324423D01*
X149924413Y-105305833D01*
X149900256Y-105292921D01*
X149850978Y-105252479D01*
X149797782Y-105213830D01*
X149780507Y-105194645D01*
X149763946Y-105181053D01*
X149719434Y-105126815D01*
X149671885Y-105074007D01*
X149661897Y-105056707D01*
X149652078Y-105044743D01*
X149615756Y-104976788D01*
X149577809Y-104911063D01*
X149573443Y-104897627D01*
X149568955Y-104889230D01*
X149544210Y-104807656D01*
X149519667Y-104732121D01*
X149518802Y-104723900D01*
X149517767Y-104720485D01*
X149507679Y-104618067D01*
X149500000Y-104545000D01*
X149507678Y-104471939D01*
X149517767Y-104369514D01*
X149518803Y-104366098D01*
X149519667Y-104357879D01*
X149544205Y-104282357D01*
X149568955Y-104200769D01*
X149573444Y-104192369D01*
X149577809Y-104178937D01*
X149615748Y-104113223D01*
X149652078Y-104045256D01*
X149661899Y-104033289D01*
X149671885Y-104015993D01*
X149719424Y-103963194D01*
X149763946Y-103908946D01*
X149780511Y-103895350D01*
X149797782Y-103876170D01*
X149850968Y-103837527D01*
X149900256Y-103797078D01*
X149924419Y-103784162D01*
X149950000Y-103765577D01*
X150005022Y-103741079D01*
X150055769Y-103713955D01*
X150087701Y-103704268D01*
X150121885Y-103689049D01*
X150175306Y-103677693D01*
X150224514Y-103662767D01*
X150263678Y-103658909D01*
X150305924Y-103649930D01*
X150354849Y-103649930D01*
X150400000Y-103645483D01*
X150445151Y-103649930D01*
G37*
G36*
X104783913Y-102617493D02*
G01*
X104816260Y-102616081D01*
X104847871Y-102623088D01*
X104886779Y-102626493D01*
X104917587Y-102638544D01*
X104943474Y-102644283D01*
X104977375Y-102661931D01*
X105019316Y-102678337D01*
X105040762Y-102694928D01*
X105059050Y-102704449D01*
X105091487Y-102734172D01*
X105131876Y-102765419D01*
X105144278Y-102782546D01*
X105155120Y-102792481D01*
X105181817Y-102834388D01*
X105215344Y-102880688D01*
X105220416Y-102894977D01*
X105225129Y-102902374D01*
X105241694Y-102954912D01*
X105262956Y-103014802D01*
X105263465Y-103023958D01*
X105264312Y-103026645D01*
X105266865Y-103085123D01*
X105270855Y-103156897D01*
X105270283Y-103163426D01*
X105270284Y-103163431D01*
X105265708Y-103215726D01*
X105258655Y-103296347D01*
X105258529Y-103297781D01*
X105311779Y-103361241D01*
X105552282Y-103382283D01*
X105792785Y-103403324D01*
X105856245Y-103350075D01*
X105867999Y-103215725D01*
X105868001Y-103215715D01*
X105868572Y-103209190D01*
X105884948Y-103139268D01*
X105897633Y-103082052D01*
X105898935Y-103079549D01*
X105901026Y-103070625D01*
X105932351Y-103015358D01*
X105957800Y-102966474D01*
X105963726Y-102960006D01*
X105971203Y-102946816D01*
X106012257Y-102907044D01*
X106045829Y-102870407D01*
X106058232Y-102862505D01*
X106073419Y-102847793D01*
X106118612Y-102824038D01*
X106155724Y-102800396D01*
X106175392Y-102794194D01*
X106199392Y-102781580D01*
X106243542Y-102772706D01*
X106279995Y-102761213D01*
X106306483Y-102760056D01*
X106338917Y-102753538D01*
X106377824Y-102756942D01*
X106410171Y-102755530D01*
X106441782Y-102762537D01*
X106480690Y-102765942D01*
X106511498Y-102777993D01*
X106537385Y-102783732D01*
X106571286Y-102801380D01*
X106613227Y-102817786D01*
X106634673Y-102834377D01*
X106652961Y-102843898D01*
X106685398Y-102873621D01*
X106725787Y-102904868D01*
X106738189Y-102921995D01*
X106749031Y-102931930D01*
X106775728Y-102973837D01*
X106809255Y-103020137D01*
X106814327Y-103034426D01*
X106819040Y-103041823D01*
X106835605Y-103094361D01*
X106856867Y-103154251D01*
X106857376Y-103163407D01*
X106858223Y-103166094D01*
X106860776Y-103224572D01*
X106864766Y-103296346D01*
X106864194Y-103302875D01*
X106864195Y-103302880D01*
X106803757Y-103993683D01*
X106725317Y-104890258D01*
X106704670Y-104995141D01*
X106698153Y-105008830D01*
X106696255Y-105017395D01*
X106670814Y-105066264D01*
X106643504Y-105123640D01*
X106637388Y-105130475D01*
X106636089Y-105132972D01*
X106596584Y-105176083D01*
X106548613Y-105229702D01*
X106487527Y-105267603D01*
X106438165Y-105299051D01*
X106435477Y-105299898D01*
X106427684Y-105304734D01*
X106366432Y-105321668D01*
X106313893Y-105338234D01*
X106305130Y-105338616D01*
X106290516Y-105342657D01*
X106183642Y-105344778D01*
X104797647Y-105223518D01*
X104596266Y-105205900D01*
X104596264Y-105205899D01*
X104589730Y-105205328D01*
X104484848Y-105184682D01*
X104471154Y-105178163D01*
X104462590Y-105176265D01*
X104413705Y-105150817D01*
X104356349Y-105123515D01*
X104349517Y-105117403D01*
X104347016Y-105116101D01*
X104303817Y-105076516D01*
X104250286Y-105028624D01*
X104212393Y-104967553D01*
X104180937Y-104918176D01*
X104180090Y-104915490D01*
X104175254Y-104907696D01*
X104158321Y-104846451D01*
X104141753Y-104793904D01*
X104141370Y-104785138D01*
X104137331Y-104770528D01*
X104135211Y-104663653D01*
X104135782Y-104657123D01*
X104135782Y-104657118D01*
X104171164Y-104252711D01*
X104178979Y-104163378D01*
X104178980Y-104163356D01*
X104274088Y-103076276D01*
X104274090Y-103076266D01*
X104274661Y-103069741D01*
X104291037Y-102999819D01*
X104303722Y-102942603D01*
X104305024Y-102940100D01*
X104307115Y-102931176D01*
X104338440Y-102875909D01*
X104363889Y-102827025D01*
X104369815Y-102820557D01*
X104377292Y-102807367D01*
X104418346Y-102767595D01*
X104451918Y-102730958D01*
X104464321Y-102723056D01*
X104479508Y-102708344D01*
X104524701Y-102684589D01*
X104561813Y-102660947D01*
X104581481Y-102654745D01*
X104605481Y-102642131D01*
X104649631Y-102633257D01*
X104686084Y-102621764D01*
X104712572Y-102620607D01*
X104745006Y-102614089D01*
X104783913Y-102617493D01*
G37*
G36*
X108583915Y-102617493D02*
G01*
X108616262Y-102616081D01*
X108647873Y-102623088D01*
X108686781Y-102626493D01*
X108717589Y-102638544D01*
X108743476Y-102644283D01*
X108777377Y-102661931D01*
X108819318Y-102678337D01*
X108840764Y-102694928D01*
X108859052Y-102704449D01*
X108891489Y-102734172D01*
X108931878Y-102765419D01*
X108944280Y-102782546D01*
X108955122Y-102792481D01*
X108981819Y-102834388D01*
X109015346Y-102880688D01*
X109020418Y-102894977D01*
X109025131Y-102902374D01*
X109041696Y-102954912D01*
X109062958Y-103014802D01*
X109063467Y-103023958D01*
X109064314Y-103026645D01*
X109066867Y-103085123D01*
X109070857Y-103156897D01*
X109070285Y-103163426D01*
X109070286Y-103163431D01*
X109065710Y-103215726D01*
X109058657Y-103296347D01*
X109058531Y-103297781D01*
X109111781Y-103361241D01*
X109352284Y-103382283D01*
X109592787Y-103403324D01*
X109656247Y-103350075D01*
X109668001Y-103215726D01*
X109668003Y-103215716D01*
X109668574Y-103209191D01*
X109684950Y-103139269D01*
X109697635Y-103082053D01*
X109698937Y-103079550D01*
X109701028Y-103070626D01*
X109732353Y-103015359D01*
X109757802Y-102966475D01*
X109763728Y-102960007D01*
X109771205Y-102946817D01*
X109812259Y-102907045D01*
X109845831Y-102870408D01*
X109858234Y-102862506D01*
X109873421Y-102847794D01*
X109918614Y-102824039D01*
X109955726Y-102800397D01*
X109975394Y-102794195D01*
X109999394Y-102781581D01*
X110043544Y-102772707D01*
X110079997Y-102761214D01*
X110106485Y-102760057D01*
X110138919Y-102753539D01*
X110177826Y-102756943D01*
X110210173Y-102755531D01*
X110241784Y-102762538D01*
X110280692Y-102765943D01*
X110311500Y-102777994D01*
X110337387Y-102783733D01*
X110371288Y-102801381D01*
X110413229Y-102817787D01*
X110434675Y-102834378D01*
X110452963Y-102843899D01*
X110485400Y-102873622D01*
X110525789Y-102904869D01*
X110538191Y-102921996D01*
X110549033Y-102931931D01*
X110575730Y-102973838D01*
X110609257Y-103020138D01*
X110614329Y-103034427D01*
X110619042Y-103041824D01*
X110635607Y-103094362D01*
X110656869Y-103154252D01*
X110657378Y-103163408D01*
X110658225Y-103166095D01*
X110660778Y-103224573D01*
X110664768Y-103296347D01*
X110664196Y-103302876D01*
X110664197Y-103302881D01*
X110585936Y-104197405D01*
X110572535Y-104350577D01*
X110525319Y-104890258D01*
X110504672Y-104995141D01*
X110498155Y-105008830D01*
X110496257Y-105017395D01*
X110470816Y-105066264D01*
X110443506Y-105123640D01*
X110437390Y-105130475D01*
X110436091Y-105132972D01*
X110396586Y-105176083D01*
X110348615Y-105229702D01*
X110287529Y-105267603D01*
X110238167Y-105299051D01*
X110235479Y-105299898D01*
X110227686Y-105304734D01*
X110166434Y-105321668D01*
X110113895Y-105338234D01*
X110105132Y-105338616D01*
X110090518Y-105342657D01*
X109983644Y-105344778D01*
X108597649Y-105223518D01*
X108396268Y-105205900D01*
X108396266Y-105205899D01*
X108389732Y-105205328D01*
X108284850Y-105184682D01*
X108271156Y-105178163D01*
X108262592Y-105176265D01*
X108213707Y-105150817D01*
X108156351Y-105123515D01*
X108149519Y-105117403D01*
X108147018Y-105116101D01*
X108103819Y-105076516D01*
X108050288Y-105028624D01*
X108012395Y-104967553D01*
X107980939Y-104918176D01*
X107980092Y-104915490D01*
X107975256Y-104907696D01*
X107958323Y-104846451D01*
X107941755Y-104793904D01*
X107941372Y-104785138D01*
X107937333Y-104770528D01*
X107935213Y-104663653D01*
X107935784Y-104657123D01*
X107935784Y-104657118D01*
X107971166Y-104252711D01*
X107978981Y-104163378D01*
X107978982Y-104163356D01*
X108074090Y-103076276D01*
X108074092Y-103076266D01*
X108074663Y-103069741D01*
X108091039Y-102999819D01*
X108103724Y-102942603D01*
X108105026Y-102940100D01*
X108107117Y-102931176D01*
X108138442Y-102875909D01*
X108163891Y-102827025D01*
X108169817Y-102820557D01*
X108177294Y-102807367D01*
X108218348Y-102767595D01*
X108251920Y-102730958D01*
X108264323Y-102723056D01*
X108279510Y-102708344D01*
X108324703Y-102684589D01*
X108361815Y-102660947D01*
X108381483Y-102654745D01*
X108405483Y-102642131D01*
X108449633Y-102633257D01*
X108486086Y-102621764D01*
X108512574Y-102620607D01*
X108545008Y-102614089D01*
X108583915Y-102617493D01*
G37*
G36*
X112383915Y-102617493D02*
G01*
X112416262Y-102616081D01*
X112447873Y-102623088D01*
X112486781Y-102626493D01*
X112517589Y-102638544D01*
X112543476Y-102644283D01*
X112577377Y-102661931D01*
X112619318Y-102678337D01*
X112640764Y-102694928D01*
X112659052Y-102704449D01*
X112691489Y-102734172D01*
X112731878Y-102765419D01*
X112744280Y-102782546D01*
X112755122Y-102792481D01*
X112781819Y-102834388D01*
X112815346Y-102880688D01*
X112820418Y-102894977D01*
X112825131Y-102902374D01*
X112841696Y-102954912D01*
X112862958Y-103014802D01*
X112863467Y-103023958D01*
X112864314Y-103026645D01*
X112866867Y-103085123D01*
X112870857Y-103156897D01*
X112870285Y-103163426D01*
X112870286Y-103163431D01*
X112865710Y-103215726D01*
X112858657Y-103296347D01*
X112858531Y-103297781D01*
X112911781Y-103361241D01*
X113152284Y-103382283D01*
X113392787Y-103403324D01*
X113456247Y-103350075D01*
X113468001Y-103215726D01*
X113468003Y-103215716D01*
X113468574Y-103209191D01*
X113484950Y-103139269D01*
X113497635Y-103082053D01*
X113498937Y-103079550D01*
X113501028Y-103070626D01*
X113532353Y-103015359D01*
X113557802Y-102966475D01*
X113563728Y-102960007D01*
X113571205Y-102946817D01*
X113612259Y-102907045D01*
X113645831Y-102870408D01*
X113658234Y-102862506D01*
X113673421Y-102847794D01*
X113718614Y-102824039D01*
X113755726Y-102800397D01*
X113775394Y-102794195D01*
X113799394Y-102781581D01*
X113843544Y-102772707D01*
X113879997Y-102761214D01*
X113906485Y-102760057D01*
X113938919Y-102753539D01*
X113977826Y-102756943D01*
X114010173Y-102755531D01*
X114041784Y-102762538D01*
X114080692Y-102765943D01*
X114111500Y-102777994D01*
X114137387Y-102783733D01*
X114171288Y-102801381D01*
X114213229Y-102817787D01*
X114234675Y-102834378D01*
X114252963Y-102843899D01*
X114285400Y-102873622D01*
X114325789Y-102904869D01*
X114338191Y-102921996D01*
X114349033Y-102931931D01*
X114375730Y-102973838D01*
X114409257Y-103020138D01*
X114414329Y-103034427D01*
X114419042Y-103041824D01*
X114435607Y-103094362D01*
X114456869Y-103154252D01*
X114457378Y-103163408D01*
X114458225Y-103166095D01*
X114460778Y-103224573D01*
X114464768Y-103296347D01*
X114464196Y-103302876D01*
X114464197Y-103302881D01*
X114385936Y-104197405D01*
X114372535Y-104350577D01*
X114325319Y-104890258D01*
X114304672Y-104995141D01*
X114298155Y-105008830D01*
X114296257Y-105017395D01*
X114270816Y-105066264D01*
X114243506Y-105123640D01*
X114237390Y-105130475D01*
X114236091Y-105132972D01*
X114196586Y-105176083D01*
X114148615Y-105229702D01*
X114087529Y-105267603D01*
X114038167Y-105299051D01*
X114035479Y-105299898D01*
X114027686Y-105304734D01*
X113966434Y-105321668D01*
X113913895Y-105338234D01*
X113905132Y-105338616D01*
X113890518Y-105342657D01*
X113783644Y-105344778D01*
X112397649Y-105223518D01*
X112196268Y-105205900D01*
X112196266Y-105205899D01*
X112189732Y-105205328D01*
X112084850Y-105184682D01*
X112071156Y-105178163D01*
X112062592Y-105176265D01*
X112013707Y-105150817D01*
X111956351Y-105123515D01*
X111949519Y-105117403D01*
X111947018Y-105116101D01*
X111903819Y-105076516D01*
X111850288Y-105028624D01*
X111812395Y-104967553D01*
X111780939Y-104918176D01*
X111780092Y-104915490D01*
X111775256Y-104907696D01*
X111758323Y-104846451D01*
X111741755Y-104793904D01*
X111741372Y-104785138D01*
X111737333Y-104770528D01*
X111735213Y-104663653D01*
X111735784Y-104657123D01*
X111735784Y-104657118D01*
X111771166Y-104252711D01*
X111778981Y-104163378D01*
X111778982Y-104163356D01*
X111874090Y-103076276D01*
X111874092Y-103076266D01*
X111874663Y-103069741D01*
X111891039Y-102999819D01*
X111903724Y-102942603D01*
X111905026Y-102940100D01*
X111907117Y-102931176D01*
X111938442Y-102875909D01*
X111963891Y-102827025D01*
X111969817Y-102820557D01*
X111977294Y-102807367D01*
X112018348Y-102767595D01*
X112051920Y-102730958D01*
X112064323Y-102723056D01*
X112079510Y-102708344D01*
X112124703Y-102684589D01*
X112161815Y-102660947D01*
X112181483Y-102654745D01*
X112205483Y-102642131D01*
X112249633Y-102633257D01*
X112286086Y-102621764D01*
X112312574Y-102620607D01*
X112345008Y-102614089D01*
X112383915Y-102617493D01*
G37*
G36*
X116183915Y-102617493D02*
G01*
X116216262Y-102616081D01*
X116247873Y-102623088D01*
X116286781Y-102626493D01*
X116317589Y-102638544D01*
X116343476Y-102644283D01*
X116377377Y-102661931D01*
X116419318Y-102678337D01*
X116440764Y-102694928D01*
X116459052Y-102704449D01*
X116491489Y-102734172D01*
X116531878Y-102765419D01*
X116544280Y-102782546D01*
X116555122Y-102792481D01*
X116581819Y-102834388D01*
X116615346Y-102880688D01*
X116620418Y-102894977D01*
X116625131Y-102902374D01*
X116641696Y-102954912D01*
X116662958Y-103014802D01*
X116663467Y-103023958D01*
X116664314Y-103026645D01*
X116666867Y-103085123D01*
X116670857Y-103156897D01*
X116670285Y-103163426D01*
X116670286Y-103163431D01*
X116665710Y-103215726D01*
X116658657Y-103296347D01*
X116658531Y-103297781D01*
X116711781Y-103361241D01*
X116952284Y-103382283D01*
X117192787Y-103403324D01*
X117256247Y-103350075D01*
X117268001Y-103215726D01*
X117268003Y-103215716D01*
X117268574Y-103209191D01*
X117284950Y-103139269D01*
X117297635Y-103082053D01*
X117298937Y-103079550D01*
X117301028Y-103070626D01*
X117332353Y-103015359D01*
X117357802Y-102966475D01*
X117363728Y-102960007D01*
X117371205Y-102946817D01*
X117412259Y-102907045D01*
X117445831Y-102870408D01*
X117458234Y-102862506D01*
X117473421Y-102847794D01*
X117518614Y-102824039D01*
X117555726Y-102800397D01*
X117575394Y-102794195D01*
X117599394Y-102781581D01*
X117643544Y-102772707D01*
X117679997Y-102761214D01*
X117706485Y-102760057D01*
X117738919Y-102753539D01*
X117777826Y-102756943D01*
X117810173Y-102755531D01*
X117841784Y-102762538D01*
X117880692Y-102765943D01*
X117911500Y-102777994D01*
X117937387Y-102783733D01*
X117971288Y-102801381D01*
X118013229Y-102817787D01*
X118034675Y-102834378D01*
X118052963Y-102843899D01*
X118085400Y-102873622D01*
X118125789Y-102904869D01*
X118138191Y-102921996D01*
X118149033Y-102931931D01*
X118175730Y-102973838D01*
X118209257Y-103020138D01*
X118214329Y-103034427D01*
X118219042Y-103041824D01*
X118235607Y-103094362D01*
X118256869Y-103154252D01*
X118257378Y-103163408D01*
X118258225Y-103166095D01*
X118260778Y-103224573D01*
X118264768Y-103296347D01*
X118264196Y-103302876D01*
X118264197Y-103302881D01*
X118185936Y-104197405D01*
X118172535Y-104350577D01*
X118125319Y-104890258D01*
X118104672Y-104995141D01*
X118098155Y-105008830D01*
X118096257Y-105017395D01*
X118070816Y-105066264D01*
X118043506Y-105123640D01*
X118037390Y-105130475D01*
X118036091Y-105132972D01*
X117996586Y-105176083D01*
X117948615Y-105229702D01*
X117887529Y-105267603D01*
X117838167Y-105299051D01*
X117835479Y-105299898D01*
X117827686Y-105304734D01*
X117766434Y-105321668D01*
X117713895Y-105338234D01*
X117705132Y-105338616D01*
X117690518Y-105342657D01*
X117583644Y-105344778D01*
X116197649Y-105223518D01*
X115996268Y-105205900D01*
X115996266Y-105205899D01*
X115989732Y-105205328D01*
X115884850Y-105184682D01*
X115871156Y-105178163D01*
X115862592Y-105176265D01*
X115813707Y-105150817D01*
X115756351Y-105123515D01*
X115749519Y-105117403D01*
X115747018Y-105116101D01*
X115703819Y-105076516D01*
X115650288Y-105028624D01*
X115612395Y-104967553D01*
X115580939Y-104918176D01*
X115580092Y-104915490D01*
X115575256Y-104907696D01*
X115558323Y-104846451D01*
X115541755Y-104793904D01*
X115541372Y-104785138D01*
X115537333Y-104770528D01*
X115535213Y-104663653D01*
X115535784Y-104657123D01*
X115535784Y-104657118D01*
X115571166Y-104252711D01*
X115578981Y-104163378D01*
X115578982Y-104163356D01*
X115674090Y-103076276D01*
X115674092Y-103076266D01*
X115674663Y-103069741D01*
X115691039Y-102999819D01*
X115703724Y-102942603D01*
X115705026Y-102940100D01*
X115707117Y-102931176D01*
X115738442Y-102875909D01*
X115763891Y-102827025D01*
X115769817Y-102820557D01*
X115777294Y-102807367D01*
X115818348Y-102767595D01*
X115851920Y-102730958D01*
X115864323Y-102723056D01*
X115879510Y-102708344D01*
X115924703Y-102684589D01*
X115961815Y-102660947D01*
X115981483Y-102654745D01*
X116005483Y-102642131D01*
X116049633Y-102633257D01*
X116086086Y-102621764D01*
X116112574Y-102620607D01*
X116145008Y-102614089D01*
X116183915Y-102617493D01*
G37*
G36*
X119983915Y-102617493D02*
G01*
X120016262Y-102616081D01*
X120047873Y-102623088D01*
X120086781Y-102626493D01*
X120117589Y-102638544D01*
X120143476Y-102644283D01*
X120177377Y-102661931D01*
X120219318Y-102678337D01*
X120240764Y-102694928D01*
X120259052Y-102704449D01*
X120291489Y-102734172D01*
X120331878Y-102765419D01*
X120344280Y-102782546D01*
X120355122Y-102792481D01*
X120381819Y-102834388D01*
X120415346Y-102880688D01*
X120420418Y-102894977D01*
X120425131Y-102902374D01*
X120441696Y-102954912D01*
X120462958Y-103014802D01*
X120463467Y-103023958D01*
X120464314Y-103026645D01*
X120466867Y-103085123D01*
X120470857Y-103156897D01*
X120470285Y-103163426D01*
X120470286Y-103163431D01*
X120465710Y-103215726D01*
X120458657Y-103296347D01*
X120458531Y-103297781D01*
X120511781Y-103361241D01*
X120752284Y-103382283D01*
X120992787Y-103403324D01*
X121056247Y-103350075D01*
X121068001Y-103215726D01*
X121068003Y-103215716D01*
X121068574Y-103209191D01*
X121084950Y-103139269D01*
X121097635Y-103082053D01*
X121098937Y-103079550D01*
X121101028Y-103070626D01*
X121132353Y-103015359D01*
X121157802Y-102966475D01*
X121163728Y-102960007D01*
X121171205Y-102946817D01*
X121212259Y-102907045D01*
X121245831Y-102870408D01*
X121258234Y-102862506D01*
X121273421Y-102847794D01*
X121318614Y-102824039D01*
X121355726Y-102800397D01*
X121375394Y-102794195D01*
X121399394Y-102781581D01*
X121443544Y-102772707D01*
X121479997Y-102761214D01*
X121506485Y-102760057D01*
X121538919Y-102753539D01*
X121577826Y-102756943D01*
X121610173Y-102755531D01*
X121641784Y-102762538D01*
X121680692Y-102765943D01*
X121711500Y-102777994D01*
X121737387Y-102783733D01*
X121771288Y-102801381D01*
X121813229Y-102817787D01*
X121834675Y-102834378D01*
X121852963Y-102843899D01*
X121885400Y-102873622D01*
X121925789Y-102904869D01*
X121938191Y-102921996D01*
X121949033Y-102931931D01*
X121975730Y-102973838D01*
X122009257Y-103020138D01*
X122014329Y-103034427D01*
X122019042Y-103041824D01*
X122035607Y-103094362D01*
X122056869Y-103154252D01*
X122057378Y-103163408D01*
X122058225Y-103166095D01*
X122060778Y-103224573D01*
X122064768Y-103296347D01*
X122064196Y-103302876D01*
X122064197Y-103302881D01*
X121985936Y-104197405D01*
X121972535Y-104350577D01*
X121925319Y-104890258D01*
X121904672Y-104995141D01*
X121898155Y-105008830D01*
X121896257Y-105017395D01*
X121870816Y-105066264D01*
X121843506Y-105123640D01*
X121837390Y-105130475D01*
X121836091Y-105132972D01*
X121796586Y-105176083D01*
X121748615Y-105229702D01*
X121687529Y-105267603D01*
X121638167Y-105299051D01*
X121635479Y-105299898D01*
X121627686Y-105304734D01*
X121566434Y-105321668D01*
X121513895Y-105338234D01*
X121505132Y-105338616D01*
X121490518Y-105342657D01*
X121383644Y-105344778D01*
X119997649Y-105223518D01*
X119796268Y-105205900D01*
X119796266Y-105205899D01*
X119789732Y-105205328D01*
X119684850Y-105184682D01*
X119671156Y-105178163D01*
X119662592Y-105176265D01*
X119613707Y-105150817D01*
X119556351Y-105123515D01*
X119549519Y-105117403D01*
X119547018Y-105116101D01*
X119503819Y-105076516D01*
X119450288Y-105028624D01*
X119412395Y-104967553D01*
X119380939Y-104918176D01*
X119380092Y-104915490D01*
X119375256Y-104907696D01*
X119358323Y-104846451D01*
X119341755Y-104793904D01*
X119341372Y-104785138D01*
X119337333Y-104770528D01*
X119335213Y-104663653D01*
X119335784Y-104657123D01*
X119335784Y-104657118D01*
X119371166Y-104252711D01*
X119378981Y-104163378D01*
X119378982Y-104163356D01*
X119474090Y-103076276D01*
X119474092Y-103076266D01*
X119474663Y-103069741D01*
X119491039Y-102999819D01*
X119503724Y-102942603D01*
X119505026Y-102940100D01*
X119507117Y-102931176D01*
X119538442Y-102875909D01*
X119563891Y-102827025D01*
X119569817Y-102820557D01*
X119577294Y-102807367D01*
X119618348Y-102767595D01*
X119651920Y-102730958D01*
X119664323Y-102723056D01*
X119679510Y-102708344D01*
X119724703Y-102684589D01*
X119761815Y-102660947D01*
X119781483Y-102654745D01*
X119805483Y-102642131D01*
X119849633Y-102633257D01*
X119886086Y-102621764D01*
X119912574Y-102620607D01*
X119945008Y-102614089D01*
X119983915Y-102617493D01*
G37*
G36*
X123783915Y-102617493D02*
G01*
X123816262Y-102616081D01*
X123847873Y-102623088D01*
X123886781Y-102626493D01*
X123917589Y-102638544D01*
X123943476Y-102644283D01*
X123977377Y-102661931D01*
X124019318Y-102678337D01*
X124040764Y-102694928D01*
X124059052Y-102704449D01*
X124091489Y-102734172D01*
X124131878Y-102765419D01*
X124144280Y-102782546D01*
X124155122Y-102792481D01*
X124181819Y-102834388D01*
X124215346Y-102880688D01*
X124220418Y-102894977D01*
X124225131Y-102902374D01*
X124241696Y-102954912D01*
X124262958Y-103014802D01*
X124263467Y-103023958D01*
X124264314Y-103026645D01*
X124266867Y-103085123D01*
X124270857Y-103156897D01*
X124270285Y-103163426D01*
X124270286Y-103163431D01*
X124265710Y-103215726D01*
X124258657Y-103296347D01*
X124258531Y-103297781D01*
X124311781Y-103361241D01*
X124552284Y-103382283D01*
X124792787Y-103403324D01*
X124856247Y-103350075D01*
X124868001Y-103215726D01*
X124868003Y-103215716D01*
X124868574Y-103209191D01*
X124884950Y-103139269D01*
X124897635Y-103082053D01*
X124898937Y-103079550D01*
X124901028Y-103070626D01*
X124932353Y-103015359D01*
X124957802Y-102966475D01*
X124963728Y-102960007D01*
X124971205Y-102946817D01*
X125012259Y-102907045D01*
X125045831Y-102870408D01*
X125058234Y-102862506D01*
X125073421Y-102847794D01*
X125118614Y-102824039D01*
X125155726Y-102800397D01*
X125175394Y-102794195D01*
X125199394Y-102781581D01*
X125243544Y-102772707D01*
X125279997Y-102761214D01*
X125306485Y-102760057D01*
X125338919Y-102753539D01*
X125377826Y-102756943D01*
X125410173Y-102755531D01*
X125441784Y-102762538D01*
X125480692Y-102765943D01*
X125511500Y-102777994D01*
X125537387Y-102783733D01*
X125571288Y-102801381D01*
X125613229Y-102817787D01*
X125634675Y-102834378D01*
X125652963Y-102843899D01*
X125685400Y-102873622D01*
X125725789Y-102904869D01*
X125738191Y-102921996D01*
X125749033Y-102931931D01*
X125775730Y-102973838D01*
X125809257Y-103020138D01*
X125814329Y-103034427D01*
X125819042Y-103041824D01*
X125835607Y-103094362D01*
X125856869Y-103154252D01*
X125857378Y-103163408D01*
X125858225Y-103166095D01*
X125860778Y-103224573D01*
X125864768Y-103296347D01*
X125864196Y-103302876D01*
X125864197Y-103302881D01*
X125785936Y-104197405D01*
X125772535Y-104350577D01*
X125725319Y-104890258D01*
X125704672Y-104995141D01*
X125698155Y-105008830D01*
X125696257Y-105017395D01*
X125670816Y-105066264D01*
X125643506Y-105123640D01*
X125637390Y-105130475D01*
X125636091Y-105132972D01*
X125596586Y-105176083D01*
X125548615Y-105229702D01*
X125487529Y-105267603D01*
X125438167Y-105299051D01*
X125435479Y-105299898D01*
X125427686Y-105304734D01*
X125366434Y-105321668D01*
X125313895Y-105338234D01*
X125305132Y-105338616D01*
X125290518Y-105342657D01*
X125183644Y-105344778D01*
X123797649Y-105223518D01*
X123596268Y-105205900D01*
X123596266Y-105205899D01*
X123589732Y-105205328D01*
X123484850Y-105184682D01*
X123471156Y-105178163D01*
X123462592Y-105176265D01*
X123413707Y-105150817D01*
X123356351Y-105123515D01*
X123349519Y-105117403D01*
X123347018Y-105116101D01*
X123303819Y-105076516D01*
X123250288Y-105028624D01*
X123212395Y-104967553D01*
X123180939Y-104918176D01*
X123180092Y-104915490D01*
X123175256Y-104907696D01*
X123158323Y-104846451D01*
X123141755Y-104793904D01*
X123141372Y-104785138D01*
X123137333Y-104770528D01*
X123135213Y-104663653D01*
X123135784Y-104657123D01*
X123135784Y-104657118D01*
X123171166Y-104252711D01*
X123178981Y-104163378D01*
X123178982Y-104163356D01*
X123274090Y-103076276D01*
X123274092Y-103076266D01*
X123274663Y-103069741D01*
X123291039Y-102999819D01*
X123303724Y-102942603D01*
X123305026Y-102940100D01*
X123307117Y-102931176D01*
X123338442Y-102875909D01*
X123363891Y-102827025D01*
X123369817Y-102820557D01*
X123377294Y-102807367D01*
X123418348Y-102767595D01*
X123451920Y-102730958D01*
X123464323Y-102723056D01*
X123479510Y-102708344D01*
X123524703Y-102684589D01*
X123561815Y-102660947D01*
X123581483Y-102654745D01*
X123605483Y-102642131D01*
X123649633Y-102633257D01*
X123686086Y-102621764D01*
X123712574Y-102620607D01*
X123745008Y-102614089D01*
X123783915Y-102617493D01*
G37*
G36*
X127583915Y-102617493D02*
G01*
X127616262Y-102616081D01*
X127647873Y-102623088D01*
X127686781Y-102626493D01*
X127717589Y-102638544D01*
X127743476Y-102644283D01*
X127777377Y-102661931D01*
X127819318Y-102678337D01*
X127840764Y-102694928D01*
X127859052Y-102704449D01*
X127891489Y-102734172D01*
X127931878Y-102765419D01*
X127944280Y-102782546D01*
X127955122Y-102792481D01*
X127981819Y-102834388D01*
X128015346Y-102880688D01*
X128020418Y-102894977D01*
X128025131Y-102902374D01*
X128041696Y-102954912D01*
X128062958Y-103014802D01*
X128063467Y-103023958D01*
X128064314Y-103026645D01*
X128066867Y-103085123D01*
X128070857Y-103156897D01*
X128070285Y-103163426D01*
X128070286Y-103163431D01*
X128065710Y-103215726D01*
X128058657Y-103296347D01*
X128058531Y-103297781D01*
X128111781Y-103361241D01*
X128352284Y-103382283D01*
X128592787Y-103403324D01*
X128656247Y-103350075D01*
X128668001Y-103215726D01*
X128668003Y-103215716D01*
X128668574Y-103209191D01*
X128684950Y-103139269D01*
X128697635Y-103082053D01*
X128698937Y-103079550D01*
X128701028Y-103070626D01*
X128732353Y-103015359D01*
X128757802Y-102966475D01*
X128763728Y-102960007D01*
X128771205Y-102946817D01*
X128812259Y-102907045D01*
X128845831Y-102870408D01*
X128858234Y-102862506D01*
X128873421Y-102847794D01*
X128918614Y-102824039D01*
X128955726Y-102800397D01*
X128975394Y-102794195D01*
X128999394Y-102781581D01*
X129043544Y-102772707D01*
X129079997Y-102761214D01*
X129106485Y-102760057D01*
X129138919Y-102753539D01*
X129177826Y-102756943D01*
X129210173Y-102755531D01*
X129241784Y-102762538D01*
X129280692Y-102765943D01*
X129311500Y-102777994D01*
X129337387Y-102783733D01*
X129371288Y-102801381D01*
X129413229Y-102817787D01*
X129434675Y-102834378D01*
X129452963Y-102843899D01*
X129485400Y-102873622D01*
X129525789Y-102904869D01*
X129538191Y-102921996D01*
X129549033Y-102931931D01*
X129575730Y-102973838D01*
X129609257Y-103020138D01*
X129614329Y-103034427D01*
X129619042Y-103041824D01*
X129635607Y-103094362D01*
X129656869Y-103154252D01*
X129657378Y-103163408D01*
X129658225Y-103166095D01*
X129660778Y-103224573D01*
X129664768Y-103296347D01*
X129664196Y-103302876D01*
X129664197Y-103302881D01*
X129585936Y-104197405D01*
X129572535Y-104350577D01*
X129525319Y-104890258D01*
X129504672Y-104995141D01*
X129498155Y-105008830D01*
X129496257Y-105017395D01*
X129470816Y-105066264D01*
X129443506Y-105123640D01*
X129437390Y-105130475D01*
X129436091Y-105132972D01*
X129396586Y-105176083D01*
X129348615Y-105229702D01*
X129287529Y-105267603D01*
X129238167Y-105299051D01*
X129235479Y-105299898D01*
X129227686Y-105304734D01*
X129166434Y-105321668D01*
X129113895Y-105338234D01*
X129105132Y-105338616D01*
X129090518Y-105342657D01*
X128983644Y-105344778D01*
X127597649Y-105223518D01*
X127396268Y-105205900D01*
X127396266Y-105205899D01*
X127389732Y-105205328D01*
X127284850Y-105184682D01*
X127271156Y-105178163D01*
X127262592Y-105176265D01*
X127213707Y-105150817D01*
X127156351Y-105123515D01*
X127149519Y-105117403D01*
X127147018Y-105116101D01*
X127103819Y-105076516D01*
X127050288Y-105028624D01*
X127012395Y-104967553D01*
X126980939Y-104918176D01*
X126980092Y-104915490D01*
X126975256Y-104907696D01*
X126958323Y-104846451D01*
X126941755Y-104793904D01*
X126941372Y-104785138D01*
X126937333Y-104770528D01*
X126935213Y-104663653D01*
X126935784Y-104657123D01*
X126935784Y-104657118D01*
X126971166Y-104252711D01*
X126978981Y-104163378D01*
X126978982Y-104163356D01*
X127074090Y-103076276D01*
X127074092Y-103076266D01*
X127074663Y-103069741D01*
X127091039Y-102999819D01*
X127103724Y-102942603D01*
X127105026Y-102940100D01*
X127107117Y-102931176D01*
X127138442Y-102875909D01*
X127163891Y-102827025D01*
X127169817Y-102820557D01*
X127177294Y-102807367D01*
X127218348Y-102767595D01*
X127251920Y-102730958D01*
X127264323Y-102723056D01*
X127279510Y-102708344D01*
X127324703Y-102684589D01*
X127361815Y-102660947D01*
X127381483Y-102654745D01*
X127405483Y-102642131D01*
X127449633Y-102633257D01*
X127486086Y-102621764D01*
X127512574Y-102620607D01*
X127545008Y-102614089D01*
X127583915Y-102617493D01*
G37*
G36*
X131383915Y-102617493D02*
G01*
X131416262Y-102616081D01*
X131447873Y-102623088D01*
X131486781Y-102626493D01*
X131517589Y-102638544D01*
X131543476Y-102644283D01*
X131577377Y-102661931D01*
X131619318Y-102678337D01*
X131640764Y-102694928D01*
X131659052Y-102704449D01*
X131691489Y-102734172D01*
X131731878Y-102765419D01*
X131744280Y-102782546D01*
X131755122Y-102792481D01*
X131781819Y-102834388D01*
X131815346Y-102880688D01*
X131820418Y-102894977D01*
X131825131Y-102902374D01*
X131841696Y-102954912D01*
X131862958Y-103014802D01*
X131863467Y-103023958D01*
X131864314Y-103026645D01*
X131866867Y-103085123D01*
X131870857Y-103156897D01*
X131870285Y-103163426D01*
X131870286Y-103163431D01*
X131865710Y-103215726D01*
X131858657Y-103296347D01*
X131858531Y-103297781D01*
X131911781Y-103361241D01*
X132152284Y-103382283D01*
X132392787Y-103403324D01*
X132456247Y-103350075D01*
X132468001Y-103215726D01*
X132468003Y-103215716D01*
X132468574Y-103209191D01*
X132484950Y-103139269D01*
X132497635Y-103082053D01*
X132498937Y-103079550D01*
X132501028Y-103070626D01*
X132532353Y-103015359D01*
X132557802Y-102966475D01*
X132563728Y-102960007D01*
X132571205Y-102946817D01*
X132612259Y-102907045D01*
X132645831Y-102870408D01*
X132658234Y-102862506D01*
X132673421Y-102847794D01*
X132718614Y-102824039D01*
X132755726Y-102800397D01*
X132775394Y-102794195D01*
X132799394Y-102781581D01*
X132843544Y-102772707D01*
X132879997Y-102761214D01*
X132906485Y-102760057D01*
X132938919Y-102753539D01*
X132977826Y-102756943D01*
X133010173Y-102755531D01*
X133041784Y-102762538D01*
X133080692Y-102765943D01*
X133111500Y-102777994D01*
X133137387Y-102783733D01*
X133171288Y-102801381D01*
X133213229Y-102817787D01*
X133234675Y-102834378D01*
X133252963Y-102843899D01*
X133285400Y-102873622D01*
X133325789Y-102904869D01*
X133338191Y-102921996D01*
X133349033Y-102931931D01*
X133375730Y-102973838D01*
X133409257Y-103020138D01*
X133414329Y-103034427D01*
X133419042Y-103041824D01*
X133435607Y-103094362D01*
X133456869Y-103154252D01*
X133457378Y-103163408D01*
X133458225Y-103166095D01*
X133460778Y-103224573D01*
X133464768Y-103296347D01*
X133464196Y-103302876D01*
X133464197Y-103302881D01*
X133385936Y-104197405D01*
X133372535Y-104350577D01*
X133325319Y-104890258D01*
X133304672Y-104995141D01*
X133298155Y-105008830D01*
X133296257Y-105017395D01*
X133270816Y-105066264D01*
X133243506Y-105123640D01*
X133237390Y-105130475D01*
X133236091Y-105132972D01*
X133196586Y-105176083D01*
X133148615Y-105229702D01*
X133087529Y-105267603D01*
X133038167Y-105299051D01*
X133035479Y-105299898D01*
X133027686Y-105304734D01*
X132966434Y-105321668D01*
X132913895Y-105338234D01*
X132905132Y-105338616D01*
X132890518Y-105342657D01*
X132783644Y-105344778D01*
X131397649Y-105223518D01*
X131196268Y-105205900D01*
X131196266Y-105205899D01*
X131189732Y-105205328D01*
X131084850Y-105184682D01*
X131071156Y-105178163D01*
X131062592Y-105176265D01*
X131013707Y-105150817D01*
X130956351Y-105123515D01*
X130949519Y-105117403D01*
X130947018Y-105116101D01*
X130903819Y-105076516D01*
X130850288Y-105028624D01*
X130812395Y-104967553D01*
X130780939Y-104918176D01*
X130780092Y-104915490D01*
X130775256Y-104907696D01*
X130758323Y-104846451D01*
X130741755Y-104793904D01*
X130741372Y-104785138D01*
X130737333Y-104770528D01*
X130735213Y-104663653D01*
X130735784Y-104657123D01*
X130735784Y-104657118D01*
X130771166Y-104252711D01*
X130778981Y-104163378D01*
X130778982Y-104163356D01*
X130874090Y-103076276D01*
X130874092Y-103076266D01*
X130874663Y-103069741D01*
X130891039Y-102999819D01*
X130903724Y-102942603D01*
X130905026Y-102940100D01*
X130907117Y-102931176D01*
X130938442Y-102875909D01*
X130963891Y-102827025D01*
X130969817Y-102820557D01*
X130977294Y-102807367D01*
X131018348Y-102767595D01*
X131051920Y-102730958D01*
X131064323Y-102723056D01*
X131079510Y-102708344D01*
X131124703Y-102684589D01*
X131161815Y-102660947D01*
X131181483Y-102654745D01*
X131205483Y-102642131D01*
X131249633Y-102633257D01*
X131286086Y-102621764D01*
X131312574Y-102620607D01*
X131345008Y-102614089D01*
X131383915Y-102617493D01*
G37*
G36*
X135183915Y-102617493D02*
G01*
X135216262Y-102616081D01*
X135247873Y-102623088D01*
X135286781Y-102626493D01*
X135317589Y-102638544D01*
X135343476Y-102644283D01*
X135377377Y-102661931D01*
X135419318Y-102678337D01*
X135440764Y-102694928D01*
X135459052Y-102704449D01*
X135491489Y-102734172D01*
X135531878Y-102765419D01*
X135544280Y-102782546D01*
X135555122Y-102792481D01*
X135581819Y-102834388D01*
X135615346Y-102880688D01*
X135620418Y-102894977D01*
X135625131Y-102902374D01*
X135641696Y-102954912D01*
X135662958Y-103014802D01*
X135663467Y-103023958D01*
X135664314Y-103026645D01*
X135666867Y-103085123D01*
X135670857Y-103156897D01*
X135670285Y-103163426D01*
X135670286Y-103163431D01*
X135665710Y-103215726D01*
X135658657Y-103296347D01*
X135658531Y-103297781D01*
X135711781Y-103361241D01*
X135952284Y-103382283D01*
X136192787Y-103403324D01*
X136256247Y-103350075D01*
X136268001Y-103215726D01*
X136268003Y-103215716D01*
X136268574Y-103209191D01*
X136284950Y-103139269D01*
X136297635Y-103082053D01*
X136298937Y-103079550D01*
X136301028Y-103070626D01*
X136332353Y-103015359D01*
X136357802Y-102966475D01*
X136363728Y-102960007D01*
X136371205Y-102946817D01*
X136412259Y-102907045D01*
X136445831Y-102870408D01*
X136458234Y-102862506D01*
X136473421Y-102847794D01*
X136518614Y-102824039D01*
X136555726Y-102800397D01*
X136575394Y-102794195D01*
X136599394Y-102781581D01*
X136643544Y-102772707D01*
X136679997Y-102761214D01*
X136706485Y-102760057D01*
X136738919Y-102753539D01*
X136777826Y-102756943D01*
X136810173Y-102755531D01*
X136841784Y-102762538D01*
X136880692Y-102765943D01*
X136911500Y-102777994D01*
X136937387Y-102783733D01*
X136971288Y-102801381D01*
X137013229Y-102817787D01*
X137034675Y-102834378D01*
X137052963Y-102843899D01*
X137085400Y-102873622D01*
X137125789Y-102904869D01*
X137138191Y-102921996D01*
X137149033Y-102931931D01*
X137175730Y-102973838D01*
X137209257Y-103020138D01*
X137214329Y-103034427D01*
X137219042Y-103041824D01*
X137235607Y-103094362D01*
X137256869Y-103154252D01*
X137257378Y-103163408D01*
X137258225Y-103166095D01*
X137260778Y-103224573D01*
X137264768Y-103296347D01*
X137264196Y-103302876D01*
X137264197Y-103302881D01*
X137185936Y-104197405D01*
X137172535Y-104350577D01*
X137125319Y-104890258D01*
X137104672Y-104995141D01*
X137098155Y-105008830D01*
X137096257Y-105017395D01*
X137070816Y-105066264D01*
X137043506Y-105123640D01*
X137037390Y-105130475D01*
X137036091Y-105132972D01*
X136996586Y-105176083D01*
X136948615Y-105229702D01*
X136887529Y-105267603D01*
X136838167Y-105299051D01*
X136835479Y-105299898D01*
X136827686Y-105304734D01*
X136766434Y-105321668D01*
X136713895Y-105338234D01*
X136705132Y-105338616D01*
X136690518Y-105342657D01*
X136583644Y-105344778D01*
X135197649Y-105223518D01*
X134996268Y-105205900D01*
X134996266Y-105205899D01*
X134989732Y-105205328D01*
X134884850Y-105184682D01*
X134871156Y-105178163D01*
X134862592Y-105176265D01*
X134813707Y-105150817D01*
X134756351Y-105123515D01*
X134749519Y-105117403D01*
X134747018Y-105116101D01*
X134703819Y-105076516D01*
X134650288Y-105028624D01*
X134612395Y-104967553D01*
X134580939Y-104918176D01*
X134580092Y-104915490D01*
X134575256Y-104907696D01*
X134558323Y-104846451D01*
X134541755Y-104793904D01*
X134541372Y-104785138D01*
X134537333Y-104770528D01*
X134535213Y-104663653D01*
X134535784Y-104657123D01*
X134535784Y-104657118D01*
X134571166Y-104252711D01*
X134578981Y-104163378D01*
X134578982Y-104163356D01*
X134674090Y-103076276D01*
X134674092Y-103076266D01*
X134674663Y-103069741D01*
X134691039Y-102999819D01*
X134703724Y-102942603D01*
X134705026Y-102940100D01*
X134707117Y-102931176D01*
X134738442Y-102875909D01*
X134763891Y-102827025D01*
X134769817Y-102820557D01*
X134777294Y-102807367D01*
X134818348Y-102767595D01*
X134851920Y-102730958D01*
X134864323Y-102723056D01*
X134879510Y-102708344D01*
X134924703Y-102684589D01*
X134961815Y-102660947D01*
X134981483Y-102654745D01*
X135005483Y-102642131D01*
X135049633Y-102633257D01*
X135086086Y-102621764D01*
X135112574Y-102620607D01*
X135145008Y-102614089D01*
X135183915Y-102617493D01*
G37*
G36*
X138983915Y-102617493D02*
G01*
X139016262Y-102616081D01*
X139047873Y-102623088D01*
X139086781Y-102626493D01*
X139117589Y-102638544D01*
X139143476Y-102644283D01*
X139177377Y-102661931D01*
X139219318Y-102678337D01*
X139240764Y-102694928D01*
X139259052Y-102704449D01*
X139291489Y-102734172D01*
X139331878Y-102765419D01*
X139344280Y-102782546D01*
X139355122Y-102792481D01*
X139381819Y-102834388D01*
X139415346Y-102880688D01*
X139420418Y-102894977D01*
X139425131Y-102902374D01*
X139441696Y-102954912D01*
X139462958Y-103014802D01*
X139463467Y-103023958D01*
X139464314Y-103026645D01*
X139466867Y-103085123D01*
X139470857Y-103156897D01*
X139470285Y-103163426D01*
X139470286Y-103163431D01*
X139465710Y-103215726D01*
X139458657Y-103296347D01*
X139458531Y-103297781D01*
X139511781Y-103361241D01*
X139752284Y-103382283D01*
X139992787Y-103403324D01*
X140056247Y-103350075D01*
X140068001Y-103215726D01*
X140068003Y-103215716D01*
X140068574Y-103209191D01*
X140084950Y-103139269D01*
X140097635Y-103082053D01*
X140098937Y-103079550D01*
X140101028Y-103070626D01*
X140132353Y-103015359D01*
X140157802Y-102966475D01*
X140163728Y-102960007D01*
X140171205Y-102946817D01*
X140212259Y-102907045D01*
X140245831Y-102870408D01*
X140258234Y-102862506D01*
X140273421Y-102847794D01*
X140318614Y-102824039D01*
X140355726Y-102800397D01*
X140375394Y-102794195D01*
X140399394Y-102781581D01*
X140443544Y-102772707D01*
X140479997Y-102761214D01*
X140506485Y-102760057D01*
X140538919Y-102753539D01*
X140577826Y-102756943D01*
X140610173Y-102755531D01*
X140641784Y-102762538D01*
X140680692Y-102765943D01*
X140711500Y-102777994D01*
X140737387Y-102783733D01*
X140771288Y-102801381D01*
X140813229Y-102817787D01*
X140834675Y-102834378D01*
X140852963Y-102843899D01*
X140885400Y-102873622D01*
X140925789Y-102904869D01*
X140938191Y-102921996D01*
X140949033Y-102931931D01*
X140975730Y-102973838D01*
X141009257Y-103020138D01*
X141014329Y-103034427D01*
X141019042Y-103041824D01*
X141035607Y-103094362D01*
X141056869Y-103154252D01*
X141057378Y-103163408D01*
X141058225Y-103166095D01*
X141060778Y-103224573D01*
X141064768Y-103296347D01*
X141064196Y-103302876D01*
X141064197Y-103302881D01*
X140985936Y-104197405D01*
X140972535Y-104350577D01*
X140925319Y-104890258D01*
X140904672Y-104995141D01*
X140898155Y-105008830D01*
X140896257Y-105017395D01*
X140870816Y-105066264D01*
X140843506Y-105123640D01*
X140837390Y-105130475D01*
X140836091Y-105132972D01*
X140796586Y-105176083D01*
X140748615Y-105229702D01*
X140687529Y-105267603D01*
X140638167Y-105299051D01*
X140635479Y-105299898D01*
X140627686Y-105304734D01*
X140566434Y-105321668D01*
X140513895Y-105338234D01*
X140505132Y-105338616D01*
X140490518Y-105342657D01*
X140383644Y-105344778D01*
X138997649Y-105223518D01*
X138796268Y-105205900D01*
X138796266Y-105205899D01*
X138789732Y-105205328D01*
X138684850Y-105184682D01*
X138671156Y-105178163D01*
X138662592Y-105176265D01*
X138613707Y-105150817D01*
X138556351Y-105123515D01*
X138549519Y-105117403D01*
X138547018Y-105116101D01*
X138503819Y-105076516D01*
X138450288Y-105028624D01*
X138412395Y-104967553D01*
X138380939Y-104918176D01*
X138380092Y-104915490D01*
X138375256Y-104907696D01*
X138358323Y-104846451D01*
X138341755Y-104793904D01*
X138341372Y-104785138D01*
X138337333Y-104770528D01*
X138335213Y-104663653D01*
X138335784Y-104657123D01*
X138335784Y-104657118D01*
X138371166Y-104252711D01*
X138378981Y-104163378D01*
X138378982Y-104163356D01*
X138474090Y-103076276D01*
X138474092Y-103076266D01*
X138474663Y-103069741D01*
X138491039Y-102999819D01*
X138503724Y-102942603D01*
X138505026Y-102940100D01*
X138507117Y-102931176D01*
X138538442Y-102875909D01*
X138563891Y-102827025D01*
X138569817Y-102820557D01*
X138577294Y-102807367D01*
X138618348Y-102767595D01*
X138651920Y-102730958D01*
X138664323Y-102723056D01*
X138679510Y-102708344D01*
X138724703Y-102684589D01*
X138761815Y-102660947D01*
X138781483Y-102654745D01*
X138805483Y-102642131D01*
X138849633Y-102633257D01*
X138886086Y-102621764D01*
X138912574Y-102620607D01*
X138945008Y-102614089D01*
X138983915Y-102617493D01*
G37*
G36*
X183345151Y-103089930D02*
G01*
X183394076Y-103089930D01*
X183436321Y-103098909D01*
X183475485Y-103102767D01*
X183524689Y-103117693D01*
X183578115Y-103129049D01*
X183612300Y-103144269D01*
X183644230Y-103153955D01*
X183694971Y-103181076D01*
X183750000Y-103205577D01*
X183775583Y-103224164D01*
X183799743Y-103237078D01*
X183849023Y-103277521D01*
X183902218Y-103316170D01*
X183919491Y-103335354D01*
X183936053Y-103348946D01*
X183980563Y-103403182D01*
X184028115Y-103455993D01*
X184038103Y-103473293D01*
X184047921Y-103485256D01*
X184084237Y-103553200D01*
X184122191Y-103618937D01*
X184126557Y-103632374D01*
X184131044Y-103640769D01*
X184155779Y-103722311D01*
X184180333Y-103797879D01*
X184181197Y-103806103D01*
X184182232Y-103809514D01*
X184192305Y-103911787D01*
X184200000Y-103985000D01*
X184192304Y-104058218D01*
X184182232Y-104160485D01*
X184181197Y-104163895D01*
X184180333Y-104172121D01*
X184155774Y-104247702D01*
X184131044Y-104329230D01*
X184126558Y-104337622D01*
X184122191Y-104351063D01*
X184084230Y-104416812D01*
X184047921Y-104484743D01*
X184038105Y-104496703D01*
X184028115Y-104514007D01*
X183980554Y-104566828D01*
X183936053Y-104621053D01*
X183919494Y-104634642D01*
X183902218Y-104653830D01*
X183849012Y-104692486D01*
X183799743Y-104732921D01*
X183775588Y-104745831D01*
X183750000Y-104764423D01*
X183694960Y-104788928D01*
X183644230Y-104816044D01*
X183612307Y-104825727D01*
X183578115Y-104840951D01*
X183524678Y-104852309D01*
X183475485Y-104867232D01*
X183436330Y-104871088D01*
X183394076Y-104880070D01*
X183345140Y-104880070D01*
X183300000Y-104884516D01*
X183254859Y-104880070D01*
X183205924Y-104880070D01*
X183163669Y-104871088D01*
X183124514Y-104867232D01*
X183075317Y-104852308D01*
X183021885Y-104840951D01*
X182987694Y-104825728D01*
X182955769Y-104816044D01*
X182905033Y-104788925D01*
X182850000Y-104764423D01*
X182824413Y-104745833D01*
X182800256Y-104732921D01*
X182750978Y-104692479D01*
X182697782Y-104653830D01*
X182680507Y-104634645D01*
X182663946Y-104621053D01*
X182619434Y-104566815D01*
X182571885Y-104514007D01*
X182561897Y-104496707D01*
X182552078Y-104484743D01*
X182515756Y-104416788D01*
X182477809Y-104351063D01*
X182473443Y-104337627D01*
X182468955Y-104329230D01*
X182444210Y-104247656D01*
X182419667Y-104172121D01*
X182418802Y-104163900D01*
X182417767Y-104160485D01*
X182407679Y-104058067D01*
X182400000Y-103985000D01*
X182407678Y-103911939D01*
X182417767Y-103809514D01*
X182418803Y-103806098D01*
X182419667Y-103797879D01*
X182444205Y-103722357D01*
X182468955Y-103640769D01*
X182473444Y-103632369D01*
X182477809Y-103618937D01*
X182515748Y-103553223D01*
X182552078Y-103485256D01*
X182561899Y-103473289D01*
X182571885Y-103455993D01*
X182619424Y-103403194D01*
X182663946Y-103348946D01*
X182680511Y-103335350D01*
X182697782Y-103316170D01*
X182750968Y-103277527D01*
X182800256Y-103237078D01*
X182824419Y-103224162D01*
X182850000Y-103205577D01*
X182905022Y-103181079D01*
X182955769Y-103153955D01*
X182987701Y-103144268D01*
X183021885Y-103129049D01*
X183075306Y-103117693D01*
X183124514Y-103102767D01*
X183163678Y-103098909D01*
X183205924Y-103089930D01*
X183254849Y-103089930D01*
X183300000Y-103085483D01*
X183345151Y-103089930D01*
G37*
G36*
X187305151Y-103089930D02*
G01*
X187354076Y-103089930D01*
X187396321Y-103098909D01*
X187435485Y-103102767D01*
X187484689Y-103117693D01*
X187538115Y-103129049D01*
X187572300Y-103144269D01*
X187604230Y-103153955D01*
X187654971Y-103181076D01*
X187710000Y-103205577D01*
X187735583Y-103224164D01*
X187759743Y-103237078D01*
X187809023Y-103277521D01*
X187862218Y-103316170D01*
X187879491Y-103335354D01*
X187896053Y-103348946D01*
X187940563Y-103403182D01*
X187988115Y-103455993D01*
X187998103Y-103473293D01*
X188007921Y-103485256D01*
X188044237Y-103553200D01*
X188082191Y-103618937D01*
X188086557Y-103632374D01*
X188091044Y-103640769D01*
X188115779Y-103722311D01*
X188140333Y-103797879D01*
X188141197Y-103806103D01*
X188142232Y-103809514D01*
X188152305Y-103911787D01*
X188160000Y-103985000D01*
X188152304Y-104058218D01*
X188142232Y-104160485D01*
X188141197Y-104163895D01*
X188140333Y-104172121D01*
X188115774Y-104247702D01*
X188091044Y-104329230D01*
X188086558Y-104337622D01*
X188082191Y-104351063D01*
X188044230Y-104416812D01*
X188007921Y-104484743D01*
X187998105Y-104496703D01*
X187988115Y-104514007D01*
X187940554Y-104566828D01*
X187896053Y-104621053D01*
X187879494Y-104634642D01*
X187862218Y-104653830D01*
X187809012Y-104692486D01*
X187759743Y-104732921D01*
X187735588Y-104745831D01*
X187710000Y-104764423D01*
X187654960Y-104788928D01*
X187604230Y-104816044D01*
X187572307Y-104825727D01*
X187538115Y-104840951D01*
X187484678Y-104852309D01*
X187435485Y-104867232D01*
X187396330Y-104871088D01*
X187354076Y-104880070D01*
X187305140Y-104880070D01*
X187260000Y-104884516D01*
X187214859Y-104880070D01*
X187165924Y-104880070D01*
X187123669Y-104871088D01*
X187084514Y-104867232D01*
X187035317Y-104852308D01*
X186981885Y-104840951D01*
X186947694Y-104825728D01*
X186915769Y-104816044D01*
X186865033Y-104788925D01*
X186810000Y-104764423D01*
X186784413Y-104745833D01*
X186760256Y-104732921D01*
X186710978Y-104692479D01*
X186657782Y-104653830D01*
X186640507Y-104634645D01*
X186623946Y-104621053D01*
X186579434Y-104566815D01*
X186531885Y-104514007D01*
X186521897Y-104496707D01*
X186512078Y-104484743D01*
X186475756Y-104416788D01*
X186437809Y-104351063D01*
X186433443Y-104337627D01*
X186428955Y-104329230D01*
X186404210Y-104247656D01*
X186379667Y-104172121D01*
X186378802Y-104163900D01*
X186377767Y-104160485D01*
X186367679Y-104058067D01*
X186360000Y-103985000D01*
X186367678Y-103911939D01*
X186377767Y-103809514D01*
X186378803Y-103806098D01*
X186379667Y-103797879D01*
X186404205Y-103722357D01*
X186428955Y-103640769D01*
X186433444Y-103632369D01*
X186437809Y-103618937D01*
X186475748Y-103553223D01*
X186512078Y-103485256D01*
X186521899Y-103473289D01*
X186531885Y-103455993D01*
X186579424Y-103403194D01*
X186623946Y-103348946D01*
X186640511Y-103335350D01*
X186657782Y-103316170D01*
X186710968Y-103277527D01*
X186760256Y-103237078D01*
X186784419Y-103224162D01*
X186810000Y-103205577D01*
X186865022Y-103181079D01*
X186915769Y-103153955D01*
X186947701Y-103144268D01*
X186981885Y-103129049D01*
X187035306Y-103117693D01*
X187084514Y-103102767D01*
X187123678Y-103098909D01*
X187165924Y-103089930D01*
X187214849Y-103089930D01*
X187260000Y-103085483D01*
X187305151Y-103089930D01*
G37*
G36*
X185325151Y-101944930D02*
G01*
X185374076Y-101944930D01*
X185416321Y-101953909D01*
X185455485Y-101957767D01*
X185504689Y-101972693D01*
X185558115Y-101984049D01*
X185592300Y-101999269D01*
X185624230Y-102008955D01*
X185674971Y-102036076D01*
X185730000Y-102060577D01*
X185755583Y-102079164D01*
X185779743Y-102092078D01*
X185829023Y-102132521D01*
X185882218Y-102171170D01*
X185899491Y-102190354D01*
X185916053Y-102203946D01*
X185960563Y-102258182D01*
X186008115Y-102310993D01*
X186018103Y-102328293D01*
X186027921Y-102340256D01*
X186064237Y-102408200D01*
X186102191Y-102473937D01*
X186106557Y-102487374D01*
X186111044Y-102495769D01*
X186135779Y-102577311D01*
X186160333Y-102652879D01*
X186161197Y-102661103D01*
X186162232Y-102664514D01*
X186172305Y-102766787D01*
X186180000Y-102840000D01*
X186172304Y-102913218D01*
X186162232Y-103015485D01*
X186161197Y-103018895D01*
X186160333Y-103027121D01*
X186135774Y-103102702D01*
X186111044Y-103184230D01*
X186106558Y-103192622D01*
X186102191Y-103206063D01*
X186064230Y-103271812D01*
X186027921Y-103339743D01*
X186018105Y-103351703D01*
X186008115Y-103369007D01*
X185960554Y-103421828D01*
X185916053Y-103476053D01*
X185899494Y-103489642D01*
X185882218Y-103508830D01*
X185829012Y-103547486D01*
X185779743Y-103587921D01*
X185755588Y-103600831D01*
X185730000Y-103619423D01*
X185674960Y-103643928D01*
X185624230Y-103671044D01*
X185592307Y-103680727D01*
X185558115Y-103695951D01*
X185504678Y-103707309D01*
X185455485Y-103722232D01*
X185416330Y-103726088D01*
X185374076Y-103735070D01*
X185325140Y-103735070D01*
X185280000Y-103739516D01*
X185234859Y-103735070D01*
X185185924Y-103735070D01*
X185143669Y-103726088D01*
X185104514Y-103722232D01*
X185055317Y-103707308D01*
X185001885Y-103695951D01*
X184967694Y-103680728D01*
X184935769Y-103671044D01*
X184885033Y-103643925D01*
X184830000Y-103619423D01*
X184804413Y-103600833D01*
X184780256Y-103587921D01*
X184730978Y-103547479D01*
X184677782Y-103508830D01*
X184660507Y-103489645D01*
X184643946Y-103476053D01*
X184599434Y-103421815D01*
X184551885Y-103369007D01*
X184541897Y-103351707D01*
X184532078Y-103339743D01*
X184495756Y-103271788D01*
X184457809Y-103206063D01*
X184453443Y-103192627D01*
X184448955Y-103184230D01*
X184424210Y-103102656D01*
X184399667Y-103027121D01*
X184398802Y-103018900D01*
X184397767Y-103015485D01*
X184387679Y-102913067D01*
X184380000Y-102840000D01*
X184387678Y-102766939D01*
X184397767Y-102664514D01*
X184398803Y-102661098D01*
X184399667Y-102652879D01*
X184424205Y-102577357D01*
X184448955Y-102495769D01*
X184453444Y-102487369D01*
X184457809Y-102473937D01*
X184495748Y-102408223D01*
X184532078Y-102340256D01*
X184541899Y-102328289D01*
X184551885Y-102310993D01*
X184599424Y-102258194D01*
X184643946Y-102203946D01*
X184660511Y-102190350D01*
X184677782Y-102171170D01*
X184730968Y-102132527D01*
X184780256Y-102092078D01*
X184804419Y-102079162D01*
X184830000Y-102060577D01*
X184885022Y-102036079D01*
X184935769Y-102008955D01*
X184967701Y-101999268D01*
X185001885Y-101984049D01*
X185055306Y-101972693D01*
X185104514Y-101957767D01*
X185143678Y-101953909D01*
X185185924Y-101944930D01*
X185234849Y-101944930D01*
X185280000Y-101940483D01*
X185325151Y-101944930D01*
G37*
G36*
X151269134Y-101108806D02*
G01*
X151285355Y-101119645D01*
X151296194Y-101135866D01*
X151300000Y-101155000D01*
X151300000Y-102855000D01*
X151296194Y-102874134D01*
X151285355Y-102890355D01*
X151269134Y-102901194D01*
X151250000Y-102905000D01*
X149550000Y-102905000D01*
X149530866Y-102901194D01*
X149514645Y-102890355D01*
X149503806Y-102874134D01*
X149500000Y-102855000D01*
X149500000Y-101155000D01*
X149503806Y-101135866D01*
X149514645Y-101119645D01*
X149530866Y-101108806D01*
X149550000Y-101105000D01*
X151250000Y-101105000D01*
X151269134Y-101108806D01*
G37*
G36*
X183345151Y-100799930D02*
G01*
X183394076Y-100799930D01*
X183436321Y-100808909D01*
X183475485Y-100812767D01*
X183524689Y-100827693D01*
X183578115Y-100839049D01*
X183612300Y-100854269D01*
X183644230Y-100863955D01*
X183694971Y-100891076D01*
X183750000Y-100915577D01*
X183775583Y-100934164D01*
X183799743Y-100947078D01*
X183849023Y-100987521D01*
X183902218Y-101026170D01*
X183919491Y-101045354D01*
X183936053Y-101058946D01*
X183980563Y-101113182D01*
X184028115Y-101165993D01*
X184038103Y-101183293D01*
X184047921Y-101195256D01*
X184084237Y-101263200D01*
X184122191Y-101328937D01*
X184126557Y-101342374D01*
X184131044Y-101350769D01*
X184155779Y-101432311D01*
X184180333Y-101507879D01*
X184181197Y-101516103D01*
X184182232Y-101519514D01*
X184192305Y-101621787D01*
X184200000Y-101695000D01*
X184192304Y-101768218D01*
X184182232Y-101870485D01*
X184181197Y-101873895D01*
X184180333Y-101882121D01*
X184155774Y-101957702D01*
X184131044Y-102039230D01*
X184126558Y-102047622D01*
X184122191Y-102061063D01*
X184084230Y-102126812D01*
X184047921Y-102194743D01*
X184038105Y-102206703D01*
X184028115Y-102224007D01*
X183980554Y-102276828D01*
X183936053Y-102331053D01*
X183919494Y-102344642D01*
X183902218Y-102363830D01*
X183849012Y-102402486D01*
X183799743Y-102442921D01*
X183775588Y-102455831D01*
X183750000Y-102474423D01*
X183694960Y-102498928D01*
X183644230Y-102526044D01*
X183612307Y-102535727D01*
X183578115Y-102550951D01*
X183524678Y-102562309D01*
X183475485Y-102577232D01*
X183436330Y-102581088D01*
X183394076Y-102590070D01*
X183345140Y-102590070D01*
X183300000Y-102594516D01*
X183254859Y-102590070D01*
X183205924Y-102590070D01*
X183163669Y-102581088D01*
X183124514Y-102577232D01*
X183075317Y-102562308D01*
X183021885Y-102550951D01*
X182987694Y-102535728D01*
X182955769Y-102526044D01*
X182905033Y-102498925D01*
X182850000Y-102474423D01*
X182824413Y-102455833D01*
X182800256Y-102442921D01*
X182750978Y-102402479D01*
X182697782Y-102363830D01*
X182680507Y-102344645D01*
X182663946Y-102331053D01*
X182619434Y-102276815D01*
X182571885Y-102224007D01*
X182561897Y-102206707D01*
X182552078Y-102194743D01*
X182515756Y-102126788D01*
X182477809Y-102061063D01*
X182473443Y-102047627D01*
X182468955Y-102039230D01*
X182444210Y-101957656D01*
X182419667Y-101882121D01*
X182418802Y-101873900D01*
X182417767Y-101870485D01*
X182407679Y-101768067D01*
X182400000Y-101695000D01*
X182407678Y-101621939D01*
X182417767Y-101519514D01*
X182418803Y-101516098D01*
X182419667Y-101507879D01*
X182444205Y-101432357D01*
X182468955Y-101350769D01*
X182473444Y-101342369D01*
X182477809Y-101328937D01*
X182515748Y-101263223D01*
X182552078Y-101195256D01*
X182561899Y-101183289D01*
X182571885Y-101165993D01*
X182619424Y-101113194D01*
X182663946Y-101058946D01*
X182680511Y-101045350D01*
X182697782Y-101026170D01*
X182750968Y-100987527D01*
X182800256Y-100947078D01*
X182824419Y-100934162D01*
X182850000Y-100915577D01*
X182905022Y-100891079D01*
X182955769Y-100863955D01*
X182987701Y-100854268D01*
X183021885Y-100839049D01*
X183075306Y-100827693D01*
X183124514Y-100812767D01*
X183163678Y-100808909D01*
X183205924Y-100799930D01*
X183254849Y-100799930D01*
X183300000Y-100795483D01*
X183345151Y-100799930D01*
G37*
G36*
X187305151Y-100799930D02*
G01*
X187354076Y-100799930D01*
X187396321Y-100808909D01*
X187435485Y-100812767D01*
X187484689Y-100827693D01*
X187538115Y-100839049D01*
X187572300Y-100854269D01*
X187604230Y-100863955D01*
X187654971Y-100891076D01*
X187710000Y-100915577D01*
X187735583Y-100934164D01*
X187759743Y-100947078D01*
X187809023Y-100987521D01*
X187862218Y-101026170D01*
X187879491Y-101045354D01*
X187896053Y-101058946D01*
X187940563Y-101113182D01*
X187988115Y-101165993D01*
X187998103Y-101183293D01*
X188007921Y-101195256D01*
X188044237Y-101263200D01*
X188082191Y-101328937D01*
X188086557Y-101342374D01*
X188091044Y-101350769D01*
X188115779Y-101432311D01*
X188140333Y-101507879D01*
X188141197Y-101516103D01*
X188142232Y-101519514D01*
X188152305Y-101621787D01*
X188160000Y-101695000D01*
X188152304Y-101768218D01*
X188142232Y-101870485D01*
X188141197Y-101873895D01*
X188140333Y-101882121D01*
X188115774Y-101957702D01*
X188091044Y-102039230D01*
X188086558Y-102047622D01*
X188082191Y-102061063D01*
X188044230Y-102126812D01*
X188007921Y-102194743D01*
X187998105Y-102206703D01*
X187988115Y-102224007D01*
X187940554Y-102276828D01*
X187896053Y-102331053D01*
X187879494Y-102344642D01*
X187862218Y-102363830D01*
X187809012Y-102402486D01*
X187759743Y-102442921D01*
X187735588Y-102455831D01*
X187710000Y-102474423D01*
X187654960Y-102498928D01*
X187604230Y-102526044D01*
X187572307Y-102535727D01*
X187538115Y-102550951D01*
X187484678Y-102562309D01*
X187435485Y-102577232D01*
X187396330Y-102581088D01*
X187354076Y-102590070D01*
X187305140Y-102590070D01*
X187260000Y-102594516D01*
X187214859Y-102590070D01*
X187165924Y-102590070D01*
X187123669Y-102581088D01*
X187084514Y-102577232D01*
X187035317Y-102562308D01*
X186981885Y-102550951D01*
X186947694Y-102535728D01*
X186915769Y-102526044D01*
X186865033Y-102498925D01*
X186810000Y-102474423D01*
X186784413Y-102455833D01*
X186760256Y-102442921D01*
X186710978Y-102402479D01*
X186657782Y-102363830D01*
X186640507Y-102344645D01*
X186623946Y-102331053D01*
X186579434Y-102276815D01*
X186531885Y-102224007D01*
X186521897Y-102206707D01*
X186512078Y-102194743D01*
X186475756Y-102126788D01*
X186437809Y-102061063D01*
X186433443Y-102047627D01*
X186428955Y-102039230D01*
X186404210Y-101957656D01*
X186379667Y-101882121D01*
X186378802Y-101873900D01*
X186377767Y-101870485D01*
X186367679Y-101768067D01*
X186360000Y-101695000D01*
X186367678Y-101621939D01*
X186377767Y-101519514D01*
X186378803Y-101516098D01*
X186379667Y-101507879D01*
X186404205Y-101432357D01*
X186428955Y-101350769D01*
X186433444Y-101342369D01*
X186437809Y-101328937D01*
X186475748Y-101263223D01*
X186512078Y-101195256D01*
X186521899Y-101183289D01*
X186531885Y-101165993D01*
X186579424Y-101113194D01*
X186623946Y-101058946D01*
X186640511Y-101045350D01*
X186657782Y-101026170D01*
X186710968Y-100987527D01*
X186760256Y-100947078D01*
X186784419Y-100934162D01*
X186810000Y-100915577D01*
X186865022Y-100891079D01*
X186915769Y-100863955D01*
X186947701Y-100854268D01*
X186981885Y-100839049D01*
X187035306Y-100827693D01*
X187084514Y-100812767D01*
X187123678Y-100808909D01*
X187165924Y-100799930D01*
X187214849Y-100799930D01*
X187260000Y-100795483D01*
X187305151Y-100799930D01*
G37*
G36*
X185703799Y-91740568D02*
G01*
X185977554Y-91817270D01*
X186238315Y-91930535D01*
X186481225Y-92078252D01*
X186701758Y-92257669D01*
X186895807Y-92465444D01*
X187059756Y-92697707D01*
X187190551Y-92950131D01*
X187285757Y-93218013D01*
X187343599Y-93496365D01*
X187363000Y-93780000D01*
X187343599Y-94063635D01*
X187285757Y-94341987D01*
X187190551Y-94609869D01*
X187059756Y-94862293D01*
X186895807Y-95094556D01*
X186701758Y-95302331D01*
X186481225Y-95481748D01*
X186238315Y-95629465D01*
X185977554Y-95742730D01*
X185703799Y-95819432D01*
X185422149Y-95858144D01*
X185137851Y-95858144D01*
X184856201Y-95819432D01*
X184582446Y-95742730D01*
X184321685Y-95629465D01*
X184078775Y-95481748D01*
X183858242Y-95302331D01*
X183664193Y-95094556D01*
X183500244Y-94862293D01*
X183369449Y-94609869D01*
X183274243Y-94341987D01*
X183216401Y-94063635D01*
X183197000Y-93780000D01*
X183216401Y-93496365D01*
X183274243Y-93218013D01*
X183369449Y-92950131D01*
X183500244Y-92697707D01*
X183664193Y-92465444D01*
X183858242Y-92257669D01*
X184078775Y-92078252D01*
X184321685Y-91930535D01*
X184582446Y-91817270D01*
X184856201Y-91740568D01*
X185137851Y-91701856D01*
X185422149Y-91701856D01*
X185703799Y-91740568D01*
G37*
M02*
